<svg width="870" height="1152" viewBox="0 0 870 1152" fill="none" xmlns="http://www.w3.org/2000/svg">
<g clip-path="url(#clip0_754_498)">
<path fill-rule="evenodd" clip-rule="evenodd" d="M667 564.5C656.141 597.182 658.569 720.356 660.603 803L643.769 803C643.507 717.976 645.556 593.644 650 560.5L667 564.5ZM566.785 495.212C605.309 550.949 629.154 689.341 635.591 803L617.673 803C613.786 713.508 598.435 545.133 551.229 503.344C556.664 501.269 562.542 498.038 566.785 495.212Z" fill="url(#paint0_linear_754_498)"/>
<path fill-rule="evenodd" clip-rule="evenodd" d="M691.509 803C696.409 795.131 702.883 786.954 709.5 780.5C706.923 778.043 704.023 775.026 701 771.5C691.627 780.594 683.238 791.782 676.971 803L691.509 803ZM588.063 803C582.906 794.955 575.972 786.283 569 779.5C566.173 782.561 563.48 786.086 560.5 789C564.714 793.114 569.407 798.264 572.887 803L588.063 803Z" fill="url(#paint1_linear_754_498)"/>
<path d="M707.336 1203C745.266 1062.32 789 946.62 789 802L654.45 802L497 802C497 946.625 540.734 1062.31 578.664 1203L707.336 1203Z" fill="url(#paint2_linear_754_498)"/>
<path fill-rule="evenodd" clip-rule="evenodd" d="M649.828 560.685C542.305 454.515 629.052 76.0182 730.666 199.647C768.498 245.689 792.946 256.638 818.83 268.229C836.784 276.269 855.429 284.619 879.711 305.205C961.312 374.375 726 564.602 667.412 564.602C667.412 564.602 661.433 565.367 658 564.602C654.567 563.837 649.828 560.685 649.828 560.685ZM568.93 779.604C644.267 677.026 404.538 373.316 359.728 526.952C343.045 584.158 324.871 603.84 305.63 624.677C292.283 639.131 278.422 654.141 264.191 682.618C216.365 778.303 513.544 828.608 560.571 788.905C560.571 788.905 563.713 786.044 565.5 784C566.933 782.36 568.93 779.604 568.93 779.604ZM709 780.5C756.022 820.203 1053.64 770.01 1005.81 674.325C991.578 645.845 977.717 630.835 964.369 616.38C945.129 595.544 926.955 575.863 910.273 518.654C865.462 365.023 625.663 668.922 701 771.5C704 775.585 705.066 777.893 709 780.5ZM399.681 163.728C468.101 19.054 644.914 365.82 566.5 495C566.5 495 564 498 561 500C557.445 502.37 551.5 503 551.5 503C490.973 529.025 218.566 389.398 280.849 302.421C299.383 276.541 315.431 263.899 330.884 251.726C353.163 234.176 374.205 217.6 399.681 163.728Z" fill="#23D9B7"/>
<path fill-rule="evenodd" clip-rule="evenodd" d="M704.5 775.5L922.673 554.219C918.456 544.205 914.32 532.534 910.273 518.655C865.176 364 620 673.5 704.5 775.5Z" fill="url(#paint3_linear_754_498)"/>
<path fill-rule="evenodd" clip-rule="evenodd" d="M563 499.125L357.868 229C348.942 238.251 340.184 245.169 331.226 252.244C315.766 264.455 299.711 277.136 281.168 303.097C218.856 390.345 492.391 529.905 552.946 503.799C552.946 503.799 554.447 503.799 557.448 502.294C560.45 500.789 563 499.125 563 499.125Z" fill="url(#paint4_linear_754_498)"/>
<path fill-rule="evenodd" clip-rule="evenodd" d="M560.571 788.905C513.544 828.608 216.365 778.303 264.191 682.618C278.422 654.14 292.283 639.131 305.63 624.677C313.57 616.078 321.329 607.676 328.876 596.753L566 783.5C566 783.5 565.15 785.039 560.571 788.905Z" fill="url(#paint5_linear_754_498)"/>
<path fill-rule="evenodd" clip-rule="evenodd" d="M649.819 560.744L656 564L779.87 247.341C765.624 237.38 749.867 223.05 730.661 199.676C629.047 76.048 542.301 454.544 649.824 560.714C649.822 560.724 649.821 560.734 649.819 560.744Z" fill="url(#paint6_linear_754_498)"/>
<path fill-rule="evenodd" clip-rule="evenodd" d="M434.884 1147C525.394 1147 598.767 1073.96 598.767 983.867C598.767 893.771 525.394 820.734 434.884 820.734C344.373 820.734 271 893.771 271 983.867C271 1073.96 344.373 1147 434.884 1147Z" fill="#130237"/>
<path fill-rule="evenodd" clip-rule="evenodd" d="M434.835 1065.13C480.09 1065.13 516.777 1028.61 516.777 983.566C516.777 938.519 480.09 902 434.835 902C389.58 902 352.893 938.519 352.893 983.566C352.893 1028.61 389.58 1065.13 434.835 1065.13Z" fill="url(#paint7_linear_754_498)"/>
<path fill-rule="evenodd" clip-rule="evenodd" d="M411.893 1012.8L411.895 987.212L415.199 983.725L411.895 980.559L411.893 954.967L417.926 949L452.567 949.192L458.534 955.225L458.535 980.818L454.996 983.594L458.535 986.953L458.534 1012.55L452.567 1018.58L417.926 1018.77L411.893 1012.8ZM420.225 954.436L416.695 958.322L416.693 977.896L420.229 981.076L449.574 981.076L452.756 977.894L452.755 958.322L449.574 954.433L420.225 954.436ZM420.225 1013.34L416.695 1009.45L416.693 989.875L420.229 986.695L449.574 986.695L452.756 989.877L452.755 1009.45L449.574 1013.34L420.225 1013.34Z" fill="#130237"/>
<path fill-rule="evenodd" clip-rule="evenodd" d="M435 14C201.384 14 12 203.384 12 437V1104C12 1123.88 28.1178 1140 48 1140H822C841.882 1140 858 1123.88 858 1104V437C858 203.384 668.616 14 435 14ZM9 437C9 201.727 199.727 11 435 11C670.273 11 861 201.727 861 437V1104C861 1125.54 843.539 1143 822 1143H48C26.4609 1143 9 1125.54 9 1104V437Z" fill="#FECFFE"/>
<path fill-rule="evenodd" clip-rule="evenodd" d="M870 1152L870 -3.80289e-05L0 0L0 1152L870 1152ZM9 437C9 201.727 199.727 11 435 11C670.273 11 861 201.727 861 437L861 1104C861 1125.54 843.539 1143 822 1143L48 1143C26.4609 1143 9 1125.54 9 1104L9 437Z" fill="#F7F3FF"/>
</g>
<defs>
<linearGradient id="paint0_linear_754_498" x1="598" y1="675" x2="648.226" y2="538.078" gradientUnits="userSpaceOnUse">
<stop stop-color="#23D9B7"/>
<stop offset="1" stop-color="#1879B2"/>
</linearGradient>
<linearGradient id="paint1_linear_754_498" x1="590" y1="871" x2="577.915" y2="765.629" gradientUnits="userSpaceOnUse">
<stop stop-color="#23D9B7"/>
<stop offset="1" stop-color="#1879B2"/>
</linearGradient>
<linearGradient id="paint2_linear_754_498" x1="643.144" y1="802.292" x2="698.905" y2="1241.63" gradientUnits="userSpaceOnUse">
<stop stop-color="#F98E6C"/>
<stop offset="1" stop-color="#F56644"/>
</linearGradient>
<linearGradient id="paint3_linear_754_498" x1="866" y1="593" x2="304.832" y2="733.312" gradientUnits="userSpaceOnUse">
<stop stop-color="#23D9B7"/>
<stop offset="1" stop-color="#1879B2"/>
</linearGradient>
<linearGradient id="paint4_linear_754_498" x1="417.383" y1="337.783" x2="666.158" y2="750.361" gradientUnits="userSpaceOnUse">
<stop stop-color="#23D9B7"/>
<stop offset="1" stop-color="#1879B2"/>
</linearGradient>
<linearGradient id="paint5_linear_754_498" x1="362" y1="661" x2="697.428" y2="1085.5" gradientUnits="userSpaceOnUse">
<stop stop-color="#23D9B7"/>
<stop offset="1" stop-color="#1879B2"/>
</linearGradient>
<linearGradient id="paint6_linear_754_498" x1="690" y1="269" x2="344.06" y2="613.429" gradientUnits="userSpaceOnUse">
<stop stop-color="#23D9B7"/>
<stop offset="1" stop-color="#1879B2"/>
</linearGradient>
<linearGradient id="paint7_linear_754_498" x1="434.916" y1="902.119" x2="451.483" y2="1082.21" gradientUnits="userSpaceOnUse">
<stop stop-color="#F7F3FF"/>
<stop offset="1" stop-color="#AA86F8"/>
</linearGradient>
<clipPath id="clip0_754_498">
<rect width="1152" height="870" fill="white" transform="translate(0 1152) rotate(-90)"/>
</clipPath>
</defs>
</svg>
