<svg width="870" height="1152" viewBox="0 0 870 1152" fill="none" xmlns="http://www.w3.org/2000/svg">
<g clip-path="url(#clip0_754_498)">
<path fill-rule="evenodd" clip-rule="evenodd" d="M719.275 786.634L721.812 786.634L721.812 752.274L626.179 752.274C632.413 740.545 639.912 729.69 649.434 720.607C696.456 760.31 993.636 710.01 945.809 614.325C931.578 585.845 917.717 570.835 904.369 556.38C885.129 535.544 866.955 515.863 850.273 458.654C805.462 305.023 565.738 608.728 641.075 711.306C628.663 723.056 619.525 737.129 612.133 752.274L600.834 752.274C598.744 668.642 595.566 536.239 607.412 504.602C666.259 522.612 901.312 314.375 819.711 245.205C795.429 224.619 776.784 216.269 758.83 208.229C732.946 196.638 708.498 185.689 670.666 139.647C569.052 16.0184 482.305 394.515 589.828 500.685C585.042 532.317 583.352 665.884 583.807 752.274L576.081 752.274C570.413 636.276 546.07 490.716 506.061 434.177C584.475 304.998 408.101 -40.9458 339.681 103.729C314.205 157.6 293.163 174.176 270.884 191.726C255.431 203.899 239.383 216.541 220.849 242.422C158.566 329.398 429.434 468.284 489.961 442.258C539.867 483.54 554.814 664.947 558.047 752.273L533.567 752.273C526.969 740.285 519.035 729.173 508.93 719.604C584.267 617.026 344.538 313.316 299.728 466.952C283.045 524.159 264.871 543.84 245.63 564.677C232.283 579.131 218.422 594.141 204.191 622.618C156.365 718.303 453.544 768.608 500.571 728.905C507.802 735.802 513.864 743.721 519.101 752.273L449.066 752.273L449.066 754.15L586.743 754.15L720 754.15C720 765.137 719.275 786.634 719.275 786.634Z" fill="#23D9B7"/>
<g style="mix-blend-mode:multiply">
<path fill-rule="evenodd" clip-rule="evenodd" d="M670.527 754.15L669.558 752.274L626.179 752.274C632.241 740.867 639.499 730.289 648.652 721.361C646.075 718.904 643.11 715.778 640.088 712.252C628.176 723.808 619.328 737.533 612.133 752.274L600.834 752.274C598.773 669.803 595.654 539.905 606.927 505.977C606.205 505.753 605.158 505.659 603.797 505.538C600.668 505.258 595.882 504.831 589.595 502.328C584.987 536.698 583.359 667.305 583.807 752.274L576.08 752.274C570.448 636.977 546.364 492.474 506.785 435.212C502.542 438.038 496.664 441.269 491.229 443.344C540.12 486.625 554.841 665.691 558.047 752.273L533.567 752.273C527.206 740.717 519.604 729.973 510.012 720.642C509.937 720.724 509.861 720.806 509.785 720.888C507.319 723.559 504.279 726.852 501.38 729.685C508.255 736.397 514.06 744.042 519.101 752.273L507.265 752.273C508.025 752.918 508.775 753.546 509.504 754.15L586.743 754.15L670.527 754.15Z" fill="url(#paint0_linear_754_498)"/>
</g>
<g style="mix-blend-mode:multiply">
<path fill-rule="evenodd" clip-rule="evenodd" d="M637.125 705.257L647 708L862.672 494.219C858.455 484.205 854.32 472.534 850.273 458.655C806.312 307.937 574.761 597.373 637.125 705.257Z" fill="url(#paint1_linear_754_498)"/>
</g>
<g style="mix-blend-mode:multiply">
<path fill-rule="evenodd" clip-rule="evenodd" d="M502.549 437.841L297.513 168.555C288.591 177.777 279.837 184.673 270.884 191.726L270.884 191.726C255.431 203.899 239.383 216.541 220.849 242.422C158.566 329.398 429.434 468.284 489.961 442.258C491.529 443.556 493.063 444.991 494.563 446.558C493.47 445.416 492.358 444.344 491.229 443.344C495.022 441.895 499.031 439.885 502.549 437.841Z" fill="url(#paint2_linear_754_498)"/>
</g>
<g style="mix-blend-mode:multiply">
<path fill-rule="evenodd" clip-rule="evenodd" d="M503.481 731.798C502.532 730.815 501.563 729.85 500.571 728.905C453.544 768.608 156.365 718.303 204.191 622.618C218.422 594.14 232.283 579.131 245.63 564.677L245.63 564.677L245.63 564.676C253.57 556.078 261.329 547.676 268.876 536.753L507 723L503.481 731.798Z" fill="url(#paint3_linear_754_498)"/>
</g>
<g style="mix-blend-mode:multiply">
<path fill-rule="evenodd" clip-rule="evenodd" d="M589.824 500.714L593 502L719.874 187.311C705.628 177.35 689.872 163.021 670.666 139.647C569.052 16.0184 482.305 394.515 589.828 500.685C589.827 500.695 589.825 500.705 589.824 500.714Z" fill="url(#paint4_linear_754_498)"/>
</g>
<path d="M660.671 1147C698.673 1005.03 742.491 888.28 742.491 742.34L607.684 742.34L449.934 742.34C449.934 888.285 493.752 1005.03 531.754 1147L660.671 1147Z" fill="#F98E6C"/>
<g style="mix-blend-mode:multiply">
<path d="M660.671 1147C698.673 1005.03 742.491 888.28 742.491 742.34L607.684 742.34L449.934 742.34C449.934 888.285 493.752 1005.03 531.754 1147L660.671 1147Z" fill="url(#paint5_linear_754_498)"/>
</g>
<path fill-rule="evenodd" clip-rule="evenodd" d="M437.991 1147C528.501 1147 601.874 1073.96 601.874 983.867C601.874 893.771 528.501 820.734 437.991 820.734C347.48 820.734 274.107 893.771 274.107 983.867C274.107 1073.96 347.48 1147 437.991 1147Z" fill="#020237"/>
<path fill-rule="evenodd" clip-rule="evenodd" d="M437.991 1065.43C483.246 1065.43 519.933 1028.92 519.933 983.867C519.933 938.819 483.246 902.301 437.991 902.301C392.735 902.301 356.049 938.819 356.049 983.867C356.049 1028.92 392.735 1065.43 437.991 1065.43Z" fill="#F7F3FF"/>
<g style="mix-blend-mode:multiply">
<path fill-rule="evenodd" clip-rule="evenodd" d="M437.991 1065.43C483.246 1065.43 519.933 1028.92 519.933 983.867C519.933 938.819 483.246 902.301 437.991 902.301C392.735 902.301 356.049 938.819 356.049 983.867C356.049 1028.92 392.735 1065.43 437.991 1065.43Z" fill="url(#paint6_linear_754_498)"/>
</g>
<path fill-rule="evenodd" clip-rule="evenodd" d="M410 1013.8L410.002 988.212L413.306 984.725L410.002 981.559L410 955.967L416.033 950L450.674 950.192L456.641 956.225L456.642 981.818L453.103 984.594L456.642 987.953L456.641 1013.55L450.674 1019.58L416.033 1019.77L410 1013.8ZM418.332 955.436L414.802 959.322L414.8 978.896L418.336 982.076L447.681 982.076L450.863 978.894L450.862 959.322L447.681 955.433L418.332 955.436ZM418.332 1014.34L414.802 1010.45L414.8 990.875L418.336 987.695L447.681 987.695L450.863 990.877L450.862 1010.45L447.681 1014.34L418.332 1014.34Z" fill="#020237"/>
<path fill-rule="evenodd" clip-rule="evenodd" d="M435 14C201.384 14 12 203.384 12 437V1104C12 1123.88 28.1178 1140 48 1140H822C841.882 1140 858 1123.88 858 1104V437C858 203.384 668.616 14 435 14ZM9 437C9 201.727 199.727 11 435 11C670.273 11 861 201.727 861 437V1104C861 1125.54 843.539 1143 822 1143H48C26.4609 1143 9 1125.54 9 1104V437Z" fill="#FECFFE"/>
<path fill-rule="evenodd" clip-rule="evenodd" d="M870 1152L870 -3.80289e-05L0 0L0 1152L870 1152ZM9 437C9 201.727 199.727 11 435 11C670.273 11 861 201.727 861 437L861 1104C861 1125.54 843.539 1143 822 1143L48 1143C26.4609 1143 9 1125.54 9 1104L9 437Z" fill="#F7F3FF"/>
</g>
<defs>
<linearGradient id="paint0_linear_754_498" x1="535" y1="422" x2="603" y2="846" gradientUnits="userSpaceOnUse">
<stop stop-color="#AA86F8"/>
<stop offset="1" stop-color="#AA86F8" stop-opacity="0"/>
</linearGradient>
<linearGradient id="paint1_linear_754_498" x1="-191" y1="514" x2="862.9" y2="540.061" gradientUnits="userSpaceOnUse">
<stop stop-color="#AA86F8"/>
<stop offset="1" stop-color="#AA86F8" stop-opacity="0"/>
</linearGradient>
<linearGradient id="paint2_linear_754_498" x1="173" y1="780" x2="472.173" y2="310.85" gradientUnits="userSpaceOnUse">
<stop stop-color="#AA86F8"/>
<stop offset="1" stop-color="#AA86F8" stop-opacity="0"/>
</linearGradient>
<linearGradient id="paint3_linear_754_498" x1="353" y1="1260" x2="622.458" y2="700.723" gradientUnits="userSpaceOnUse">
<stop stop-color="#AA86F8"/>
<stop offset="1" stop-color="#AA86F8" stop-opacity="0"/>
</linearGradient>
<linearGradient id="paint4_linear_754_498" x1="271" y1="86" x2="671.983" y2="72.4123" gradientUnits="userSpaceOnUse">
<stop stop-color="#AA86F8"/>
<stop offset="1" stop-color="#AA86F8" stop-opacity="0"/>
</linearGradient>
<linearGradient id="paint5_linear_754_498" x1="358.678" y1="888.603" x2="769.331" y2="888.603" gradientUnits="userSpaceOnUse">
<stop stop-color="#F98E6C"/>
<stop offset="1" stop-color="#F98E6C" stop-opacity="0"/>
</linearGradient>
<linearGradient id="paint6_linear_754_498" x1="437.991" y1="1208.43" x2="437.991" y2="821.741" gradientUnits="userSpaceOnUse">
<stop stop-color="#AA86F8"/>
<stop offset="1" stop-color="#D38DF1" stop-opacity="0"/>
</linearGradient>
<clipPath id="clip0_754_498">
<rect width="1152" height="870" fill="white" transform="translate(0 1152) rotate(-90)"/>
</clipPath>
</defs>
</svg>
