<svg width="870" height="1152" viewBox="0 0 870 1152" fill="none" xmlns="http://www.w3.org/2000/svg">
<g clip-path="url(#clip0_754_498)">
<path fill-rule="evenodd" clip-rule="evenodd" d="M607 504.5C596.141 537.182 598.569 660.356 600.603 743L583.769 743C583.507 657.976 585.556 533.644 590 500.5L607 504.5ZM506.785 435.212C545.309 490.949 569.154 629.341 575.591 743L557.673 743C553.786 653.508 538.435 485.133 491.229 443.344C496.664 441.269 502.542 438.038 506.785 435.212Z" fill="url(#paint0_linear_754_498)"/>
<path fill-rule="evenodd" clip-rule="evenodd" d="M631.509 743C636.409 735.131 642.883 726.954 649.5 720.5C646.923 718.043 644.023 715.026 641 711.5C631.627 720.594 623.238 731.782 616.971 743L631.509 743ZM528.063 743C522.906 734.955 515.972 726.283 509 719.5C506.173 722.561 503.48 726.086 500.5 729C504.714 733.114 509.407 738.264 512.887 743L528.063 743Z" fill="url(#paint1_linear_754_498)"/>
<path d="M647.336 1143C685.266 1002.32 729 886.62 729 742L594.45 742L437 742C437 886.625 480.734 1002.31 518.664 1143L647.336 1143Z" fill="url(#paint2_linear_754_498)"/>
<path fill-rule="evenodd" clip-rule="evenodd" d="M589.828 500.685C482.305 394.515 569.052 16.0182 670.666 139.647C708.498 185.689 732.946 196.638 758.83 208.229C776.784 216.269 795.429 224.619 819.711 245.205C901.312 314.375 666 504.602 607.412 504.602C607.412 504.602 601.433 505.367 598 504.602C594.567 503.837 589.828 500.685 589.828 500.685ZM508.93 719.604C584.267 617.026 344.538 313.316 299.728 466.952C283.045 524.158 264.871 543.84 245.63 564.677C232.283 579.131 218.422 594.141 204.191 622.618C156.365 718.303 453.544 768.608 500.571 728.905C500.571 728.905 503.713 726.044 505.5 724C506.933 722.36 508.93 719.604 508.93 719.604ZM649 720.5C696.022 760.203 993.636 710.01 945.809 614.325C931.578 585.845 917.717 570.835 904.369 556.38C885.129 535.544 866.955 515.863 850.273 458.654C805.462 305.023 565.663 608.922 641 711.5C644 715.585 645.066 717.893 649 720.5ZM339.681 103.728C408.101 -40.946 584.914 305.82 506.5 435C506.5 435 504 438 501 440C497.445 442.37 491.5 443 491.5 443C430.973 469.025 158.566 329.398 220.849 242.421C239.383 216.541 255.431 203.899 270.884 191.726C293.163 174.176 314.205 157.6 339.681 103.728Z" fill="#23D9B7"/>
<path fill-rule="evenodd" clip-rule="evenodd" d="M644.5 715.5L862.673 494.219C858.456 484.205 854.32 472.534 850.273 458.655C805.176 304 560 613.5 644.5 715.5Z" fill="url(#paint3_linear_754_498)"/>
<path fill-rule="evenodd" clip-rule="evenodd" d="M503 439.125L297.868 169C288.942 178.251 280.184 185.169 271.226 192.244C255.766 204.455 239.711 217.136 221.168 243.097C158.856 330.345 432.391 469.905 492.946 443.799C492.946 443.799 494.447 443.799 497.448 442.294C500.45 440.789 503 439.125 503 439.125Z" fill="url(#paint4_linear_754_498)"/>
<path fill-rule="evenodd" clip-rule="evenodd" d="M500.571 728.905C453.544 768.608 156.365 718.303 204.191 622.618C218.422 594.14 232.283 579.131 245.63 564.677C253.57 556.078 261.329 547.676 268.876 536.753L506 723.5C506 723.5 505.15 725.039 500.571 728.905Z" fill="url(#paint5_linear_754_498)"/>
<path fill-rule="evenodd" clip-rule="evenodd" d="M589.819 500.744L596 504L719.87 187.341C705.624 177.38 689.867 163.05 670.661 139.676C569.047 16.048 482.301 394.544 589.824 500.714C589.822 500.724 589.821 500.734 589.819 500.744Z" fill="url(#paint6_linear_754_498)"/>
<path fill-rule="evenodd" clip-rule="evenodd" d="M437.991 1147C528.501 1147 601.874 1073.96 601.874 983.867C601.874 893.771 528.501 820.734 437.991 820.734C347.48 820.734 274.107 893.771 274.107 983.867C274.107 1073.96 347.48 1147 437.991 1147Z" fill="#130237"/>
<path fill-rule="evenodd" clip-rule="evenodd" d="M437.942 1065.13C483.197 1065.13 519.884 1028.61 519.884 983.566C519.884 938.519 483.197 902 437.942 902C392.687 902 356 938.519 356 983.566C356 1028.61 392.687 1065.13 437.942 1065.13Z" fill="url(#paint7_linear_754_498)"/>
<path fill-rule="evenodd" clip-rule="evenodd" d="M415 1012.8L415.002 987.212L418.306 983.725L415.002 980.559L415 954.967L421.033 949L455.674 949.192L461.641 955.225L461.642 980.818L458.103 983.594L461.642 986.953L461.641 1012.55L455.674 1018.58L421.033 1018.77L415 1012.8ZM423.332 954.436L419.802 958.322L419.8 977.896L423.336 981.076L452.681 981.076L455.863 977.894L455.862 958.322L452.681 954.433L423.332 954.436ZM423.332 1013.34L419.802 1009.45L419.8 989.875L423.336 986.695L452.681 986.695L455.863 989.877L455.862 1009.45L452.681 1013.34L423.332 1013.34Z" fill="#130237"/>
<path fill-rule="evenodd" clip-rule="evenodd" d="M435 14C201.384 14 12 203.384 12 437V1104C12 1123.88 28.1178 1140 48 1140H822C841.882 1140 858 1123.88 858 1104V437C858 203.384 668.616 14 435 14ZM9 437C9 201.727 199.727 11 435 11C670.273 11 861 201.727 861 437V1104C861 1125.54 843.539 1143 822 1143H48C26.4609 1143 9 1125.54 9 1104V437Z" fill="#FECFFE"/>
<path fill-rule="evenodd" clip-rule="evenodd" d="M870 1152L870 -3.80289e-05L0 0L0 1152L870 1152ZM9 437C9 201.727 199.727 11 435 11C670.273 11 861 201.727 861 437L861 1104C861 1125.54 843.539 1143 822 1143L48 1143C26.4609 1143 9 1125.54 9 1104L9 437Z" fill="#F7F3FF"/>
</g>
<defs>
<linearGradient id="paint0_linear_754_498" x1="538" y1="615" x2="588.226" y2="478.078" gradientUnits="userSpaceOnUse">
<stop stop-color="#23D9B7"/>
<stop offset="1" stop-color="#1879B2"/>
</linearGradient>
<linearGradient id="paint1_linear_754_498" x1="530" y1="811" x2="517.915" y2="705.629" gradientUnits="userSpaceOnUse">
<stop stop-color="#23D9B7"/>
<stop offset="1" stop-color="#1879B2"/>
</linearGradient>
<linearGradient id="paint2_linear_754_498" x1="583.144" y1="742.292" x2="638.905" y2="1181.63" gradientUnits="userSpaceOnUse">
<stop stop-color="#F98E6C"/>
<stop offset="1" stop-color="#F56644"/>
</linearGradient>
<linearGradient id="paint3_linear_754_498" x1="806" y1="533" x2="244.832" y2="673.312" gradientUnits="userSpaceOnUse">
<stop stop-color="#23D9B7"/>
<stop offset="1" stop-color="#1879B2"/>
</linearGradient>
<linearGradient id="paint4_linear_754_498" x1="357.383" y1="277.783" x2="606.158" y2="690.361" gradientUnits="userSpaceOnUse">
<stop stop-color="#23D9B7"/>
<stop offset="1" stop-color="#1879B2"/>
</linearGradient>
<linearGradient id="paint5_linear_754_498" x1="302" y1="601" x2="637.428" y2="1025.5" gradientUnits="userSpaceOnUse">
<stop stop-color="#23D9B7"/>
<stop offset="1" stop-color="#1879B2"/>
</linearGradient>
<linearGradient id="paint6_linear_754_498" x1="630" y1="209" x2="284.06" y2="553.429" gradientUnits="userSpaceOnUse">
<stop stop-color="#23D9B7"/>
<stop offset="1" stop-color="#1879B2"/>
</linearGradient>
<linearGradient id="paint7_linear_754_498" x1="438.023" y1="902.119" x2="454.59" y2="1082.21" gradientUnits="userSpaceOnUse">
<stop stop-color="#F7F3FF"/>
<stop offset="1" stop-color="#AA86F8"/>
</linearGradient>
<clipPath id="clip0_754_498">
<rect width="1152" height="870" fill="white" transform="translate(0 1152) rotate(-90)"/>
</clipPath>
</defs>
</svg>
