<svg width="860" height="1144" viewBox="0 0 860 1144" fill="none" xmlns="http://www.w3.org/2000/svg">
<g clip-path="url(#clip0_754_498)">
<path fill-rule="evenodd" clip-rule="evenodd" d="M716.275 783.634L718.812 783.634L718.812 749.274L623.179 749.274C629.413 737.545 636.912 726.69 646.434 717.607C693.456 757.31 990.636 707.01 942.809 611.325C928.578 582.845 914.717 567.835 901.369 553.38C882.129 532.544 863.955 512.863 847.273 455.654C802.462 302.023 562.738 605.728 638.075 708.306C625.663 720.056 616.525 734.129 609.133 749.274L597.834 749.274C595.744 665.642 592.566 533.239 604.412 501.602C663.259 519.612 898.312 311.375 816.711 242.205C792.429 221.619 773.784 213.269 755.83 205.229C729.946 193.638 705.498 182.689 667.666 136.647C566.052 13.0184 479.305 391.515 586.828 497.685C582.042 529.317 580.352 662.884 580.807 749.274L573.081 749.274C567.413 633.276 543.07 487.716 503.061 431.177C581.475 301.998 405.101 -43.9458 336.681 100.729C311.205 154.6 290.163 171.176 267.884 188.726C252.431 200.899 236.383 213.541 217.849 239.422C155.566 326.398 426.434 465.284 486.961 439.258C536.867 480.54 551.814 661.947 555.047 749.273L530.567 749.273C523.969 737.285 516.035 726.173 505.93 716.604C581.267 614.026 341.538 310.316 296.728 463.952C280.045 521.159 261.871 540.84 242.63 561.677C229.283 576.131 215.422 591.141 201.191 619.618C153.365 715.303 450.544 765.608 497.571 725.905C504.802 732.802 510.864 740.721 516.101 749.273L446.066 749.273L446.066 751.15L583.743 751.15L717 751.15C717 762.137 716.275 783.634 716.275 783.634Z" fill="#23D9B7"/>
<g style="mix-blend-mode:multiply">
<path fill-rule="evenodd" clip-rule="evenodd" d="M667.527 751.15L666.558 749.274L623.179 749.274C629.241 737.867 636.499 727.289 645.652 718.361C643.075 715.904 640.11 712.778 637.088 709.252C625.176 720.808 616.328 734.533 609.133 749.274L597.834 749.274C595.773 666.803 592.654 536.905 603.927 502.977C603.205 502.753 602.158 502.659 600.797 502.538C597.668 502.258 592.882 501.831 586.595 499.328C581.987 533.698 580.359 664.305 580.807 749.274L573.08 749.274C567.448 633.977 543.364 489.474 503.785 432.212C499.542 435.038 493.664 438.269 488.229 440.344C537.12 483.625 551.841 662.691 555.047 749.273L530.567 749.273C524.206 737.717 516.604 726.973 507.012 717.642C506.937 717.724 506.861 717.806 506.785 717.888C504.319 720.559 501.279 723.852 498.38 726.685C505.255 733.397 511.06 741.042 516.101 749.273L504.265 749.273C505.025 749.918 505.775 750.546 506.504 751.15L583.743 751.15L667.527 751.15Z" fill="url(#paint0_linear_754_498)"/>
</g>
<g style="mix-blend-mode:multiply">
<path fill-rule="evenodd" clip-rule="evenodd" d="M634.125 702.257L644 705L859.672 491.219C855.455 481.205 851.32 469.534 847.273 455.655C803.312 304.937 571.761 594.373 634.125 702.257Z" fill="url(#paint1_linear_754_498)"/>
</g>
<g style="mix-blend-mode:multiply">
<path fill-rule="evenodd" clip-rule="evenodd" d="M499.549 434.841L294.513 165.555C285.591 174.777 276.837 181.673 267.884 188.726L267.884 188.726C252.431 200.899 236.383 213.541 217.849 239.422C155.566 326.398 426.434 465.284 486.961 439.258C488.529 440.556 490.063 441.991 491.563 443.558C490.47 442.416 489.358 441.344 488.229 440.344C492.022 438.895 496.031 436.885 499.549 434.841Z" fill="url(#paint2_linear_754_498)"/>
</g>
<g style="mix-blend-mode:multiply">
<path fill-rule="evenodd" clip-rule="evenodd" d="M500.481 728.798C499.532 727.815 498.563 726.85 497.571 725.905C450.544 765.608 153.365 715.303 201.191 619.618C215.422 591.14 229.283 576.131 242.63 561.677L242.63 561.677L242.63 561.676C250.57 553.078 258.329 544.676 265.876 533.753L504 720L500.481 728.798Z" fill="url(#paint3_linear_754_498)"/>
</g>
<g style="mix-blend-mode:multiply">
<path fill-rule="evenodd" clip-rule="evenodd" d="M586.824 497.714L590 499L716.874 184.311C702.628 174.35 686.872 160.021 667.666 136.647C566.052 13.0184 479.305 391.515 586.828 497.685C586.827 497.695 586.825 497.705 586.824 497.714Z" fill="url(#paint4_linear_754_498)"/>
</g>
<path d="M650.121 1144C687.686 1003.02 731 887.077 731 742.15H597.743H441.806C441.806 887.082 485.12 1003.01 522.685 1144H650.121Z" fill="#7D07F2"/>
<path fill-rule="evenodd" clip-rule="evenodd" d="M674.481 1056.63C673.967 1058.44 673.452 1060.25 672.937 1062.06C672.445 1063.79 671.951 1065.52 671.458 1067.25C645.212 1067.27 625.422 1068.12 603.816 1070.06C590.802 1071.2 581.451 1072.55 561.902 1075.98C535.255 1080.67 530.073 1081.37 511.2 1082.72C509.435 1082.84 507.651 1082.97 505.849 1083.09C504.78 1079.32 503.712 1075.56 502.646 1071.81C510.704 1070.5 519.106 1069.05 527.932 1067.45C578.352 1058.26 608.041 1055.93 667.25 1056.5C669.553 1056.53 671.966 1056.57 674.481 1056.63ZM677.173 1047.17C676.749 1048.66 676.324 1050.15 675.898 1051.65C664.437 1051.36 652.55 1051.24 639.364 1051.24C593.153 1051.27 566.278 1052.57 498.997 1058.99C498.27 1056.44 497.545 1053.89 496.822 1051.35C540.902 1048.26 567.354 1047.24 604.999 1046.87C620.164 1046.69 652.717 1046.87 677.173 1047.17ZM683.006 1026.52C682.404 1028.67 681.8 1030.82 681.194 1032.96C660.751 1033.14 642.046 1033.32 624.998 1033.52C579.147 1034.07 534.25 1034.24 491.917 1034.04C491.633 1033.04 491.35 1032.03 491.067 1031.03C508.157 1030.96 524.28 1030.8 534.016 1030.54C544.551 1030.25 571.029 1029.48 592.887 1028.82C628.448 1027.74 655.113 1027.01 683.006 1026.52ZM696.441 977.218C695.764 979.808 695.081 982.4 694.392 984.993C689.126 986.237 683.241 987.675 676.545 989.346C642.406 997.919 627.984 1001.02 617.111 1002.25C599.2 1004.24 535.785 1005.77 483.935 1005.42C483.702 1004.57 483.47 1003.72 483.238 1002.87C508.047 1003.02 539.33 1002.77 550.353 1002.16C608.927 998.9 649.705 991.973 696.441 977.218ZM711.961 912.256C711.566 914.117 711.167 915.976 710.763 917.835C698.486 915.406 686.266 912.307 667.25 907.244C640.716 900.181 627.871 897.528 609.562 895.323C582.915 892.139 563.198 891.24 501.341 890.424C491.71 890.306 474.78 889.972 456.289 889.562C455.673 886.301 455.072 883.034 454.488 879.76C481.579 879.905 498.697 880.311 516.27 881.034C553.339 882.626 589.732 886.015 618.632 890.628C635.646 893.363 641.899 894.833 664.996 901.651C671.644 903.611 679.249 905.775 681.897 906.428C687.812 907.938 695.587 909.612 695.192 909.326C695.023 909.204 690.009 907.448 684.038 905.448C671.7 901.284 657.222 897.038 650.744 895.691C643.702 894.221 646.237 894.302 654.969 895.854C669.729 898.508 679.813 901.325 690.009 905.734C696.831 908.68 701.146 910.191 711.961 912.256ZM716.475 889.782C715.934 892.643 715.38 895.5 714.814 898.352C713.321 898.093 711.831 897.832 710.347 897.568C698.403 895.445 692.657 894.098 665.954 887.403C647.138 882.667 641.955 881.81 620.491 880.013C576.437 876.339 529.228 873.767 480.497 872.379C474.761 872.211 465.056 872.088 453.139 872.008C452.71 869.478 452.291 866.943 451.883 864.404C529.808 864.659 566.902 865.392 589.732 866.949C611.14 868.459 630.913 870.746 646.124 873.522C647.927 873.889 650.462 874.257 651.758 874.338C656.377 874.747 673.841 878.87 707.811 887.566C710.916 888.362 713.794 889.098 716.475 889.782ZM730.024 779.842C729.939 781.48 729.849 783.114 729.753 784.746C727.76 785.343 725.706 785.962 723.585 786.603C672.827 801.954 661.56 804.403 614.52 810.364C557.485 817.612 503.62 822.171 446.443 824.562C446.08 821.303 445.736 818.033 445.412 814.752C461.433 814.276 476.561 813.763 488.666 813.262C579.648 809.506 643.871 801.423 705.614 785.868C714.335 783.68 722.433 781.679 730.024 779.842ZM720.797 742.151L731 742.151C731 746.214 730.966 750.255 730.899 754.275C722.333 758.679 710.27 763.985 709.333 763.577C709.051 763.455 708.938 763.495 709.107 763.74C709.727 764.434 685.784 772.11 684.883 771.497C684.77 771.416 686.686 770.803 689.052 770.191C693.953 768.884 704.657 765.537 706.403 764.72C707.812 764.067 706.966 764.271 701.051 766.027C687.249 770.15 655.081 776.356 623.026 781.132C619.872 781.622 619.477 781.745 621.055 781.826C624.209 781.949 622.632 782.153 610.633 783.255C604.436 783.827 595.929 784.684 591.76 785.133C552.719 789.338 506.468 792.36 445.569 794.687C444.995 794.708 444.373 794.73 443.705 794.754C443.606 793.381 443.511 792.007 443.42 790.63C443.667 790.621 443.914 790.613 444.161 790.604C535.931 787.46 568.493 784.929 617.393 777.091C651.082 771.661 667.194 767.782 687.925 759.984C699.361 755.698 702.967 753.82 712.037 747.492C712.481 747.179 712.902 746.881 713.303 746.598C716.673 744.217 718.584 742.867 720.797 742.151ZM665.81 742.151L678.218 742.151L677.897 742.552C670.686 751.207 662.574 757.126 650.856 762.434C638.519 767.986 623.477 772.028 605.281 774.641C568.043 779.989 556.945 780.806 490.356 782.847C473.02 783.374 457.374 783.778 443.013 784.057C442.903 782.147 442.8 780.233 442.705 778.314C465.428 778.44 487.671 778.132 503.313 777.417C557.001 774.886 574.578 772.885 610.069 765.088C621.336 762.597 627.815 760.842 635.026 758.27C641.504 755.983 644.997 754.105 652.941 748.716C658.33 745.064 662.219 743.019 665.81 742.151ZM600.595 742.151L633.307 742.151C632.128 743.138 623.825 747.322 618.914 749.329C607.252 754.146 591.197 758.147 574.296 760.556C552.438 763.659 527.706 764.883 481.061 765.292C467.765 765.414 455.597 765.577 454.019 765.7C453.119 765.748 448.529 765.882 442.199 766.035C442.128 763.883 442.067 761.725 442.015 759.56C454.543 759.529 466.676 759.357 471.765 759.045C514.918 756.392 546.748 752.391 587.76 744.429C593.481 743.322 597.354 742.599 600.595 742.151ZM441.845 749.626C441.82 747.218 441.807 744.801 441.806 742.377C445.391 742.38 449.159 742.384 453.118 742.388L535.03 742.429L528.608 743.531C514.524 745.94 496.666 747.981 478.525 749.206C471.286 749.71 455.336 749.835 441.845 749.626ZM444.25 801.847C461.296 801.355 476.346 800.785 486.694 800.198C521.622 798.198 585 792.972 613.168 789.747C647.927 785.786 663.419 783.255 698.403 775.866C711.804 773.032 722.083 770.348 730.561 767.411C730.494 769.335 730.42 771.253 730.338 773.167C719.037 776.589 705.935 779.819 690.573 783.01C651.645 791.094 624.04 794.972 573.676 799.341C525.463 803.568 485.584 806.272 444.766 807.889C444.586 805.88 444.414 803.866 444.25 801.847ZM730.3 774.063C730.282 774.461 730.265 774.859 730.246 775.256C725.468 776.547 720.4 777.783 714.91 779.009C710.91 779.908 707.53 780.52 707.417 780.438C707.248 780.357 709.558 779.703 712.487 779.009C718.117 777.7 724.052 776.051 730.3 774.063ZM448.782 843.493C461.243 843.36 478.68 843.196 495.426 843.066C524.946 842.821 548.269 842.453 556.832 842.045C601.957 840.044 622.125 836.411 695.981 816.937C706.794 814.084 717.817 811.258 727.964 808.725C727.749 811.097 727.524 813.463 727.287 815.822C720.277 817.819 714.951 819.487 712.938 820.366C701.277 825.47 679.306 831.471 650.349 837.554C642.462 839.187 632.941 841.188 629.223 842.004C622.125 843.515 609.844 845.76 602.182 846.985C599.703 847.393 598.07 847.761 598.52 847.842C598.578 847.847 598.702 847.859 598.884 847.877L599.436 847.931L599.439 847.932L599.442 847.932L599.442 847.932L599.445 847.932C601.075 848.093 604.578 848.437 608.379 848.781C645.392 852.251 678.066 857.191 705.84 863.56C708.298 864.107 713.721 865.417 720.488 867.086C720.391 867.674 720.295 868.261 720.197 868.848C705.112 865.562 696.471 863.793 696.263 863.969C696.094 864.05 699.474 864.908 703.755 865.887C706.804 866.565 713.314 868.05 720.068 869.623C719.703 871.811 719.33 873.996 718.95 876.178C703.488 872.302 696.299 870.788 683.306 868.419C643.758 861.233 597.506 856.538 546.41 854.497C519.967 853.464 508.24 853.22 450.157 853.209C449.68 849.979 449.222 846.741 448.782 843.493ZM724.435 840.414C723.871 844.704 723.273 848.977 722.645 853.235C721.015 852.682 719.395 852.123 717.783 851.557L707.248 847.842L710.741 846.209C714.345 844.555 719.074 842.561 724.435 840.414ZM457.512 895.918C478.158 896.617 503.169 897.543 536.269 898.793C595.478 901.039 627.364 904.876 658.011 913.491C664.151 915.205 670.912 917.042 708.093 926.841C708.307 926.897 708.52 926.953 708.732 927.009C708.179 929.465 707.618 931.918 707.049 934.371C700.276 932.838 691.678 930.807 679.925 927.984C639.814 918.349 632.941 917.002 611.365 914.307C570.974 909.271 522.979 905.6 458.881 902.785C458.417 900.499 457.961 898.21 457.512 895.918ZM461.49 915.277C460.993 912.966 460.504 910.653 460.022 908.339C468.954 908.545 477.228 908.834 485.004 909.204C504.834 910.184 553.227 912.96 563.029 913.695C602.182 916.757 630.688 921.125 653.729 927.657C674.01 933.455 681.165 935.986 685.277 938.925L688.488 941.252L686.46 943.171C685.369 944.199 683.433 946.107 682.032 947.488L682.031 947.489L682.028 947.492L681.897 947.621C675.418 954.031 663.081 960.522 648.096 965.381C640.04 967.993 621.505 972.852 612.435 974.771C594.464 978.527 576.099 980.813 550.917 982.364C541.683 982.957 501.127 983.014 477.783 982.611C477.375 981.065 476.968 979.52 476.563 977.974C501.498 978.708 525.196 977.942 544.438 975.71C578.521 971.749 607.703 964.564 635.646 953.214C643.082 950.193 659.363 942.64 659.363 942.232C659.363 942.069 658.912 941.865 658.405 941.742C657.842 941.62 653.335 940.232 648.377 938.68C617.731 929.045 579.197 922.391 533.453 918.839C516.845 917.538 497.253 916.536 461.49 915.277ZM464.064 926.965C463.705 925.372 463.349 923.778 462.996 922.184C524.499 923.896 545.297 925.585 577.395 931.291C596.661 934.761 602.746 936.312 612.492 940.313C614.689 941.252 616.548 942.11 616.548 942.232C616.548 942.641 605.393 947.213 597.957 949.908C566.37 961.371 525.67 967.249 473.945 967.866C473.578 966.433 473.213 965 472.85 963.568C495.513 963.491 517.329 960.566 538.974 954.684C552.889 950.928 572.944 943.702 571.367 943.049C570.86 942.845 567.31 941.702 563.48 940.477C546.466 935.088 525.791 931.046 504.44 928.841C488.833 927.259 483.803 926.99 464.064 926.965ZM480.834 994.029C480.542 992.946 480.251 991.864 479.96 990.781C513.016 991.176 547.378 990.268 571.479 988.162C606.351 985.1 630.688 979.221 666.968 965.013C677.34 960.981 690.853 956.462 702.58 953.06C701.937 955.673 701.287 958.286 700.63 960.899C698.828 961.364 697.001 961.85 695.136 962.36C684.038 965.381 682.46 965.952 666.743 972.607C645.673 981.466 635.251 984.61 615.252 988.202C595.647 991.714 587.028 992.448 550.072 993.755C536.124 994.255 501.152 994.347 480.834 994.029ZM485.929 1012.65C512.08 1013.01 538.549 1012.85 553.452 1012.09C577.226 1010.9 594.521 1009.64 614.858 1007.55C634.744 1005.55 647.645 1003.92 688.939 998.205C689.6 998.114 690.258 998.024 690.915 997.934C689.997 1001.32 689.07 1004.7 688.137 1008.09C648.212 1012.05 637.617 1013.02 634.857 1012.98C633.336 1012.94 632.378 1013.07 632.716 1013.23C633.505 1013.6 611.309 1015.27 602.182 1015.56C597.901 1015.68 598.633 1015.6 605.281 1015.15C622.35 1014 617.055 1014 594.295 1015.15C555.854 1017.07 521.183 1017.89 487.297 1017.57C486.84 1015.93 486.384 1014.29 485.929 1012.65ZM687.989 1008.63C687.956 1008.75 687.923 1008.87 687.889 1008.99C682.956 1009.37 679.939 1009.59 679.756 1009.55C679.522 1009.52 682.698 1009.17 687.989 1008.63ZM509.091 1094.56C518.26 1093.47 526.553 1092.06 535.706 1090.23C543.48 1088.68 544.269 1088.47 558.24 1084.67C576.493 1079.69 589.225 1077.33 609.224 1075.2C626.934 1073.3 644.154 1072.5 669.985 1072.43C669.261 1074.97 668.537 1077.52 667.812 1080.08C658.806 1080.1 650.227 1080.33 645.279 1080.8C624.716 1082.63 593.732 1087.94 568.944 1093.74C558.466 1096.23 545.283 1098.51 537.34 1099.25C534.01 1099.56 529.626 1100 526.626 1100.31L526.624 1100.31L526.615 1100.31C526.015 1100.37 525.471 1100.43 525.002 1100.47C521.88 1100.84 516.883 1101.28 511.102 1101.72C510.432 1099.33 509.762 1096.95 509.091 1094.56ZM516.963 1122.85C516.35 1120.61 515.736 1118.39 515.121 1116.16C519.233 1116.45 523.369 1116.74 527.537 1117.05C553.903 1118.97 585.901 1122.81 616.266 1127.71L624.716 1129.05L611.759 1129.18C595.253 1129.34 565.057 1128.6 555.029 1127.83C543.875 1126.97 538.41 1126.28 524.439 1123.99C521.953 1123.59 519.479 1123.21 516.963 1122.85ZM618.689 1014C617.956 1013.92 618.407 1013.84 619.646 1013.84C620.886 1013.8 621.449 1013.88 620.942 1014C620.379 1014.09 619.365 1014.09 618.689 1014ZM617.674 781.908C616.886 781.908 616.604 781.99 616.998 782.112C617.337 782.194 618.012 782.194 618.407 782.112C618.745 781.99 618.463 781.908 617.674 781.908ZM657.954 960.808C665.053 958.154 670.236 955.582 674.742 952.52C676.827 951.091 679.137 949.336 679.813 948.642C680.883 947.54 680.601 947.621 678.066 949.213C670.574 953.827 666.01 956.399 660.659 958.93C652.434 962.849 652.377 962.931 657.954 960.808ZM680.207 772.477C679.756 772.477 678.968 772.64 678.517 772.845C677.503 773.334 678.404 773.334 679.925 772.845C680.658 772.6 680.77 772.477 680.207 772.477ZM655.194 759.78C660.546 757.167 668.546 751.411 671.024 748.349C672.827 746.103 674.799 743.041 674.404 743.041C674.292 743.041 673.278 744.021 672.151 745.246C664.996 753.044 653.56 760.025 639.138 765.373C635.871 766.598 633.786 767.455 634.575 767.292C637.505 766.761 650.856 761.862 655.194 759.78ZM676.827 1009.72C675.757 1009.72 675.306 1009.8 675.869 1009.92C676.376 1010 677.278 1010 677.841 1009.92C678.348 1009.8 677.897 1009.72 676.827 1009.72ZM640.659 779.663C640.265 779.54 640.547 779.458 641.335 779.458C642.124 779.458 642.406 779.54 642.068 779.663C641.674 779.744 640.997 779.744 640.659 779.663ZM637.955 779.867C637.167 779.867 636.885 779.948 637.279 780.071C637.617 780.152 638.293 780.152 638.688 780.071C639.026 779.948 638.744 779.867 637.955 779.867ZM628.66 781.01C631.758 780.601 634.801 780.234 635.42 780.275C637.054 780.316 629.787 781.336 626.125 781.581C624.322 781.704 625.449 781.459 628.66 781.01ZM634.801 870.868C634.181 870.868 634.012 870.991 634.463 871.113C634.857 871.236 635.364 871.195 635.533 871.072C635.758 870.95 635.42 870.827 634.801 870.868ZM614.858 748.594C614.858 748.88 616.998 748.022 619.928 746.593C623.026 745.083 625.787 743.45 625.28 743.45C625.054 743.45 623.928 743.98 622.801 744.634C621.674 745.246 619.421 746.389 617.843 747.124C616.21 747.818 614.858 748.512 614.858 748.594ZM632.547 870.46C631.927 870.46 631.758 870.582 632.209 870.705C632.603 870.827 633.11 870.787 633.279 870.664C633.505 870.542 633.167 870.419 632.547 870.46ZM591.084 1016.05C590.07 1015.96 590.746 1015.88 592.605 1015.88C594.464 1015.88 595.309 1015.96 594.464 1016.05C593.619 1016.13 592.098 1016.13 591.084 1016.05ZM513.059 939.579C518.974 940.599 523.763 941.946 527.481 943.58L529.453 944.478L524.157 946.274C517.735 948.438 507.538 950.928 501.341 951.826C494.976 952.725 482.413 953.623 483.145 953.092C483.258 952.97 485.849 952.725 488.891 952.48C495.877 951.949 503.708 950.765 509.341 949.418C513.679 948.356 525.566 944.396 525.228 944.11C524.777 943.824 517.284 941.62 511.764 940.191C504.834 938.354 505.116 938.231 513.059 939.579Z" fill="#3D00E6"/>
<path fill-rule="evenodd" clip-rule="evenodd" d="M430 1144C519.47 1144 592 1071.47 592 982C592 892.53 519.47 820 430 820C340.53 820 268 892.53 268 982C268 1071.47 340.53 1144 430 1144Z" fill="#020237"/>
<path fill-rule="evenodd" clip-rule="evenodd" d="M430 1063C474.735 1063 511 1026.74 511 982C511 937.265 474.735 901 430 901C385.265 901 349 937.265 349 982C349 1026.74 385.265 1063 430 1063Z" fill="#F7F3FF"/>
<g style="mix-blend-mode:multiply">
<path fill-rule="evenodd" clip-rule="evenodd" d="M430 1063C474.735 1063 511 1026.74 511 982C511 937.265 474.735 901 430 901C385.265 901 349 937.265 349 982C349 1026.74 385.265 1063 430 1063Z" fill="url(#paint5_linear_754_498)"/>
</g>
<path fill-rule="evenodd" clip-rule="evenodd" d="M407 1010.8L407.002 985.212L410.306 981.725L407.002 978.559L407 952.967L413.033 947L447.674 947.192L453.641 953.225L453.642 978.818L450.103 981.594L453.642 984.953L453.641 1010.55L447.674 1016.58L413.033 1016.77L407 1010.8ZM415.332 952.436L411.802 956.322L411.8 975.896L415.336 979.076L444.681 979.076L447.863 975.894L447.862 956.322L444.681 952.433L415.332 952.436ZM415.332 1011.34L411.802 1007.45L411.8 987.875L415.336 984.695L444.681 984.695L447.863 987.877L447.862 1007.45L444.681 1011.34L415.332 1011.34Z" fill="#020237"/>
<path fill-rule="evenodd" clip-rule="evenodd" d="M859 1101V434C859 197.07 666.93 5 430 5C193.07 5 1 197.07 1 434V1101C1 1124.2 19.8041 1143 43 1143H817C840.196 1143 859 1124.2 859 1101ZM430 4C192.518 4 0 196.518 0 434V1101C0 1124.75 19.2518 1144 43 1144H817C840.748 1144 860 1124.75 860 1101V434C860 196.518 667.482 4 430 4Z" fill="#AA86F8"/>
<path fill-rule="evenodd" clip-rule="evenodd" d="M860 433.857L860 -3.75918e-05L0 0L0 434C0 196.518 192.518 3.99999 430 3.99998C667.435 3.99997 859.923 196.44 860 433.857ZM860 1101C860 1124.75 840.748 1144 817 1144L860 1144L860 1101ZM0 1101.01L0 1144L43 1144C19.2561 1144 0.00694445 1124.76 0 1101.01Z" fill="#F7F3FF"/>
</g>
<defs>
<linearGradient id="paint0_linear_754_498" x1="532" y1="419" x2="600" y2="843" gradientUnits="userSpaceOnUse">
<stop stop-color="#AA86F8"/>
<stop offset="1" stop-color="#AA86F8" stop-opacity="0"/>
</linearGradient>
<linearGradient id="paint1_linear_754_498" x1="-194" y1="511" x2="859.9" y2="537.061" gradientUnits="userSpaceOnUse">
<stop stop-color="#AA86F8"/>
<stop offset="1" stop-color="#AA86F8" stop-opacity="0"/>
</linearGradient>
<linearGradient id="paint2_linear_754_498" x1="170" y1="777" x2="469.173" y2="307.85" gradientUnits="userSpaceOnUse">
<stop stop-color="#AA86F8"/>
<stop offset="1" stop-color="#AA86F8" stop-opacity="0"/>
</linearGradient>
<linearGradient id="paint3_linear_754_498" x1="350" y1="1257" x2="619.458" y2="697.723" gradientUnits="userSpaceOnUse">
<stop stop-color="#AA86F8"/>
<stop offset="1" stop-color="#AA86F8" stop-opacity="0"/>
</linearGradient>
<linearGradient id="paint4_linear_754_498" x1="268" y1="83" x2="668.983" y2="69.4123" gradientUnits="userSpaceOnUse">
<stop stop-color="#AA86F8"/>
<stop offset="1" stop-color="#AA86F8" stop-opacity="0"/>
</linearGradient>
<linearGradient id="paint5_linear_754_498" x1="430" y1="1205" x2="430" y2="821" gradientUnits="userSpaceOnUse">
<stop stop-color="#AA86F8"/>
<stop offset="1" stop-color="#D38DF1" stop-opacity="0"/>
</linearGradient>
<clipPath id="clip0_754_498">
<rect width="1144" height="860" fill="white" transform="translate(0 1144) rotate(-90)"/>
</clipPath>
</defs>
</svg>
