<svg width="870" height="1152" viewBox="0 0 870 1152" fill="none" xmlns="http://www.w3.org/2000/svg">
<g clip-path="url(#clip0_754_498)">
<path fill-rule="evenodd" clip-rule="evenodd" d="M719.275 786.634L721.812 786.634L721.812 752.274L626.179 752.274C632.413 740.545 639.912 729.69 649.434 720.607C696.456 760.31 993.636 710.01 945.809 614.325C931.578 585.845 917.717 570.835 904.369 556.38C885.129 535.544 866.955 515.863 850.273 458.654C805.462 305.023 565.738 608.728 641.075 711.306C628.663 723.056 619.525 737.129 612.133 752.274L600.834 752.274C598.744 668.642 595.566 536.239 607.412 504.602C666.259 522.612 901.312 314.375 819.711 245.205C795.429 224.619 776.784 216.269 758.83 208.229C732.946 196.638 708.498 185.689 670.666 139.647C569.052 16.0184 482.305 394.515 589.828 500.685C585.042 532.317 583.352 665.884 583.807 752.274L576.081 752.274C570.413 636.276 546.07 490.716 506.061 434.177C584.475 304.998 408.101 -40.9458 339.681 103.729C314.205 157.6 293.163 174.176 270.884 191.726C255.431 203.899 239.383 216.541 220.849 242.422C158.566 329.398 429.434 468.284 489.961 442.258C539.867 483.54 554.814 664.947 558.047 752.273L533.567 752.273C526.969 740.285 519.035 729.173 508.93 719.604C584.267 617.026 344.538 313.316 299.728 466.952C283.045 524.159 264.871 543.84 245.63 564.677C232.283 579.131 218.422 594.141 204.191 622.618C156.365 718.303 453.544 768.608 500.571 728.905C507.802 735.802 513.864 743.721 519.101 752.273L449.066 752.273L449.066 754.15L586.743 754.15L720 754.15C720 765.137 719.275 786.634 719.275 786.634Z" fill="#23D9B7"/>
<g style="mix-blend-mode:multiply">
<path fill-rule="evenodd" clip-rule="evenodd" d="M670.527 754.15L669.558 752.274L626.179 752.274C632.241 740.867 639.499 730.289 648.652 721.361C646.075 718.904 643.11 715.778 640.088 712.252C628.176 723.808 619.328 737.533 612.133 752.274L600.834 752.274C598.773 669.803 595.654 539.905 606.927 505.977C606.205 505.753 605.158 505.659 603.797 505.538C600.668 505.258 595.882 504.831 589.595 502.328C584.987 536.698 583.359 667.305 583.807 752.274L576.08 752.274C570.448 636.977 546.364 492.474 506.785 435.212C502.542 438.038 496.664 441.269 491.229 443.344C540.12 486.625 554.841 665.691 558.047 752.273L533.567 752.273C527.206 740.717 519.604 729.973 510.012 720.642C509.937 720.724 509.861 720.806 509.785 720.888C507.319 723.559 504.279 726.852 501.38 729.685C508.255 736.397 514.06 744.042 519.101 752.273L507.265 752.273C508.025 752.918 508.775 753.546 509.504 754.15L586.743 754.15L670.527 754.15Z" fill="url(#paint0_linear_754_498)"/>
</g>
<g style="mix-blend-mode:multiply">
<path fill-rule="evenodd" clip-rule="evenodd" d="M637.125 705.257L647 708L862.672 494.219C858.455 484.205 854.32 472.534 850.273 458.655C806.312 307.937 574.761 597.373 637.125 705.257Z" fill="url(#paint1_linear_754_498)"/>
</g>
<g style="mix-blend-mode:multiply">
<path fill-rule="evenodd" clip-rule="evenodd" d="M502.549 437.841L297.513 168.555C288.591 177.777 279.837 184.673 270.884 191.726L270.884 191.726C255.431 203.899 239.383 216.541 220.849 242.422C158.566 329.398 429.434 468.284 489.961 442.258C491.529 443.556 493.063 444.991 494.563 446.558C493.47 445.416 492.358 444.344 491.229 443.344C495.022 441.895 499.031 439.885 502.549 437.841Z" fill="url(#paint2_linear_754_498)"/>
</g>
<g style="mix-blend-mode:multiply">
<path fill-rule="evenodd" clip-rule="evenodd" d="M503.481 731.798C502.532 730.815 501.563 729.85 500.571 728.905C453.544 768.608 156.365 718.303 204.191 622.618C218.422 594.14 232.283 579.131 245.63 564.677L245.63 564.677L245.63 564.676C253.57 556.078 261.329 547.676 268.876 536.753L507 723L503.481 731.798Z" fill="url(#paint3_linear_754_498)"/>
</g>
<g style="mix-blend-mode:multiply">
<path fill-rule="evenodd" clip-rule="evenodd" d="M589.824 500.714L593 502L719.874 187.311C705.628 177.35 689.872 163.021 670.666 139.647C569.052 16.0184 482.305 394.515 589.828 500.685C589.827 500.695 589.825 500.705 589.824 500.714Z" fill="url(#paint4_linear_754_498)"/>
</g>
<path d="M660.671 1147C698.673 1005.03 742.491 888.28 742.491 742.34L607.684 742.34L449.934 742.34C449.934 888.285 493.752 1005.03 531.754 1147L660.671 1147Z" fill="#7D07F2"/>
<path fill-rule="evenodd" clip-rule="evenodd" d="M684.481 1057.63C683.967 1059.44 683.452 1061.25 682.937 1063.06C682.445 1064.79 681.951 1066.52 681.458 1068.25C655.212 1068.27 635.422 1069.12 613.816 1071.06C600.802 1072.2 591.451 1073.55 571.902 1076.98C545.255 1081.67 540.073 1082.37 521.2 1083.72C519.435 1083.84 517.651 1083.97 515.849 1084.09C514.78 1080.32 513.712 1076.56 512.646 1072.81C520.704 1071.5 529.106 1070.05 537.932 1068.45C588.352 1059.26 618.041 1056.93 677.25 1057.5C679.553 1057.53 681.966 1057.57 684.481 1057.63ZM687.173 1048.17C686.749 1049.66 686.324 1051.15 685.898 1052.65C674.437 1052.36 662.55 1052.24 649.364 1052.24C603.153 1052.27 576.278 1053.57 508.997 1059.99C508.27 1057.44 507.545 1054.89 506.822 1052.35C550.902 1049.26 577.354 1048.24 614.999 1047.87C630.164 1047.69 662.717 1047.87 687.173 1048.17ZM693.006 1027.52C692.404 1029.67 691.8 1031.82 691.194 1033.96C670.751 1034.14 652.046 1034.32 634.998 1034.52C589.147 1035.07 544.25 1035.24 501.917 1035.04C501.633 1034.04 501.35 1033.03 501.067 1032.03C518.157 1031.96 534.28 1031.8 544.016 1031.54C554.551 1031.25 581.029 1030.48 602.887 1029.82C638.448 1028.74 665.113 1028.01 693.006 1027.52ZM706.441 978.218C705.764 980.808 705.081 983.4 704.392 985.993C699.126 987.237 693.241 988.675 686.545 990.346C652.406 998.919 637.984 1002.02 627.111 1003.25C609.2 1005.24 545.785 1006.77 493.935 1006.42C493.702 1005.57 493.47 1004.72 493.238 1003.87C518.047 1004.02 549.33 1003.77 560.353 1003.16C618.927 999.9 659.705 992.973 706.441 978.218ZM721.961 913.256C721.566 915.117 721.167 916.976 720.763 918.835C708.486 916.406 696.266 913.307 677.25 908.244C650.716 901.181 637.871 898.528 619.562 896.323C592.915 893.139 573.198 892.24 511.341 891.424C501.71 891.306 484.78 890.972 466.289 890.562C465.673 887.301 465.072 884.034 464.488 880.76C491.579 880.905 508.697 881.311 526.27 882.034C563.339 883.626 599.732 887.015 628.632 891.628C645.646 894.363 651.899 895.833 674.996 902.651C681.644 904.611 689.249 906.775 691.897 907.428C697.812 908.938 705.587 910.612 705.192 910.326C705.023 910.204 700.009 908.448 694.038 906.448C681.7 902.284 667.222 898.038 660.744 896.691C653.702 895.221 656.237 895.302 664.969 896.854C679.729 899.508 689.813 902.325 700.009 906.734C706.831 909.68 711.146 911.191 721.961 913.256ZM726.475 890.782C725.934 893.643 725.38 896.5 724.814 899.352C723.321 899.093 721.831 898.832 720.347 898.568C708.403 896.445 702.657 895.098 675.954 888.403C657.138 883.667 651.955 882.81 630.491 881.013C586.437 877.339 539.228 874.767 490.497 873.379C484.761 873.211 475.056 873.088 463.139 873.008C462.71 870.478 462.291 867.943 461.883 865.404C539.808 865.659 576.902 866.392 599.732 867.949C621.14 869.459 640.913 871.746 656.124 874.522C657.927 874.889 660.462 875.257 661.758 875.338C666.377 875.747 683.841 879.87 717.811 888.566C720.916 889.362 723.794 890.098 726.475 890.782ZM740.024 780.842C739.939 782.48 739.849 784.114 739.753 785.746C737.76 786.343 735.706 786.962 733.585 787.603C682.827 802.954 671.56 805.403 624.52 811.364C567.485 818.612 513.62 823.171 456.443 825.562C456.08 822.303 455.736 819.033 455.412 815.752C471.433 815.276 486.561 814.763 498.666 814.262C589.648 810.506 653.871 802.423 715.614 786.868C724.335 784.68 732.433 782.679 740.024 780.842ZM730.797 743.151L741 743.151C741 747.214 740.966 751.255 740.899 755.275C732.333 759.679 720.27 764.985 719.333 764.577C719.051 764.455 718.938 764.495 719.107 764.74C719.727 765.434 695.784 773.11 694.883 772.497C694.77 772.416 696.686 771.803 699.052 771.191C703.953 769.884 714.657 766.537 716.403 765.72C717.812 765.067 716.966 765.271 711.051 767.027C697.249 771.15 665.081 777.356 633.026 782.132C629.872 782.622 629.477 782.745 631.055 782.826C634.209 782.949 632.632 783.153 620.633 784.255C614.436 784.827 605.929 785.684 601.76 786.133C562.719 790.338 516.468 793.36 455.569 795.687C454.995 795.708 454.373 795.73 453.705 795.754C453.606 794.381 453.511 793.007 453.42 791.63C453.667 791.621 453.914 791.613 454.161 791.604C545.931 788.46 578.493 785.929 627.393 778.091C661.082 772.661 677.194 768.782 697.925 760.984C709.361 756.698 712.967 754.82 722.037 748.492C722.481 748.179 722.902 747.881 723.303 747.598C726.673 745.217 728.584 743.867 730.797 743.151ZM675.81 743.151L688.218 743.151L687.897 743.552C680.686 752.207 672.574 758.126 660.856 763.434C648.519 768.986 633.477 773.028 615.281 775.641C578.043 780.989 566.945 781.806 500.356 783.847C483.02 784.374 467.374 784.778 453.013 785.057C452.903 783.147 452.8 781.233 452.705 779.314C475.428 779.44 497.671 779.132 513.313 778.417C567.001 775.886 584.578 773.885 620.069 766.088C631.336 763.597 637.815 761.842 645.026 759.27C651.504 756.983 654.997 755.105 662.941 749.716C668.33 746.064 672.219 744.019 675.81 743.151ZM610.595 743.151L643.307 743.151C642.128 744.138 633.825 748.322 628.914 750.329C617.252 755.146 601.197 759.147 584.296 761.556C562.438 764.659 537.706 765.883 491.061 766.292C477.765 766.414 465.597 766.577 464.019 766.7C463.119 766.748 458.529 766.882 452.199 767.035C452.128 764.883 452.067 762.725 452.015 760.56C464.543 760.529 476.676 760.357 481.765 760.045C524.918 757.392 556.748 753.391 597.76 745.429C603.481 744.322 607.354 743.599 610.595 743.151ZM451.845 750.626C451.82 748.218 451.807 745.801 451.806 743.377C455.391 743.38 459.159 743.384 463.118 743.388L545.03 743.429L538.608 744.531C524.524 746.94 506.666 748.981 488.525 750.206C481.286 750.71 465.336 750.835 451.845 750.626ZM454.25 802.847C471.296 802.355 486.346 801.785 496.694 801.198C531.622 799.198 595 793.972 623.168 790.747C657.927 786.786 673.419 784.255 708.403 776.866C721.804 774.032 732.083 771.348 740.561 768.411C740.494 770.335 740.42 772.253 740.338 774.167C729.037 777.589 715.935 780.819 700.573 784.01C661.645 792.094 634.04 795.972 583.676 800.341C535.463 804.568 495.584 807.272 454.766 808.889C454.586 806.88 454.414 804.866 454.25 802.847ZM740.3 775.063C740.282 775.461 740.265 775.859 740.246 776.256C735.468 777.547 730.4 778.783 724.91 780.009C720.91 780.908 717.53 781.52 717.417 781.438C717.248 781.357 719.558 780.703 722.487 780.009C728.117 778.7 734.052 777.051 740.3 775.063ZM458.782 844.493C471.243 844.36 488.68 844.196 505.426 844.066C534.946 843.821 558.269 843.453 566.832 843.045C611.957 841.044 632.125 837.411 705.981 817.937C716.794 815.084 727.817 812.258 737.964 809.725C737.749 812.097 737.524 814.463 737.287 816.822C730.277 818.819 724.951 820.487 722.938 821.366C711.277 826.47 689.306 832.471 660.349 838.554C652.462 840.187 642.941 842.188 639.223 843.004C632.125 844.515 619.844 846.76 612.182 847.985C609.703 848.393 608.07 848.761 608.52 848.842C608.578 848.847 608.702 848.859 608.884 848.877L609.436 848.931L609.439 848.932L609.442 848.932L609.442 848.932L609.445 848.932C611.075 849.093 614.578 849.437 618.379 849.781C655.392 853.251 688.066 858.191 715.84 864.56C718.298 865.107 723.721 866.417 730.488 868.086C730.391 868.674 730.295 869.261 730.197 869.848C715.112 866.562 706.471 864.793 706.263 864.969C706.094 865.05 709.474 865.908 713.755 866.887C716.804 867.565 723.314 869.05 730.068 870.623C729.703 872.811 729.33 874.996 728.95 877.178C713.488 873.302 706.299 871.788 693.306 869.419C653.758 862.233 607.506 857.538 556.41 855.497C529.967 854.464 518.24 854.22 460.157 854.209C459.68 850.979 459.222 847.741 458.782 844.493ZM734.435 841.414C733.871 845.704 733.273 849.977 732.645 854.235C731.015 853.682 729.395 853.123 727.783 852.557L717.248 848.842L720.741 847.209C724.345 845.555 729.074 843.561 734.435 841.414ZM467.512 896.918C488.158 897.617 513.169 898.543 546.269 899.793C605.478 902.039 637.364 905.876 668.011 914.491C674.151 916.205 680.912 918.042 718.093 927.841C718.307 927.897 718.52 927.953 718.732 928.009C718.179 930.465 717.618 932.918 717.049 935.371C710.276 933.838 701.678 931.807 689.925 928.984C649.814 919.349 642.941 918.002 621.365 915.307C580.974 910.271 532.979 906.6 468.881 903.785C468.417 901.499 467.961 899.21 467.512 896.918ZM471.49 916.277C470.993 913.966 470.504 911.653 470.022 909.339C478.954 909.545 487.228 909.834 495.004 910.204C514.834 911.184 563.227 913.96 573.029 914.695C612.182 917.757 640.688 922.125 663.729 928.657C684.01 934.455 691.165 936.986 695.277 939.925L698.488 942.252L696.46 944.171C695.369 945.199 693.433 947.107 692.032 948.488L692.031 948.489L692.028 948.492L691.897 948.621C685.418 955.031 673.081 961.522 658.096 966.381C650.04 968.993 631.505 973.852 622.435 975.771C604.464 979.527 586.099 981.813 560.917 983.364C551.683 983.957 511.127 984.014 487.783 983.611C487.375 982.065 486.968 980.52 486.563 978.974C511.498 979.708 535.196 978.942 554.438 976.71C588.521 972.749 617.703 965.564 645.646 954.214C653.082 951.193 669.363 943.64 669.363 943.232C669.363 943.069 668.912 942.865 668.405 942.742C667.842 942.62 663.335 941.232 658.377 939.68C627.731 930.045 589.197 923.391 543.453 919.839C526.845 918.538 507.253 917.536 471.49 916.277ZM474.064 927.965C473.705 926.372 473.349 924.778 472.996 923.184C534.499 924.896 555.297 926.585 587.395 932.291C606.661 935.761 612.746 937.312 622.492 941.313C624.689 942.252 626.548 943.11 626.548 943.232C626.548 943.641 615.393 948.213 607.957 950.908C576.37 962.371 535.67 968.249 483.945 968.866C483.578 967.433 483.213 966 482.85 964.568C505.513 964.491 527.329 961.566 548.974 955.684C562.889 951.928 582.944 944.702 581.367 944.049C580.86 943.845 577.31 942.702 573.48 941.477C556.466 936.088 535.791 932.046 514.44 929.841C498.833 928.259 493.803 927.99 474.064 927.965ZM490.834 995.029C490.542 993.946 490.251 992.864 489.96 991.781C523.016 992.176 557.378 991.268 581.479 989.162C616.351 986.1 640.688 980.221 676.968 966.013C687.34 961.981 700.853 957.462 712.58 954.06C711.937 956.673 711.287 959.286 710.63 961.899C708.828 962.364 707.001 962.85 705.136 963.36C694.038 966.381 692.46 966.952 676.743 973.607C655.673 982.466 645.251 985.61 625.252 989.202C605.647 992.714 597.028 993.448 560.072 994.755C546.124 995.255 511.152 995.347 490.834 995.029ZM495.929 1013.65C522.08 1014.01 548.549 1013.85 563.452 1013.09C587.226 1011.9 604.521 1010.64 624.858 1008.55C644.744 1006.55 657.645 1004.92 698.939 999.205C699.6 999.114 700.258 999.024 700.915 998.934C699.997 1002.32 699.07 1005.7 698.137 1009.09C658.212 1013.05 647.617 1014.02 644.857 1013.98C643.336 1013.94 642.378 1014.07 642.716 1014.23C643.505 1014.6 621.309 1016.27 612.182 1016.56C607.901 1016.68 608.633 1016.6 615.281 1016.15C632.35 1015 627.055 1015 604.295 1016.15C565.854 1018.07 531.183 1018.89 497.297 1018.57C496.84 1016.93 496.384 1015.29 495.929 1013.65ZM697.989 1009.63C697.956 1009.75 697.923 1009.87 697.889 1009.99C692.956 1010.37 689.939 1010.59 689.756 1010.55C689.522 1010.52 692.698 1010.17 697.989 1009.63ZM519.091 1095.56C528.26 1094.47 536.553 1093.06 545.706 1091.23C553.48 1089.68 554.269 1089.47 568.24 1085.67C586.493 1080.69 599.225 1078.33 619.224 1076.2C636.934 1074.3 654.154 1073.5 679.985 1073.43C679.261 1075.97 678.537 1078.52 677.812 1081.08C668.806 1081.1 660.227 1081.33 655.279 1081.8C634.716 1083.63 603.732 1088.94 578.944 1094.74C568.466 1097.23 555.283 1099.51 547.34 1100.25C544.01 1100.56 539.626 1101 536.626 1101.31L536.624 1101.31L536.615 1101.31C536.015 1101.37 535.471 1101.43 535.002 1101.47C531.88 1101.84 526.883 1102.28 521.102 1102.72C520.432 1100.33 519.762 1097.95 519.091 1095.56ZM526.963 1123.85C526.35 1121.61 525.736 1119.39 525.121 1117.16C529.233 1117.45 533.369 1117.74 537.537 1118.05C563.903 1119.97 595.901 1123.81 626.266 1128.71L634.716 1130.05L621.759 1130.18C605.253 1130.34 575.057 1129.6 565.029 1128.83C553.875 1127.97 548.41 1127.28 534.439 1124.99C531.953 1124.59 529.479 1124.21 526.963 1123.85ZM628.689 1015C627.956 1014.92 628.407 1014.84 629.646 1014.84C630.886 1014.8 631.449 1014.88 630.942 1015C630.379 1015.09 629.365 1015.09 628.689 1015ZM627.674 782.908C626.886 782.908 626.604 782.99 626.998 783.112C627.337 783.194 628.012 783.194 628.407 783.112C628.745 782.99 628.463 782.908 627.674 782.908ZM667.954 961.808C675.053 959.154 680.236 956.582 684.742 953.52C686.827 952.091 689.137 950.336 689.813 949.642C690.883 948.54 690.601 948.621 688.066 950.213C680.574 954.827 676.01 957.399 670.659 959.93C662.434 963.849 662.377 963.931 667.954 961.808ZM690.207 773.477C689.756 773.477 688.968 773.64 688.517 773.845C687.503 774.334 688.404 774.334 689.925 773.845C690.658 773.6 690.77 773.477 690.207 773.477ZM665.194 760.78C670.546 758.167 678.546 752.411 681.024 749.349C682.827 747.103 684.799 744.041 684.404 744.041C684.292 744.041 683.278 745.021 682.151 746.246C674.996 754.044 663.56 761.025 649.138 766.373C645.871 767.598 643.786 768.455 644.575 768.292C647.505 767.761 660.856 762.862 665.194 760.78ZM686.827 1010.72C685.757 1010.72 685.306 1010.8 685.869 1010.92C686.376 1011 687.278 1011 687.841 1010.92C688.348 1010.8 687.897 1010.72 686.827 1010.72ZM650.659 780.663C650.265 780.54 650.547 780.458 651.335 780.458C652.124 780.458 652.406 780.54 652.068 780.663C651.674 780.744 650.997 780.744 650.659 780.663ZM647.955 780.867C647.167 780.867 646.885 780.948 647.279 781.071C647.617 781.152 648.293 781.152 648.688 781.071C649.026 780.948 648.744 780.867 647.955 780.867ZM638.66 782.01C641.758 781.601 644.801 781.234 645.42 781.275C647.054 781.316 639.787 782.336 636.125 782.581C634.322 782.704 635.449 782.459 638.66 782.01ZM644.801 871.868C644.181 871.868 644.012 871.991 644.463 872.113C644.857 872.236 645.364 872.195 645.533 872.072C645.758 871.95 645.42 871.827 644.801 871.868ZM624.858 749.594C624.858 749.88 626.998 749.022 629.928 747.593C633.026 746.083 635.787 744.45 635.28 744.45C635.054 744.45 633.928 744.98 632.801 745.634C631.674 746.246 629.421 747.389 627.843 748.124C626.21 748.818 624.858 749.512 624.858 749.594ZM642.547 871.46C641.927 871.46 641.758 871.582 642.209 871.705C642.603 871.827 643.11 871.787 643.279 871.664C643.505 871.542 643.167 871.419 642.547 871.46ZM601.084 1017.05C600.07 1016.96 600.746 1016.88 602.605 1016.88C604.464 1016.88 605.309 1016.96 604.464 1017.05C603.619 1017.13 602.098 1017.13 601.084 1017.05ZM523.059 940.579C528.974 941.599 533.763 942.946 537.481 944.58L539.453 945.478L534.157 947.274C527.735 949.438 517.538 951.928 511.341 952.826C504.976 953.725 492.413 954.623 493.145 954.092C493.258 953.97 495.849 953.725 498.891 953.48C505.877 952.949 513.708 951.765 519.341 950.418C523.679 949.356 535.566 945.396 535.228 945.11C534.777 944.824 527.284 942.62 521.764 941.191C514.834 939.354 515.116 939.231 523.059 940.579Z" fill="#3D00E6"/>
<path fill-rule="evenodd" clip-rule="evenodd" d="M437.991 1147C528.501 1147 601.874 1073.96 601.874 983.867C601.874 893.771 528.501 820.734 437.991 820.734C347.48 820.734 274.107 893.771 274.107 983.867C274.107 1073.96 347.48 1147 437.991 1147Z" fill="#020237"/>
<path fill-rule="evenodd" clip-rule="evenodd" d="M437.991 1065.43C483.246 1065.43 519.933 1028.92 519.933 983.867C519.933 938.819 483.246 902.301 437.991 902.301C392.735 902.301 356.049 938.819 356.049 983.867C356.049 1028.92 392.735 1065.43 437.991 1065.43Z" fill="#F7F3FF"/>
<g style="mix-blend-mode:multiply">
<path fill-rule="evenodd" clip-rule="evenodd" d="M437.991 1065.43C483.246 1065.43 519.933 1028.92 519.933 983.867C519.933 938.819 483.246 902.301 437.991 902.301C392.735 902.301 356.049 938.819 356.049 983.867C356.049 1028.92 392.735 1065.43 437.991 1065.43Z" fill="url(#paint5_linear_754_498)"/>
</g>
<path fill-rule="evenodd" clip-rule="evenodd" d="M410 1013.8L410.002 988.212L413.306 984.725L410.002 981.559L410 955.967L416.033 950L450.674 950.192L456.641 956.225L456.642 981.818L453.103 984.594L456.642 987.953L456.641 1013.55L450.674 1019.58L416.033 1019.77L410 1013.8ZM418.332 955.436L414.802 959.322L414.8 978.896L418.336 982.076L447.681 982.076L450.863 978.894L450.862 959.322L447.681 955.433L418.332 955.436ZM418.332 1014.34L414.802 1010.45L414.8 990.875L418.336 987.695L447.681 987.695L450.863 990.877L450.862 1010.45L447.681 1014.34L418.332 1014.34Z" fill="#020237"/>
<path fill-rule="evenodd" clip-rule="evenodd" d="M435 14C201.384 14 12 203.384 12 437V1104C12 1123.88 28.1178 1140 48 1140H822C841.882 1140 858 1123.88 858 1104V437C858 203.384 668.616 14 435 14ZM9 437C9 201.727 199.727 11 435 11C670.273 11 861 201.727 861 437V1104C861 1125.54 843.539 1143 822 1143H48C26.4609 1143 9 1125.54 9 1104V437Z" fill="#FECFFE"/>
<path fill-rule="evenodd" clip-rule="evenodd" d="M870 1152L870 -3.80289e-05L0 0L0 1152L870 1152ZM9 437C9 201.727 199.727 11 435 11C670.273 11 861 201.727 861 437L861 1104C861 1125.54 843.539 1143 822 1143L48 1143C26.4609 1143 9 1125.54 9 1104L9 437Z" fill="#F7F3FF"/>
</g>
<defs>
<linearGradient id="paint0_linear_754_498" x1="535" y1="422" x2="603" y2="846" gradientUnits="userSpaceOnUse">
<stop stop-color="#AA86F8"/>
<stop offset="1" stop-color="#AA86F8" stop-opacity="0"/>
</linearGradient>
<linearGradient id="paint1_linear_754_498" x1="-191" y1="514" x2="862.9" y2="540.061" gradientUnits="userSpaceOnUse">
<stop stop-color="#AA86F8"/>
<stop offset="1" stop-color="#AA86F8" stop-opacity="0"/>
</linearGradient>
<linearGradient id="paint2_linear_754_498" x1="173" y1="780" x2="472.173" y2="310.85" gradientUnits="userSpaceOnUse">
<stop stop-color="#AA86F8"/>
<stop offset="1" stop-color="#AA86F8" stop-opacity="0"/>
</linearGradient>
<linearGradient id="paint3_linear_754_498" x1="353" y1="1260" x2="622.458" y2="700.723" gradientUnits="userSpaceOnUse">
<stop stop-color="#AA86F8"/>
<stop offset="1" stop-color="#AA86F8" stop-opacity="0"/>
</linearGradient>
<linearGradient id="paint4_linear_754_498" x1="271" y1="86" x2="671.983" y2="72.4123" gradientUnits="userSpaceOnUse">
<stop stop-color="#AA86F8"/>
<stop offset="1" stop-color="#AA86F8" stop-opacity="0"/>
</linearGradient>
<linearGradient id="paint5_linear_754_498" x1="437.991" y1="1208.43" x2="437.991" y2="821.741" gradientUnits="userSpaceOnUse">
<stop stop-color="#AA86F8"/>
<stop offset="1" stop-color="#D38DF1" stop-opacity="0"/>
</linearGradient>
<clipPath id="clip0_754_498">
<rect width="1152" height="870" fill="white" transform="translate(0 1152) rotate(-90)"/>
</clipPath>
</defs>
</svg>
