<svg width="1440" height="1024" viewBox="0 0 1440 1024" fill="none" xmlns="http://www.w3.org/2000/svg">
<g clip-path="url(#clip0_734_28)">
<path fill-rule="evenodd" clip-rule="evenodd" d="M0 0H1440V738H848.537C937.081 691.64 997.5 598.876 997.5 492C997.5 338.741 873.259 214.5 720 214.5C566.741 214.5 442.5 338.741 442.5 492C442.5 598.876 502.919 691.64 591.463 738H0V0Z" fill="#250864"/>
<rect y="738" width="1440" height="286" fill="#7D07F2"/>
<path fill-rule="evenodd" clip-rule="evenodd" d="M533.327 1085.43C583.635 1095.35 589.55 1095.8 669.322 1095.84L718.092 1095.84H719.911L768.822 1095.84C848.814 1095.8 854.746 1095.35 905.193 1085.43C931.745 1080.2 935.755 1079.55 966.882 1075.22C998.179 1070.86 1021.74 1069.47 1063.26 1069.43C1092.41 1069.39 1110.88 1070.16 1129.92 1072.2C1149.97 1074.33 1162.74 1076.69 1181.04 1081.67C1195.05 1085.47 1195.84 1085.68 1203.64 1087.23C1233.92 1093.27 1254.82 1094.7 1328.77 1095.64L1341.75 1095.8L1341.75 1095.8H1341.76H1341.76H1341.76L1341.76 1095.8H1341.77H1341.77H1341.77H1341.77L1341.78 1095.8H1341.78H1341.78L1341.79 1095.8H1341.79H1341.79H1341.79L1341.8 1095.8H1341.8H1341.8H1341.81L1341.81 1095.8H1341.81H1341.81H1341.82L1341.82 1095.8H1341.82H1341.82H1341.83L1341.83 1095.8H1341.83C1434.82 1096.99 1436.96 1097.02 1438.44 1097.75C1438.48 1097.77 1438.51 1097.79 1438.55 1097.8L1438.55 1097.81C1438.6 1097.83 1438.65 1097.86 1438.7 1097.88C1440.23 1098.62 1440.4 1099.56 1439.27 1100.78C1438.42 1101.6 1438.31 1101.64 1369.05 1101.72C1299.79 1101.8 1277.53 1101.52 1253.64 1100.33C1239.68 1099.64 1221.77 1098.33 1214.37 1097.47C1213.9 1097.43 1213.36 1097.37 1212.76 1097.31L1212.75 1097.31L1212.75 1097.31C1209.74 1097 1205.34 1096.56 1202 1096.25C1194.04 1095.51 1180.82 1093.23 1170.31 1090.74C1145.45 1084.94 1114.38 1079.63 1093.76 1077.8C1083.26 1076.82 1056.42 1076.86 1043.77 1077.8C1022.7 1079.43 1001.46 1082.12 972.475 1086.86C906.097 1097.72 896.889 1098.9 864.406 1100.62C852.486 1101.23 798.311 1101.31 750.688 1100.78L719.003 1100.42L687.405 1100.78C639.914 1101.31 585.888 1101.23 574.002 1100.62C541.609 1098.9 532.426 1097.72 466.232 1086.86C437.331 1082.12 416.149 1079.43 395.136 1077.8C382.517 1076.86 355.757 1076.82 345.279 1077.8C324.716 1079.63 293.732 1084.94 268.944 1090.74C258.466 1093.23 245.283 1095.51 237.34 1096.25C234.01 1096.56 229.626 1097 226.626 1097.31L226.624 1097.31L226.615 1097.31C226.016 1097.37 225.471 1097.43 225.002 1097.47C217.622 1098.33 199.764 1099.64 185.849 1100.33C162.019 1101.52 139.823 1101.8 70.7554 1101.72C1.68795 1101.64 1.57528 1101.6 0.730247 1100.78C-0.396466 1099.56 -0.227459 1098.62 1.2936 1097.88C1.3484 1097.86 1.39856 1097.83 1.44713 1097.81L1.44879 1097.8C1.46848 1097.79 1.48791 1097.78 1.5073 1097.77C1.52266 1097.77 1.53799 1097.76 1.55339 1097.75C3.02984 1097.02 5.16815 1096.99 97.8956 1095.8H97.8982L97.9013 1095.8H97.9041H97.9068H97.9094L97.9124 1095.8H97.9152H97.9179H97.9204L97.9234 1095.8H97.9262H97.9288H97.9313L97.9343 1095.8H97.9371H97.9398H97.9422L97.9452 1095.8H97.948H97.9506L97.9537 1095.8H97.9566H97.9594H97.9619H97.9644L97.9673 1095.8H97.97H97.9726H97.975L97.9779 1095.8L110.923 1095.64C184.666 1094.7 205.51 1093.27 235.706 1087.23C243.48 1085.68 244.269 1085.47 258.24 1081.67C276.493 1076.69 289.225 1074.33 309.224 1072.2C328.209 1070.16 346.631 1069.39 375.7 1069.43C417.107 1069.47 440.599 1070.86 471.809 1075.22C502.85 1079.55 506.85 1080.2 533.327 1085.43ZM557.664 1092.04C556.876 1092.04 556.594 1092.13 556.988 1092.25C557.326 1092.33 558.002 1092.33 558.397 1092.25C558.735 1092.13 558.453 1092.04 557.664 1092.04ZM554.566 1091.64C553.664 1091.64 553.326 1091.72 553.89 1091.84C554.397 1091.92 555.186 1091.92 555.58 1091.84C555.918 1091.72 555.524 1091.64 554.566 1091.64ZM542.51 1090.04C542.679 1090.21 544.763 1090.62 547.13 1090.98C549.552 1091.31 551.749 1091.55 552.143 1091.47C552.481 1091.39 551.017 1091.06 548.876 1090.78C546.739 1090.53 544.378 1090.17 543.585 1090.04L543.583 1090.04L543.581 1090.04L543.58 1090.04C542.792 1089.92 542.341 1089.92 542.51 1090.04ZM691.067 1073.59C627.352 1073.59 567.579 1071.39 523.863 1067.47C509.216 1066.16 446.458 1059.51 447.415 1059.38C448.317 1059.26 484.879 1062.77 508.54 1065.26C516.089 1066.04 522.68 1066.65 523.187 1066.57C524.088 1066.45 500.54 1063.59 481.611 1061.55C438.176 1056.81 394.798 1053.79 367.25 1053.5C308.041 1052.93 278.352 1055.26 227.932 1064.45C178.413 1073.43 142.245 1077.71 105.289 1078.94C92.501 1079.35 86.2477 1079.27 48.6719 1078.33C25.4053 1077.76 5.06809 1077.27 3.43436 1077.27H0.504903L0.504903 1079.02C0.504903 1079.96 0.899252 1081.06 1.2936 1081.43C3.04001 1083.1 5.12443 1083.31 22.4758 1083.35C31.6022 1083.39 48.7282 1083.55 60.5024 1083.72C109.852 1084.45 166.582 1082.94 211.2 1079.71C230.073 1078.37 235.255 1077.67 261.902 1072.98C281.451 1069.55 290.802 1068.2 303.816 1067.06C329.336 1064.77 352.321 1064 386.404 1064.32C424.036 1064.69 447.584 1065.87 514.849 1070.73C569.776 1074.73 590.17 1076 617.098 1077.27C622.304 1077.5 628.069 1077.77 633.04 1078L633.089 1078.01L633.178 1078.01L633.218 1078.01L633.329 1078.02C637.701 1078.22 641.429 1078.4 643.576 1078.49C678.392 1080.16 707.01 1079.63 715.686 1077.18C717.021 1076.83 718.225 1076.23 719.003 1075.61C719.783 1076.23 720.99 1076.83 722.329 1077.18C731.029 1079.63 759.727 1080.16 794.639 1078.49C796.792 1078.4 800.531 1078.22 804.915 1078.02L805.026 1078.01L805.066 1078.01L805.154 1078.01L805.204 1078C810.188 1077.77 815.969 1077.5 821.19 1077.27C848.193 1076 868.643 1074.73 923.723 1070.73C991.174 1065.87 1014.79 1064.69 1052.52 1064.32C1086.7 1064 1109.75 1064.77 1135.34 1067.06C1148.39 1068.2 1157.77 1069.55 1177.37 1072.98C1204.09 1077.67 1209.29 1078.37 1228.21 1079.71C1272.96 1082.94 1329.84 1084.45 1379.33 1083.72C1391.14 1083.55 1408.31 1083.39 1417.46 1083.35C1434.86 1083.31 1436.95 1083.1 1438.7 1081.43C1439.1 1081.06 1439.49 1079.96 1439.49 1079.02V1077.27H1436.56C1434.92 1077.27 1414.52 1077.76 1391.19 1078.33C1353.51 1079.27 1347.24 1079.35 1334.42 1078.94C1297.36 1077.71 1261.09 1073.43 1211.44 1064.45C1160.88 1055.26 1131.1 1052.93 1071.73 1053.5C1044.11 1053.79 1000.61 1056.81 957.053 1061.55C938.072 1063.59 914.458 1066.45 915.362 1066.57C915.87 1066.65 922.48 1066.04 930.05 1065.26C953.776 1062.77 990.44 1059.26 991.343 1059.38C992.304 1059.51 929.372 1066.16 914.684 1067.47C870.846 1071.39 810.908 1073.59 747.016 1073.59C727.313 1073.59 721.002 1073.61 719.003 1073.88C717.009 1073.61 710.715 1073.59 691.067 1073.59ZM443.472 1059.18C442.909 1059.06 443.359 1058.98 444.43 1058.98C445.5 1058.98 445.951 1059.06 445.444 1059.18C444.88 1059.26 443.979 1059.26 443.472 1059.18ZM438.965 1058.77C438.402 1058.65 438.74 1058.57 439.641 1058.57C440.599 1058.57 440.993 1058.65 440.655 1058.77C440.261 1058.85 439.472 1058.85 438.965 1058.77ZM435.867 1058.36C435.416 1058.24 435.585 1058.12 436.205 1058.12C436.824 1058.08 437.162 1058.2 436.937 1058.32C436.768 1058.44 436.261 1058.49 435.867 1058.36ZM694.898 746.574C710.165 745.798 715.517 746.165 718.334 748.207C718.57 748.389 718.798 748.591 719.003 748.798C719.208 748.591 719.437 748.389 719.674 748.207C722.498 746.165 727.865 745.798 743.174 746.574C747.524 746.778 758.879 747.145 768.37 747.39C810.174 748.452 871.863 752.697 904.233 756.821C942.986 761.72 973.548 767.926 1033.26 782.868C1095.18 798.423 1159.58 806.506 1250.81 810.262C1293.41 812.018 1373.34 813.937 1398.25 813.814C1416.95 813.733 1420.74 813.814 1425.2 814.427C1435.43 815.855 1439.49 817.652 1439.49 820.836V822.388L1433.96 822.673C1421.7 823.245 1358.03 823.449 1336.96 822.959C1262.67 821.285 1196.13 816.427 1124.61 807.364C1077.44 801.403 1066.14 798.953 1015.24 783.603C969.763 769.885 954.68 766.578 912.989 761.148C859.661 754.167 791.927 750.166 739.672 750.86L719.911 751.122V751.146L719.003 751.134L718.092 751.146V751.122L698.391 750.86C646.28 750.166 578.734 754.167 525.553 761.148C483.977 766.578 468.936 769.885 423.586 783.603C372.827 798.953 361.56 801.403 314.52 807.364C243.199 816.427 176.835 821.285 102.754 822.959C81.7409 823.449 18.2507 823.245 6.02583 822.673L0.504934 822.388L0.504934 820.836C0.504934 817.652 4.5611 815.855 14.7578 814.427C19.2084 813.814 22.9829 813.733 41.6299 813.814C66.474 813.937 146.189 812.018 188.666 810.262C279.648 806.506 343.871 798.423 405.614 782.868C465.161 767.926 495.639 761.72 534.285 756.821C566.565 752.697 628.084 748.452 669.772 747.39C679.237 747.145 690.56 746.778 694.898 746.574ZM719.003 1060.7C717.495 1060.56 713.889 1060.63 705.489 1060.89C683.067 1061.67 626.619 1061.91 602.169 1061.38C577.72 1060.85 556.594 1060 543.355 1059.1C526.567 1057.91 516.877 1056.89 466.964 1051.18C457.218 1050.08 447.697 1049.01 445.838 1048.85C443.979 1048.69 442.796 1048.48 443.19 1048.36C444.655 1048.03 484.428 1052.03 507.188 1054.81C514.568 1055.71 520.764 1056.4 520.877 1056.28C521.094 1056.12 521.05 1056.12 506.022 1054.05L506.017 1054.05L504.145 1053.79C473.668 1049.63 444.204 1046.73 419.36 1045.42C415.931 1045.27 411.88 1045.05 409.052 1044.9L409.051 1044.9L409.032 1044.9L408.865 1044.89L407.972 1044.84L407.717 1044.83L407.289 1044.8C407.047 1044.79 406.826 1044.78 406.628 1044.77C396.544 1044.2 328.998 1043.58 304.999 1043.87C258.973 1044.32 229.678 1045.75 164.442 1050.73C105.458 1055.22 93.2334 1055.79 58.8123 1055.83C31.6585 1055.83 25.856 1055.63 12.8988 1054.16C7.65956 1053.55 3.43439 1052.93 1.51898 1052.52C0.561274 1052.32 0.504938 1052.77 0.504938 1058.28L0.504937 1064.28L2.08234 1065.43C4.3921 1067.06 7.20888 1067.22 30.6445 1066.94C84.1634 1066.24 110.472 1064.77 158.977 1059.91C257.339 1050.08 284.944 1048.28 339.364 1048.24C387.024 1048.24 417.727 1049.83 472.598 1055.22C511.075 1058.98 530.116 1060.32 575.41 1062.36C599.578 1063.43 663.068 1066 676.533 1066.45C681.039 1066.61 688.25 1066.98 692.588 1067.3C706.165 1068.28 713.432 1067.96 717.432 1066.2C718.033 1065.94 718.562 1065.59 719.003 1065.21C719.445 1065.59 719.975 1065.94 720.578 1066.2C724.589 1067.96 731.876 1068.28 745.491 1067.3C749.841 1066.98 757.071 1066.61 761.591 1066.45C775.092 1066 838.759 1063.43 862.994 1062.36C908.413 1060.32 927.508 1058.98 966.092 1055.22C1021.11 1049.83 1051.9 1048.24 1099.69 1048.24C1154.27 1048.28 1181.95 1050.08 1280.58 1059.91C1329.22 1064.77 1355.6 1066.24 1409.27 1066.94C1432.77 1067.22 1435.6 1067.06 1437.91 1065.43L1439.49 1064.28V1058.28C1439.49 1052.77 1439.44 1052.32 1438.48 1052.52C1436.56 1052.93 1432.32 1053.55 1427.07 1054.16C1414.07 1055.63 1408.25 1055.83 1381.02 1055.83C1346.51 1055.79 1334.25 1055.22 1275.1 1050.73C1209.68 1045.75 1180.31 1044.32 1134.15 1043.87C1110.09 1043.58 1042.36 1044.2 1032.24 1044.77C1032.05 1044.78 1031.82 1044.79 1031.58 1044.8L1031.15 1044.83L1030.9 1044.84L1030 1044.89L1029.83 1044.9L1029.81 1044.9L1029.81 1044.9C1026.98 1045.05 1022.92 1045.27 1019.48 1045.42C994.563 1046.73 965.018 1049.63 934.456 1053.79L932.579 1054.05L932.574 1054.05C917.505 1056.12 917.461 1056.12 917.678 1056.28C917.791 1056.4 924.005 1055.71 931.406 1054.81C954.228 1052.03 994.112 1048.03 995.58 1048.36C995.976 1048.48 994.789 1048.69 992.925 1048.85C991.061 1049.01 981.514 1050.08 971.741 1051.18C921.689 1056.89 911.972 1057.91 895.138 1059.1C881.862 1060 860.678 1060.85 836.16 1061.38C811.643 1061.91 755.038 1061.67 732.554 1060.89C724.131 1060.63 720.514 1060.56 719.003 1060.7ZM439.529 1048.16C438.965 1048.03 439.416 1047.95 440.486 1047.95C441.557 1047.95 442.007 1048.03 441.5 1048.16C440.937 1048.24 440.036 1048.24 439.529 1048.16ZM435.867 1047.75C435.416 1047.63 435.585 1047.5 436.205 1047.5C436.824 1047.46 437.162 1047.58 436.937 1047.71C436.768 1047.83 436.261 1047.87 435.867 1047.75ZM719.003 959.403C708.042 959.001 612.013 959.436 579.072 960.053C566.227 960.339 538.961 960.707 518.511 960.911C498.061 961.115 477.78 961.482 473.443 961.727C441.388 963.401 419.529 966.871 398.234 973.649C350.744 988.795 309.675 995.858 250.353 999.165C234.016 1000.06 173.174 1000.19 154.865 999.369C121.401 997.858 111.035 997.205 86.9801 995.164C40.5596 991.204 22.7012 988.509 5.29346 982.753C4.5707 982.521 3.88806 982.301 3.28294 982.105L3.23703 982.09L3.23431 982.09C1.83732 981.638 0.864758 981.324 0.786607 981.324C0.561265 981.324 2.02599 986.386 2.47668 987.162C2.70202 987.57 3.99774 988.428 5.34979 989.081C21.4054 997.124 80.5579 1001.61 180.497 1002.39C232.946 1002.84 298.802 1001.29 317.111 999.247C327.984 998.022 342.406 994.919 376.545 986.345C402.065 979.977 415.811 976.996 428.374 975.2C433.332 974.506 439.021 973.649 441.05 973.322C445.669 972.628 462.908 970.954 474.288 970.137C499.132 968.341 517.272 967.851 578.79 967.443C609.493 967.198 648.759 966.79 666.11 966.504C683.462 966.218 700.306 966.096 703.574 966.218C709.32 966.504 715.686 966.218 717.207 965.606C717.945 965.295 718.537 964.988 719.003 964.659C719.47 964.988 720.063 965.295 720.804 965.606C722.329 966.218 728.713 966.504 734.475 966.218C737.751 966.096 754.642 966.218 772.042 966.504C789.441 966.79 828.816 967.198 859.604 967.443C921.293 967.851 939.484 968.341 964.397 970.137C975.808 970.954 993.095 972.628 997.727 973.322C999.761 973.649 1005.47 974.506 1010.44 975.2C1023.04 976.996 1036.82 979.977 1062.41 986.345C1096.64 994.919 1111.11 998.022 1122.01 999.247C1140.37 1001.29 1206.41 1002.84 1259 1002.39C1359.22 1001.61 1418.54 997.124 1434.64 989.081C1435.99 988.428 1437.29 987.57 1437.52 987.162C1437.97 986.386 1439.44 981.324 1439.21 981.324C1439.13 981.324 1438.16 981.638 1436.76 982.09L1436.75 982.09L1436.71 982.105C1436.1 982.301 1435.42 982.521 1434.69 982.753C1417.24 988.509 1399.33 991.204 1352.78 995.164C1328.66 997.205 1318.26 997.858 1284.71 999.369C1266.35 1000.19 1205.33 1000.06 1188.95 999.165C1129.47 995.858 1088.28 988.795 1040.66 973.649C1019.31 966.871 997.388 963.401 965.244 961.727C960.894 961.482 940.557 961.115 920.051 960.911C899.544 960.707 872.202 960.339 859.322 960.053C826.29 959.436 729.994 959.001 719.003 959.403ZM719.003 928.433C719.845 928.66 721.094 928.727 723.289 928.699C725.549 928.658 764.641 928.577 810.174 928.495C919.034 928.25 930.841 927.842 973.153 922.738C1021 916.982 1030.21 915.267 1071.73 904.244C1098.34 897.181 1111.22 894.528 1129.58 892.323C1156.3 889.139 1176.07 888.24 1238.1 887.424C1254.88 887.22 1293.74 886.362 1324.53 885.587C1366.62 884.484 1385.94 884.158 1402.49 884.239C1426.05 884.362 1429.49 884.158 1434.8 882.198C1437.74 881.096 1438.53 880.361 1438.59 878.605L1438.65 877.176L1384.41 876.931C1287.19 876.442 1255.95 876.687 1223.13 878.034C1185.96 879.626 1149.46 883.015 1120.48 887.628C1103.42 890.363 1097.15 891.833 1073.99 898.651C1067.32 900.611 1059.7 902.774 1057.04 903.428C1051.11 904.938 1043.32 906.612 1043.71 906.326C1043.88 906.204 1048.91 904.448 1054.9 902.448C1067.27 898.284 1081.79 894.038 1088.28 892.69C1095.34 891.221 1092.8 891.302 1084.05 892.854C1069.25 895.507 1059.13 898.324 1048.91 902.734C1037.72 907.551 1033.26 908.531 996.032 914.369C958.635 920.207 942.026 922.085 911.859 923.8C907.283 924.045 868.361 924.371 814.128 924.576C737.595 924.857 722.902 924.987 719.003 925.803C715.114 924.987 700.462 924.857 624.14 924.576C570.058 924.371 531.243 924.045 526.68 923.8C496.597 922.085 480.034 920.207 442.74 914.369C405.614 908.531 401.164 907.551 390.009 902.734C379.813 898.324 369.729 895.507 354.969 892.854C346.237 891.302 343.702 891.221 350.744 892.69C357.222 894.038 371.7 898.284 384.038 902.448C390.009 904.448 395.023 906.204 395.192 906.326C395.587 906.612 387.812 904.938 381.897 903.428C379.249 902.774 371.644 900.611 364.996 898.651C341.899 891.833 335.646 890.363 318.632 887.628C289.732 883.015 253.339 879.626 216.27 878.034C183.539 876.687 152.386 876.442 55.4322 876.931L1.34997 877.176L1.40631 878.605C1.46264 880.361 2.25134 881.096 5.1808 882.198C10.4763 884.158 13.9128 884.362 37.4048 884.239C53.9111 884.158 73.1779 884.484 115.148 885.587C145.851 886.362 184.61 887.22 201.341 887.424C263.198 888.24 282.915 889.139 309.562 892.323C327.871 894.528 340.716 897.181 367.25 904.244C408.657 915.267 417.839 916.982 465.556 922.738C507.751 927.842 519.525 928.25 628.084 928.495C673.49 928.577 712.475 928.658 714.728 928.699C716.917 928.727 718.163 928.66 719.003 928.433ZM719.003 894.326C724.433 894.334 751.097 892.363 792.944 888.853C898.019 880.034 964.849 868.235 1021.06 848.557L1031.62 844.842L1028.12 843.209C1014.56 837.003 985.129 826.021 965.866 820.061C907.509 801.975 843.504 791.605 771.533 788.624C765.997 788.42 751.705 788.094 739.785 787.93C725.643 787.767 720.716 787.713 719.003 787.923C717.294 787.713 712.381 787.767 698.278 787.93C686.391 788.094 672.138 788.42 666.617 788.624C594.846 791.605 531.018 801.975 472.823 820.061C453.612 826.021 424.262 837.003 410.741 843.209L407.248 844.842L417.783 848.557C473.837 868.235 540.482 880.034 645.266 888.853C686.998 892.363 713.588 894.334 719.003 894.326ZM719.003 889.595C718.512 889.427 717.775 889.287 716.643 889.098C714.897 888.771 709.489 888.485 704.7 888.404C690.278 888.199 655.407 885.546 629.323 882.688C622.112 881.912 603.86 879.626 588.762 877.666C559.242 873.747 541.609 870.767 524.764 866.725C499.47 860.723 471.02 851.007 464.429 846.189L461.781 844.23L472.429 839.126C498.794 826.429 523.694 817.284 548.313 811.201C563.242 807.527 594.79 802.587 626.112 798.994C653.998 795.81 657.773 795.524 674.561 795.157C683.574 794.952 694.053 794.585 697.94 794.34C709.751 793.594 716.659 792.231 719.003 790.188C721.353 792.231 728.28 793.594 740.124 794.34C744.022 794.585 754.529 794.952 763.568 795.157C780.403 795.524 784.188 795.81 812.151 798.994C843.561 802.587 875.196 807.527 890.166 811.201C914.853 817.284 939.823 826.429 966.261 839.126L976.938 844.23L974.283 846.189C967.673 851.007 939.145 860.723 913.78 866.725C896.889 870.767 879.207 873.747 849.605 877.666C834.465 879.626 816.162 881.912 808.931 882.688C782.775 885.546 747.807 888.199 733.345 888.404C728.543 888.485 723.12 888.771 721.369 889.098C720.234 889.287 719.495 889.427 719.003 889.595ZM718.149 1022.56H719.855H850.17C1018.46 1022.56 1049.53 1022.88 1146.3 1025.82C1168.22 1026.48 1194.77 1027.25 1205.33 1027.54C1231.15 1028.23 1301.77 1028.23 1316.62 1027.54C1345.32 1026.19 1364.53 1025.09 1377.64 1023.99C1388.37 1023.05 1393.51 1022.4 1409.84 1019.7C1426.67 1016.97 1431.98 1016.31 1435.54 1016.52C1438.53 1016.68 1438.7 1017.05 1438.08 1021.21C1437.69 1024.07 1436.1 1026.15 1433.62 1026.97C1432.55 1027.38 1427.63 1027.62 1417.86 1027.87C1412.18 1028.01 1404.2 1028.25 1397.52 1028.44L1397.51 1028.44C1394.95 1028.52 1392.6 1028.58 1390.63 1028.64C1315.38 1031.09 1217.14 1031.74 1114.1 1030.52C1047.16 1029.74 954.737 1029.17 831.923 1028.76C817.756 1028.72 804.085 1028.68 791.535 1028.64C755.097 1028.53 728.115 1028.45 725.888 1028.48C721.086 1028.48 720.239 1028.36 719.278 1027.66C719.182 1027.59 719.09 1027.52 719.003 1027.44C718.916 1027.52 718.824 1027.59 718.728 1027.66C717.77 1028.36 716.925 1028.48 712.137 1028.48C709.916 1028.45 683.009 1028.53 646.671 1028.64H646.666C634.153 1028.68 620.521 1028.72 606.395 1028.76C483.921 1029.17 391.756 1029.74 324.998 1030.52C222.242 1031.74 124.274 1031.09 49.2353 1028.64C47.2737 1028.58 44.9208 1028.52 42.3772 1028.44L42.3586 1028.44C35.7014 1028.25 27.743 1028.01 22.0815 1027.87C12.3354 1027.62 7.43422 1027.38 6.36384 1026.97C3.88507 1026.15 2.30768 1024.07 1.91333 1021.21C1.29363 1017.05 1.46264 1016.68 4.44843 1016.52C7.99757 1016.31 13.2931 1016.97 30.0811 1019.7C46.3621 1022.4 51.4887 1023.05 62.1925 1023.99C75.2623 1025.09 94.4164 1026.19 123.035 1027.54C137.851 1028.23 208.271 1028.23 234.016 1027.54C244.551 1027.25 271.029 1026.48 292.887 1025.82C389.39 1022.88 420.374 1022.56 588.198 1022.56H718.149ZM708.25 771.641C647.632 773.111 602.564 776.009 562.171 781.113C532.144 784.869 490.118 791.768 463.922 797.239C451.134 799.893 422.909 806.833 395.981 813.937C322.125 833.411 301.957 837.044 256.832 839.045C248.269 839.453 224.946 839.821 195.426 840.065C169.23 840.27 141.344 840.555 133.457 840.678C71.9385 841.658 52.221 841.739 37.7991 841.045C16.6169 839.984 7.03987 840.882 2.8147 844.393C1.29363 845.618 1.06829 846.149 1.06829 848.067L1.06829 850.313L103.205 850.231C203.708 850.15 214.017 850.231 246.41 851.497C297.506 853.538 343.758 858.233 383.306 865.419C400.094 868.48 407.192 870.114 434.965 877.258C477.442 888.2 490.4 890.404 545.834 896.201C588.198 900.651 616.197 902.693 661.322 904.775C681.328 905.674 715.84 906.909 719.003 906.87C722.175 906.909 756.782 905.674 776.844 904.775C822.094 902.693 850.17 900.651 892.652 896.201C948.24 890.404 961.233 888.2 1003.83 877.258C1031.68 870.114 1038.8 868.48 1055.63 865.419C1095.29 858.233 1141.67 853.538 1192.91 851.497C1225.39 850.231 1235.73 850.15 1336.51 850.231L1438.93 850.313V848.067C1438.93 846.149 1438.7 845.618 1437.18 844.393C1432.94 840.882 1423.34 839.984 1402.1 841.045C1387.63 841.739 1367.86 841.658 1306.17 840.678C1298.26 840.555 1270.3 840.27 1244.03 840.065C1214.43 839.821 1191.04 839.453 1182.46 839.045C1137.21 837.044 1116.98 833.411 1042.92 813.937C1015.92 806.833 987.615 799.893 974.791 797.239C948.523 791.768 906.38 784.869 876.269 781.113C835.765 776.009 790.571 773.111 729.786 771.641L719.911 771.4V771.355L719.003 771.377L718.092 771.355V771.4L708.25 771.641ZM719.003 775.884L713.038 776.132C693.095 776.948 650.336 779.561 625.267 781.521C557.946 786.706 496.371 795.32 456.542 805.118C437.5 809.772 417.332 815.447 412.938 817.366C401.277 822.469 379.306 828.471 350.349 834.554C342.462 836.187 332.942 838.187 329.223 839.004C322.125 840.515 309.844 842.76 302.182 843.985C299.703 844.393 298.07 844.76 298.52 844.842C298.578 844.847 298.702 844.859 298.884 844.877L299.436 844.931L299.439 844.932L299.442 844.932L299.442 844.932L299.445 844.932C301.075 845.093 304.578 845.437 308.379 845.781C345.392 849.251 378.066 854.191 405.84 860.56C410.797 861.662 427.811 865.868 443.585 869.869C459.415 873.829 473.048 877.217 473.95 877.381C474.795 877.544 475.414 877.748 475.245 877.87C475.133 877.993 466.288 876.115 455.641 873.706C419.248 865.541 396.601 860.683 396.263 860.968C396.094 861.05 399.474 861.907 403.755 862.887C407.981 863.826 418.853 866.317 427.811 868.44C463.471 876.768 480.316 880.238 506.962 884.77C556.369 893.099 593.437 897.467 646.111 901.141C658.336 901.999 666.674 902.285 685.546 902.529C709.151 902.856 712.306 903.06 716.644 904.448C717.647 904.757 718.519 905.279 719.003 905.778C719.488 905.279 720.363 904.757 721.369 904.448C725.719 903.06 728.882 902.856 752.552 902.529C771.477 902.285 779.838 901.999 792.096 901.141C844.916 897.467 882.088 893.099 931.631 884.77C958.352 880.238 975.243 876.768 1011 868.44C1019.98 866.317 1030.89 863.826 1035.12 862.887C1039.42 861.907 1042.81 861.05 1042.64 860.968C1042.3 860.683 1019.59 865.541 983.096 873.706C972.419 876.115 963.549 877.993 963.436 877.87C963.267 877.748 963.888 877.544 964.736 877.381C965.64 877.217 979.311 873.829 995.185 869.869C1011 865.868 1028.06 861.662 1033.03 860.56C1060.88 854.191 1093.65 849.251 1130.77 845.781C1134.58 845.437 1138.09 845.093 1139.72 844.932L1139.73 844.932L1139.73 844.932L1139.73 844.931L1140.29 844.877C1140.47 844.859 1140.59 844.847 1140.65 844.842C1141.1 844.76 1139.47 844.393 1136.98 843.985C1129.3 842.76 1116.98 840.515 1109.86 839.004C1106.13 838.187 1096.59 836.187 1088.68 834.554C1059.64 828.471 1037.61 822.469 1025.92 817.366C1021.51 815.447 1001.29 809.772 982.192 805.118C942.252 795.32 880.506 786.706 812.998 781.521C787.86 779.561 744.982 776.948 724.984 776.132L719.003 775.884ZM433.163 810.017C428.149 811.569 426.121 811.773 430.74 810.262C433.557 809.323 437.613 808.221 438.12 808.221C438.853 808.221 437.613 808.67 433.163 810.017ZM689.49 800.056C699.518 799.525 716.193 798.831 718.503 798.831L719.003 798.843L719.504 798.831C721.82 798.831 738.542 799.525 748.598 800.056C812.716 803.485 861.299 811.569 901.408 825.531C912.368 829.369 920.277 832.635 931.067 837.861C941.8 843.046 942.252 843.291 941.461 843.658C941.417 843.684 941.313 843.742 941.159 843.829L941.133 843.844L941.128 843.847C940.269 844.332 937.977 845.624 935.529 847.087C904.233 865.418 856.215 875.829 782.21 880.279C766.319 881.213 723.306 883.15 719.003 883.116C714.712 883.15 671.817 881.213 655.97 880.279C582.17 875.829 534.285 865.418 503.075 847.087C500.634 845.624 498.349 844.332 497.492 843.847L497.487 843.844L497.481 843.841C497.316 843.747 497.206 843.685 497.16 843.658C496.371 843.291 496.822 843.046 507.526 837.861C518.286 832.635 526.173 829.369 537.102 825.531C577.1 811.569 625.549 803.485 689.49 800.056ZM719.003 882.561C718.78 882.366 718.47 882.139 718.108 881.912C715.235 880.116 709.996 879.626 689.771 879.259C642.337 878.36 593.212 872.073 560.087 862.683C546.172 858.723 532.313 853.456 519.75 847.332L513.159 844.066L514.793 842.597C518.511 839.208 531.863 831.043 532.651 831.614C532.82 831.737 537.327 830.308 542.623 828.471C547.975 826.593 555.524 824.102 559.467 822.918C563.411 821.694 566.565 820.632 566.453 820.55C566.002 820.265 549.608 825.327 541.383 828.267C536.539 830.022 533.215 831.084 534.003 830.635C536.313 829.328 554.059 823.082 560.481 821.326C573.607 817.774 597.381 813.038 608.761 811.691C611.578 811.365 628.873 809.691 647.294 808.017C694.729 803.648 713.77 801.362 718.559 799.484L719.003 799.318L719.448 799.484C724.25 801.362 743.344 803.648 790.91 808.017C809.383 809.691 826.726 811.365 829.551 811.691C840.962 813.038 864.802 817.774 877.964 821.326C884.404 823.082 902.199 829.328 904.515 830.635C905.306 831.084 901.973 830.022 897.115 828.267C888.867 825.327 872.428 820.265 871.976 820.55C871.863 820.632 875.027 821.694 878.981 822.918C882.935 824.102 890.505 826.593 895.872 828.471C901.182 830.308 905.702 831.737 905.871 831.614C906.662 831.043 920.051 839.208 923.779 842.597L925.417 844.066L918.808 847.332C906.21 853.456 892.313 858.723 878.36 862.683C845.142 872.073 795.881 878.36 748.315 879.259C728.035 879.626 722.781 880.116 719.9 881.912C719.537 882.139 719.227 882.366 719.003 882.561ZM704.869 873.829C664.815 873.175 627.859 868.072 588.705 857.825C574.283 854.028 546.172 845.373 544.538 844.189C543.975 843.781 549.327 841.494 561.044 837.085C578.621 830.471 599.972 824.184 621.605 819.285C633.098 816.713 635.689 816.305 663.294 813.324C682.166 811.283 698.841 809.242 706.447 808.058C712.351 807.146 717.631 805.933 719.003 805.221C720.378 805.933 725.673 807.146 731.594 808.058C739.22 809.242 755.942 811.283 774.866 813.324C802.547 816.305 805.146 816.713 816.67 819.285C838.363 824.184 859.774 830.471 877.399 837.085C889.15 841.494 894.516 843.781 893.951 844.189C892.313 845.373 864.124 854.028 849.662 857.825C810.4 868.072 773.341 873.175 733.175 873.829L719.003 874.059L704.869 873.829ZM719.003 877.092C717.622 877.289 714.235 877.043 706.016 876.447C704.948 876.369 703.798 876.286 702.56 876.196C660.139 873.135 631.746 870.236 602.169 865.99C573.495 861.826 554.848 857.049 541.327 850.476C536.595 848.149 530.229 844.27 530.736 843.944C531.694 843.331 542.003 838.759 547.749 836.391C589.1 819.448 640.59 809.16 702.165 805.567C708.081 805.241 714.334 804.873 716.136 804.751C717.373 804.693 718.469 804.696 719.003 804.776C719.538 804.696 720.637 804.693 721.877 804.751C723.685 804.873 729.955 805.241 735.887 805.567C797.633 809.16 849.266 819.448 890.731 836.391C896.494 838.759 906.832 843.331 907.792 843.944C908.3 844.27 901.917 848.149 897.171 850.476C883.613 857.049 864.915 861.826 836.16 865.99C806.502 870.236 778.03 873.135 735.492 876.196C734.25 876.286 733.097 876.369 732.025 876.447C723.784 877.043 720.388 877.289 719.003 877.092ZM590.339 911.103C659.068 915.471 682.786 916.533 703.574 916.329L718.375 916.14V916.125L719.003 916.132L719.629 916.125V916.14L734.475 916.329C755.32 916.533 779.103 915.471 848.023 911.103C893.273 908.245 936.716 904.489 959.2 901.468C965.301 900.692 965.866 900.243 959.934 900.896C957.731 901.182 955.584 901.305 955.189 901.182C954.85 901.1 955.754 900.896 957.335 900.733C961.177 900.325 974.848 897.916 983.265 896.161C994.338 893.833 1004.39 891.384 1031.06 884.566C1065.12 875.87 1082.63 871.746 1087.27 871.338C1088.57 871.257 1091.11 870.889 1092.92 870.522C1108.17 867.746 1128 865.459 1149.46 863.949C1178.28 861.989 1229.74 861.336 1356.96 861.295L1439.04 861.295L1438.82 865.541C1438.7 867.909 1438.48 869.868 1438.36 869.95C1438.19 870.032 1428.03 869.868 1415.77 869.542C1386.22 868.766 1284.25 868.644 1259 869.379C1210.14 870.767 1162.8 873.339 1118.62 877.013C1097.1 878.809 1091.9 879.667 1073.03 884.403C1046.25 891.098 1040.49 892.445 1028.52 894.568C968.747 905.142 901.86 912.124 822.885 916.002C798.141 917.186 734.644 919.268 722.047 919.268H719.629L718.375 919.268L715.967 919.268C703.405 919.268 640.083 917.186 615.408 916.002C536.651 912.124 469.95 905.142 410.347 894.568C398.404 892.445 392.657 891.098 365.954 884.403C347.138 879.667 341.955 878.809 320.491 877.013C276.437 873.339 229.228 870.767 180.497 869.379C155.315 868.644 53.6294 868.766 24.1659 869.542C11.9411 869.868 1.80065 870.032 1.63164 869.95C1.51897 869.868 1.29363 867.909 1.18096 865.541L0.955617 861.295L82.8113 861.295C209.679 861.336 261.001 861.989 289.732 863.949C311.14 865.459 330.913 867.746 346.124 870.522C347.927 870.889 350.462 871.257 351.758 871.338C356.377 871.746 373.841 875.87 407.812 884.566C434.402 891.384 444.43 893.833 455.471 896.161C463.865 897.916 477.499 900.325 481.33 900.733C482.907 900.896 483.808 901.1 483.47 901.182C483.076 901.305 480.935 901.182 478.738 900.896C472.823 900.243 473.386 900.692 479.47 901.468C501.892 904.489 545.214 908.245 590.339 911.103ZM698.391 938.661C667.575 939.028 526.116 940.089 506.681 940.089C493.723 940.13 489.78 940.008 487.526 939.518C485.949 939.15 479.752 938.171 473.724 937.272C443.866 932.822 436.092 931.23 408.093 923.841C370.912 914.042 364.151 912.205 358.011 910.49C327.364 901.876 295.478 898.039 236.27 895.793C124.95 891.588 105.12 891.057 35.1513 890.445C5.23712 890.2 2.92736 890.2 2.02599 890.853C0.730267 891.792 0.842938 893.262 2.19499 894.16C2.23002 894.182 2.26358 894.204 2.29623 894.225L2.29792 894.226L2.30055 894.228L2.30432 894.231L2.3067 894.232L2.30691 894.232L2.3083 894.233L2.30928 894.234L2.3097 894.234C2.38958 894.286 2.46442 894.334 2.54252 894.38C3.67632 895.042 5.49816 895.085 33.4447 895.746L33.4455 895.746H33.4462H33.4469H33.4475H33.448H33.4485H33.449H33.4494H33.4497H33.4501H33.4504H33.4507H33.4509H33.4511H33.4513H33.4515H33.4517H33.4518H33.452L35.433 895.793C167.202 898.937 248.494 903.468 311.365 911.307C332.941 914.002 339.814 915.349 379.925 924.984C411.023 932.455 420.036 934.374 431.585 936.211C440.599 937.599 451.472 938.865 454.683 938.865C458.57 938.865 458.457 939.518 454.514 939.845C446.12 940.457 429.106 943.396 415.98 946.499C402.685 949.602 381.672 956.297 366.968 962.013C330.688 976.221 306.351 982.1 271.479 985.162C236.439 988.223 179.709 988.754 136.837 986.427C111.035 984.998 101.74 983.855 55.3758 976.261C31.9402 972.424 8.84259 969.484 2.30766 969.484C0.448584 969.484 0.392248 969.525 0.730262 970.832C0.899269 971.526 1.68797 972.546 2.47667 973.036C5.23711 974.792 8.95527 975.241 23.0955 975.649L36.4471 975.976L49.5732 978.425C82.9803 984.59 124.331 988.836 169.793 990.755C184.441 991.367 233.002 991.367 250.072 990.755C287.028 989.448 295.647 988.713 315.252 985.202C335.251 981.61 345.673 978.466 366.743 969.607C382.46 962.952 384.038 962.381 395.136 959.359C412.318 954.664 426.233 951.97 446.965 949.275C453.162 948.459 459.133 947.642 460.204 947.438L462.175 947.071L460.204 947.234C459.956 947.253 459.643 947.278 459.286 947.307L459.274 947.308L459.274 947.308L459.27 947.309C458.083 947.405 456.427 947.539 455.133 947.601L452.035 947.806L454.57 947.397C455.978 947.193 462.964 946.254 470.062 945.356L483.02 943.723L584.705 943.111C665.096 942.621 688.476 942.58 696.419 942.988C706.728 943.478 713.263 943.274 716.305 942.335C717.372 942.026 718.339 941.454 719.003 940.813C719.668 941.454 720.638 942.026 721.708 942.335C724.758 943.274 731.311 943.478 741.649 942.988C749.615 942.58 773.059 942.621 853.673 943.111L955.641 943.723L968.634 945.356C975.752 946.254 982.757 947.193 984.169 947.397L986.711 947.806L983.604 947.601C982.307 947.539 980.646 947.405 979.457 947.309L979.453 947.308L979.452 947.308C979.089 947.279 978.771 947.253 978.52 947.234L976.543 947.071L978.52 947.438C979.593 947.642 985.581 948.459 991.795 949.275C1012.58 951.97 1026.54 954.664 1043.77 959.359C1054.9 962.381 1056.48 962.952 1072.24 969.607C1093.37 978.466 1103.82 981.61 1123.87 985.202C1143.53 988.713 1152.18 989.448 1189.23 990.755C1206.35 991.367 1255.05 991.367 1269.74 990.755C1315.32 988.836 1356.79 984.59 1390.29 978.425L1403.45 975.976L1416.84 975.649C1431.02 975.241 1434.75 974.792 1437.52 973.036C1438.31 972.546 1439.1 971.526 1439.27 970.832C1439.61 969.525 1439.55 969.484 1437.69 969.484C1431.13 969.484 1407.97 972.424 1384.47 976.261C1337.98 983.855 1328.66 984.998 1302.78 986.427C1259.79 988.754 1202.91 988.223 1167.77 985.162C1132.8 982.1 1108.39 976.221 1072.01 962.013C1057.27 956.297 1036.2 949.602 1022.87 946.499C1009.7 943.396 992.643 940.457 984.225 939.845C980.271 939.518 980.158 938.865 984.056 938.865C987.276 938.865 998.179 937.599 1007.22 936.211C1018.8 934.374 1027.84 932.455 1059.02 924.984C1099.24 915.349 1106.14 914.002 1127.77 911.307C1190.82 903.468 1272.33 898.937 1404.47 895.793L1406.46 895.746H1406.46H1406.46H1406.46H1406.46H1406.46L1406.46 895.746C1434.49 895.085 1436.31 895.042 1437.45 894.38C1437.53 894.334 1437.6 894.286 1437.68 894.234L1437.69 894.233L1437.69 894.232L1437.69 894.231L1437.69 894.228L1437.7 894.226L1437.73 894.202L1437.8 894.16C1439.15 893.262 1439.27 891.792 1437.97 890.853C1437.06 890.2 1434.75 890.2 1404.75 890.445C1334.59 891.057 1314.7 891.588 1203.08 895.793C1143.7 898.039 1111.73 901.876 1081 910.49C1074.84 912.205 1068.06 914.042 1030.77 923.841C1002.7 931.23 994.902 932.822 964.962 937.272C958.917 938.171 952.703 939.15 951.121 939.518C948.862 940.008 944.907 940.13 931.914 940.089C912.424 940.089 770.573 939.028 739.672 938.661C725.647 938.495 720.722 938.441 719.003 938.651C717.289 938.441 712.377 938.495 698.391 938.661ZM450.514 948.132C450.063 948.01 450.232 947.887 450.852 947.887C451.472 947.846 451.81 947.969 451.584 948.091C451.415 948.214 450.908 948.255 450.514 948.132ZM719.003 986.016C719.258 986.317 719.578 986.624 719.956 986.917C720.578 987.407 722.385 988.142 723.967 988.55C726.566 989.203 728.882 989.285 747.75 989.162C769.556 989.04 784.47 989.367 822.32 990.755C867.513 992.388 928.637 995.286 925.135 995.613C923.779 995.735 928.298 996.185 936.716 996.756C954.285 997.94 971.515 999.328 1019.7 1003.41C1040.94 1005.21 1058.74 1006.64 1059.19 1006.55C1060.04 1006.43 1016.48 1002.19 989.253 999.696C982.248 999.083 977.333 998.552 978.237 998.512C981.344 998.43 1003.6 1000.43 1037.55 1003.78C1088.57 1008.84 1101.16 1010.02 1104.21 1009.98C1105.74 1009.94 1106.7 1010.07 1106.36 1010.23C1105.57 1010.6 1127.83 1012.27 1136.98 1012.56C1141.27 1012.68 1140.54 1012.6 1133.87 1012.15C1116.76 1011 1122.07 1011 1144.89 1012.15C1225.95 1016.19 1290.3 1015.37 1365.77 1009.29C1368.37 1009.09 1371.51 1008.84 1374.73 1008.58L1374.77 1008.58L1374.79 1008.58L1374.8 1008.58C1380.04 1008.16 1385.49 1007.73 1389.22 1007.45C1410.74 1005.78 1424.35 1003.74 1431.92 1001.12C1437.18 999.287 1438.36 998.226 1438.36 995.368C1438.36 994.143 1438.19 993.163 1437.91 993.163C1437.69 993.163 1435.71 993.531 1433.56 993.98C1406.11 999.736 1373.4 1003.74 1334.87 1006.06C1328.43 1006.47 1323.29 1006.92 1323.4 1007.04C1323.52 1007.21 1320.92 1007.45 1317.58 1007.58C1315.61 1007.67 1311.77 1007.84 1307.45 1008.03L1307.44 1008.03L1307.44 1008.03C1304.45 1008.16 1301.24 1008.3 1298.26 1008.43C1263.8 1009.98 1209.85 1010.31 1185.84 1009.09C1162.01 1007.9 1144.66 1006.64 1124.27 1004.55C1104.33 1002.55 1091.39 1000.92 1049.98 995.205C1005.69 989.122 971.289 986.468 911.294 984.508C897.638 984.067 726.329 983.586 719.003 983.957C711.697 983.586 540.862 984.067 527.243 984.508C467.415 986.468 433.106 989.122 388.939 995.205C347.645 1000.92 334.744 1002.55 314.858 1004.55C294.521 1006.64 277.226 1007.9 253.452 1009.09C229.509 1010.31 175.709 1009.98 141.344 1008.43C138.374 1008.3 135.17 1008.16 132.191 1008.03L132.186 1008.03L132.166 1008.03C127.865 1007.84 124.039 1007.67 122.077 1007.58C118.753 1007.45 116.162 1007.21 116.275 1007.04C116.387 1006.92 111.261 1006.47 104.839 1006.06C66.4176 1003.74 33.7993 999.736 6.42018 993.98C4.27943 993.531 2.30768 993.163 2.08234 993.163C1.80066 993.163 1.63165 994.143 1.63165 995.368C1.63165 998.226 2.8147 999.287 8.05391 1001.12C15.6029 1003.74 29.1798 1005.78 50.6437 1007.45C54.3643 1007.73 59.802 1008.16 65.0225 1008.58L65.0306 1008.58L65.0538 1008.58L65.0885 1008.58L65.1366 1008.59C68.334 1008.84 71.4445 1009.09 74.0229 1009.29C149.287 1015.37 213.454 1016.19 294.295 1012.15C317.055 1011 322.35 1011 305.281 1012.15C298.633 1012.6 297.901 1012.68 302.182 1012.56C311.309 1012.27 333.505 1010.6 332.716 1010.23C332.378 1010.07 333.336 1009.94 334.857 1009.98C337.899 1010.02 350.462 1008.84 401.333 1003.78C435.191 1000.43 457.387 998.43 460.485 998.512C461.387 998.552 456.486 999.083 449.5 999.696C422.346 1002.19 378.911 1006.43 379.756 1006.55C380.207 1006.64 397.953 1005.21 419.135 1003.41C467.189 999.328 484.372 997.94 501.892 996.756C510.286 996.185 514.793 995.735 513.441 995.613C509.948 995.286 570.903 992.388 615.972 990.755C653.717 989.367 668.589 989.04 690.335 989.162C709.151 989.285 711.461 989.203 714.052 988.55C715.629 988.142 717.432 987.407 718.052 986.917C718.429 986.624 718.748 986.317 719.003 986.016ZM470.344 997.736C469.274 997.736 468.823 997.818 469.386 997.94C469.893 998.022 470.795 998.022 471.358 997.94C471.865 997.818 471.414 997.736 470.344 997.736ZM464.992 998.185C463.471 998.185 462.851 998.267 463.753 998.348C464.598 998.43 465.837 998.43 466.57 998.348C467.246 998.267 466.57 998.185 464.992 998.185ZM319.646 1010.84C318.407 1010.84 317.956 1010.92 318.689 1011C319.365 1011.09 320.379 1011.09 320.942 1011C321.449 1010.88 320.886 1010.8 319.646 1010.84ZM32.8416 1000.55C32.2219 1000.55 32.0529 1000.68 32.5036 1000.8C32.8979 1000.92 33.4049 1000.88 33.574 1000.76C33.7993 1000.63 33.4613 1000.51 32.8416 1000.55ZM14.0818 997.818C14.2508 997.94 17.9126 998.634 22.1942 999.287C26.4757 999.981 30.2502 1000.47 30.5318 1000.39C30.8698 1000.31 27.8277 999.777 23.8279 999.165C19.8281 998.552 15.9409 997.94 15.1522 997.777C14.3635 997.654 13.9128 997.654 14.0818 997.818ZM11.7157 997.083C9.34963 996.756 8.89895 997.083 11.2087 997.45C12.1664 997.613 13.1241 997.654 13.2368 997.532C13.4058 997.45 12.6734 997.246 11.7157 997.083ZM8.05391 996.47C7.43422 996.47 7.26521 996.593 7.7159 996.715C8.11025 996.838 8.61727 996.797 8.78628 996.674C9.01162 996.552 8.6736 996.429 8.05391 996.47ZM673.04 1107.6C604.367 1107.97 552.819 1109.15 538.172 1110.74C527.863 1111.85 522.117 1113.03 505.836 1117.4C484.822 1123.07 475.471 1124.99 465.105 1125.77L461.049 1126.09L468.372 1126.38C504.709 1127.77 515.075 1127.07 534.792 1121.77C545.665 1118.87 550.96 1117.81 557.439 1117.27C567.692 1116.46 636.985 1114.38 666.955 1114.01C697.996 1113.64 705.94 1113.19 713.32 1111.56C715.694 1111.04 717.841 1110.08 719.003 1109.14C720.168 1110.08 722.321 1111.04 724.702 1111.56C732.102 1113.19 740.067 1113.64 771.194 1114.01C801.248 1114.38 870.733 1116.46 881.015 1117.27C887.511 1117.81 892.822 1118.87 903.724 1121.77C923.497 1127.07 933.891 1127.77 970.328 1126.38L977.672 1126.09L973.605 1125.77C963.21 1124.99 953.833 1123.07 932.761 1117.4C916.435 1113.03 910.673 1111.85 900.335 1110.74C885.647 1109.15 833.957 1107.97 765.093 1107.6C736.637 1107.46 722.545 1107.47 719.003 1107.68C715.471 1107.47 701.417 1107.46 673.04 1107.6ZM621.324 1120.46C630.901 1119.85 673.378 1119.77 701.489 1120.3L719.003 1120.61L736.565 1120.3C764.754 1119.77 807.349 1119.85 816.953 1120.46C832.658 1121.48 844.464 1122.79 855.367 1124.71C858.023 1125.15 860.339 1125.64 860.565 1125.81C860.791 1125.93 843.617 1126.01 822.433 1125.93C799.327 1125.85 780.29 1125.97 774.866 1126.22C741.767 1127.82 723.184 1126.84 719.003 1123.33C714.833 1126.84 696.301 1127.82 663.294 1126.22C657.885 1125.97 638.9 1125.85 615.859 1125.93C594.733 1126.01 577.607 1125.93 577.833 1125.81C578.058 1125.64 580.368 1125.15 583.015 1124.71C593.888 1122.79 605.662 1121.48 621.324 1120.46ZM709.489 820.224C692.363 820.877 678.899 822.265 663.575 825.001C643.914 828.471 623.464 834.35 606.451 841.413L602.057 843.25L604.761 844.148C611.578 846.312 627.352 850.762 634.281 852.436C642.393 854.395 656.139 857.008 656.59 856.682C656.759 856.559 654.505 856.069 651.632 855.579C642.393 854.028 636.253 852.354 625.943 848.721C620.422 846.761 614.338 844.801 612.479 844.352L609.042 843.577L613.268 842.597C615.577 842.066 625.661 838.677 635.577 835.044C652.365 828.92 654.336 828.308 661.716 826.879C674.786 824.347 692.194 822.184 710.052 820.836C713.489 820.591 716.362 820.306 716.531 820.183C716.7 820.061 713.545 820.102 709.489 820.224ZM661.773 857.498C661.322 857.376 661.491 857.253 662.111 857.253C662.73 857.212 663.068 857.335 662.843 857.457C662.674 857.58 662.167 857.621 661.773 857.498ZM658.787 856.886C657.885 856.886 657.547 856.967 658.111 857.09C658.618 857.172 659.407 857.172 659.801 857.09C660.139 856.967 659.745 856.886 658.787 856.886ZM490.343 738.939C497.442 739.429 505.948 739.551 530.623 739.429C547.806 739.347 560.763 739.388 559.354 739.47C541.721 740.613 535.693 741.103 527.525 742.083C516.99 743.389 506.23 744.981 506.568 745.226C506.681 745.308 510.568 744.818 515.187 744.165C519.807 743.512 524.99 742.858 526.68 742.736C528.37 742.573 525.215 743.144 519.638 743.92C494.568 747.472 485.104 749.962 471.978 756.453C453.781 765.476 438.12 770.824 414.91 776.009C410.91 776.907 407.53 777.52 407.417 777.438C407.248 777.356 409.558 776.703 412.487 776.009C427.754 772.457 445.275 766.415 465.161 757.842C476.203 753.065 481.668 751.064 488.259 749.391C491.132 748.697 493.385 748.002 493.216 747.921C492.878 747.676 483.752 749.84 475.527 752.126C471.302 753.31 468.034 754.535 465.781 755.8C448.824 765.272 425.557 772.743 390.573 780.01C351.645 788.094 324.04 791.972 273.676 796.341C189.398 803.73 130.584 806.466 47.7142 806.874L1.06829 807.119V805.935C1.06829 803.485 4.05408 801.852 10.3637 800.831C13.0114 800.382 18.8704 800.301 37.1231 800.382C79.3748 800.627 155.034 798.994 186.694 797.198C221.622 795.197 285 789.972 313.168 786.746C347.927 782.786 363.419 780.255 398.404 772.866C416.938 768.946 429.501 765.313 439.585 760.904C445.275 758.372 448.824 756.127 454.683 751.269C458.908 747.758 459.077 747.553 459.077 745.553C459.077 742.736 460.88 740.899 464.823 739.592C468.767 738.327 477.949 738.123 490.343 738.939ZM496.484 747.023C495.864 747.023 495.695 747.145 496.146 747.268C496.54 747.39 497.047 747.349 497.216 747.227C497.442 747.104 497.104 746.982 496.484 747.023ZM531.468 742.164C530.567 742.164 530.229 742.246 530.792 742.368C531.299 742.45 532.088 742.45 532.482 742.368C532.82 742.246 532.426 742.164 531.468 742.164ZM524.877 1066.94C524.426 1066.81 524.595 1066.69 525.215 1066.69C525.835 1066.65 526.173 1066.77 525.947 1066.9C525.778 1067.02 525.271 1067.06 524.877 1066.94ZM503.807 1103.39C487.188 1098.7 466.964 1094.17 448.035 1090.98C438.289 1089.35 422.402 1087.06 420.938 1087.1C420.374 1087.1 428.825 1088.82 439.641 1090.9C470.288 1096.82 481.555 1099.47 494.625 1103.84L499.695 1105.56L498.456 1106.5C493.047 1110.7 477.442 1116.05 464.711 1118.13C455.359 1119.64 457.443 1119.72 469.048 1118.3C483.358 1116.54 495.357 1113.93 503.357 1110.78C507.638 1109.11 512.539 1106.66 512.596 1106.17C512.596 1106.01 508.652 1104.78 503.807 1103.39ZM476.428 878.32C475.978 878.197 476.147 878.075 476.766 878.075C477.386 878.034 477.724 878.156 477.499 878.279C477.33 878.401 476.823 878.442 476.428 878.32ZM434.996 738.708C427.303 738.371 423.865 738.22 421.011 739.083C418.705 739.781 416.781 741.141 413.303 743.598C412.902 743.881 412.481 744.179 412.037 744.491C402.967 750.82 399.361 752.698 387.925 756.984C367.194 764.782 351.082 768.661 317.393 774.09C268.494 781.929 235.932 784.46 144.161 787.604C135.805 787.892 126.947 788.201 119.446 788.463L119.445 788.463C112.079 788.72 106.022 788.932 103.036 789.033C97.0079 789.237 86.5858 789.604 79.9382 789.849C78.6309 789.897 77.1733 789.95 75.628 790.006L75.6156 790.007C69.3048 790.236 61.5339 790.518 56.5589 790.747C50.362 790.992 37.5738 791.237 28.1094 791.278C10.3073 791.36 7.15253 791.605 3.54705 793.156C1.85698 793.891 0.673931 795.402 1.51897 795.687C2.19499 795.932 120.218 792.625 145.569 791.686C206.468 789.359 252.72 786.338 291.76 782.133C295.929 781.684 304.436 780.827 310.633 780.255C322.632 779.153 324.209 778.949 321.055 778.826C319.477 778.745 319.872 778.622 323.026 778.132C355.081 773.356 387.249 767.15 401.051 763.027C406.967 761.271 407.812 761.067 406.403 761.72C404.657 762.537 393.953 765.884 389.052 767.191C386.686 767.803 384.77 768.416 384.883 768.497C385.784 769.11 409.727 761.434 409.107 760.74C408.938 760.495 409.051 760.454 409.333 760.577C410.459 761.067 427.642 753.31 435.529 748.778C439.698 746.369 449.5 739.796 449.5 739.429C449.5 739.388 444.092 739.102 437.5 738.817C436.618 738.779 435.785 738.742 434.996 738.708ZM316.999 779.112C316.604 778.99 316.886 778.908 317.675 778.908C318.463 778.908 318.745 778.99 318.407 779.112C318.013 779.194 317.337 779.194 316.999 779.112ZM435.303 1121.24C434.571 1121.15 435.022 1121.07 436.261 1121.07C437.5 1121.03 438.064 1121.11 437.557 1121.24C436.993 1121.32 435.979 1121.32 435.303 1121.24ZM430.627 1121.48C429.106 1121.48 428.487 1121.56 429.388 1121.64C430.233 1121.72 431.473 1121.72 432.205 1121.64C432.881 1121.56 432.205 1121.48 430.627 1121.48ZM422.346 1122.05C421.614 1121.97 422.064 1121.89 423.304 1121.89C424.543 1121.85 425.107 1121.93 424.6 1122.05C424.036 1122.13 423.022 1122.13 422.346 1122.05ZM385.277 935.925C381.165 932.986 374.01 930.454 353.729 924.657C330.688 918.125 302.182 913.757 263.029 910.695C253.227 909.96 204.834 907.184 185.004 906.204C149.851 904.53 104.501 904.53 34.3063 906.204C25.4922 906.394 15.1634 906.69 10.3275 906.829L10.3251 906.829L9.34963 906.857L1.63165 907.102L1.63165 909.347C1.63165 911.511 1.68798 911.593 2.87103 911.348C6.36384 910.654 17.9126 909.429 24.3912 909.062C34.5317 908.49 51.545 908.572 70.0794 909.266C78.7551 909.592 98.0219 910.245 112.895 910.695C181.906 912.818 210.524 914.042 233.453 915.839C279.197 919.391 317.731 926.045 348.377 935.68C353.335 937.232 357.842 938.62 358.405 938.742C358.912 938.865 359.363 939.069 359.363 939.232C359.363 939.64 343.082 947.193 335.646 950.214C307.703 961.564 278.521 968.749 244.438 972.709C218.749 975.69 185.117 976.057 151.203 973.73C126.697 972.056 72.5019 966.136 52.8971 962.952C43.4327 961.441 35.771 960.421 30.3628 959.972L27.8277 959.727L30.9262 960.502C34.25 961.319 33.6303 961.319 26.701 960.543C23.8279 960.176 6.47651 958.665 2.195 958.339C-1.41048 958.094 1.68798 961.646 6.42017 963.156C10.1947 964.381 15.9409 965.197 26.1376 966.014C43.7707 967.361 48.3339 967.851 53.5168 969.035C76.8397 974.22 110.472 977.282 167.54 979.364C186.3 980.017 240.1 980.058 250.917 979.364C276.099 977.813 294.464 975.526 312.435 971.77C321.505 969.852 340.04 964.993 348.096 962.38C363.081 957.522 375.419 951.031 381.897 944.621L382.028 944.492L382.031 944.489L382.033 944.488C383.433 943.107 385.369 941.199 386.46 940.171L388.488 938.252L385.277 935.925ZM374.742 949.52C370.236 952.582 365.053 955.154 357.954 957.808C352.377 959.931 352.434 959.849 360.659 955.93C366.01 953.399 370.574 950.827 378.066 946.213C380.601 944.621 380.883 944.539 379.813 945.642C379.137 946.336 376.827 948.091 374.742 949.52ZM378.517 769.844C378.968 769.64 379.756 769.477 380.207 769.477C380.77 769.477 380.658 769.599 379.925 769.844C378.404 770.334 377.503 770.334 378.517 769.844ZM376.996 738.531C375.644 738.857 373.897 738.98 372.32 738.776C366.405 738.122 361.616 739.837 352.941 745.716C344.997 751.105 341.505 752.983 335.026 755.269C327.815 757.842 321.336 759.597 310.069 762.087C274.578 769.885 257.001 771.886 203.313 774.417C180.103 775.478 142.358 775.642 110.078 774.825C106.923 774.756 103.17 774.67 99.1462 774.579H99.1461L99.1455 774.579L99.144 774.579L99.1386 774.578L99.1365 774.578C88.9327 774.346 76.9918 774.073 68.6711 773.927C47.5452 773.478 44.6157 773.355 35.1514 772.131C21.6308 770.375 10.251 767.027 4.73011 763.108C2.98371 761.883 1.46264 760.863 1.34997 760.863C1.2373 760.863 1.12463 764.619 1.06829 769.232C1.06829 775.723 1.18096 777.642 1.74432 777.805C2.13867 777.887 8.05391 778.336 14.8705 778.826C64.2205 782.092 108.388 782.337 190.356 779.847C256.945 777.805 268.043 776.989 305.281 771.641C323.477 769.028 338.519 764.986 350.856 759.434C362.574 754.126 370.686 748.207 377.897 739.551L379.137 738L376.996 738.531ZM371.024 745.349C368.546 748.411 360.546 754.167 355.194 756.78C350.856 758.862 337.505 763.761 334.575 764.292C333.787 764.455 335.871 763.598 339.138 762.373C353.56 757.025 364.996 750.044 372.151 742.246C373.278 741.021 374.292 740.041 374.405 740.041C374.799 740.041 372.827 743.103 371.024 745.349ZM21.2365 770.538C20.7858 770.416 20.9548 770.293 21.5745 770.293C22.1942 770.253 22.5322 770.375 22.3068 770.498C22.1378 770.62 21.6308 770.661 21.2365 770.538ZM16.7859 769.477C12.8988 768.538 6.25117 766.129 4.44843 764.986C3.65973 764.537 5.01179 764.945 7.49056 765.966C9.91299 766.946 13.8001 768.252 16.1099 768.865C20.8421 770.13 21.4055 770.661 16.7859 769.477ZM375.869 1006.92C375.306 1006.8 375.757 1006.72 376.827 1006.72C377.897 1006.72 378.348 1006.8 377.841 1006.92C377.278 1007 376.376 1007 375.869 1006.92ZM341.336 776.458C340.547 776.458 340.265 776.54 340.66 776.662C340.997 776.744 341.674 776.744 342.068 776.662C342.406 776.54 342.124 776.458 341.336 776.458ZM337.279 777.071C336.885 776.948 337.167 776.867 337.955 776.867C338.744 776.867 339.026 776.948 338.688 777.071C338.293 777.152 337.617 777.152 337.279 777.071ZM335.42 777.275C334.801 777.234 331.758 777.601 328.66 778.01C325.449 778.459 324.322 778.704 326.125 778.581C329.787 778.336 337.054 777.316 335.42 777.275ZM334.463 868.113C334.012 867.991 334.181 867.868 334.801 867.868C335.42 867.827 335.758 867.95 335.533 868.072C335.364 868.195 334.857 868.235 334.463 868.113ZM331.082 738.939C329.73 739.021 323.871 738.939 318.013 738.735C305.224 738.245 303.365 738.408 287.76 741.429C246.748 749.39 214.918 753.391 171.765 756.045C160.442 756.739 114.247 756.739 106.416 756.045C89.2899 754.535 77.6847 753.024 59.6573 749.962C50.6436 748.451 46.9818 747.594 39.3765 745.267C23.8279 740.449 17.8563 739.225 9.96933 739.225C3.26539 739.225 0.335934 740.49 1.34998 743.022C2.53302 745.839 8.67361 749.962 15.4339 752.412C23.9406 755.474 41.2356 759.23 54.5871 760.822C74.699 763.271 94.7544 763.965 127.26 763.353C140.443 763.108 152.498 762.781 154.02 762.7C155.597 762.577 167.765 762.414 181.061 762.291C227.707 761.883 252.438 760.658 274.296 757.556C291.197 755.147 307.252 751.146 318.914 746.328C324.209 744.165 333.449 739.47 333.449 738.98C333.449 738.857 332.378 738.816 331.082 738.939ZM319.928 743.593C316.999 745.022 314.858 745.879 314.858 745.594C314.858 745.512 316.21 744.818 317.844 744.124C319.421 743.389 321.674 742.246 322.801 741.633C323.928 740.98 325.055 740.449 325.28 740.449C325.787 740.449 323.026 742.083 319.928 743.593ZM332.209 867.705C331.758 867.582 331.927 867.46 332.547 867.46C333.167 867.419 333.505 867.541 333.28 867.664C333.111 867.786 332.603 867.827 332.209 867.705ZM316.266 1124.71C285.901 1119.81 253.903 1115.97 227.538 1114.05C168.554 1109.68 115.88 1107.84 52.3337 1107.93C14.9268 1107.97 5.46244 1108.21 2.871 1109.31C1.91329 1109.76 1.06826 1110.33 1.06826 1110.58C1.06826 1111.4 4.89908 1111.56 27.6023 1111.56C65.8542 1111.56 110.866 1112.54 141.062 1114.01C186.131 1116.25 204.891 1117.81 224.439 1120.99C238.41 1123.28 243.875 1123.97 255.029 1124.83C265.057 1125.6 295.253 1126.34 311.759 1126.18L324.716 1126.05L316.266 1124.71ZM277.395 928.291C296.661 931.761 302.746 933.312 312.492 937.313C314.689 938.252 316.548 939.11 316.548 939.232C316.548 939.64 305.393 944.213 297.957 946.908C262.747 959.686 216.214 965.524 155.71 964.871C131.316 964.585 124.049 963.973 87.2618 958.87C46.8692 953.276 36.1654 952.297 16.2789 952.337C9.29328 952.337 3.09636 952.419 2.47667 952.46C1.46263 952.541 1.34996 952.297 1.40629 949.684C1.40629 946.377 2.47667 944.703 5.23712 943.519C6.81451 942.825 8.8426 942.784 34.8697 942.784C65.0092 942.784 66.0233 942.866 79.0931 945.234C87.2055 946.703 92.839 948.051 110.866 952.705C131.823 958.135 142.865 959.768 162.921 960.421C189.173 961.278 214.186 958.42 238.974 951.684C252.889 947.928 272.944 940.702 271.367 940.049C270.86 939.845 267.31 938.701 263.48 937.477C246.466 932.088 225.791 928.046 204.44 925.841C187.934 924.167 183.258 923.963 160.498 923.963C140.837 923.963 136.95 924.086 127.26 924.902C119.429 925.596 114.528 926.249 110.078 927.229C106.698 927.964 102.078 928.781 99.9373 929.066C94.7544 929.72 85.4027 929.434 82.755 928.577C81.4029 928.087 77.065 927.719 68.671 927.27C46.3058 926.045 36.3907 925.76 18.983 925.76H1.63164L1.63164 923.392L1.63164 921.024L17.5746 920.779C26.3066 920.615 41.968 920.248 52.3337 919.881C103.374 918.248 122.415 918.084 158.639 919.064C223.538 920.82 244.551 922.453 277.395 928.291ZM95.7122 927.556C94.0221 927.556 93.2897 927.638 94.1911 927.719C95.0361 927.801 96.3882 927.801 97.2896 927.719C98.1346 927.638 97.4022 927.556 95.7122 927.556ZM89.2336 927.964C87.3745 927.964 86.6984 928.046 87.7125 928.127C88.7265 928.209 90.2476 928.209 91.0926 928.127C91.9377 928.046 91.0926 927.964 89.2336 927.964ZM292.605 1012.88C290.746 1012.88 290.07 1012.96 291.084 1013.05C292.098 1013.13 293.619 1013.13 294.464 1013.05C295.309 1012.96 294.464 1012.88 292.605 1012.88ZM75.1497 740.082C71.2625 739.306 72.1639 739.306 153.118 739.388L235.03 739.429L228.608 740.531C214.524 742.94 196.666 744.981 178.526 746.206C167.371 746.982 135.541 746.859 123.88 746.002C106.754 744.777 86.9801 742.368 75.1497 740.082ZM227.481 940.579C223.763 938.946 218.975 937.599 213.059 936.578C205.116 935.231 204.834 935.354 211.764 937.191C217.284 938.62 224.777 940.824 225.228 941.11C225.566 941.396 213.679 945.356 209.341 946.418C203.708 947.765 195.877 948.949 188.891 949.48C185.849 949.724 183.258 949.969 183.145 950.092C182.413 950.623 194.976 949.724 201.341 948.826C207.538 947.928 217.735 945.438 224.157 943.274L229.453 941.478L227.481 940.579ZM133.739 1119.72C143.428 1120.7 154.132 1122.75 162.076 1125.11C163.653 1125.6 165.005 1126.09 165.005 1126.18C165.005 1126.46 122.077 1125.89 106.416 1125.4C91.994 1124.99 89.5152 1124.87 57.4039 1122.75C45.4608 1121.97 30.9262 1121.15 25.0109 1120.95C12.9551 1120.5 8.0539 1120.01 4.61742 1118.91C2.42033 1118.21 0.39225 1116.38 1.18095 1115.85C1.29362 1115.72 19.659 1115.6 41.9679 1115.56C88.2758 1115.44 99.8247 1115.85 122.472 1118.5C123.4 1118.6 124.412 1118.71 125.447 1118.83L125.509 1118.84L125.516 1118.84L125.52 1118.84L125.55 1118.84C128.633 1119.18 131.899 1119.54 133.739 1119.72ZM62.7558 934.905C55.8265 933.721 51.0943 933.231 42.1933 932.741C33.912 932.292 9.57498 932.251 4.16675 932.7L0.786617 932.945L2.42035 933.843C4.27943 934.905 6.53285 935.435 12.0537 936.048C16.5043 936.578 49.5169 936.578 60.7841 936.089L67.826 935.762L62.7558 934.905ZM880.789 1092.04C881.58 1092.04 881.862 1092.13 881.467 1092.25C881.128 1092.33 880.45 1092.33 880.054 1092.25C879.715 1092.13 879.998 1092.04 880.789 1092.04ZM883.896 1091.64C884.8 1091.64 885.139 1091.72 884.574 1091.84C884.065 1091.92 883.274 1091.92 882.879 1091.84C882.54 1091.72 882.935 1091.64 883.896 1091.64ZM895.985 1090.04C895.816 1090.21 893.725 1090.62 891.353 1090.98C888.924 1091.31 886.72 1091.55 886.325 1091.47C885.986 1091.39 887.455 1091.06 889.602 1090.78C891.744 1090.53 894.112 1090.17 894.907 1090.04L894.909 1090.04L894.911 1090.04L894.912 1090.04C895.703 1089.92 896.155 1089.92 895.985 1090.04ZM995.298 1059.18C995.863 1059.06 995.411 1058.98 994.338 1058.98C993.264 1058.98 992.812 1059.06 993.321 1059.18C993.886 1059.26 994.789 1059.26 995.298 1059.18ZM999.817 1058.77C1000.38 1058.65 1000.04 1058.57 999.139 1058.57C998.179 1058.57 997.784 1058.65 998.122 1058.77C998.518 1058.85 999.309 1058.85 999.817 1058.77ZM1002.92 1058.36C1003.38 1058.24 1003.21 1058.12 1002.59 1058.12C1001.96 1058.08 1001.62 1058.2 1001.85 1058.32C1002.02 1058.44 1002.53 1058.49 1002.92 1058.36ZM999.252 1048.16C999.817 1048.03 999.365 1047.95 998.292 1047.95C997.219 1047.95 996.767 1048.03 997.275 1048.16C997.84 1048.24 998.744 1048.24 999.252 1048.16ZM1002.92 1047.75C1003.38 1047.63 1003.21 1047.5 1002.59 1047.5C1001.96 1047.46 1001.62 1047.58 1001.85 1047.71C1002.02 1047.83 1002.53 1047.87 1002.92 1047.75ZM1005.64 810.017C1010.66 811.569 1012.7 811.773 1008.07 810.262C1005.24 809.323 1001.17 808.221 1000.66 808.221C999.93 808.221 1001.17 808.67 1005.64 810.017ZM988.236 948.132C988.688 948.01 988.519 947.887 987.897 947.887C987.276 947.846 986.937 947.969 987.163 948.091C987.333 948.214 987.841 948.255 988.236 948.132ZM968.351 997.736C969.425 997.736 969.876 997.818 969.312 997.94C968.803 998.022 967.899 998.022 967.334 997.94C966.826 997.818 967.278 997.736 968.351 997.736ZM973.718 998.185C975.243 998.185 975.865 998.267 974.961 998.348C974.113 998.43 972.871 998.43 972.136 998.348C971.458 998.267 972.136 998.185 973.718 998.185ZM1119.47 1010.84C1120.71 1010.84 1121.16 1010.92 1120.43 1011C1119.75 1011.09 1118.73 1011.09 1118.17 1011C1117.66 1010.88 1118.22 1010.8 1119.47 1010.84ZM1407.07 1000.55C1407.69 1000.55 1407.86 1000.68 1407.41 1000.8C1407.01 1000.92 1406.5 1000.88 1406.33 1000.76C1406.11 1000.63 1406.45 1000.51 1407.07 1000.55ZM1425.88 997.818C1425.71 997.94 1422.04 998.634 1417.74 999.287C1413.45 999.981 1409.67 1000.47 1409.38 1000.39C1409.04 1000.31 1412.1 999.777 1416.11 999.165C1420.12 998.552 1424.01 997.94 1424.81 997.777C1425.6 997.654 1426.05 997.654 1425.88 997.818ZM1428.25 997.083C1430.62 996.756 1431.08 997.083 1428.76 997.45C1427.8 997.613 1426.84 997.654 1426.73 997.532C1426.56 997.45 1427.29 997.246 1428.25 997.083ZM1431.92 996.47C1432.55 996.47 1432.71 996.593 1432.26 996.715C1431.87 996.838 1431.36 996.797 1431.19 996.674C1430.96 996.552 1431.3 996.429 1431.92 996.47ZM728.543 820.224C745.717 820.877 759.218 822.265 774.584 825.001C794.3 828.471 814.806 834.35 831.867 841.413L836.273 843.25L833.561 844.148C826.726 846.312 810.908 850.762 803.96 852.436C795.825 854.395 782.041 857.008 781.589 856.682C781.419 856.559 783.679 856.069 786.56 855.579C795.825 854.028 801.983 852.354 812.321 848.721C817.857 846.761 823.958 844.801 825.822 844.352L829.268 843.577L825.031 842.597C822.715 842.066 812.603 838.677 802.66 835.044C785.826 828.92 783.849 828.308 776.448 826.879C763.342 824.347 745.886 822.184 727.978 820.836C724.532 820.591 721.651 820.306 721.482 820.183C721.312 820.061 724.476 820.102 728.543 820.224ZM776.392 857.498C776.844 857.376 776.674 857.253 776.053 857.253C775.431 857.212 775.092 857.335 775.318 857.457C775.488 857.58 775.996 857.621 776.392 857.498ZM779.386 856.886C780.29 856.886 780.629 856.967 780.064 857.09C779.555 857.172 778.764 857.172 778.369 857.09C778.03 856.967 778.425 856.886 779.386 856.886ZM948.297 738.939C941.179 739.429 932.648 739.551 907.905 739.429C890.675 739.347 877.682 739.388 879.094 739.47C896.776 740.613 902.821 741.103 911.012 742.083C921.576 743.389 932.366 744.981 932.027 745.226C931.914 745.308 928.016 744.818 923.384 744.165C918.751 743.512 913.554 742.858 911.859 742.736C910.165 742.573 913.328 743.144 918.921 743.92C944.06 747.472 953.55 749.962 966.713 756.453C984.96 765.476 1000.66 770.824 1023.94 776.009C1027.95 776.907 1031.34 777.52 1031.45 777.438C1031.62 777.356 1029.31 776.703 1026.37 776.009C1011.06 772.457 993.49 766.415 973.548 757.842C962.476 753.065 956.996 751.064 950.387 749.391C947.506 748.697 945.246 748.002 945.415 747.921C945.754 747.676 954.906 749.84 963.154 752.126C967.391 753.31 970.667 754.535 972.927 755.8C989.931 765.272 1013.26 772.743 1048.34 780.01C1087.38 788.094 1115.06 791.972 1165.56 796.341C1250.08 803.73 1309.05 806.466 1392.15 806.874L1438.93 807.119V805.935C1438.93 803.485 1435.93 801.852 1429.61 800.831C1426.95 800.382 1421.08 800.301 1402.77 800.382C1360.41 800.627 1284.54 798.994 1252.79 797.198C1217.76 795.197 1154.21 789.972 1125.96 786.746C1091.11 782.786 1075.57 780.255 1040.49 772.866C1021.91 768.946 1009.31 765.313 999.196 760.904C993.49 758.372 989.931 756.127 984.056 751.269C979.819 747.758 979.65 747.553 979.65 745.553C979.65 742.736 977.842 740.899 973.887 739.592C969.933 738.327 960.725 738.123 948.297 738.939ZM942.139 747.023C942.76 747.023 942.93 747.145 942.478 747.268C942.082 747.39 941.574 747.349 941.405 747.227C941.179 747.104 941.518 746.982 942.139 747.023ZM907.057 742.164C907.961 742.164 908.3 742.246 907.735 742.368C907.227 742.45 906.436 742.45 906.041 742.368C905.702 742.246 906.097 742.164 907.057 742.164ZM913.667 1066.94C914.119 1066.81 913.95 1066.69 913.328 1066.69C912.707 1066.65 912.368 1066.77 912.594 1066.9C912.763 1067.02 913.272 1067.06 913.667 1066.94ZM934.795 1103.39C951.46 1098.7 971.741 1094.17 990.722 1090.98C1000.5 1089.35 1016.43 1087.06 1017.89 1087.1C1018.46 1087.1 1009.99 1088.82 999.139 1090.9C968.408 1096.82 957.109 1099.47 944.003 1103.84L938.919 1105.56L940.162 1106.5C945.585 1110.7 961.233 1116.05 974 1118.13C983.378 1119.64 981.288 1119.72 969.651 1118.3C955.302 1116.54 943.269 1113.93 935.247 1110.78C930.954 1109.11 926.039 1106.66 925.982 1106.17C925.982 1106.01 929.937 1104.78 934.795 1103.39ZM962.25 878.32C962.702 878.197 962.533 878.075 961.911 878.075C961.29 878.034 960.951 878.156 961.177 878.279C961.346 878.401 961.855 878.442 962.25 878.32ZM1003.8 738.708C1011.51 738.371 1014.96 738.22 1017.82 739.083C1020.13 739.781 1022.06 741.141 1025.55 743.598L1025.57 743.612C1025.97 743.891 1026.38 744.184 1026.82 744.491C1035.92 750.82 1039.53 752.698 1051 756.984C1071.79 764.782 1087.94 768.661 1121.73 774.09C1170.76 781.929 1203.41 784.46 1295.44 787.604C1303.82 787.892 1312.7 788.201 1320.22 788.463L1320.23 788.463C1327.61 788.72 1333.68 788.932 1336.68 789.033C1342.72 789.237 1353.17 789.604 1359.84 789.849C1361.15 789.897 1362.6 789.95 1364.15 790.006L1364.16 790.006L1364.17 790.007C1370.5 790.236 1378.3 790.518 1383.28 790.747C1389.5 790.992 1402.32 791.237 1411.81 791.278C1429.66 791.36 1432.83 791.605 1436.44 793.156C1438.14 793.891 1439.32 795.402 1438.48 795.687C1437.8 795.932 1319.45 792.625 1294.03 791.686C1232.96 789.359 1186.58 786.338 1147.43 782.133C1143.25 781.684 1134.72 780.827 1128.51 780.255C1116.47 779.153 1114.89 778.949 1118.05 778.826C1119.64 778.745 1119.24 778.622 1116.08 778.132C1083.93 773.356 1051.68 767.15 1037.84 763.027C1031.9 761.271 1031.06 761.067 1032.47 761.72C1034.22 762.537 1044.95 765.884 1049.87 767.191C1052.24 767.803 1054.16 768.416 1054.05 768.497C1053.15 769.11 1029.14 761.434 1029.76 760.74C1029.93 760.495 1029.81 760.454 1029.53 760.577C1028.4 761.067 1011.17 753.31 1003.26 748.778C999.083 746.369 989.253 739.796 989.253 739.429C989.253 739.388 994.676 739.102 1001.29 738.817C1002.17 738.779 1003.01 738.742 1003.8 738.708ZM1122.12 779.112C1122.52 778.99 1122.24 778.908 1121.44 778.908C1120.65 778.908 1120.37 778.99 1120.71 779.112C1121.11 779.194 1121.78 779.194 1122.12 779.112ZM1003.49 1121.24C1004.22 1121.15 1003.77 1121.07 1002.53 1121.07C1001.29 1121.03 1000.72 1121.11 1001.23 1121.24C1001.79 1121.32 1002.81 1121.32 1003.49 1121.24ZM1008.18 1121.48C1009.7 1121.48 1010.32 1121.56 1009.42 1121.64C1008.57 1121.72 1007.33 1121.72 1006.6 1121.64C1005.92 1121.56 1006.6 1121.48 1008.18 1121.48ZM1016.48 1122.05C1017.22 1121.97 1016.76 1121.89 1015.52 1121.89C1014.28 1121.85 1013.71 1121.93 1014.22 1122.05C1014.79 1122.13 1015.8 1122.13 1016.48 1122.05ZM1053.65 935.925C1057.78 932.986 1064.95 930.454 1085.29 924.657C1108.39 918.125 1136.98 913.757 1176.24 910.695C1186.07 909.96 1234.6 907.184 1254.48 906.204C1289.73 904.53 1335.21 904.53 1405.6 906.204C1414.44 906.394 1424.79 906.69 1429.64 906.829L1429.65 906.829L1430.62 906.857L1438.36 907.102V909.347C1438.36 911.511 1438.31 911.593 1437.12 911.348C1433.62 910.654 1422.04 909.429 1415.54 909.062C1405.37 908.49 1388.31 908.572 1369.73 909.266C1361.03 909.592 1341.71 910.245 1326.79 910.695C1257.59 912.818 1228.89 914.042 1205.9 915.839C1160.03 919.391 1121.39 926.045 1090.66 935.68C1085.68 937.232 1081.17 938.62 1080.6 938.742C1080.09 938.865 1079.64 939.069 1079.64 939.232C1079.64 939.64 1095.97 947.193 1103.42 950.214C1131.44 961.564 1160.71 968.749 1194.88 972.709C1220.64 975.69 1254.37 976.057 1288.38 973.73C1312.95 972.056 1367.3 966.136 1386.96 962.952C1396.45 961.441 1404.13 960.421 1409.55 959.972L1412.1 959.727L1408.99 960.502C1405.66 961.319 1406.28 961.319 1413.22 960.543C1416.11 960.176 1433.51 958.665 1437.8 958.339C1441.41 958.094 1438.31 961.646 1433.56 963.156C1429.78 964.381 1424.01 965.197 1413.79 966.014C1396.11 967.361 1391.53 967.851 1386.33 969.035C1362.95 974.22 1329.22 977.282 1272 979.364C1253.18 980.017 1199.23 980.058 1188.39 979.364C1163.14 977.813 1144.72 975.526 1126.7 971.77C1117.6 969.852 1099.02 964.993 1090.94 962.38C1075.91 957.522 1063.54 951.031 1057.04 944.621L1056.91 944.492L1056.91 944.489L1056.91 944.488C1055.5 943.107 1053.56 941.199 1052.47 940.171L1050.43 938.252L1053.65 935.925ZM1064.22 949.52C1068.74 952.582 1073.93 955.154 1081.05 957.808C1086.65 959.931 1086.59 959.849 1078.34 955.93C1072.97 953.399 1068.4 950.827 1060.89 946.213C1058.34 944.621 1058.06 944.539 1059.13 945.642C1059.81 946.336 1062.13 948.091 1064.22 949.52ZM1060.43 769.844C1059.98 769.64 1059.19 769.477 1058.74 769.477C1058.17 769.477 1058.29 769.599 1059.02 769.844C1060.55 770.334 1061.45 770.334 1060.43 769.844ZM1061.96 738.531C1063.31 738.857 1065.07 738.98 1066.65 738.776C1072.58 738.122 1077.38 739.837 1086.08 745.716C1094.05 751.105 1097.55 752.983 1104.04 755.269C1111.28 757.842 1117.77 759.597 1129.07 762.087C1164.66 769.885 1182.29 771.886 1236.12 774.417C1259.4 775.478 1297.25 775.642 1329.62 774.825C1332.78 774.756 1336.54 774.67 1340.58 774.579L1340.58 774.579L1340.59 774.578L1340.59 774.578C1350.82 774.346 1362.79 774.073 1371.14 773.927C1392.32 773.478 1395.26 773.355 1404.75 772.131C1418.31 770.375 1429.72 767.027 1435.26 763.108C1437.01 761.883 1438.53 760.863 1438.65 760.863C1438.76 760.863 1438.87 764.619 1438.93 769.232C1438.93 775.723 1438.82 777.642 1438.25 777.805C1437.86 777.887 1431.92 778.336 1425.09 778.826C1375.6 782.092 1331.31 782.337 1249.12 779.847C1182.34 777.805 1171.21 776.989 1133.87 771.641C1115.63 769.028 1100.54 764.986 1088.17 759.434C1076.42 754.126 1068.29 748.207 1061.05 739.551L1059.81 738L1061.96 738.531ZM1067.95 745.349C1070.43 748.411 1078.45 754.167 1083.82 756.78C1088.17 758.862 1101.56 763.761 1104.5 764.292C1105.29 764.455 1103.2 763.598 1099.92 762.373C1085.46 757.025 1073.99 750.044 1066.82 742.246C1065.69 741.021 1064.67 740.041 1064.56 740.041C1064.16 740.041 1066.14 743.103 1067.95 745.349ZM1418.7 770.538C1419.16 770.416 1418.99 770.293 1418.37 770.293C1417.74 770.253 1417.41 770.375 1417.63 770.498C1417.8 770.62 1418.31 770.661 1418.7 770.538ZM1423.17 769.477C1427.07 768.538 1433.73 766.129 1435.54 764.986C1436.33 764.537 1434.97 764.945 1432.49 765.966C1430.06 766.946 1426.16 768.252 1423.85 768.865C1419.1 770.13 1418.54 770.661 1423.17 769.477ZM1063.09 1006.92C1063.65 1006.8 1063.2 1006.72 1062.13 1006.72C1061.05 1006.72 1060.6 1006.8 1061.11 1006.92C1061.68 1007 1062.58 1007 1063.09 1006.92ZM1097.72 776.458C1098.51 776.458 1098.79 776.54 1098.4 776.662C1098.06 776.744 1097.38 776.744 1096.98 776.662C1096.64 776.54 1096.93 776.458 1097.72 776.458ZM1101.79 777.071C1102.18 776.948 1101.9 776.867 1101.11 776.867C1100.32 776.867 1100.03 776.948 1100.37 777.071C1100.77 777.152 1101.45 777.152 1101.79 777.071ZM1103.65 777.275C1104.27 777.234 1107.32 777.601 1110.43 778.01C1113.65 778.459 1114.78 778.704 1112.97 778.581C1109.3 778.336 1102.01 777.316 1103.65 777.275ZM1104.61 868.113C1105.06 867.991 1104.89 867.868 1104.27 867.868C1103.65 867.827 1103.31 867.95 1103.54 868.072C1103.71 868.195 1104.21 868.235 1104.61 868.113ZM1108 738.939C1109.35 739.021 1115.23 738.939 1121.11 738.735C1133.93 738.245 1135.79 738.408 1151.44 741.429C1192.57 749.39 1224.49 753.391 1267.76 756.045C1279.11 756.739 1325.44 756.739 1333.29 756.045C1350.46 754.535 1362.1 753.024 1380.18 749.962C1389.22 748.451 1392.89 747.594 1400.51 745.267C1416.11 740.449 1422.09 739.225 1430 739.225C1436.73 739.225 1439.66 740.49 1438.65 743.022C1437.46 745.839 1431.3 749.962 1424.52 752.412C1415.99 755.474 1398.65 759.23 1385.26 760.822C1365.09 763.271 1344.98 763.965 1312.39 763.353C1299.17 763.108 1287.08 762.781 1285.55 762.7C1283.97 762.577 1271.77 762.414 1258.44 762.291C1211.66 761.883 1186.86 760.658 1164.94 757.556C1148 755.147 1131.9 751.146 1120.2 746.328C1114.89 744.165 1105.63 739.47 1105.63 738.98C1105.63 738.857 1106.7 738.816 1108 738.939ZM1119.18 743.593C1122.12 745.022 1124.27 745.879 1124.27 745.594C1124.27 745.512 1122.91 744.818 1121.27 744.124C1119.69 743.389 1117.43 742.246 1116.3 741.633C1115.17 740.98 1114.04 740.449 1113.82 740.449C1113.31 740.449 1116.08 742.083 1119.18 743.593ZM1106.87 867.705C1107.32 867.582 1107.15 867.46 1106.53 867.46C1105.91 867.419 1105.57 867.541 1105.8 867.664C1105.97 867.786 1106.47 867.827 1106.87 867.705ZM1122.86 1124.71C1153.31 1119.81 1185.39 1115.97 1211.83 1114.05C1270.98 1109.68 1323.8 1107.84 1387.52 1107.93C1425.03 1107.97 1434.52 1108.21 1437.12 1109.31C1438.08 1109.76 1438.93 1110.33 1438.93 1110.58C1438.93 1111.4 1435.09 1111.56 1412.32 1111.56C1373.96 1111.56 1328.83 1112.54 1298.55 1114.01C1253.35 1116.25 1234.54 1117.81 1214.94 1120.99C1200.93 1123.28 1195.45 1123.97 1184.26 1124.83C1174.21 1125.6 1143.93 1126.34 1127.38 1126.18L1114.38 1126.05L1122.86 1124.71ZM1161.84 928.291C1142.52 931.761 1136.41 933.312 1126.64 937.313C1124.44 938.252 1122.57 939.11 1122.57 939.232C1122.57 939.64 1133.76 944.213 1141.22 946.908C1176.52 959.686 1223.19 965.524 1283.86 964.871C1308.32 964.585 1315.61 963.973 1352.5 958.87C1393 953.276 1403.73 952.297 1423.68 952.337C1430.68 952.337 1436.9 952.419 1437.52 952.46C1438.53 952.541 1438.65 952.297 1438.59 949.684C1438.59 946.377 1437.52 944.703 1434.75 943.519C1433.17 942.825 1431.13 942.784 1405.03 942.784C1374.81 942.784 1373.79 942.866 1360.69 945.234C1352.55 946.703 1346.9 948.051 1328.83 952.705C1307.81 958.135 1296.74 959.768 1276.63 960.421C1250.3 961.278 1225.22 958.42 1200.36 951.684C1186.41 947.928 1166.3 940.702 1167.88 940.049C1168.39 939.845 1171.95 938.701 1175.79 937.477C1192.85 932.088 1213.58 928.046 1234.99 925.841C1251.55 924.167 1256.23 923.963 1279.06 923.963C1298.77 923.963 1302.67 924.086 1312.39 924.902C1320.24 925.596 1325.15 926.249 1329.62 927.229C1333.01 927.964 1337.64 928.781 1339.79 929.066C1344.98 929.72 1354.36 929.434 1357.02 928.577C1358.37 928.087 1362.72 927.719 1371.14 927.27C1393.57 926.045 1403.51 925.76 1420.96 925.76H1438.36V923.392V921.024L1422.38 920.779C1413.62 920.615 1397.92 920.248 1387.52 919.881C1336.34 918.248 1317.25 918.084 1280.92 919.064C1215.84 920.82 1194.77 922.453 1161.84 928.291ZM1344.02 927.556C1345.72 927.556 1346.45 927.638 1345.55 927.719C1344.7 927.801 1343.34 927.801 1342.44 927.719C1341.59 927.638 1342.33 927.556 1344.02 927.556ZM1350.52 927.964C1352.38 927.964 1353.06 928.046 1352.04 928.127C1351.03 928.209 1349.5 928.209 1348.65 928.127C1347.81 928.046 1348.65 927.964 1350.52 927.964ZM1146.58 1012.88C1148.45 1012.88 1149.13 1012.96 1148.11 1013.05C1147.09 1013.13 1145.57 1013.13 1144.72 1013.05C1143.87 1012.96 1144.72 1012.88 1146.58 1012.88ZM1364.64 740.082C1368.54 739.306 1367.64 739.306 1286.46 739.388L1204.32 739.429L1210.76 740.531C1224.88 742.94 1242.79 744.981 1260.98 746.206C1272.16 746.982 1304.08 746.859 1315.78 746.002C1332.95 744.777 1352.78 742.368 1364.64 740.082ZM1211.89 940.579C1215.62 938.946 1220.42 937.599 1226.35 936.578C1234.32 935.231 1234.6 935.354 1227.65 937.191C1222.11 938.62 1214.6 940.824 1214.15 941.11C1213.81 941.396 1225.73 945.356 1230.08 946.418C1235.73 947.765 1243.58 948.949 1250.58 949.48C1253.64 949.724 1256.23 949.969 1256.35 950.092C1257.08 950.623 1244.48 949.724 1238.1 948.826C1231.89 947.928 1221.66 945.438 1215.22 943.274L1209.91 941.478L1211.89 940.579ZM1305.89 1119.72C1296.17 1120.7 1285.44 1122.75 1277.47 1125.11C1275.89 1125.6 1274.54 1126.09 1274.54 1126.18C1274.54 1126.46 1317.58 1125.89 1333.29 1125.4C1347.75 1124.99 1350.24 1124.87 1382.44 1122.75C1394.41 1121.97 1408.99 1121.15 1414.92 1120.95C1427.01 1120.5 1431.92 1120.01 1435.37 1118.91C1437.57 1118.21 1439.61 1116.38 1438.82 1115.85C1438.7 1115.72 1420.29 1115.6 1397.92 1115.56C1351.48 1115.44 1339.9 1115.85 1317.19 1118.5C1316.24 1118.6 1315.2 1118.72 1314.14 1118.84L1314.14 1118.84L1314.13 1118.84L1314.11 1118.84C1311.02 1119.18 1307.74 1119.54 1305.89 1119.72ZM1377.07 934.905C1384.02 933.721 1388.76 933.231 1397.69 932.741C1405.99 932.292 1430.4 932.251 1435.82 932.7L1439.21 932.945L1437.57 933.843C1435.71 934.905 1433.45 935.435 1427.91 936.048C1423.45 936.578 1390.35 936.578 1379.05 936.089L1371.99 935.762L1377.07 934.905Z" fill="#FECFFE" fill-opacity="0.1"/>
<path d="M780.5 446L752 441L703.5 505L699.5 540L714.5 710.5L739 721.5L777 710.5L803.5 640L812 520.5L780.5 446Z" fill="url(#paint0_linear_734_28)"/>
<path d="M870 572L856 556.5L846.5 560.5L803 589.5L775.5 715H803L858.5 626.5L870 572Z" fill="url(#paint1_linear_734_28)"/>
<path d="M601 576L598.5 513.5L609 503H632L684.5 547L687.5 568V684L619.5 626.5L601 576Z" fill="url(#paint2_linear_734_28)"/>
<path d="M662.431 612H612.569L590 644L630.939 713H685L679.751 668.5L662.431 612Z" fill="url(#paint3_linear_734_28)"/>
<path d="M757 634.5L736 712H783.5L811 665.5L818.5 644.5L802.5 624L771 620.5L757 634.5Z" fill="url(#paint4_linear_734_28)"/>
<path d="M671 602L700.5 539L737 592.5L732 713.5H683.5L671 602Z" fill="url(#paint5_linear_734_28)"/>
<circle cx="720" cy="491" r="277.5" fill="white" fill-opacity="0.1"/>
<path fill-rule="evenodd" clip-rule="evenodd" d="M720 765.5C871.602 765.5 994.5 642.602 994.5 491C994.5 339.398 871.602 216.5 720 216.5C568.398 216.5 445.5 339.398 445.5 491C445.5 642.602 568.398 765.5 720 765.5ZM720 768.5C873.259 768.5 997.5 644.259 997.5 491C997.5 337.741 873.259 213.5 720 213.5C566.741 213.5 442.5 337.741 442.5 491C442.5 644.259 566.741 768.5 720 768.5Z" fill="#FECFFE"/>
<path fill-rule="evenodd" clip-rule="evenodd" d="M925 712H515V764H455V818H994V764H925V712Z" fill="#F98E6C"/>
<g style="mix-blend-mode:multiply">
<rect x="515" y="712" width="410" height="52" fill="url(#paint6_linear_734_28)"/>
</g>
<g style="mix-blend-mode:multiply">
<rect x="455" y="764" width="539" height="54" fill="url(#paint7_linear_734_28)"/>
</g>
</g>
<defs>
<linearGradient id="paint0_linear_734_28" x1="755.806" y1="441.204" x2="824.135" y2="737.73" gradientUnits="userSpaceOnUse">
<stop stop-color="#23D9B7"/>
<stop offset="1" stop-color="#1879B2"/>
</linearGradient>
<linearGradient id="paint1_linear_734_28" x1="822.797" y1="556.615" x2="849.507" y2="728.928" gradientUnits="userSpaceOnUse">
<stop stop-color="#23D9B7"/>
<stop offset="1" stop-color="#1879B2"/>
</linearGradient>
<linearGradient id="paint2_linear_734_28" x1="643.044" y1="503.132" x2="679.625" y2="697.758" gradientUnits="userSpaceOnUse">
<stop stop-color="#23D9B7"/>
<stop offset="1" stop-color="#1879B2"/>
</linearGradient>
<linearGradient id="paint3_linear_734_28" x1="637.547" y1="612.074" x2="648.489" y2="723.438" gradientUnits="userSpaceOnUse">
<stop stop-color="#23D9B7"/>
<stop offset="1" stop-color="#1879B2"/>
</linearGradient>
<linearGradient id="paint4_linear_734_28" x1="777.291" y1="620.567" x2="787.623" y2="721.371" gradientUnits="userSpaceOnUse">
<stop stop-color="#23D9B7"/>
<stop offset="1" stop-color="#1879B2"/>
</linearGradient>
<linearGradient id="paint5_linear_734_28" x1="704.033" y1="539.127" x2="748.827" y2="722.447" gradientUnits="userSpaceOnUse">
<stop stop-color="#23D9B7"/>
<stop offset="1" stop-color="#1879B2"/>
</linearGradient>
<linearGradient id="paint6_linear_734_28" x1="236" y1="730.795" x2="794" y2="730.795" gradientUnits="userSpaceOnUse">
<stop stop-color="#F98E6C"/>
<stop offset="1" stop-color="#F98E6C" stop-opacity="0"/>
</linearGradient>
<linearGradient id="paint7_linear_734_28" x1="136" y1="783.518" x2="1043.45" y2="783.518" gradientUnits="userSpaceOnUse">
<stop stop-color="#F98E6C"/>
<stop offset="1" stop-color="#F98E6C" stop-opacity="0"/>
</linearGradient>
<clipPath id="clip0_734_28">
<rect width="1440" height="1024" fill="white"/>
</clipPath>
</defs>
</svg>
