<svg width="1440" height="1024" viewBox="0 0 1440 1024" fill="none" xmlns="http://www.w3.org/2000/svg">
<g clip-path="url(#clip0_734_28)">
<path fill-rule="evenodd" clip-rule="evenodd" d="M0 0H1440V738H848.537C937.081 691.64 997.5 598.876 997.5 492C997.5 338.741 873.259 214.5 720 214.5C566.741 214.5 442.5 338.741 442.5 492C442.5 598.876 502.919 691.64 591.463 738H0V0Z" fill="#250864"/>
<path fill-rule="evenodd" clip-rule="evenodd" d="M1124.04 0C1187.43 -73.5381 1225 -164.947 1225 -264C1225 -507.005 998.904 -704 720 -704C441.096 -704 215 -507.005 215 -264C215 -164.947 252.566 -73.5381 315.963 0H0V738H360V96.5607V44.5699C451.608 125.696 579.061 176 720 176C859.407 176 985.62 126.783 1077 47.2045V96.5607V738H1440V0H1124.04Z" fill="#130237"/>
<path fill-rule="evenodd" clip-rule="evenodd" d="M716.57 -777.5C510.316 -777.5 336.986 -656.289 284.667 -491.595C373.457 -620.426 535.328 -706.5 720 -706.5C895.894 -706.5 1051.1 -628.414 1142.18 -509.673C1083.3 -665.082 915.202 -777.5 716.57 -777.5ZM716.57 -782.5C502.094 -782.5 322.025 -652.429 275.296 -477.41C271.074 -470.737 267.044 -463.958 263.213 -457.079C188.157 -585.051 35.4299 -672.5 -140.43 -672.5C-390.319 -672.5 -593.5 -495.931 -593.5 -277.424C-593.5 -58.9174 -390.319 117.652 -140.43 117.652C29.6553 117.652 178.102 35.8516 255.57 -85.2958C334.37 70.1849 512.838 178.5 720 178.5C926.008 178.5 1103.64 71.3885 1183.1 -82.7015C1261.02 37.018 1408.56 117.652 1577.43 117.652C1827.32 117.652 2030.5 -58.9174 2030.5 -277.424C2030.5 -495.931 1827.32 -672.5 1577.43 -672.5C1402.76 -672.5 1250.92 -586.235 1175.33 -459.679C1168.31 -472.065 1160.65 -484.121 1152.39 -495.817C1098.33 -661.471 923.457 -782.5 716.57 -782.5ZM792.044 -697.04C942.537 -678.237 1071.35 -601.401 1147.85 -493.533C1154.08 -474.329 1158.65 -454.526 1161.44 -434.25C1158.32 -427.953 1155.37 -421.571 1152.62 -415.109C1105.5 -560.525 965.334 -671.69 792.044 -697.04ZM1157.2 -479.802C1160.6 -467.397 1163.34 -454.763 1165.37 -441.931C1167.62 -446.217 1169.96 -450.461 1172.38 -454.662C1167.63 -463.2 1162.56 -471.584 1157.2 -479.802ZM1154.95 -407.637C1157.34 -413.509 1159.88 -419.317 1162.58 -425.056C1163.94 -412.671 1164.64 -400.117 1164.64 -387.424C1164.64 -381.286 1164.48 -375.181 1164.15 -369.112C1161.81 -382.179 1158.72 -395.031 1154.95 -407.637ZM1169.64 -387.424C1169.64 -373.92 1168.86 -360.576 1167.35 -347.424C1168.86 -334.272 1169.64 -320.928 1169.64 -307.424C1169.64 -261.689 1160.74 -217.79 1144.37 -176.964C1153.39 -147.419 1166.3 -119.245 1182.59 -92.8835C1208.29 -145.465 1222.5 -203.305 1222.5 -264C1222.5 -330.277 1205.55 -393.15 1175.21 -449.49C1172.21 -444.18 1169.34 -438.802 1166.61 -433.36C1168.61 -418.292 1169.64 -402.964 1169.64 -387.424ZM1151.94 -399.99C1156.72 -382.879 1160.21 -365.329 1162.31 -347.424C1157.89 -309.71 1147.3 -273.57 1131.42 -239.792C1130.06 -252.177 1129.36 -264.731 1129.36 -277.424C1129.36 -320.223 1137.29 -361.432 1151.94 -399.99ZM1164.15 -325.737C1158.17 -292.454 1147.43 -260.561 1132.56 -230.598C1134.7 -215.054 1137.88 -199.789 1142.06 -184.858C1156.71 -223.416 1164.64 -264.625 1164.64 -307.424C1164.64 -313.562 1164.48 -319.667 1164.15 -325.737ZM1124.36 -277.424C1124.36 -261.884 1125.39 -246.556 1127.39 -231.488C1058.31 -93.7806 900.539 2.65173 716.57 2.65173C535.239 2.65173 379.357 -91.035 308.779 -225.59C311.326 -242.55 312.64 -259.852 312.64 -277.424C312.64 -325.156 302.945 -370.886 285.185 -413.212C338.122 -577.082 510.991 -697.5 716.57 -697.5C924.37 -697.5 1098.75 -574.465 1149.63 -407.884C1133.26 -367.058 1124.36 -323.16 1124.36 -277.424ZM716.57 7.65173C536.321 7.65173 380.375 -84.2164 307.454 -217.426C304.748 -201.929 301.01 -186.73 296.305 -171.884C359.53 -23.3967 523.647 82.6517 716.57 82.6517C911.792 82.6517 1077.52 -25.9396 1139.05 -177.211C1134.59 -192.119 1131.09 -207.372 1128.63 -222.917C1057.03 -86.7476 899.285 7.65173 716.57 7.65173ZM307.64 -277.424C307.64 -262.535 306.681 -247.838 304.812 -233.378C287.212 -268.981 275.527 -307.312 270.829 -347.424C273.159 -367.318 277.208 -386.774 282.844 -405.676C298.911 -365.494 307.64 -322.334 307.64 -277.424ZM303.577 -224.696C287.145 -256.361 275.36 -290.26 268.986 -325.737C268.663 -319.667 268.5 -313.562 268.5 -307.424C268.5 -262.514 277.229 -219.355 293.296 -179.172C297.725 -194.024 301.173 -209.217 303.577 -224.696ZM279.835 -412.965C275.301 -398.658 271.665 -384.024 268.986 -369.112C268.663 -375.181 268.5 -381.286 268.5 -387.424C268.5 -402.314 269.459 -417.011 271.328 -431.471C274.338 -425.38 277.176 -419.21 279.835 -412.965ZM263.5 -387.424C263.5 -404.997 264.814 -422.298 267.361 -439.258C266.044 -441.769 264.698 -444.265 263.322 -446.747C233.901 -391.112 217.5 -329.203 217.5 -264C217.5 -204.357 231.223 -147.47 256.082 -95.6204C270.616 -119.595 282.365 -145.043 290.955 -171.636C273.195 -213.962 263.5 -259.692 263.5 -307.424C263.5 -320.928 264.276 -334.272 265.791 -347.424C264.276 -360.576 263.5 -373.92 263.5 -387.424ZM266.144 -451.991C267.002 -450.474 267.85 -448.951 268.686 -447.422C269.5 -452.08 270.406 -456.71 271.404 -461.312C269.609 -458.226 267.856 -455.119 266.144 -451.991ZM279.938 -475.351C276.881 -463.804 274.413 -452.063 272.563 -440.152C275.976 -433.575 279.188 -426.901 282.194 -420.137C325.268 -546.598 438.965 -646.412 583.214 -685.102C452.853 -653.073 344.1 -576.404 279.938 -475.351ZM1141.38 -169.74C1077.25 -19.302 911.056 87.6517 716.57 87.6517C524.258 87.6517 359.61 -16.9242 293.946 -164.711C285.075 -138.666 273.208 -113.751 258.696 -90.2682C335.86 64.8143 513.19 173.5 720 173.5C925.624 173.5 1102.1 66.0579 1179.97 -87.6035C1163.75 -113.364 1150.73 -140.877 1141.38 -169.74ZM-140.43 112.652C29.4264 112.652 176.953 30.4466 252.953 -90.5512C226.915 -143.792 212.5 -202.411 212.5 -264C212.5 -331.226 229.675 -394.913 260.393 -451.931C186.873 -579.66 35.1517 -667.5 -140.43 -667.5C-388.227 -667.5 -588.5 -492.545 -588.5 -277.424C-588.5 -62.3035 -388.227 112.652 -140.43 112.652ZM1577.43 112.652C1408.82 112.652 1262.22 31.6501 1185.73 -87.8904C1212.6 -141.837 1227.5 -201.383 1227.5 -264C1227.5 -332.277 1209.78 -396.902 1178.16 -454.599C1252.25 -580.881 1403.07 -667.5 1577.43 -667.5C1825.23 -667.5 2025.5 -492.545 2025.5 -277.424C2025.5 -62.3035 1825.23 112.652 1577.43 112.652ZM42 248V738H47V248H42ZM146 248V738H151V248H146ZM250 458V248H255V458H250ZM250 538V748H255V538H250ZM1187 458V248H1182V458H1187ZM1291 248V738H1286V248H1291ZM1395 248V738H1390V248H1395ZM1187 538V748H1182V538H1187Z" fill="#26056C"/>
<rect y="738" width="1440" height="286" fill="#7D07F2"/>
<g style="mix-blend-mode:multiply">
<path fill-rule="evenodd" clip-rule="evenodd" d="M533.327 1084.43C583.635 1094.35 589.55 1094.8 669.322 1094.84L718.092 1094.84H719.911L768.822 1094.84C848.814 1094.8 854.746 1094.35 905.193 1084.43C931.745 1079.2 935.755 1078.55 966.882 1074.22C998.179 1069.86 1021.74 1068.47 1063.26 1068.43C1092.41 1068.39 1110.88 1069.16 1129.92 1071.2C1149.97 1073.33 1162.74 1075.69 1181.04 1080.67C1195.05 1084.47 1195.84 1084.68 1203.64 1086.23C1233.92 1092.27 1254.82 1093.7 1328.77 1094.64L1341.75 1094.8L1341.75 1094.8H1341.76H1341.76H1341.76L1341.76 1094.8H1341.77H1341.77H1341.77H1341.77L1341.78 1094.8H1341.78H1341.78L1341.79 1094.8H1341.79H1341.79H1341.79L1341.8 1094.8H1341.8H1341.8H1341.81L1341.81 1094.8H1341.81H1341.81H1341.82L1341.82 1094.8H1341.82H1341.82H1341.83L1341.83 1094.8H1341.83C1434.82 1095.99 1436.96 1096.02 1438.44 1096.75C1438.48 1096.77 1438.51 1096.79 1438.55 1096.8L1438.55 1096.81C1438.6 1096.83 1438.65 1096.86 1438.7 1096.88C1440.23 1097.62 1440.4 1098.56 1439.27 1099.78C1438.42 1100.6 1438.31 1100.64 1369.05 1100.72C1299.79 1100.8 1277.53 1100.52 1253.64 1099.33C1239.68 1098.64 1221.77 1097.33 1214.37 1096.47C1213.9 1096.43 1213.36 1096.37 1212.76 1096.31L1212.75 1096.31L1212.75 1096.31C1209.74 1096 1205.34 1095.56 1202 1095.25C1194.04 1094.51 1180.82 1092.23 1170.31 1089.74C1145.45 1083.94 1114.38 1078.63 1093.76 1076.8C1083.26 1075.82 1056.42 1075.86 1043.77 1076.8C1022.7 1078.43 1001.46 1081.12 972.475 1085.86C906.097 1096.72 896.889 1097.9 864.406 1099.62C852.486 1100.23 798.311 1100.31 750.688 1099.78L719.003 1099.42L687.405 1099.78C639.914 1100.31 585.888 1100.23 574.002 1099.62C541.609 1097.9 532.426 1096.72 466.232 1085.86C437.331 1081.12 416.149 1078.43 395.136 1076.8C382.517 1075.86 355.757 1075.82 345.279 1076.8C324.716 1078.63 293.732 1083.94 268.944 1089.74C258.466 1092.23 245.283 1094.51 237.34 1095.25C234.01 1095.56 229.626 1096 226.626 1096.31L226.624 1096.31L226.615 1096.31C226.016 1096.37 225.471 1096.43 225.002 1096.47C217.622 1097.33 199.764 1098.64 185.849 1099.33C162.019 1100.52 139.823 1100.8 70.7554 1100.72C1.68795 1100.64 1.57528 1100.6 0.730247 1099.78C-0.396466 1098.56 -0.227459 1097.62 1.2936 1096.88C1.3484 1096.86 1.39856 1096.83 1.44713 1096.81L1.44879 1096.8C1.46848 1096.79 1.48791 1096.78 1.5073 1096.77C1.52266 1096.77 1.53799 1096.76 1.55339 1096.75C3.02984 1096.02 5.16815 1095.99 97.8956 1094.8H97.8982L97.9013 1094.8H97.9041H97.9068H97.9094L97.9124 1094.8H97.9152H97.9179H97.9204L97.9234 1094.8H97.9262H97.9288H97.9313L97.9343 1094.8H97.9371H97.9398H97.9422L97.9452 1094.8H97.948H97.9506L97.9537 1094.8H97.9566H97.9594H97.9619H97.9644L97.9673 1094.8H97.97H97.9726H97.975L97.9779 1094.8L110.923 1094.64C184.666 1093.7 205.51 1092.27 235.706 1086.23C243.48 1084.68 244.269 1084.47 258.24 1080.67C276.493 1075.69 289.225 1073.33 309.224 1071.2C328.209 1069.16 346.631 1068.39 375.7 1068.43C417.107 1068.47 440.599 1069.86 471.809 1074.22C502.85 1078.55 506.85 1079.2 533.327 1084.43ZM557.664 1091.04C556.876 1091.04 556.594 1091.13 556.988 1091.25C557.326 1091.33 558.002 1091.33 558.397 1091.25C558.735 1091.13 558.453 1091.04 557.664 1091.04ZM554.566 1090.64C553.664 1090.64 553.326 1090.72 553.89 1090.84C554.397 1090.92 555.186 1090.92 555.58 1090.84C555.918 1090.72 555.524 1090.64 554.566 1090.64ZM542.51 1089.04C542.679 1089.21 544.763 1089.62 547.13 1089.98C549.552 1090.31 551.749 1090.55 552.143 1090.47C552.481 1090.39 551.017 1090.06 548.876 1089.78C546.739 1089.53 544.378 1089.17 543.585 1089.04L543.583 1089.04L543.581 1089.04L543.58 1089.04C542.792 1088.92 542.341 1088.92 542.51 1089.04ZM691.067 1072.59C627.352 1072.59 567.579 1070.39 523.863 1066.47C509.216 1065.16 446.458 1058.51 447.415 1058.38C448.317 1058.26 484.879 1061.77 508.54 1064.26C516.089 1065.04 522.68 1065.65 523.187 1065.57C524.088 1065.45 500.54 1062.59 481.611 1060.55C438.176 1055.81 394.798 1052.79 367.25 1052.5C308.041 1051.93 278.352 1054.26 227.932 1063.45C178.413 1072.43 142.245 1076.71 105.289 1077.94C92.501 1078.35 86.2477 1078.27 48.6719 1077.33C25.4053 1076.76 5.06809 1076.27 3.43436 1076.27H0.504903L0.504903 1078.02C0.504903 1078.96 0.899252 1080.06 1.2936 1080.43C3.04001 1082.1 5.12443 1082.31 22.4758 1082.35C31.6022 1082.39 48.7282 1082.55 60.5024 1082.72C109.852 1083.45 166.582 1081.94 211.2 1078.71C230.073 1077.37 235.255 1076.67 261.902 1071.98C281.451 1068.55 290.802 1067.2 303.816 1066.06C329.336 1063.77 352.321 1063 386.404 1063.32C424.036 1063.69 447.584 1064.87 514.849 1069.73C569.776 1073.73 590.17 1075 617.098 1076.27C622.304 1076.5 628.069 1076.77 633.04 1077L633.089 1077.01L633.178 1077.01L633.218 1077.01L633.329 1077.02C637.701 1077.22 641.429 1077.4 643.576 1077.49C678.392 1079.16 707.01 1078.63 715.686 1076.18C717.021 1075.83 718.225 1075.23 719.003 1074.61C719.783 1075.23 720.99 1075.83 722.329 1076.18C731.029 1078.63 759.727 1079.16 794.639 1077.49C796.792 1077.4 800.531 1077.22 804.915 1077.02L805.026 1077.01L805.066 1077.01L805.154 1077.01L805.204 1077C810.188 1076.77 815.969 1076.5 821.19 1076.27C848.193 1075 868.643 1073.73 923.723 1069.73C991.174 1064.87 1014.79 1063.69 1052.52 1063.32C1086.7 1063 1109.75 1063.77 1135.34 1066.06C1148.39 1067.2 1157.77 1068.55 1177.37 1071.98C1204.09 1076.67 1209.29 1077.37 1228.21 1078.71C1272.96 1081.94 1329.84 1083.45 1379.33 1082.72C1391.14 1082.55 1408.31 1082.39 1417.46 1082.35C1434.86 1082.31 1436.95 1082.1 1438.7 1080.43C1439.1 1080.06 1439.49 1078.96 1439.49 1078.02V1076.27H1436.56C1434.92 1076.27 1414.52 1076.76 1391.19 1077.33C1353.51 1078.27 1347.24 1078.35 1334.42 1077.94C1297.36 1076.71 1261.09 1072.43 1211.44 1063.45C1160.88 1054.26 1131.1 1051.93 1071.73 1052.5C1044.11 1052.79 1000.61 1055.81 957.053 1060.55C938.072 1062.59 914.458 1065.45 915.362 1065.57C915.87 1065.65 922.48 1065.04 930.05 1064.26C953.776 1061.77 990.44 1058.26 991.343 1058.38C992.304 1058.51 929.372 1065.16 914.684 1066.47C870.846 1070.39 810.908 1072.59 747.016 1072.59C727.313 1072.59 721.002 1072.61 719.003 1072.88C717.009 1072.61 710.715 1072.59 691.067 1072.59ZM443.472 1058.18C442.909 1058.06 443.359 1057.98 444.43 1057.98C445.5 1057.98 445.951 1058.06 445.444 1058.18C444.88 1058.26 443.979 1058.26 443.472 1058.18ZM438.965 1057.77C438.402 1057.65 438.74 1057.57 439.641 1057.57C440.599 1057.57 440.993 1057.65 440.655 1057.77C440.261 1057.85 439.472 1057.85 438.965 1057.77ZM435.867 1057.36C435.416 1057.24 435.585 1057.12 436.205 1057.12C436.824 1057.08 437.162 1057.2 436.937 1057.32C436.768 1057.44 436.261 1057.49 435.867 1057.36ZM694.898 745.574C710.165 744.798 715.517 745.165 718.334 747.207C718.57 747.389 718.798 747.591 719.003 747.798C719.208 747.591 719.437 747.389 719.674 747.207C722.498 745.165 727.865 744.798 743.174 745.574C747.524 745.778 758.879 746.145 768.37 746.39C810.174 747.452 871.863 751.697 904.233 755.821C942.986 760.72 973.548 766.926 1033.26 781.868C1095.18 797.423 1159.58 805.506 1250.81 809.262C1293.41 811.018 1373.34 812.937 1398.25 812.814C1416.95 812.733 1420.74 812.814 1425.2 813.427C1435.43 814.855 1439.49 816.652 1439.49 819.836V821.388L1433.96 821.673C1421.7 822.245 1358.03 822.449 1336.96 821.959C1262.67 820.285 1196.13 815.427 1124.61 806.364C1077.44 800.403 1066.14 797.953 1015.24 782.603C969.763 768.885 954.68 765.578 912.989 760.148C859.661 753.167 791.927 749.166 739.672 749.86L719.911 750.122V750.146L719.003 750.134L718.092 750.146V750.122L698.391 749.86C646.28 749.166 578.734 753.167 525.553 760.148C483.977 765.578 468.936 768.885 423.586 782.603C372.827 797.953 361.56 800.403 314.52 806.364C243.199 815.427 176.835 820.285 102.754 821.959C81.7409 822.449 18.2507 822.245 6.02583 821.673L0.504934 821.388L0.504934 819.836C0.504934 816.652 4.5611 814.855 14.7578 813.427C19.2084 812.814 22.9829 812.733 41.6299 812.814C66.474 812.937 146.189 811.018 188.666 809.262C279.648 805.506 343.871 797.423 405.614 781.868C465.161 766.926 495.639 760.72 534.285 755.821C566.565 751.697 628.084 747.452 669.772 746.39C679.237 746.145 690.56 745.778 694.898 745.574ZM719.003 1059.7C717.495 1059.56 713.889 1059.63 705.489 1059.89C683.067 1060.67 626.619 1060.91 602.169 1060.38C577.72 1059.85 556.594 1059 543.355 1058.1C526.567 1056.91 516.877 1055.89 466.964 1050.18C457.218 1049.08 447.697 1048.01 445.838 1047.85C443.979 1047.69 442.796 1047.48 443.19 1047.36C444.655 1047.03 484.428 1051.03 507.188 1053.81C514.568 1054.71 520.764 1055.4 520.877 1055.28C521.094 1055.12 521.05 1055.12 506.022 1053.05L506.017 1053.05L504.145 1052.79C473.668 1048.63 444.204 1045.73 419.36 1044.42C415.931 1044.27 411.88 1044.05 409.052 1043.9L409.051 1043.9L409.032 1043.9L408.865 1043.89L407.972 1043.84L407.717 1043.83L407.289 1043.8C407.047 1043.79 406.826 1043.78 406.628 1043.77C396.544 1043.2 328.998 1042.58 304.999 1042.87C258.973 1043.32 229.678 1044.75 164.442 1049.73C105.458 1054.22 93.2334 1054.79 58.8123 1054.83C31.6585 1054.83 25.856 1054.63 12.8988 1053.16C7.65956 1052.55 3.43439 1051.93 1.51898 1051.52C0.561274 1051.32 0.504938 1051.77 0.504938 1057.28L0.504937 1063.28L2.08234 1064.43C4.3921 1066.06 7.20888 1066.22 30.6445 1065.94C84.1634 1065.24 110.472 1063.77 158.977 1058.91C257.339 1049.08 284.944 1047.28 339.364 1047.24C387.024 1047.24 417.727 1048.83 472.598 1054.22C511.075 1057.98 530.116 1059.32 575.41 1061.36C599.578 1062.43 663.068 1065 676.533 1065.45C681.039 1065.61 688.25 1065.98 692.588 1066.3C706.165 1067.28 713.432 1066.96 717.432 1065.2C718.033 1064.94 718.562 1064.59 719.003 1064.21C719.445 1064.59 719.975 1064.94 720.578 1065.2C724.589 1066.96 731.876 1067.28 745.491 1066.3C749.841 1065.98 757.071 1065.61 761.591 1065.45C775.092 1065 838.759 1062.43 862.994 1061.36C908.413 1059.32 927.508 1057.98 966.092 1054.22C1021.11 1048.83 1051.9 1047.24 1099.69 1047.24C1154.27 1047.28 1181.95 1049.08 1280.58 1058.91C1329.22 1063.77 1355.6 1065.24 1409.27 1065.94C1432.77 1066.22 1435.6 1066.06 1437.91 1064.43L1439.49 1063.28V1057.28C1439.49 1051.77 1439.44 1051.32 1438.48 1051.52C1436.56 1051.93 1432.32 1052.55 1427.07 1053.16C1414.07 1054.63 1408.25 1054.83 1381.02 1054.83C1346.51 1054.79 1334.25 1054.22 1275.1 1049.73C1209.68 1044.75 1180.31 1043.32 1134.15 1042.87C1110.09 1042.58 1042.36 1043.2 1032.24 1043.77C1032.05 1043.78 1031.82 1043.79 1031.58 1043.8L1031.15 1043.83L1030.9 1043.84L1030 1043.89L1029.83 1043.9L1029.81 1043.9L1029.81 1043.9C1026.98 1044.05 1022.92 1044.27 1019.48 1044.42C994.563 1045.73 965.018 1048.63 934.456 1052.79L932.579 1053.05L932.574 1053.05C917.505 1055.12 917.461 1055.12 917.678 1055.28C917.791 1055.4 924.005 1054.71 931.406 1053.81C954.228 1051.03 994.112 1047.03 995.58 1047.36C995.976 1047.48 994.789 1047.69 992.925 1047.85C991.061 1048.01 981.514 1049.08 971.741 1050.18C921.689 1055.89 911.972 1056.91 895.138 1058.1C881.862 1059 860.678 1059.85 836.16 1060.38C811.643 1060.91 755.038 1060.67 732.554 1059.89C724.131 1059.63 720.514 1059.56 719.003 1059.7ZM439.529 1047.16C438.965 1047.03 439.416 1046.95 440.486 1046.95C441.557 1046.95 442.007 1047.03 441.5 1047.16C440.937 1047.24 440.036 1047.24 439.529 1047.16ZM435.867 1046.75C435.416 1046.63 435.585 1046.5 436.205 1046.5C436.824 1046.46 437.162 1046.58 436.937 1046.71C436.768 1046.83 436.261 1046.87 435.867 1046.75ZM719.003 958.403C708.042 958.001 612.013 958.436 579.072 959.053C566.227 959.339 538.961 959.707 518.511 959.911C498.061 960.115 477.78 960.482 473.443 960.727C441.388 962.401 419.529 965.871 398.234 972.649C350.744 987.795 309.675 994.858 250.353 998.165C234.016 999.063 173.174 999.186 154.865 998.369C121.401 996.858 111.035 996.205 86.9801 994.164C40.5596 990.204 22.7012 987.509 5.29346 981.753C4.5707 981.521 3.88806 981.301 3.28294 981.105L3.23703 981.09L3.23431 981.09C1.83732 980.638 0.864758 980.324 0.786607 980.324C0.561265 980.324 2.02599 985.386 2.47668 986.162C2.70202 986.57 3.99774 987.428 5.34979 988.081C21.4054 996.124 80.5579 1000.61 180.497 1001.39C232.946 1001.84 298.802 1000.29 317.111 998.247C327.984 997.022 342.406 993.919 376.545 985.345C402.065 978.977 415.811 975.996 428.374 974.2C433.332 973.506 439.021 972.649 441.05 972.322C445.669 971.628 462.908 969.954 474.288 969.137C499.132 967.341 517.272 966.851 578.79 966.443C609.493 966.198 648.759 965.79 666.11 965.504C683.462 965.218 700.306 965.096 703.574 965.218C709.32 965.504 715.686 965.218 717.207 964.606C717.945 964.295 718.537 963.988 719.003 963.659C719.47 963.988 720.063 964.295 720.804 964.606C722.329 965.218 728.713 965.504 734.475 965.218C737.751 965.096 754.642 965.218 772.042 965.504C789.441 965.79 828.816 966.198 859.604 966.443C921.293 966.851 939.484 967.341 964.397 969.137C975.808 969.954 993.095 971.628 997.727 972.322C999.761 972.649 1005.47 973.506 1010.44 974.2C1023.04 975.996 1036.82 978.977 1062.41 985.345C1096.64 993.919 1111.11 997.022 1122.01 998.247C1140.37 1000.29 1206.41 1001.84 1259 1001.39C1359.22 1000.61 1418.54 996.124 1434.64 988.081C1435.99 987.428 1437.29 986.57 1437.52 986.162C1437.97 985.386 1439.44 980.324 1439.21 980.324C1439.13 980.324 1438.16 980.638 1436.76 981.09L1436.75 981.09L1436.71 981.105C1436.1 981.301 1435.42 981.521 1434.69 981.753C1417.24 987.509 1399.33 990.204 1352.78 994.164C1328.66 996.205 1318.26 996.858 1284.71 998.369C1266.35 999.186 1205.33 999.063 1188.95 998.165C1129.47 994.858 1088.28 987.795 1040.66 972.649C1019.31 965.871 997.388 962.401 965.244 960.727C960.894 960.482 940.557 960.115 920.051 959.911C899.544 959.707 872.202 959.339 859.322 959.053C826.29 958.436 729.994 958.001 719.003 958.403ZM719.003 927.433C719.845 927.66 721.094 927.727 723.289 927.699C725.549 927.658 764.641 927.577 810.174 927.495C919.034 927.25 930.841 926.842 973.153 921.738C1021 915.982 1030.21 914.267 1071.73 903.244C1098.34 896.181 1111.22 893.528 1129.58 891.323C1156.3 888.139 1176.07 887.24 1238.1 886.424C1254.88 886.22 1293.74 885.362 1324.53 884.587C1366.62 883.484 1385.94 883.158 1402.49 883.239C1426.05 883.362 1429.49 883.158 1434.8 881.198C1437.74 880.096 1438.53 879.361 1438.59 877.605L1438.65 876.176L1384.41 875.931C1287.19 875.442 1255.95 875.687 1223.13 877.034C1185.96 878.626 1149.46 882.015 1120.48 886.628C1103.42 889.363 1097.15 890.833 1073.99 897.651C1067.32 899.611 1059.7 901.774 1057.04 902.428C1051.11 903.938 1043.32 905.612 1043.71 905.326C1043.88 905.204 1048.91 903.448 1054.9 901.448C1067.27 897.284 1081.79 893.038 1088.28 891.69C1095.34 890.221 1092.8 890.302 1084.05 891.854C1069.25 894.507 1059.13 897.324 1048.91 901.734C1037.72 906.551 1033.26 907.531 996.032 913.369C958.635 919.207 942.026 921.085 911.859 922.8C907.283 923.045 868.361 923.371 814.128 923.576C737.595 923.857 722.902 923.987 719.003 924.803C715.114 923.987 700.462 923.857 624.14 923.576C570.058 923.371 531.243 923.045 526.68 922.8C496.597 921.085 480.034 919.207 442.74 913.369C405.614 907.531 401.164 906.551 390.009 901.734C379.813 897.324 369.729 894.507 354.969 891.854C346.237 890.302 343.702 890.221 350.744 891.69C357.222 893.038 371.7 897.284 384.038 901.448C390.009 903.448 395.023 905.204 395.192 905.326C395.587 905.612 387.812 903.938 381.897 902.428C379.249 901.774 371.644 899.611 364.996 897.651C341.899 890.833 335.646 889.363 318.632 886.628C289.732 882.015 253.339 878.626 216.27 877.034C183.539 875.687 152.386 875.442 55.4322 875.931L1.34997 876.176L1.40631 877.605C1.46264 879.361 2.25134 880.096 5.1808 881.198C10.4763 883.158 13.9128 883.362 37.4048 883.239C53.9111 883.158 73.1779 883.484 115.148 884.587C145.851 885.362 184.61 886.22 201.341 886.424C263.198 887.24 282.915 888.139 309.562 891.323C327.871 893.528 340.716 896.181 367.25 903.244C408.657 914.267 417.839 915.982 465.556 921.738C507.751 926.842 519.525 927.25 628.084 927.495C673.49 927.577 712.475 927.658 714.728 927.699C716.917 927.727 718.163 927.66 719.003 927.433ZM719.003 893.326C724.433 893.334 751.097 891.363 792.944 887.853C898.019 879.034 964.849 867.235 1021.06 847.557L1031.62 843.842L1028.12 842.209C1014.56 836.003 985.129 825.021 965.866 819.061C907.509 800.975 843.504 790.605 771.533 787.624C765.997 787.42 751.705 787.094 739.785 786.93C725.643 786.767 720.716 786.713 719.003 786.923C717.294 786.713 712.381 786.767 698.278 786.93C686.391 787.094 672.138 787.42 666.617 787.624C594.846 790.605 531.018 800.975 472.823 819.061C453.612 825.021 424.262 836.003 410.741 842.209L407.248 843.842L417.783 847.557C473.837 867.235 540.482 879.034 645.266 887.853C686.998 891.363 713.588 893.334 719.003 893.326ZM719.003 888.595C718.512 888.427 717.775 888.287 716.643 888.098C714.897 887.771 709.489 887.485 704.7 887.404C690.278 887.199 655.407 884.546 629.323 881.688C622.112 880.912 603.86 878.626 588.762 876.666C559.242 872.747 541.609 869.767 524.764 865.725C499.47 859.723 471.02 850.007 464.429 845.189L461.781 843.23L472.429 838.126C498.794 825.429 523.694 816.284 548.313 810.201C563.242 806.527 594.79 801.587 626.112 797.994C653.998 794.81 657.773 794.524 674.561 794.157C683.574 793.952 694.053 793.585 697.94 793.34C709.751 792.594 716.659 791.231 719.003 789.188C721.353 791.231 728.28 792.594 740.124 793.34C744.022 793.585 754.529 793.952 763.568 794.157C780.403 794.524 784.188 794.81 812.151 797.994C843.561 801.587 875.196 806.527 890.166 810.201C914.853 816.284 939.823 825.429 966.261 838.126L976.938 843.23L974.283 845.189C967.673 850.007 939.145 859.723 913.78 865.725C896.889 869.767 879.207 872.747 849.605 876.666C834.465 878.626 816.162 880.912 808.931 881.688C782.775 884.546 747.807 887.199 733.345 887.404C728.543 887.485 723.12 887.771 721.369 888.098C720.234 888.287 719.495 888.427 719.003 888.595ZM718.149 1021.56H719.855H850.17C1018.46 1021.56 1049.53 1021.88 1146.3 1024.82C1168.22 1025.48 1194.77 1026.25 1205.33 1026.54C1231.15 1027.23 1301.77 1027.23 1316.62 1026.54C1345.32 1025.19 1364.53 1024.09 1377.64 1022.99C1388.37 1022.05 1393.51 1021.4 1409.84 1018.7C1426.67 1015.97 1431.98 1015.31 1435.54 1015.52C1438.53 1015.68 1438.7 1016.05 1438.08 1020.21C1437.69 1023.07 1436.1 1025.15 1433.62 1025.97C1432.55 1026.38 1427.63 1026.62 1417.86 1026.87C1412.18 1027.01 1404.2 1027.25 1397.52 1027.44L1397.51 1027.44C1394.95 1027.52 1392.6 1027.58 1390.63 1027.64C1315.38 1030.09 1217.14 1030.74 1114.1 1029.52C1047.16 1028.74 954.737 1028.17 831.923 1027.76C817.756 1027.72 804.085 1027.68 791.535 1027.64C755.097 1027.53 728.115 1027.45 725.888 1027.48C721.086 1027.48 720.239 1027.36 719.278 1026.66C719.182 1026.59 719.09 1026.52 719.003 1026.44C718.916 1026.52 718.824 1026.59 718.728 1026.66C717.77 1027.36 716.925 1027.48 712.137 1027.48C709.916 1027.45 683.009 1027.53 646.671 1027.64H646.666C634.153 1027.68 620.521 1027.72 606.395 1027.76C483.921 1028.17 391.756 1028.74 324.998 1029.52C222.242 1030.74 124.274 1030.09 49.2353 1027.64C47.2737 1027.58 44.9208 1027.52 42.3772 1027.44L42.3586 1027.44C35.7014 1027.25 27.743 1027.01 22.0815 1026.87C12.3354 1026.62 7.43422 1026.38 6.36384 1025.97C3.88507 1025.15 2.30768 1023.07 1.91333 1020.21C1.29363 1016.05 1.46264 1015.68 4.44843 1015.52C7.99757 1015.31 13.2931 1015.97 30.0811 1018.7C46.3621 1021.4 51.4887 1022.05 62.1925 1022.99C75.2623 1024.09 94.4164 1025.19 123.035 1026.54C137.851 1027.23 208.271 1027.23 234.016 1026.54C244.551 1026.25 271.029 1025.48 292.887 1024.82C389.39 1021.88 420.374 1021.56 588.198 1021.56H718.149ZM708.25 770.641C647.632 772.111 602.564 775.009 562.171 780.113C532.144 783.869 490.118 790.768 463.922 796.239C451.134 798.893 422.909 805.833 395.981 812.937C322.125 832.411 301.957 836.044 256.832 838.045C248.269 838.453 224.946 838.821 195.426 839.065C169.23 839.27 141.344 839.555 133.457 839.678C71.9385 840.658 52.221 840.739 37.7991 840.045C16.6169 838.984 7.03987 839.882 2.8147 843.393C1.29363 844.618 1.06829 845.149 1.06829 847.067L1.06829 849.313L103.205 849.231C203.708 849.15 214.017 849.231 246.41 850.497C297.506 852.538 343.758 857.233 383.306 864.419C400.094 867.48 407.192 869.114 434.965 876.258C477.442 887.2 490.4 889.404 545.834 895.201C588.198 899.651 616.197 901.693 661.322 903.775C681.328 904.674 715.84 905.909 719.003 905.87C722.175 905.909 756.782 904.674 776.844 903.775C822.094 901.693 850.17 899.651 892.652 895.201C948.24 889.404 961.233 887.2 1003.83 876.258C1031.68 869.114 1038.8 867.48 1055.63 864.419C1095.29 857.233 1141.67 852.538 1192.91 850.497C1225.39 849.231 1235.73 849.15 1336.51 849.231L1438.93 849.313V847.067C1438.93 845.149 1438.7 844.618 1437.18 843.393C1432.94 839.882 1423.34 838.984 1402.1 840.045C1387.63 840.739 1367.86 840.658 1306.17 839.678C1298.26 839.555 1270.3 839.27 1244.03 839.065C1214.43 838.821 1191.04 838.453 1182.46 838.045C1137.21 836.044 1116.98 832.411 1042.92 812.937C1015.92 805.833 987.615 798.893 974.791 796.239C948.523 790.768 906.38 783.869 876.269 780.113C835.765 775.009 790.571 772.111 729.786 770.641L719.911 770.4V770.355L719.003 770.377L718.092 770.355V770.4L708.25 770.641ZM719.003 774.884L713.038 775.132C693.095 775.948 650.336 778.561 625.267 780.521C557.946 785.706 496.371 794.32 456.542 804.118C437.5 808.772 417.332 814.447 412.938 816.366C401.277 821.469 379.306 827.471 350.349 833.554C342.462 835.187 332.942 837.187 329.223 838.004C322.125 839.515 309.844 841.76 302.182 842.985C299.703 843.393 298.07 843.76 298.52 843.842C298.578 843.847 298.702 843.859 298.884 843.877L299.436 843.931L299.439 843.932L299.442 843.932L299.442 843.932L299.445 843.932C301.075 844.093 304.578 844.437 308.379 844.781C345.392 848.251 378.066 853.191 405.84 859.56C410.797 860.662 427.811 864.868 443.585 868.869C459.415 872.829 473.048 876.217 473.95 876.381C474.795 876.544 475.414 876.748 475.245 876.87C475.133 876.993 466.288 875.115 455.641 872.706C419.248 864.541 396.601 859.683 396.263 859.968C396.094 860.05 399.474 860.907 403.755 861.887C407.981 862.826 418.853 865.317 427.811 867.44C463.471 875.768 480.316 879.238 506.962 883.77C556.369 892.099 593.437 896.467 646.111 900.141C658.336 900.999 666.674 901.285 685.546 901.529C709.151 901.856 712.306 902.06 716.644 903.448C717.647 903.757 718.519 904.279 719.003 904.778C719.488 904.279 720.363 903.757 721.369 903.448C725.719 902.06 728.882 901.856 752.552 901.529C771.477 901.285 779.838 900.999 792.096 900.141C844.916 896.467 882.088 892.099 931.631 883.77C958.352 879.238 975.243 875.768 1011 867.44C1019.98 865.317 1030.89 862.826 1035.12 861.887C1039.42 860.907 1042.81 860.05 1042.64 859.968C1042.3 859.683 1019.59 864.541 983.096 872.706C972.419 875.115 963.549 876.993 963.436 876.87C963.267 876.748 963.888 876.544 964.736 876.381C965.64 876.217 979.311 872.829 995.185 868.869C1011 864.868 1028.06 860.662 1033.03 859.56C1060.88 853.191 1093.65 848.251 1130.77 844.781C1134.58 844.437 1138.09 844.093 1139.72 843.932L1139.73 843.932L1139.73 843.932L1139.73 843.931L1140.29 843.877C1140.47 843.859 1140.59 843.847 1140.65 843.842C1141.1 843.76 1139.47 843.393 1136.98 842.985C1129.3 841.76 1116.98 839.515 1109.86 838.004C1106.13 837.187 1096.59 835.187 1088.68 833.554C1059.64 827.471 1037.61 821.469 1025.92 816.366C1021.51 814.447 1001.29 808.772 982.192 804.118C942.252 794.32 880.506 785.706 812.998 780.521C787.86 778.561 744.982 775.948 724.984 775.132L719.003 774.884ZM433.163 809.017C428.149 810.569 426.121 810.773 430.74 809.262C433.557 808.323 437.613 807.221 438.12 807.221C438.853 807.221 437.613 807.67 433.163 809.017ZM689.49 799.056C699.518 798.525 716.193 797.831 718.503 797.831L719.003 797.843L719.504 797.831C721.82 797.831 738.542 798.525 748.598 799.056C812.716 802.485 861.299 810.569 901.408 824.531C912.368 828.369 920.277 831.635 931.067 836.861C941.8 842.046 942.252 842.291 941.461 842.658C941.417 842.684 941.313 842.742 941.159 842.829L941.133 842.844L941.128 842.847C940.269 843.332 937.977 844.624 935.529 846.087C904.233 864.418 856.215 874.829 782.21 879.279C766.319 880.213 723.306 882.15 719.003 882.116C714.712 882.15 671.817 880.213 655.97 879.279C582.17 874.829 534.285 864.418 503.075 846.087C500.634 844.624 498.349 843.332 497.492 842.847L497.487 842.844L497.481 842.841C497.316 842.747 497.206 842.685 497.16 842.658C496.371 842.291 496.822 842.046 507.526 836.861C518.286 831.635 526.173 828.369 537.102 824.531C577.1 810.569 625.549 802.485 689.49 799.056ZM719.003 881.561C718.78 881.366 718.47 881.139 718.108 880.912C715.235 879.116 709.996 878.626 689.771 878.259C642.337 877.36 593.212 871.073 560.087 861.683C546.172 857.723 532.313 852.456 519.75 846.332L513.159 843.066L514.793 841.597C518.511 838.208 531.863 830.043 532.651 830.614C532.82 830.737 537.327 829.308 542.623 827.471C547.975 825.593 555.524 823.102 559.467 821.918C563.411 820.694 566.565 819.632 566.453 819.55C566.002 819.265 549.608 824.327 541.383 827.267C536.539 829.022 533.215 830.084 534.003 829.635C536.313 828.328 554.059 822.082 560.481 820.326C573.607 816.774 597.381 812.038 608.761 810.691C611.578 810.365 628.873 808.691 647.294 807.017C694.729 802.648 713.77 800.362 718.559 798.484L719.003 798.318L719.448 798.484C724.25 800.362 743.344 802.648 790.91 807.017C809.383 808.691 826.726 810.365 829.551 810.691C840.962 812.038 864.802 816.774 877.964 820.326C884.404 822.082 902.199 828.328 904.515 829.635C905.306 830.084 901.973 829.022 897.115 827.267C888.867 824.327 872.428 819.265 871.976 819.55C871.863 819.632 875.027 820.694 878.981 821.918C882.935 823.102 890.505 825.593 895.872 827.471C901.182 829.308 905.702 830.737 905.871 830.614C906.662 830.043 920.051 838.208 923.779 841.597L925.417 843.066L918.808 846.332C906.21 852.456 892.313 857.723 878.36 861.683C845.142 871.073 795.881 877.36 748.315 878.259C728.035 878.626 722.781 879.116 719.9 880.912C719.537 881.139 719.227 881.366 719.003 881.561ZM704.869 872.829C664.815 872.175 627.859 867.072 588.705 856.825C574.283 853.028 546.172 844.373 544.538 843.189C543.975 842.781 549.327 840.494 561.044 836.085C578.621 829.471 599.972 823.184 621.605 818.285C633.098 815.713 635.689 815.305 663.294 812.324C682.166 810.283 698.841 808.242 706.447 807.058C712.351 806.146 717.631 804.933 719.003 804.221C720.378 804.933 725.673 806.146 731.594 807.058C739.22 808.242 755.942 810.283 774.866 812.324C802.547 815.305 805.146 815.713 816.67 818.285C838.363 823.184 859.774 829.471 877.399 836.085C889.15 840.494 894.516 842.781 893.951 843.189C892.313 844.373 864.124 853.028 849.662 856.825C810.4 867.072 773.341 872.175 733.175 872.829L719.003 873.059L704.869 872.829ZM719.003 876.092C717.622 876.289 714.235 876.043 706.016 875.447C704.948 875.369 703.798 875.286 702.56 875.196C660.139 872.135 631.746 869.236 602.169 864.99C573.495 860.826 554.848 856.049 541.327 849.476C536.595 847.149 530.229 843.27 530.736 842.944C531.694 842.331 542.003 837.759 547.749 835.391C589.1 818.448 640.59 808.16 702.165 804.567C708.081 804.241 714.334 803.873 716.136 803.751C717.373 803.693 718.469 803.696 719.003 803.776C719.538 803.696 720.637 803.693 721.877 803.751C723.685 803.873 729.955 804.241 735.887 804.567C797.633 808.16 849.266 818.448 890.731 835.391C896.494 837.759 906.832 842.331 907.792 842.944C908.3 843.27 901.917 847.149 897.171 849.476C883.613 856.049 864.915 860.826 836.16 864.99C806.502 869.236 778.03 872.135 735.492 875.196C734.25 875.286 733.097 875.369 732.025 875.447C723.784 876.043 720.388 876.289 719.003 876.092ZM590.339 910.103C659.068 914.471 682.786 915.533 703.574 915.329L718.375 915.14V915.125L719.003 915.132L719.629 915.125V915.14L734.475 915.329C755.32 915.533 779.103 914.471 848.023 910.103C893.273 907.245 936.716 903.489 959.2 900.468C965.301 899.692 965.866 899.243 959.934 899.896C957.731 900.182 955.584 900.305 955.189 900.182C954.85 900.1 955.754 899.896 957.335 899.733C961.177 899.325 974.848 896.916 983.265 895.161C994.338 892.833 1004.39 890.384 1031.06 883.566C1065.12 874.87 1082.63 870.746 1087.27 870.338C1088.57 870.257 1091.11 869.889 1092.92 869.522C1108.17 866.746 1128 864.459 1149.46 862.949C1178.28 860.989 1229.74 860.336 1356.96 860.295L1439.04 860.295L1438.82 864.541C1438.7 866.909 1438.48 868.868 1438.36 868.95C1438.19 869.032 1428.03 868.868 1415.77 868.542C1386.22 867.766 1284.25 867.644 1259 868.379C1210.14 869.767 1162.8 872.339 1118.62 876.013C1097.1 877.809 1091.9 878.667 1073.03 883.403C1046.25 890.098 1040.49 891.445 1028.52 893.568C968.747 904.142 901.86 911.124 822.885 915.002C798.141 916.186 734.644 918.268 722.047 918.268H719.629L718.375 918.268L715.967 918.268C703.405 918.268 640.083 916.186 615.408 915.002C536.651 911.124 469.95 904.142 410.347 893.568C398.404 891.445 392.657 890.098 365.954 883.403C347.138 878.667 341.955 877.809 320.491 876.013C276.437 872.339 229.228 869.767 180.497 868.379C155.315 867.644 53.6294 867.766 24.1659 868.542C11.9411 868.868 1.80065 869.032 1.63164 868.95C1.51897 868.868 1.29363 866.909 1.18096 864.541L0.955617 860.295L82.8113 860.295C209.679 860.336 261.001 860.989 289.732 862.949C311.14 864.459 330.913 866.746 346.124 869.522C347.927 869.889 350.462 870.257 351.758 870.338C356.377 870.746 373.841 874.87 407.812 883.566C434.402 890.384 444.43 892.833 455.471 895.161C463.865 896.916 477.499 899.325 481.33 899.733C482.907 899.896 483.808 900.1 483.47 900.182C483.076 900.305 480.935 900.182 478.738 899.896C472.823 899.243 473.386 899.692 479.47 900.468C501.892 903.489 545.214 907.245 590.339 910.103ZM698.391 937.661C667.575 938.028 526.116 939.089 506.681 939.089C493.723 939.13 489.78 939.008 487.526 938.518C485.949 938.15 479.752 937.171 473.724 936.272C443.866 931.822 436.092 930.23 408.093 922.841C370.912 913.042 364.151 911.205 358.011 909.49C327.364 900.876 295.478 897.039 236.27 894.793C124.95 890.588 105.12 890.057 35.1513 889.445C5.23712 889.2 2.92736 889.2 2.02599 889.853C0.730267 890.792 0.842938 892.262 2.19499 893.16C2.23002 893.182 2.26358 893.204 2.29623 893.225L2.29792 893.226L2.30055 893.228L2.30432 893.231L2.3067 893.232L2.30691 893.232L2.3083 893.233L2.30928 893.234L2.3097 893.234C2.38958 893.286 2.46442 893.334 2.54252 893.38C3.67632 894.042 5.49816 894.085 33.4447 894.746L33.4455 894.746H33.4462H33.4469H33.4475H33.448H33.4485H33.449H33.4494H33.4497H33.4501H33.4504H33.4507H33.4509H33.4511H33.4513H33.4515H33.4517H33.4518H33.452L35.433 894.793C167.202 897.937 248.494 902.468 311.365 910.307C332.941 913.002 339.814 914.349 379.925 923.984C411.023 931.455 420.036 933.374 431.585 935.211C440.599 936.599 451.472 937.865 454.683 937.865C458.57 937.865 458.457 938.518 454.514 938.845C446.12 939.457 429.106 942.396 415.98 945.499C402.685 948.602 381.672 955.297 366.968 961.013C330.688 975.221 306.351 981.1 271.479 984.162C236.439 987.223 179.709 987.754 136.837 985.427C111.035 983.998 101.74 982.855 55.3758 975.261C31.9402 971.424 8.84259 968.484 2.30766 968.484C0.448584 968.484 0.392248 968.525 0.730262 969.832C0.899269 970.526 1.68797 971.546 2.47667 972.036C5.23711 973.792 8.95527 974.241 23.0955 974.649L36.4471 974.976L49.5732 977.425C82.9803 983.59 124.331 987.836 169.793 989.755C184.441 990.367 233.002 990.367 250.072 989.755C287.028 988.448 295.647 987.713 315.252 984.202C335.251 980.61 345.673 977.466 366.743 968.607C382.46 961.952 384.038 961.381 395.136 958.359C412.318 953.664 426.233 950.97 446.965 948.275C453.162 947.459 459.133 946.642 460.204 946.438L462.175 946.071L460.204 946.234C459.956 946.253 459.643 946.278 459.286 946.307L459.274 946.308L459.274 946.308L459.27 946.309C458.083 946.405 456.427 946.539 455.133 946.601L452.035 946.806L454.57 946.397C455.978 946.193 462.964 945.254 470.062 944.356L483.02 942.723L584.705 942.111C665.096 941.621 688.476 941.58 696.419 941.988C706.728 942.478 713.263 942.274 716.305 941.335C717.372 941.026 718.339 940.454 719.003 939.813C719.668 940.454 720.638 941.026 721.708 941.335C724.758 942.274 731.311 942.478 741.649 941.988C749.615 941.58 773.059 941.621 853.673 942.111L955.641 942.723L968.634 944.356C975.752 945.254 982.757 946.193 984.169 946.397L986.711 946.806L983.604 946.601C982.307 946.539 980.646 946.405 979.457 946.309L979.453 946.308L979.452 946.308C979.089 946.279 978.771 946.253 978.52 946.234L976.543 946.071L978.52 946.438C979.593 946.642 985.581 947.459 991.795 948.275C1012.58 950.97 1026.54 953.664 1043.77 958.359C1054.9 961.381 1056.48 961.952 1072.24 968.607C1093.37 977.466 1103.82 980.61 1123.87 984.202C1143.53 987.713 1152.18 988.448 1189.23 989.755C1206.35 990.367 1255.05 990.367 1269.74 989.755C1315.32 987.836 1356.79 983.59 1390.29 977.425L1403.45 974.976L1416.84 974.649C1431.02 974.241 1434.75 973.792 1437.52 972.036C1438.31 971.546 1439.1 970.526 1439.27 969.832C1439.61 968.525 1439.55 968.484 1437.69 968.484C1431.13 968.484 1407.97 971.424 1384.47 975.261C1337.98 982.855 1328.66 983.998 1302.78 985.427C1259.79 987.754 1202.91 987.223 1167.77 984.162C1132.8 981.1 1108.39 975.221 1072.01 961.013C1057.27 955.297 1036.2 948.602 1022.87 945.499C1009.7 942.396 992.643 939.457 984.225 938.845C980.271 938.518 980.158 937.865 984.056 937.865C987.276 937.865 998.179 936.599 1007.22 935.211C1018.8 933.374 1027.84 931.455 1059.02 923.984C1099.24 914.349 1106.14 913.002 1127.77 910.307C1190.82 902.468 1272.33 897.937 1404.47 894.793L1406.46 894.746H1406.46H1406.46H1406.46H1406.46H1406.46L1406.46 894.746C1434.49 894.085 1436.31 894.042 1437.45 893.38C1437.53 893.334 1437.6 893.286 1437.68 893.234L1437.69 893.233L1437.69 893.232L1437.69 893.231L1437.69 893.228L1437.7 893.226L1437.73 893.202L1437.8 893.16C1439.15 892.262 1439.27 890.792 1437.97 889.853C1437.06 889.2 1434.75 889.2 1404.75 889.445C1334.59 890.057 1314.7 890.588 1203.08 894.793C1143.7 897.039 1111.73 900.876 1081 909.49C1074.84 911.205 1068.06 913.042 1030.77 922.841C1002.7 930.23 994.902 931.822 964.962 936.272C958.917 937.171 952.703 938.15 951.121 938.518C948.862 939.008 944.907 939.13 931.914 939.089C912.424 939.089 770.573 938.028 739.672 937.661C725.647 937.495 720.722 937.441 719.003 937.651C717.289 937.441 712.377 937.495 698.391 937.661ZM450.514 947.132C450.063 947.01 450.232 946.887 450.852 946.887C451.472 946.846 451.81 946.969 451.584 947.091C451.415 947.214 450.908 947.255 450.514 947.132ZM719.003 985.016C719.258 985.317 719.578 985.624 719.956 985.917C720.578 986.407 722.385 987.142 723.967 987.55C726.566 988.203 728.882 988.285 747.75 988.162C769.556 988.04 784.47 988.367 822.32 989.755C867.513 991.388 928.637 994.286 925.135 994.613C923.779 994.735 928.298 995.185 936.716 995.756C954.285 996.94 971.515 998.328 1019.7 1002.41C1040.94 1004.21 1058.74 1005.64 1059.19 1005.55C1060.04 1005.43 1016.48 1001.19 989.253 998.696C982.248 998.083 977.333 997.552 978.237 997.512C981.344 997.43 1003.6 999.43 1037.55 1002.78C1088.57 1007.84 1101.16 1009.02 1104.21 1008.98C1105.74 1008.94 1106.7 1009.07 1106.36 1009.23C1105.57 1009.6 1127.83 1011.27 1136.98 1011.56C1141.27 1011.68 1140.54 1011.6 1133.87 1011.15C1116.76 1010 1122.07 1010 1144.89 1011.15C1225.95 1015.19 1290.3 1014.37 1365.77 1008.29C1368.37 1008.09 1371.51 1007.84 1374.73 1007.58L1374.77 1007.58L1374.79 1007.58L1374.8 1007.58C1380.04 1007.16 1385.49 1006.73 1389.22 1006.45C1410.74 1004.78 1424.35 1002.74 1431.92 1000.12C1437.18 998.287 1438.36 997.226 1438.36 994.368C1438.36 993.143 1438.19 992.163 1437.91 992.163C1437.69 992.163 1435.71 992.531 1433.56 992.98C1406.11 998.736 1373.4 1002.74 1334.87 1005.06C1328.43 1005.47 1323.29 1005.92 1323.4 1006.04C1323.52 1006.21 1320.92 1006.45 1317.58 1006.58C1315.61 1006.67 1311.77 1006.84 1307.45 1007.03L1307.44 1007.03L1307.44 1007.03C1304.45 1007.16 1301.24 1007.3 1298.26 1007.43C1263.8 1008.98 1209.85 1009.31 1185.84 1008.09C1162.01 1006.9 1144.66 1005.64 1124.27 1003.55C1104.33 1001.55 1091.39 999.92 1049.98 994.205C1005.69 988.122 971.289 985.468 911.294 983.508C897.638 983.067 726.329 982.586 719.003 982.957C711.697 982.586 540.862 983.067 527.243 983.508C467.415 985.468 433.106 988.122 388.939 994.205C347.645 999.92 334.744 1001.55 314.858 1003.55C294.521 1005.64 277.226 1006.9 253.452 1008.09C229.509 1009.31 175.709 1008.98 141.344 1007.43C138.374 1007.3 135.17 1007.16 132.191 1007.03L132.186 1007.03L132.166 1007.03C127.865 1006.84 124.039 1006.67 122.077 1006.58C118.753 1006.45 116.162 1006.21 116.275 1006.04C116.387 1005.92 111.261 1005.47 104.839 1005.06C66.4176 1002.74 33.7993 998.736 6.42018 992.98C4.27943 992.531 2.30768 992.163 2.08234 992.163C1.80066 992.163 1.63165 993.143 1.63165 994.368C1.63165 997.226 2.8147 998.287 8.05391 1000.12C15.6029 1002.74 29.1798 1004.78 50.6437 1006.45C54.3643 1006.73 59.802 1007.16 65.0225 1007.58L65.0306 1007.58L65.0538 1007.58L65.0885 1007.58L65.1366 1007.59C68.334 1007.84 71.4445 1008.09 74.0229 1008.29C149.287 1014.37 213.454 1015.19 294.295 1011.15C317.055 1010 322.35 1010 305.281 1011.15C298.633 1011.6 297.901 1011.68 302.182 1011.56C311.309 1011.27 333.505 1009.6 332.716 1009.23C332.378 1009.07 333.336 1008.94 334.857 1008.98C337.899 1009.02 350.462 1007.84 401.333 1002.78C435.191 999.43 457.387 997.43 460.485 997.512C461.387 997.552 456.486 998.083 449.5 998.696C422.346 1001.19 378.911 1005.43 379.756 1005.55C380.207 1005.64 397.953 1004.21 419.135 1002.41C467.189 998.328 484.372 996.94 501.892 995.756C510.286 995.185 514.793 994.735 513.441 994.613C509.948 994.286 570.903 991.388 615.972 989.755C653.717 988.367 668.589 988.04 690.335 988.162C709.151 988.285 711.461 988.203 714.052 987.55C715.629 987.142 717.432 986.407 718.052 985.917C718.429 985.624 718.748 985.317 719.003 985.016ZM470.344 996.736C469.274 996.736 468.823 996.818 469.386 996.94C469.893 997.022 470.795 997.022 471.358 996.94C471.865 996.818 471.414 996.736 470.344 996.736ZM464.992 997.185C463.471 997.185 462.851 997.267 463.753 997.348C464.598 997.43 465.837 997.43 466.57 997.348C467.246 997.267 466.57 997.185 464.992 997.185ZM319.646 1009.84C318.407 1009.84 317.956 1009.92 318.689 1010C319.365 1010.09 320.379 1010.09 320.942 1010C321.449 1009.88 320.886 1009.8 319.646 1009.84ZM32.8416 999.553C32.2219 999.553 32.0529 999.675 32.5036 999.798C32.8979 999.92 33.4049 999.88 33.574 999.757C33.7993 999.635 33.4613 999.512 32.8416 999.553ZM14.0818 996.818C14.2508 996.94 17.9126 997.634 22.1942 998.287C26.4757 998.981 30.2502 999.471 30.5318 999.39C30.8698 999.308 27.8277 998.777 23.8279 998.165C19.8281 997.552 15.9409 996.94 15.1522 996.777C14.3635 996.654 13.9128 996.654 14.0818 996.818ZM11.7157 996.083C9.34963 995.756 8.89895 996.083 11.2087 996.45C12.1664 996.613 13.1241 996.654 13.2368 996.532C13.4058 996.45 12.6734 996.246 11.7157 996.083ZM8.05391 995.47C7.43422 995.47 7.26521 995.593 7.7159 995.715C8.11025 995.838 8.61727 995.797 8.78628 995.674C9.01162 995.552 8.6736 995.429 8.05391 995.47ZM673.04 1106.6C604.367 1106.97 552.819 1108.15 538.172 1109.74C527.863 1110.85 522.117 1112.03 505.836 1116.4C484.822 1122.07 475.471 1123.99 465.105 1124.77L461.049 1125.09L468.372 1125.38C504.709 1126.77 515.075 1126.07 534.792 1120.77C545.665 1117.87 550.96 1116.81 557.439 1116.27C567.692 1115.46 636.985 1113.38 666.955 1113.01C697.996 1112.64 705.94 1112.19 713.32 1110.56C715.694 1110.04 717.841 1109.08 719.003 1108.14C720.168 1109.08 722.321 1110.04 724.702 1110.56C732.102 1112.19 740.067 1112.64 771.194 1113.01C801.248 1113.38 870.733 1115.46 881.015 1116.27C887.511 1116.81 892.822 1117.87 903.724 1120.77C923.497 1126.07 933.891 1126.77 970.328 1125.38L977.672 1125.09L973.605 1124.77C963.21 1123.99 953.833 1122.07 932.761 1116.4C916.435 1112.03 910.673 1110.85 900.335 1109.74C885.647 1108.15 833.957 1106.97 765.093 1106.6C736.637 1106.46 722.545 1106.47 719.003 1106.68C715.471 1106.47 701.417 1106.46 673.04 1106.6ZM621.324 1119.46C630.901 1118.85 673.378 1118.77 701.489 1119.3L719.003 1119.61L736.565 1119.3C764.754 1118.77 807.349 1118.85 816.953 1119.46C832.658 1120.48 844.464 1121.79 855.367 1123.71C858.023 1124.15 860.339 1124.64 860.565 1124.81C860.791 1124.93 843.617 1125.01 822.433 1124.93C799.327 1124.85 780.29 1124.97 774.866 1125.22C741.767 1126.82 723.184 1125.84 719.003 1122.33C714.833 1125.84 696.301 1126.82 663.294 1125.22C657.885 1124.97 638.9 1124.85 615.859 1124.93C594.733 1125.01 577.607 1124.93 577.833 1124.81C578.058 1124.64 580.368 1124.15 583.015 1123.71C593.888 1121.79 605.662 1120.48 621.324 1119.46ZM709.489 819.224C692.363 819.877 678.899 821.265 663.575 824.001C643.914 827.471 623.464 833.35 606.451 840.413L602.057 842.25L604.761 843.148C611.578 845.312 627.352 849.762 634.281 851.436C642.393 853.395 656.139 856.008 656.59 855.682C656.759 855.559 654.505 855.069 651.632 854.579C642.393 853.028 636.253 851.354 625.943 847.721C620.422 845.761 614.338 843.801 612.479 843.352L609.042 842.577L613.268 841.597C615.577 841.066 625.661 837.677 635.577 834.044C652.365 827.92 654.336 827.308 661.716 825.879C674.786 823.347 692.194 821.184 710.052 819.836C713.489 819.591 716.362 819.306 716.531 819.183C716.7 819.061 713.545 819.102 709.489 819.224ZM661.773 856.498C661.322 856.376 661.491 856.253 662.111 856.253C662.73 856.212 663.068 856.335 662.843 856.457C662.674 856.58 662.167 856.621 661.773 856.498ZM658.787 855.886C657.885 855.886 657.547 855.967 658.111 856.09C658.618 856.172 659.407 856.172 659.801 856.09C660.139 855.967 659.745 855.886 658.787 855.886ZM490.343 737.939C497.442 738.429 505.948 738.551 530.623 738.429C547.806 738.347 560.763 738.388 559.354 738.47C541.721 739.613 535.693 740.103 527.525 741.083C516.99 742.389 506.23 743.981 506.568 744.226C506.681 744.308 510.568 743.818 515.187 743.165C519.807 742.512 524.99 741.858 526.68 741.736C528.37 741.573 525.215 742.144 519.638 742.92C494.568 746.472 485.104 748.962 471.978 755.453C453.781 764.476 438.12 769.824 414.91 775.009C410.91 775.907 407.53 776.52 407.417 776.438C407.248 776.356 409.558 775.703 412.487 775.009C427.754 771.457 445.275 765.415 465.161 756.842C476.203 752.065 481.668 750.064 488.259 748.391C491.132 747.697 493.385 747.002 493.216 746.921C492.878 746.676 483.752 748.84 475.527 751.126C471.302 752.31 468.034 753.535 465.781 754.8C448.824 764.272 425.557 771.743 390.573 779.01C351.645 787.094 324.04 790.972 273.676 795.341C189.398 802.73 130.584 805.466 47.7142 805.874L1.06829 806.119V804.935C1.06829 802.485 4.05408 800.852 10.3637 799.831C13.0114 799.382 18.8704 799.301 37.1231 799.382C79.3748 799.627 155.034 797.994 186.694 796.198C221.622 794.197 285 788.972 313.168 785.746C347.927 781.786 363.419 779.255 398.404 771.866C416.938 767.946 429.501 764.313 439.585 759.904C445.275 757.372 448.824 755.127 454.683 750.269C458.908 746.758 459.077 746.553 459.077 744.553C459.077 741.736 460.88 739.899 464.823 738.592C468.767 737.327 477.949 737.123 490.343 737.939ZM496.484 746.023C495.864 746.023 495.695 746.145 496.146 746.268C496.54 746.39 497.047 746.349 497.216 746.227C497.442 746.104 497.104 745.982 496.484 746.023ZM531.468 741.164C530.567 741.164 530.229 741.246 530.792 741.368C531.299 741.45 532.088 741.45 532.482 741.368C532.82 741.246 532.426 741.164 531.468 741.164ZM524.877 1065.94C524.426 1065.81 524.595 1065.69 525.215 1065.69C525.835 1065.65 526.173 1065.77 525.947 1065.9C525.778 1066.02 525.271 1066.06 524.877 1065.94ZM503.807 1102.39C487.188 1097.7 466.964 1093.17 448.035 1089.98C438.289 1088.35 422.402 1086.06 420.938 1086.1C420.374 1086.1 428.825 1087.82 439.641 1089.9C470.288 1095.82 481.555 1098.47 494.625 1102.84L499.695 1104.56L498.456 1105.5C493.047 1109.7 477.442 1115.05 464.711 1117.13C455.359 1118.64 457.443 1118.72 469.048 1117.3C483.358 1115.54 495.357 1112.93 503.357 1109.78C507.638 1108.11 512.539 1105.66 512.596 1105.17C512.596 1105.01 508.652 1103.78 503.807 1102.39ZM476.428 877.32C475.978 877.197 476.147 877.075 476.766 877.075C477.386 877.034 477.724 877.156 477.499 877.279C477.33 877.401 476.823 877.442 476.428 877.32ZM434.996 737.708C427.303 737.371 423.865 737.22 421.011 738.083C418.705 738.781 416.781 740.141 413.303 742.598C412.902 742.881 412.481 743.179 412.037 743.491C402.967 749.82 399.361 751.698 387.925 755.984C367.194 763.782 351.082 767.661 317.393 773.09C268.494 780.929 235.932 783.46 144.161 786.604C135.805 786.892 126.947 787.201 119.446 787.463L119.445 787.463C112.079 787.72 106.022 787.932 103.036 788.033C97.0079 788.237 86.5858 788.604 79.9382 788.849C78.6309 788.897 77.1733 788.95 75.628 789.006L75.6156 789.007C69.3048 789.236 61.5339 789.518 56.5589 789.747C50.362 789.992 37.5738 790.237 28.1094 790.278C10.3073 790.36 7.15253 790.605 3.54705 792.156C1.85698 792.891 0.673931 794.402 1.51897 794.687C2.19499 794.932 120.218 791.625 145.569 790.686C206.468 788.359 252.72 785.338 291.76 781.133C295.929 780.684 304.436 779.827 310.633 779.255C322.632 778.153 324.209 777.949 321.055 777.826C319.477 777.745 319.872 777.622 323.026 777.132C355.081 772.356 387.249 766.15 401.051 762.027C406.967 760.271 407.812 760.067 406.403 760.72C404.657 761.537 393.953 764.884 389.052 766.191C386.686 766.803 384.77 767.416 384.883 767.497C385.784 768.11 409.727 760.434 409.107 759.74C408.938 759.495 409.051 759.454 409.333 759.577C410.459 760.067 427.642 752.31 435.529 747.778C439.698 745.369 449.5 738.796 449.5 738.429C449.5 738.388 444.092 738.102 437.5 737.817C436.618 737.779 435.785 737.742 434.996 737.708ZM316.999 778.112C316.604 777.99 316.886 777.908 317.675 777.908C318.463 777.908 318.745 777.99 318.407 778.112C318.013 778.194 317.337 778.194 316.999 778.112ZM435.303 1120.24C434.571 1120.15 435.022 1120.07 436.261 1120.07C437.5 1120.03 438.064 1120.11 437.557 1120.24C436.993 1120.32 435.979 1120.32 435.303 1120.24ZM430.627 1120.48C429.106 1120.48 428.487 1120.56 429.388 1120.64C430.233 1120.72 431.473 1120.72 432.205 1120.64C432.881 1120.56 432.205 1120.48 430.627 1120.48ZM422.346 1121.05C421.614 1120.97 422.064 1120.89 423.304 1120.89C424.543 1120.85 425.107 1120.93 424.6 1121.05C424.036 1121.13 423.022 1121.13 422.346 1121.05ZM385.277 934.925C381.165 931.986 374.01 929.454 353.729 923.657C330.688 917.125 302.182 912.757 263.029 909.695C253.227 908.96 204.834 906.184 185.004 905.204C149.851 903.53 104.501 903.53 34.3063 905.204C25.4922 905.394 15.1634 905.69 10.3275 905.829L10.3251 905.829L9.34963 905.857L1.63165 906.102L1.63165 908.347C1.63165 910.511 1.68798 910.593 2.87103 910.348C6.36384 909.654 17.9126 908.429 24.3912 908.062C34.5317 907.49 51.545 907.572 70.0794 908.266C78.7551 908.592 98.0219 909.245 112.895 909.695C181.906 911.818 210.524 913.042 233.453 914.839C279.197 918.391 317.731 925.045 348.377 934.68C353.335 936.232 357.842 937.62 358.405 937.742C358.912 937.865 359.363 938.069 359.363 938.232C359.363 938.64 343.082 946.193 335.646 949.214C307.703 960.564 278.521 967.749 244.438 971.709C218.749 974.69 185.117 975.057 151.203 972.73C126.697 971.056 72.5019 965.136 52.8971 961.952C43.4327 960.441 35.771 959.421 30.3628 958.972L27.8277 958.727L30.9262 959.502C34.25 960.319 33.6303 960.319 26.701 959.543C23.8279 959.176 6.47651 957.665 2.195 957.339C-1.41048 957.094 1.68798 960.646 6.42017 962.156C10.1947 963.381 15.9409 964.197 26.1376 965.014C43.7707 966.361 48.3339 966.851 53.5168 968.035C76.8397 973.22 110.472 976.282 167.54 978.364C186.3 979.017 240.1 979.058 250.917 978.364C276.099 976.813 294.464 974.526 312.435 970.77C321.505 968.852 340.04 963.993 348.096 961.38C363.081 956.522 375.419 950.031 381.897 943.621L382.028 943.492L382.031 943.489L382.033 943.488C383.433 942.107 385.369 940.199 386.46 939.171L388.488 937.252L385.277 934.925ZM374.742 948.52C370.236 951.582 365.053 954.154 357.954 956.808C352.377 958.931 352.434 958.849 360.659 954.93C366.01 952.399 370.574 949.827 378.066 945.213C380.601 943.621 380.883 943.539 379.813 944.642C379.137 945.336 376.827 947.091 374.742 948.52ZM378.517 768.844C378.968 768.64 379.756 768.477 380.207 768.477C380.77 768.477 380.658 768.599 379.925 768.844C378.404 769.334 377.503 769.334 378.517 768.844ZM376.996 737.531C375.644 737.857 373.897 737.98 372.32 737.776C366.405 737.122 361.616 738.837 352.941 744.716C344.997 750.105 341.505 751.983 335.026 754.269C327.815 756.842 321.336 758.597 310.069 761.087C274.578 768.885 257.001 770.886 203.313 773.417C180.103 774.478 142.358 774.642 110.078 773.825C106.923 773.756 103.17 773.67 99.1462 773.579H99.1461L99.1455 773.579L99.144 773.579L99.1386 773.578L99.1365 773.578C88.9327 773.346 76.9918 773.073 68.6711 772.927C47.5452 772.478 44.6157 772.355 35.1514 771.131C21.6308 769.375 10.251 766.027 4.73011 762.108C2.98371 760.883 1.46264 759.863 1.34997 759.863C1.2373 759.863 1.12463 763.619 1.06829 768.232C1.06829 774.723 1.18096 776.642 1.74432 776.805C2.13867 776.887 8.05391 777.336 14.8705 777.826C64.2205 781.092 108.388 781.337 190.356 778.847C256.945 776.805 268.043 775.989 305.281 770.641C323.477 768.028 338.519 763.986 350.856 758.434C362.574 753.126 370.686 747.207 377.897 738.551L379.137 737L376.996 737.531ZM371.024 744.349C368.546 747.411 360.546 753.167 355.194 755.78C350.856 757.862 337.505 762.761 334.575 763.292C333.787 763.455 335.871 762.598 339.138 761.373C353.56 756.025 364.996 749.044 372.151 741.246C373.278 740.021 374.292 739.041 374.405 739.041C374.799 739.041 372.827 742.103 371.024 744.349ZM21.2365 769.538C20.7858 769.416 20.9548 769.293 21.5745 769.293C22.1942 769.253 22.5322 769.375 22.3068 769.498C22.1378 769.62 21.6308 769.661 21.2365 769.538ZM16.7859 768.477C12.8988 767.538 6.25117 765.129 4.44843 763.986C3.65973 763.537 5.01179 763.945 7.49056 764.966C9.91299 765.946 13.8001 767.252 16.1099 767.865C20.8421 769.13 21.4055 769.661 16.7859 768.477ZM375.869 1005.92C375.306 1005.8 375.757 1005.72 376.827 1005.72C377.897 1005.72 378.348 1005.8 377.841 1005.92C377.278 1006 376.376 1006 375.869 1005.92ZM341.336 775.458C340.547 775.458 340.265 775.54 340.66 775.662C340.997 775.744 341.674 775.744 342.068 775.662C342.406 775.54 342.124 775.458 341.336 775.458ZM337.279 776.071C336.885 775.948 337.167 775.867 337.955 775.867C338.744 775.867 339.026 775.948 338.688 776.071C338.293 776.152 337.617 776.152 337.279 776.071ZM335.42 776.275C334.801 776.234 331.758 776.601 328.66 777.01C325.449 777.459 324.322 777.704 326.125 777.581C329.787 777.336 337.054 776.316 335.42 776.275ZM334.463 867.113C334.012 866.991 334.181 866.868 334.801 866.868C335.42 866.827 335.758 866.95 335.533 867.072C335.364 867.195 334.857 867.235 334.463 867.113ZM331.082 737.939C329.73 738.021 323.871 737.939 318.013 737.735C305.224 737.245 303.365 737.408 287.76 740.429C246.748 748.39 214.918 752.391 171.765 755.045C160.442 755.739 114.247 755.739 106.416 755.045C89.2899 753.535 77.6847 752.024 59.6573 748.962C50.6436 747.451 46.9818 746.594 39.3765 744.267C23.8279 739.449 17.8563 738.225 9.96933 738.225C3.26539 738.225 0.335934 739.49 1.34998 742.022C2.53302 744.839 8.67361 748.962 15.4339 751.412C23.9406 754.474 41.2356 758.23 54.5871 759.822C74.699 762.271 94.7544 762.965 127.26 762.353C140.443 762.108 152.498 761.781 154.02 761.7C155.597 761.577 167.765 761.414 181.061 761.291C227.707 760.883 252.438 759.658 274.296 756.556C291.197 754.147 307.252 750.146 318.914 745.328C324.209 743.165 333.449 738.47 333.449 737.98C333.449 737.857 332.378 737.816 331.082 737.939ZM319.928 742.593C316.999 744.022 314.858 744.879 314.858 744.594C314.858 744.512 316.21 743.818 317.844 743.124C319.421 742.389 321.674 741.246 322.801 740.633C323.928 739.98 325.055 739.449 325.28 739.449C325.787 739.449 323.026 741.083 319.928 742.593ZM332.209 866.705C331.758 866.582 331.927 866.46 332.547 866.46C333.167 866.419 333.505 866.541 333.28 866.664C333.111 866.786 332.603 866.827 332.209 866.705ZM316.266 1123.71C285.901 1118.81 253.903 1114.97 227.538 1113.05C168.554 1108.68 115.88 1106.84 52.3337 1106.93C14.9268 1106.97 5.46244 1107.21 2.871 1108.31C1.91329 1108.76 1.06826 1109.33 1.06826 1109.58C1.06826 1110.4 4.89908 1110.56 27.6023 1110.56C65.8542 1110.56 110.866 1111.54 141.062 1113.01C186.131 1115.25 204.891 1116.81 224.439 1119.99C238.41 1122.28 243.875 1122.97 255.029 1123.83C265.057 1124.6 295.253 1125.34 311.759 1125.18L324.716 1125.05L316.266 1123.71ZM277.395 927.291C296.661 930.761 302.746 932.312 312.492 936.313C314.689 937.252 316.548 938.11 316.548 938.232C316.548 938.64 305.393 943.213 297.957 945.908C262.747 958.686 216.214 964.524 155.71 963.871C131.316 963.585 124.049 962.973 87.2618 957.87C46.8692 952.276 36.1654 951.297 16.2789 951.337C9.29328 951.337 3.09636 951.419 2.47667 951.46C1.46263 951.541 1.34996 951.297 1.40629 948.684C1.40629 945.377 2.47667 943.703 5.23712 942.519C6.81451 941.825 8.8426 941.784 34.8697 941.784C65.0092 941.784 66.0233 941.866 79.0931 944.234C87.2055 945.703 92.839 947.051 110.866 951.705C131.823 957.135 142.865 958.768 162.921 959.421C189.173 960.278 214.186 957.42 238.974 950.684C252.889 946.928 272.944 939.702 271.367 939.049C270.86 938.845 267.31 937.701 263.48 936.477C246.466 931.088 225.791 927.046 204.44 924.841C187.934 923.167 183.258 922.963 160.498 922.963C140.837 922.963 136.95 923.086 127.26 923.902C119.429 924.596 114.528 925.249 110.078 926.229C106.698 926.964 102.078 927.781 99.9373 928.066C94.7544 928.72 85.4027 928.434 82.755 927.577C81.4029 927.087 77.065 926.719 68.671 926.27C46.3058 925.045 36.3907 924.76 18.983 924.76H1.63164L1.63164 922.392L1.63164 920.024L17.5746 919.779C26.3066 919.615 41.968 919.248 52.3337 918.881C103.374 917.248 122.415 917.084 158.639 918.064C223.538 919.82 244.551 921.453 277.395 927.291ZM95.7122 926.556C94.0221 926.556 93.2897 926.638 94.1911 926.719C95.0361 926.801 96.3882 926.801 97.2896 926.719C98.1346 926.638 97.4022 926.556 95.7122 926.556ZM89.2336 926.964C87.3745 926.964 86.6984 927.046 87.7125 927.127C88.7265 927.209 90.2476 927.209 91.0926 927.127C91.9377 927.046 91.0926 926.964 89.2336 926.964ZM292.605 1011.88C290.746 1011.88 290.07 1011.96 291.084 1012.05C292.098 1012.13 293.619 1012.13 294.464 1012.05C295.309 1011.96 294.464 1011.88 292.605 1011.88ZM75.1497 739.082C71.2625 738.306 72.1639 738.306 153.118 738.388L235.03 738.429L228.608 739.531C214.524 741.94 196.666 743.981 178.526 745.206C167.371 745.982 135.541 745.859 123.88 745.002C106.754 743.777 86.9801 741.368 75.1497 739.082ZM227.481 939.579C223.763 937.946 218.975 936.599 213.059 935.578C205.116 934.231 204.834 934.354 211.764 936.191C217.284 937.62 224.777 939.824 225.228 940.11C225.566 940.396 213.679 944.356 209.341 945.418C203.708 946.765 195.877 947.949 188.891 948.48C185.849 948.724 183.258 948.969 183.145 949.092C182.413 949.623 194.976 948.724 201.341 947.826C207.538 946.928 217.735 944.438 224.157 942.274L229.453 940.478L227.481 939.579ZM133.739 1118.72C143.428 1119.7 154.132 1121.75 162.076 1124.11C163.653 1124.6 165.005 1125.09 165.005 1125.18C165.005 1125.46 122.077 1124.89 106.416 1124.4C91.994 1123.99 89.5152 1123.87 57.4039 1121.75C45.4608 1120.97 30.9262 1120.15 25.0109 1119.95C12.9551 1119.5 8.0539 1119.01 4.61742 1117.91C2.42033 1117.21 0.39225 1115.38 1.18095 1114.85C1.29362 1114.72 19.659 1114.6 41.9679 1114.56C88.2758 1114.44 99.8247 1114.85 122.472 1117.5C123.4 1117.6 124.412 1117.71 125.447 1117.83L125.509 1117.84L125.516 1117.84L125.52 1117.84L125.55 1117.84C128.633 1118.18 131.899 1118.54 133.739 1118.72ZM62.7558 933.905C55.8265 932.721 51.0943 932.231 42.1933 931.741C33.912 931.292 9.57498 931.251 4.16675 931.7L0.786617 931.945L2.42035 932.843C4.27943 933.905 6.53285 934.435 12.0537 935.048C16.5043 935.578 49.5169 935.578 60.7841 935.089L67.826 934.762L62.7558 933.905ZM880.789 1091.04C881.58 1091.04 881.862 1091.13 881.467 1091.25C881.128 1091.33 880.45 1091.33 880.054 1091.25C879.715 1091.13 879.998 1091.04 880.789 1091.04ZM883.896 1090.64C884.8 1090.64 885.139 1090.72 884.574 1090.84C884.065 1090.92 883.274 1090.92 882.879 1090.84C882.54 1090.72 882.935 1090.64 883.896 1090.64ZM895.985 1089.04C895.816 1089.21 893.725 1089.62 891.353 1089.98C888.924 1090.31 886.72 1090.55 886.325 1090.47C885.986 1090.39 887.455 1090.06 889.602 1089.78C891.744 1089.53 894.112 1089.17 894.907 1089.04L894.909 1089.04L894.911 1089.04L894.912 1089.04C895.703 1088.92 896.155 1088.92 895.985 1089.04ZM995.298 1058.18C995.863 1058.06 995.411 1057.98 994.338 1057.98C993.264 1057.98 992.812 1058.06 993.321 1058.18C993.886 1058.26 994.789 1058.26 995.298 1058.18ZM999.817 1057.77C1000.38 1057.65 1000.04 1057.57 999.139 1057.57C998.179 1057.57 997.784 1057.65 998.122 1057.77C998.518 1057.85 999.309 1057.85 999.817 1057.77ZM1002.92 1057.36C1003.38 1057.24 1003.21 1057.12 1002.59 1057.12C1001.96 1057.08 1001.62 1057.2 1001.85 1057.32C1002.02 1057.44 1002.53 1057.49 1002.92 1057.36ZM999.252 1047.16C999.817 1047.03 999.365 1046.95 998.292 1046.95C997.219 1046.95 996.767 1047.03 997.275 1047.16C997.84 1047.24 998.744 1047.24 999.252 1047.16ZM1002.92 1046.75C1003.38 1046.63 1003.21 1046.5 1002.59 1046.5C1001.96 1046.46 1001.62 1046.58 1001.85 1046.71C1002.02 1046.83 1002.53 1046.87 1002.92 1046.75ZM1005.64 809.017C1010.66 810.569 1012.7 810.773 1008.07 809.262C1005.24 808.323 1001.17 807.221 1000.66 807.221C999.93 807.221 1001.17 807.67 1005.64 809.017ZM988.236 947.132C988.688 947.01 988.519 946.887 987.897 946.887C987.276 946.846 986.937 946.969 987.163 947.091C987.333 947.214 987.841 947.255 988.236 947.132ZM968.351 996.736C969.425 996.736 969.876 996.818 969.312 996.94C968.803 997.022 967.899 997.022 967.334 996.94C966.826 996.818 967.278 996.736 968.351 996.736ZM973.718 997.185C975.243 997.185 975.865 997.267 974.961 997.348C974.113 997.43 972.871 997.43 972.136 997.348C971.458 997.267 972.136 997.185 973.718 997.185ZM1119.47 1009.84C1120.71 1009.84 1121.16 1009.92 1120.43 1010C1119.75 1010.09 1118.73 1010.09 1118.17 1010C1117.66 1009.88 1118.22 1009.8 1119.47 1009.84ZM1407.07 999.553C1407.69 999.553 1407.86 999.675 1407.41 999.798C1407.01 999.92 1406.5 999.88 1406.33 999.757C1406.11 999.635 1406.45 999.512 1407.07 999.553ZM1425.88 996.818C1425.71 996.94 1422.04 997.634 1417.74 998.287C1413.45 998.981 1409.67 999.471 1409.38 999.39C1409.04 999.308 1412.1 998.777 1416.11 998.165C1420.12 997.552 1424.01 996.94 1424.81 996.777C1425.6 996.654 1426.05 996.654 1425.88 996.818ZM1428.25 996.083C1430.62 995.756 1431.08 996.083 1428.76 996.45C1427.8 996.613 1426.84 996.654 1426.73 996.532C1426.56 996.45 1427.29 996.246 1428.25 996.083ZM1431.92 995.47C1432.55 995.47 1432.71 995.593 1432.26 995.715C1431.87 995.838 1431.36 995.797 1431.19 995.674C1430.96 995.552 1431.3 995.429 1431.92 995.47ZM728.543 819.224C745.717 819.877 759.218 821.265 774.584 824.001C794.3 827.471 814.806 833.35 831.867 840.413L836.273 842.25L833.561 843.148C826.726 845.312 810.908 849.762 803.96 851.436C795.825 853.395 782.041 856.008 781.589 855.682C781.419 855.559 783.679 855.069 786.56 854.579C795.825 853.028 801.983 851.354 812.321 847.721C817.857 845.761 823.958 843.801 825.822 843.352L829.268 842.577L825.031 841.597C822.715 841.066 812.603 837.677 802.66 834.044C785.826 827.92 783.849 827.308 776.448 825.879C763.342 823.347 745.886 821.184 727.978 819.836C724.532 819.591 721.651 819.306 721.482 819.183C721.312 819.061 724.476 819.102 728.543 819.224ZM776.392 856.498C776.844 856.376 776.674 856.253 776.053 856.253C775.431 856.212 775.092 856.335 775.318 856.457C775.488 856.58 775.996 856.621 776.392 856.498ZM779.386 855.886C780.29 855.886 780.629 855.967 780.064 856.09C779.555 856.172 778.764 856.172 778.369 856.09C778.03 855.967 778.425 855.886 779.386 855.886ZM948.297 737.939C941.179 738.429 932.648 738.551 907.905 738.429C890.675 738.347 877.682 738.388 879.094 738.47C896.776 739.613 902.821 740.103 911.012 741.083C921.576 742.389 932.366 743.981 932.027 744.226C931.914 744.308 928.016 743.818 923.384 743.165C918.751 742.512 913.554 741.858 911.859 741.736C910.165 741.573 913.328 742.144 918.921 742.92C944.06 746.472 953.55 748.962 966.713 755.453C984.96 764.476 1000.66 769.824 1023.94 775.009C1027.95 775.907 1031.34 776.52 1031.45 776.438C1031.62 776.356 1029.31 775.703 1026.37 775.009C1011.06 771.457 993.49 765.415 973.548 756.842C962.476 752.065 956.996 750.064 950.387 748.391C947.506 747.697 945.246 747.002 945.415 746.921C945.754 746.676 954.906 748.84 963.154 751.126C967.391 752.31 970.667 753.535 972.927 754.8C989.931 764.272 1013.26 771.743 1048.34 779.01C1087.38 787.094 1115.06 790.972 1165.56 795.341C1250.08 802.73 1309.05 805.466 1392.15 805.874L1438.93 806.119V804.935C1438.93 802.485 1435.93 800.852 1429.61 799.831C1426.95 799.382 1421.08 799.301 1402.77 799.382C1360.41 799.627 1284.54 797.994 1252.79 796.198C1217.76 794.197 1154.21 788.972 1125.96 785.746C1091.11 781.786 1075.57 779.255 1040.49 771.866C1021.91 767.946 1009.31 764.313 999.196 759.904C993.49 757.372 989.931 755.127 984.056 750.269C979.819 746.758 979.65 746.553 979.65 744.553C979.65 741.736 977.842 739.899 973.887 738.592C969.933 737.327 960.725 737.123 948.297 737.939ZM942.139 746.023C942.76 746.023 942.93 746.145 942.478 746.268C942.082 746.39 941.574 746.349 941.405 746.227C941.179 746.104 941.518 745.982 942.139 746.023ZM907.057 741.164C907.961 741.164 908.3 741.246 907.735 741.368C907.227 741.45 906.436 741.45 906.041 741.368C905.702 741.246 906.097 741.164 907.057 741.164ZM913.667 1065.94C914.119 1065.81 913.95 1065.69 913.328 1065.69C912.707 1065.65 912.368 1065.77 912.594 1065.9C912.763 1066.02 913.272 1066.06 913.667 1065.94ZM934.795 1102.39C951.46 1097.7 971.741 1093.17 990.722 1089.98C1000.5 1088.35 1016.43 1086.06 1017.89 1086.1C1018.46 1086.1 1009.99 1087.82 999.139 1089.9C968.408 1095.82 957.109 1098.47 944.003 1102.84L938.919 1104.56L940.162 1105.5C945.585 1109.7 961.233 1115.05 974 1117.13C983.378 1118.64 981.288 1118.72 969.651 1117.3C955.302 1115.54 943.269 1112.93 935.247 1109.78C930.954 1108.11 926.039 1105.66 925.982 1105.17C925.982 1105.01 929.937 1103.78 934.795 1102.39ZM962.25 877.32C962.702 877.197 962.533 877.075 961.911 877.075C961.29 877.034 960.951 877.156 961.177 877.279C961.346 877.401 961.855 877.442 962.25 877.32ZM1003.8 737.708C1011.51 737.371 1014.96 737.22 1017.82 738.083C1020.13 738.781 1022.06 740.141 1025.55 742.598L1025.57 742.612C1025.97 742.891 1026.38 743.184 1026.82 743.491C1035.92 749.82 1039.53 751.698 1051 755.984C1071.79 763.782 1087.94 767.661 1121.73 773.09C1170.76 780.929 1203.41 783.46 1295.44 786.604C1303.82 786.892 1312.7 787.201 1320.22 787.463L1320.23 787.463C1327.61 787.72 1333.68 787.932 1336.68 788.033C1342.72 788.237 1353.17 788.604 1359.84 788.849C1361.15 788.897 1362.6 788.95 1364.15 789.006L1364.16 789.006L1364.17 789.007C1370.5 789.236 1378.3 789.518 1383.28 789.747C1389.5 789.992 1402.32 790.237 1411.81 790.278C1429.66 790.36 1432.83 790.605 1436.44 792.156C1438.14 792.891 1439.32 794.402 1438.48 794.687C1437.8 794.932 1319.45 791.625 1294.03 790.686C1232.96 788.359 1186.58 785.338 1147.43 781.133C1143.25 780.684 1134.72 779.827 1128.51 779.255C1116.47 778.153 1114.89 777.949 1118.05 777.826C1119.64 777.745 1119.24 777.622 1116.08 777.132C1083.93 772.356 1051.68 766.15 1037.84 762.027C1031.9 760.271 1031.06 760.067 1032.47 760.72C1034.22 761.537 1044.95 764.884 1049.87 766.191C1052.24 766.803 1054.16 767.416 1054.05 767.497C1053.15 768.11 1029.14 760.434 1029.76 759.74C1029.93 759.495 1029.81 759.454 1029.53 759.577C1028.4 760.067 1011.17 752.31 1003.26 747.778C999.083 745.369 989.253 738.796 989.253 738.429C989.253 738.388 994.676 738.102 1001.29 737.817C1002.17 737.779 1003.01 737.742 1003.8 737.708ZM1122.12 778.112C1122.52 777.99 1122.24 777.908 1121.44 777.908C1120.65 777.908 1120.37 777.99 1120.71 778.112C1121.11 778.194 1121.78 778.194 1122.12 778.112ZM1003.49 1120.24C1004.22 1120.15 1003.77 1120.07 1002.53 1120.07C1001.29 1120.03 1000.72 1120.11 1001.23 1120.24C1001.79 1120.32 1002.81 1120.32 1003.49 1120.24ZM1008.18 1120.48C1009.7 1120.48 1010.32 1120.56 1009.42 1120.64C1008.57 1120.72 1007.33 1120.72 1006.6 1120.64C1005.92 1120.56 1006.6 1120.48 1008.18 1120.48ZM1016.48 1121.05C1017.22 1120.97 1016.76 1120.89 1015.52 1120.89C1014.28 1120.85 1013.71 1120.93 1014.22 1121.05C1014.79 1121.13 1015.8 1121.13 1016.48 1121.05ZM1053.65 934.925C1057.78 931.986 1064.95 929.454 1085.29 923.657C1108.39 917.125 1136.98 912.757 1176.24 909.695C1186.07 908.96 1234.6 906.184 1254.48 905.204C1289.73 903.53 1335.21 903.53 1405.6 905.204C1414.44 905.394 1424.79 905.69 1429.64 905.829L1429.65 905.829L1430.62 905.857L1438.36 906.102V908.347C1438.36 910.511 1438.31 910.593 1437.12 910.348C1433.62 909.654 1422.04 908.429 1415.54 908.062C1405.37 907.49 1388.31 907.572 1369.73 908.266C1361.03 908.592 1341.71 909.245 1326.79 909.695C1257.59 911.818 1228.89 913.042 1205.9 914.839C1160.03 918.391 1121.39 925.045 1090.66 934.68C1085.68 936.232 1081.17 937.62 1080.6 937.742C1080.09 937.865 1079.64 938.069 1079.64 938.232C1079.64 938.64 1095.97 946.193 1103.42 949.214C1131.44 960.564 1160.71 967.749 1194.88 971.709C1220.64 974.69 1254.37 975.057 1288.38 972.73C1312.95 971.056 1367.3 965.136 1386.96 961.952C1396.45 960.441 1404.13 959.421 1409.55 958.972L1412.1 958.727L1408.99 959.502C1405.66 960.319 1406.28 960.319 1413.22 959.543C1416.11 959.176 1433.51 957.665 1437.8 957.339C1441.41 957.094 1438.31 960.646 1433.56 962.156C1429.78 963.381 1424.01 964.197 1413.79 965.014C1396.11 966.361 1391.53 966.851 1386.33 968.035C1362.95 973.22 1329.22 976.282 1272 978.364C1253.18 979.017 1199.23 979.058 1188.39 978.364C1163.14 976.813 1144.72 974.526 1126.7 970.77C1117.6 968.852 1099.02 963.993 1090.94 961.38C1075.91 956.522 1063.54 950.031 1057.04 943.621L1056.91 943.492L1056.91 943.489L1056.91 943.488C1055.5 942.107 1053.56 940.199 1052.47 939.171L1050.43 937.252L1053.65 934.925ZM1064.22 948.52C1068.74 951.582 1073.93 954.154 1081.05 956.808C1086.65 958.931 1086.59 958.849 1078.34 954.93C1072.97 952.399 1068.4 949.827 1060.89 945.213C1058.34 943.621 1058.06 943.539 1059.13 944.642C1059.81 945.336 1062.13 947.091 1064.22 948.52ZM1060.43 768.844C1059.98 768.64 1059.19 768.477 1058.74 768.477C1058.17 768.477 1058.29 768.599 1059.02 768.844C1060.55 769.334 1061.45 769.334 1060.43 768.844ZM1061.96 737.531C1063.31 737.857 1065.07 737.98 1066.65 737.776C1072.58 737.122 1077.38 738.837 1086.08 744.716C1094.05 750.105 1097.55 751.983 1104.04 754.269C1111.28 756.842 1117.77 758.597 1129.07 761.087C1164.66 768.885 1182.29 770.886 1236.12 773.417C1259.4 774.478 1297.25 774.642 1329.62 773.825C1332.78 773.756 1336.54 773.67 1340.58 773.579L1340.58 773.579L1340.59 773.578L1340.59 773.578C1350.82 773.346 1362.79 773.073 1371.14 772.927C1392.32 772.478 1395.26 772.355 1404.75 771.131C1418.31 769.375 1429.72 766.027 1435.26 762.108C1437.01 760.883 1438.53 759.863 1438.65 759.863C1438.76 759.863 1438.87 763.619 1438.93 768.232C1438.93 774.723 1438.82 776.642 1438.25 776.805C1437.86 776.887 1431.92 777.336 1425.09 777.826C1375.6 781.092 1331.31 781.337 1249.12 778.847C1182.34 776.805 1171.21 775.989 1133.87 770.641C1115.63 768.028 1100.54 763.986 1088.17 758.434C1076.42 753.126 1068.29 747.207 1061.05 738.551L1059.81 737L1061.96 737.531ZM1067.95 744.349C1070.43 747.411 1078.45 753.167 1083.82 755.78C1088.17 757.862 1101.56 762.761 1104.5 763.292C1105.29 763.455 1103.2 762.598 1099.92 761.373C1085.46 756.025 1073.99 749.044 1066.82 741.246C1065.69 740.021 1064.67 739.041 1064.56 739.041C1064.16 739.041 1066.14 742.103 1067.95 744.349ZM1418.7 769.538C1419.16 769.416 1418.99 769.293 1418.37 769.293C1417.74 769.253 1417.41 769.375 1417.63 769.498C1417.8 769.62 1418.31 769.661 1418.7 769.538ZM1423.17 768.477C1427.07 767.538 1433.73 765.129 1435.54 763.986C1436.33 763.537 1434.97 763.945 1432.49 764.966C1430.06 765.946 1426.16 767.252 1423.85 767.865C1419.1 769.13 1418.54 769.661 1423.17 768.477ZM1063.09 1005.92C1063.65 1005.8 1063.2 1005.72 1062.13 1005.72C1061.05 1005.72 1060.6 1005.8 1061.11 1005.92C1061.68 1006 1062.58 1006 1063.09 1005.92ZM1097.72 775.458C1098.51 775.458 1098.79 775.54 1098.4 775.662C1098.06 775.744 1097.38 775.744 1096.98 775.662C1096.64 775.54 1096.93 775.458 1097.72 775.458ZM1101.79 776.071C1102.18 775.948 1101.9 775.867 1101.11 775.867C1100.32 775.867 1100.03 775.948 1100.37 776.071C1100.77 776.152 1101.45 776.152 1101.79 776.071ZM1103.65 776.275C1104.27 776.234 1107.32 776.601 1110.43 777.01C1113.65 777.459 1114.78 777.704 1112.97 777.581C1109.3 777.336 1102.01 776.316 1103.65 776.275ZM1104.61 867.113C1105.06 866.991 1104.89 866.868 1104.27 866.868C1103.65 866.827 1103.31 866.95 1103.54 867.072C1103.71 867.195 1104.21 867.235 1104.61 867.113ZM1108 737.939C1109.35 738.021 1115.23 737.939 1121.11 737.735C1133.93 737.245 1135.79 737.408 1151.44 740.429C1192.57 748.39 1224.49 752.391 1267.76 755.045C1279.11 755.739 1325.44 755.739 1333.29 755.045C1350.46 753.535 1362.1 752.024 1380.18 748.962C1389.22 747.451 1392.89 746.594 1400.51 744.267C1416.11 739.449 1422.09 738.225 1430 738.225C1436.73 738.225 1439.66 739.49 1438.65 742.022C1437.46 744.839 1431.3 748.962 1424.52 751.412C1415.99 754.474 1398.65 758.23 1385.26 759.822C1365.09 762.271 1344.98 762.965 1312.39 762.353C1299.17 762.108 1287.08 761.781 1285.55 761.7C1283.97 761.577 1271.77 761.414 1258.44 761.291C1211.66 760.883 1186.86 759.658 1164.94 756.556C1148 754.147 1131.9 750.146 1120.2 745.328C1114.89 743.165 1105.63 738.47 1105.63 737.98C1105.63 737.857 1106.7 737.816 1108 737.939ZM1119.18 742.593C1122.12 744.022 1124.27 744.879 1124.27 744.594C1124.27 744.512 1122.91 743.818 1121.27 743.124C1119.69 742.389 1117.43 741.246 1116.3 740.633C1115.17 739.98 1114.04 739.449 1113.82 739.449C1113.31 739.449 1116.08 741.083 1119.18 742.593ZM1106.87 866.705C1107.32 866.582 1107.15 866.46 1106.53 866.46C1105.91 866.419 1105.57 866.541 1105.8 866.664C1105.97 866.786 1106.47 866.827 1106.87 866.705ZM1122.86 1123.71C1153.31 1118.81 1185.39 1114.97 1211.83 1113.05C1270.98 1108.68 1323.8 1106.84 1387.52 1106.93C1425.03 1106.97 1434.52 1107.21 1437.12 1108.31C1438.08 1108.76 1438.93 1109.33 1438.93 1109.58C1438.93 1110.4 1435.09 1110.56 1412.32 1110.56C1373.96 1110.56 1328.83 1111.54 1298.55 1113.01C1253.35 1115.25 1234.54 1116.81 1214.94 1119.99C1200.93 1122.28 1195.45 1122.97 1184.26 1123.83C1174.21 1124.6 1143.93 1125.34 1127.38 1125.18L1114.38 1125.05L1122.86 1123.71ZM1161.84 927.291C1142.52 930.761 1136.41 932.312 1126.64 936.313C1124.44 937.252 1122.57 938.11 1122.57 938.232C1122.57 938.64 1133.76 943.213 1141.22 945.908C1176.52 958.686 1223.19 964.524 1283.86 963.871C1308.32 963.585 1315.61 962.973 1352.5 957.87C1393 952.276 1403.73 951.297 1423.68 951.337C1430.68 951.337 1436.9 951.419 1437.52 951.46C1438.53 951.541 1438.65 951.297 1438.59 948.684C1438.59 945.377 1437.52 943.703 1434.75 942.519C1433.17 941.825 1431.13 941.784 1405.03 941.784C1374.81 941.784 1373.79 941.866 1360.69 944.234C1352.55 945.703 1346.9 947.051 1328.83 951.705C1307.81 957.135 1296.74 958.768 1276.63 959.421C1250.3 960.278 1225.22 957.42 1200.36 950.684C1186.41 946.928 1166.3 939.702 1167.88 939.049C1168.39 938.845 1171.95 937.701 1175.79 936.477C1192.85 931.088 1213.58 927.046 1234.99 924.841C1251.55 923.167 1256.23 922.963 1279.06 922.963C1298.77 922.963 1302.67 923.086 1312.39 923.902C1320.24 924.596 1325.15 925.249 1329.62 926.229C1333.01 926.964 1337.64 927.781 1339.79 928.066C1344.98 928.72 1354.36 928.434 1357.02 927.577C1358.37 927.087 1362.72 926.719 1371.14 926.27C1393.57 925.045 1403.51 924.76 1420.96 924.76H1438.36V922.392V920.024L1422.38 919.779C1413.62 919.615 1397.92 919.248 1387.52 918.881C1336.34 917.248 1317.25 917.084 1280.92 918.064C1215.84 919.82 1194.77 921.453 1161.84 927.291ZM1344.02 926.556C1345.72 926.556 1346.45 926.638 1345.55 926.719C1344.7 926.801 1343.34 926.801 1342.44 926.719C1341.59 926.638 1342.33 926.556 1344.02 926.556ZM1350.52 926.964C1352.38 926.964 1353.06 927.046 1352.04 927.127C1351.03 927.209 1349.5 927.209 1348.65 927.127C1347.81 927.046 1348.65 926.964 1350.52 926.964ZM1146.58 1011.88C1148.45 1011.88 1149.13 1011.96 1148.11 1012.05C1147.09 1012.13 1145.57 1012.13 1144.72 1012.05C1143.87 1011.96 1144.72 1011.88 1146.58 1011.88ZM1364.64 739.082C1368.54 738.306 1367.64 738.306 1286.46 738.388L1204.32 738.429L1210.76 739.531C1224.88 741.94 1242.79 743.981 1260.98 745.206C1272.16 745.982 1304.08 745.859 1315.78 745.002C1332.95 743.777 1352.78 741.368 1364.64 739.082ZM1211.89 939.579C1215.62 937.946 1220.42 936.599 1226.35 935.578C1234.32 934.231 1234.6 934.354 1227.65 936.191C1222.11 937.62 1214.6 939.824 1214.15 940.11C1213.81 940.396 1225.73 944.356 1230.08 945.418C1235.73 946.765 1243.58 947.949 1250.58 948.48C1253.64 948.724 1256.23 948.969 1256.35 949.092C1257.08 949.623 1244.48 948.724 1238.1 947.826C1231.89 946.928 1221.66 944.438 1215.22 942.274L1209.91 940.478L1211.89 939.579ZM1305.89 1118.72C1296.17 1119.7 1285.44 1121.75 1277.47 1124.11C1275.89 1124.6 1274.54 1125.09 1274.54 1125.18C1274.54 1125.46 1317.58 1124.89 1333.29 1124.4C1347.75 1123.99 1350.24 1123.87 1382.44 1121.75C1394.41 1120.97 1408.99 1120.15 1414.92 1119.95C1427.01 1119.5 1431.92 1119.01 1435.37 1117.91C1437.57 1117.21 1439.61 1115.38 1438.82 1114.85C1438.7 1114.72 1420.29 1114.6 1397.92 1114.56C1351.48 1114.44 1339.9 1114.85 1317.19 1117.5C1316.24 1117.6 1315.2 1117.72 1314.14 1117.84L1314.14 1117.84L1314.13 1117.84L1314.11 1117.84C1311.02 1118.18 1307.74 1118.54 1305.89 1118.72ZM1377.07 933.905C1384.02 932.721 1388.76 932.231 1397.69 931.741C1405.99 931.292 1430.4 931.251 1435.82 931.7L1439.21 931.945L1437.57 932.843C1435.71 933.905 1433.45 934.435 1427.91 935.048C1423.45 935.578 1390.35 935.578 1379.05 935.089L1371.99 934.762L1377.07 933.905Z" fill="#7D07F2"/>
</g>
<g style="mix-blend-mode:multiply">
<circle cx="720.5" cy="492.5" r="277.5" fill="url(#paint0_linear_734_28)"/>
</g>
<path fill-rule="evenodd" clip-rule="evenodd" d="M997.5 492C997.5 645.259 873.259 769.5 720 769.5C566.741 769.5 442.5 645.259 442.5 492C442.5 338.741 566.741 214.5 720 214.5C873.259 214.5 997.5 338.741 997.5 492ZM720 766C871.326 766 994 643.326 994 492C994 340.674 871.326 218 720 218C568.674 218 446 340.674 446 492C446 643.326 568.674 766 720 766Z" fill="#FECFFE" fill-opacity="0.5"/>
<path fill-rule="evenodd" clip-rule="evenodd" d="M925 712H515V764H455V818H994V764H925V712Z" fill="#FECFFE"/>
<g style="mix-blend-mode:multiply">
<rect x="515" y="712" width="410" height="52" fill="url(#paint1_linear_734_28)" fill-opacity="0.4"/>
</g>
<g style="mix-blend-mode:multiply">
<rect x="455" y="764" width="539" height="54" fill="url(#paint2_linear_734_28)" fill-opacity="0.4"/>
</g>
</g>
<defs>
<linearGradient id="paint0_linear_734_28" x1="720.5" y1="1179.16" x2="720.5" y2="215" gradientUnits="userSpaceOnUse">
<stop stop-color="#AA86F8"/>
<stop offset="1" stop-color="#D38DF1" stop-opacity="0"/>
</linearGradient>
<linearGradient id="paint1_linear_734_28" x1="515" y1="738" x2="925" y2="738" gradientUnits="userSpaceOnUse">
<stop stop-color="#AA86F8" stop-opacity="0"/>
<stop offset="0.592683" stop-color="#AA86F8"/>
</linearGradient>
<linearGradient id="paint2_linear_734_28" x1="455" y1="791" x2="994" y2="791" gradientUnits="userSpaceOnUse">
<stop stop-color="#AA86F8" stop-opacity="0"/>
<stop offset="1" stop-color="#AA86F8"/>
</linearGradient>
<clipPath id="clip0_734_28">
<rect width="1440" height="1024" fill="white"/>
</clipPath>
</defs>
</svg>
