<svg width="1440" height="1024" viewBox="0 0 1440 1024" fill="none" xmlns="http://www.w3.org/2000/svg">
<rect y="738" width="1440" height="286" fill="#7D07F2"/>
<path fill-rule="evenodd" clip-rule="evenodd" d="M489.77 738.939C495.2 739.31 501.447 739.471 515 739.473V743.705C509.691 744.459 505.938 745.081 506.141 745.226C506.255 745.308 510.177 744.818 514.838 744.165L515 744.142V744.54C492.89 747.78 483.7 750.346 471.239 756.453C452.878 765.476 437.075 770.824 413.656 776.009C409.62 776.907 406.209 777.52 406.095 777.438C405.925 777.356 408.255 776.703 411.211 776.009C426.616 772.457 444.295 766.415 464.361 757.842C475.502 753.065 481.016 751.064 487.667 749.391C490.566 748.697 492.84 748.002 492.669 747.921C492.328 747.676 483.119 749.84 474.82 752.126C470.557 753.31 467.26 754.535 464.986 755.8C447.876 765.272 424.399 772.743 389.099 780.01C349.819 788.094 321.966 791.972 271.147 796.341C186.108 803.73 126.763 806.466 43.1449 806.874L0 807.098V802.133C1.41979 801.619 3.23403 801.188 5.45723 800.831C8.12891 800.382 14.0407 800.301 32.4582 800.382C75.0914 800.627 151.433 798.994 183.38 797.198C218.623 795.197 282.573 789.972 310.995 786.746C346.068 782.786 361.7 780.255 397 772.866C415.702 768.946 428.378 765.313 438.553 760.904C444.295 758.372 447.876 756.127 453.788 751.269C458.051 747.758 458.221 747.553 458.221 745.553C458.221 742.736 460.04 740.899 464.02 739.592C467.999 738.327 477.264 738.123 489.77 738.939ZM487.806 764C497.11 762.259 505.999 760.771 515 759.432V762.515C511.331 763.016 507.867 763.507 504.558 764H487.806ZM455 770.78C440.342 774.052 423.869 777.995 404.276 782.868C341.975 798.423 277.173 806.506 185.369 810.262C142.509 812.018 62.0741 813.937 37.0058 813.814C18.1903 813.733 14.3818 813.814 9.89108 814.427C5.53807 815.031 2.29413 815.701 0 816.515V822.618L1.08023 822.673C13.4154 823.245 77.4789 823.449 98.6817 822.959C173.432 821.285 240.394 816.427 312.359 807.364C359.824 801.403 371.193 798.953 422.41 783.603C435.262 779.75 445.702 776.718 455 774.23V770.78ZM455 799.003C440.284 802.325 416.975 808.075 394.556 813.937C320.033 833.411 299.683 837.044 254.151 839.045C245.51 839.453 221.977 839.821 192.19 840.065C165.758 840.27 137.62 840.555 129.662 840.678C67.588 841.658 47.6925 841.739 33.1404 841.045C14.8007 840.134 5.08269 840.666 0 843.054V850.31L99.1365 850.231C200.547 850.15 210.949 850.231 243.634 851.497C295.192 853.538 341.861 858.233 381.766 865.419C398.706 868.48 405.868 870.114 433.892 877.258C476.753 888.2 489.827 890.404 545.761 896.201C588.508 900.651 616.76 902.693 662.292 904.775C682.479 905.674 717.302 906.909 720.494 906.87C723.694 906.909 758.614 905.674 778.857 904.775C824.515 902.693 852.845 900.651 895.711 896.201C951.8 890.404 964.911 888.2 1007.89 877.258C1035.99 870.114 1043.17 868.48 1060.16 865.419C1100.18 858.233 1146.97 853.538 1198.68 851.497C1231.45 850.231 1241.88 850.15 1343.57 850.231L1440 850.307V842.005C1434.37 840.528 1425.05 840.288 1409.75 841.045C1395.16 841.739 1375.21 841.658 1312.96 840.678C1304.98 840.555 1276.77 840.27 1250.26 840.065C1220.39 839.821 1196.79 839.453 1188.13 839.045C1142.47 837.044 1122.07 833.411 1047.34 813.937C1028.26 808.964 1008.55 804.072 994 800.674V807.077C1010.62 811.257 1026.34 815.71 1030.18 817.366C1041.98 822.469 1064.21 828.471 1093.51 834.554C1101.49 836.187 1111.12 838.187 1114.88 839.004C1122.07 840.515 1134.49 842.76 1142.24 843.985C1144.75 844.393 1146.4 844.76 1145.95 844.842C1145.89 844.847 1145.77 844.859 1145.58 844.877L1145.02 844.931L1145.02 844.932L1145.02 844.932L1145.01 844.932C1143.36 845.093 1139.82 845.437 1135.97 845.781C1098.52 849.251 1065.46 854.191 1037.36 860.56C1032.34 861.662 1015.13 865.868 999.169 869.869C983.152 873.829 969.357 877.217 968.445 877.381C967.59 877.544 966.963 877.748 967.134 877.87C967.248 877.993 976.197 876.115 986.971 873.706C1023.79 865.541 1046.71 860.683 1047.05 860.968C1047.22 861.05 1043.8 861.907 1039.47 862.887C1035.19 863.826 1024.19 866.317 1015.13 868.44C979.047 876.768 962.004 880.238 935.042 884.77C885.051 893.099 847.544 897.467 794.247 901.141C781.878 901.999 773.442 902.285 754.346 902.529C730.462 902.856 727.27 903.06 722.881 904.448C721.866 904.757 720.984 905.279 720.494 905.778C720.005 905.279 719.125 904.757 718.113 904.448C713.736 903.06 710.553 902.856 686.735 902.529C667.692 902.285 659.279 901.999 646.944 901.141C593.795 897.467 556.391 893.099 506.539 884.77C479.652 880.238 462.655 876.768 426.673 868.44C417.635 866.317 406.664 863.826 402.4 862.887C398.08 861.907 394.67 861.05 394.84 860.968C395.181 860.683 418.033 865.541 454.754 873.706C465.497 876.115 474.422 877.993 474.536 877.87C474.706 877.748 474.081 877.544 473.228 877.381C472.319 877.217 458.562 873.829 442.589 869.869C426.673 865.868 409.506 861.662 404.504 860.56C376.479 854.191 343.51 849.251 306.163 845.781C302.328 845.437 298.793 845.093 297.148 844.932L297.146 844.932L297.145 844.932L297.143 844.932L297.139 844.931L296.582 844.877L296.332 844.853L296.215 844.842C295.761 844.76 297.409 844.393 299.91 843.985C307.641 842.76 320.033 840.515 327.195 839.004C330.947 838.187 340.554 836.187 348.512 834.554C377.73 828.471 399.899 822.469 411.666 817.366C416.049 815.469 435.984 809.903 455 805.279V799.003ZM478.919 818C476.634 818.675 474.359 819.362 472.091 820.061C452.708 826.021 423.092 837.003 409.449 843.209L405.925 844.842L416.555 848.557C473.115 868.235 540.361 880.034 646.091 888.853C688.2 892.363 715.03 894.334 720.494 894.326C725.973 894.334 752.877 892.363 795.102 888.853C901.126 880.034 968.559 868.235 1025.28 848.557L1035.94 844.842L1032.4 843.209C1018.72 837.003 989.023 826.021 969.585 820.061C967.312 819.362 965.029 818.675 962.739 818H917.25C934.394 823.503 951.846 830.494 969.984 839.126L980.758 844.23L978.078 846.189C971.409 851.007 942.623 860.723 917.029 866.725C899.986 870.767 882.144 873.747 852.275 877.666C836.999 879.626 818.53 881.912 811.234 882.688C784.842 885.546 749.558 888.199 734.965 888.404C730.12 888.485 724.648 888.771 722.881 889.098C721.736 889.287 720.99 889.427 720.494 889.595C719.999 889.427 719.255 889.287 718.113 889.098C716.351 888.771 710.894 888.485 706.062 888.404C691.51 888.199 656.323 885.546 630.005 882.688C622.729 881.912 604.311 879.626 589.077 877.666C559.29 873.747 541.498 870.767 524.502 866.725C498.979 860.723 470.272 851.007 463.622 846.189L460.95 844.23L471.693 839.126C489.781 830.494 507.185 823.503 524.282 818H478.919ZM561.679 818C553.074 820.291 544.849 822.799 536.951 825.531C525.923 829.369 517.965 832.635 507.107 837.861C496.307 843.046 495.852 843.291 496.648 843.658L496.684 843.679L496.731 843.705L496.972 843.841L496.978 843.844L496.983 843.847C497.848 844.332 500.153 845.624 502.617 847.087C534.108 865.418 582.426 875.829 656.892 880.279C672.882 881.213 716.164 883.15 720.494 883.116C724.836 883.15 768.237 881.213 784.272 880.279C858.944 875.829 907.396 865.418 938.975 847.087C941.445 845.625 943.756 844.332 944.623 843.847L944.624 843.847L944.629 843.844L944.655 843.829L944.807 843.744C944.881 843.703 944.932 843.674 944.96 843.658C945.758 843.291 945.302 843.046 934.472 837.861C923.585 832.635 915.604 829.369 904.546 825.531C896.625 822.799 888.378 820.291 879.749 818H866.963C872.142 819.134 876.982 820.281 880.89 821.326C887.388 823.082 905.344 829.328 907.681 830.635C908.479 831.084 905.116 830.022 900.214 828.267C891.891 825.327 875.304 820.265 874.848 820.55C874.734 820.632 877.926 821.694 881.916 822.918C885.906 824.102 893.545 826.593 898.96 828.471C904.318 830.308 908.878 831.737 909.049 831.614C909.847 831.043 923.357 839.208 927.119 842.597L928.772 844.066L922.102 847.332C909.391 853.456 895.369 858.723 881.289 862.683C847.772 872.073 798.066 878.36 750.071 879.258C729.607 879.626 724.306 880.116 721.399 881.912C721.033 882.139 720.72 882.366 720.494 882.561C720.269 882.366 719.956 882.139 719.591 881.912C716.692 880.116 711.406 879.626 690.998 879.258C643.136 878.36 593.568 872.073 560.143 862.683C546.103 858.723 532.119 853.456 519.443 847.332L512.792 844.066L514.44 842.597C518.192 839.208 531.664 831.043 532.46 831.614C532.63 831.737 537.178 830.308 542.521 828.471C547.922 826.593 555.539 824.102 559.518 822.918C563.497 821.694 566.68 820.632 566.566 820.55C566.112 820.265 549.57 825.327 541.271 828.267C536.382 830.022 533.028 831.084 533.824 830.635C536.155 829.328 554.061 823.082 560.541 821.326C564.438 820.281 569.265 819.134 574.43 818H561.679ZM608.227 818C586.1 822.858 565.921 828.99 547.694 836.391C541.896 838.759 531.494 843.331 530.527 843.944C530.016 844.27 536.439 848.149 541.214 850.476C554.857 857.049 573.672 861.826 602.606 865.99C632.449 870.236 661.098 873.135 703.902 876.196C705.151 876.286 706.312 876.369 707.39 876.447C715.682 877.043 719.1 877.289 720.494 877.092C721.891 877.289 725.318 877.043 733.634 876.447C734.715 876.369 735.879 876.286 737.131 876.196C780.054 873.135 808.783 870.236 838.709 865.99C867.723 861.826 886.59 857.049 900.271 850.476C905.059 848.149 911.5 844.27 910.987 843.944C910.018 843.331 899.587 838.759 893.773 836.391C875.495 828.99 855.26 822.858 833.071 818H813.053C814.878 818.37 816.792 818.787 819.043 819.285C840.932 824.184 862.536 830.471 880.32 837.085C892.177 841.494 897.592 843.781 897.022 844.189C895.369 845.373 866.925 854.028 852.332 857.825C812.716 868.072 775.323 873.175 734.794 873.829L720.494 874.059L706.233 873.829C665.816 873.175 628.527 868.072 589.02 857.825C574.468 854.028 546.103 845.373 544.454 844.189C543.886 843.781 549.286 841.494 561.109 837.085C578.845 830.471 600.389 824.184 622.217 819.285C624.462 818.787 626.37 818.37 628.19 818H608.227ZM994 776.216C1001.47 778.296 1009.76 780.719 1019.4 783.603C1070.76 798.953 1082.16 801.403 1129.76 807.364C1201.92 816.427 1269.07 821.285 1344.03 822.959C1364.37 823.428 1424.02 823.261 1440 822.746V815.659C1438.1 815.21 1435.8 814.805 1433.07 814.427C1428.56 813.814 1424.75 813.733 1405.88 813.814C1380.74 813.937 1300.08 812.018 1257.1 810.262C1165.04 806.506 1100.06 798.423 1037.59 782.868C1021.12 778.783 1006.84 775.351 994 772.42V776.216ZM994 766.484C1004.19 770.127 1014.98 773.094 1028.18 776.009C1032.23 776.907 1035.65 777.52 1035.76 777.438C1035.94 777.356 1033.6 776.703 1030.63 776.009C1019.6 773.472 1007.4 769.664 994 764.571V766.484ZM992.506 764H987.405C981.792 761.776 976.243 759.297 970.44 756.453C957.656 750.205 948.305 747.664 925 744.315V743.928C925.577 744.006 926.152 744.086 926.72 744.165C931.394 744.818 935.327 745.308 935.441 745.226C935.664 745.067 931.131 744.337 925 743.487V739.473C939.678 739.482 946.209 739.324 951.858 738.939C964.398 738.123 973.689 738.327 977.679 739.592C981.67 740.899 983.494 742.736 983.494 745.553C983.494 747.553 983.665 747.758 987.94 751.269C993.868 756.127 997.459 758.372 1003.22 760.904C1013.42 765.313 1026.13 768.946 1044.88 772.866C1080.28 780.255 1095.96 782.786 1131.13 786.746C1159.63 789.972 1223.76 795.197 1259.1 797.198C1291.13 798.994 1367.69 800.627 1410.44 800.382C1428.91 800.301 1434.83 800.382 1437.51 800.831C1438.41 800.974 1439.24 801.13 1440 801.297V807.083L1399.72 806.874C1315.87 806.466 1256.36 803.73 1171.09 796.341C1120.13 791.972 1092.2 788.094 1052.81 780.01C1017.41 772.743 993.868 765.272 976.71 755.8C974.43 754.535 971.124 753.31 966.849 752.126C958.527 749.84 949.292 747.676 948.95 747.921C948.779 748.002 951.06 748.697 953.967 749.391C960.636 751.064 966.165 753.065 977.337 757.842C982.554 760.064 987.61 762.117 992.506 764ZM953.827 764H937.029C933.245 763.438 929.262 762.878 925 762.303V759.203C934.561 760.601 943.961 762.159 953.827 764ZM1440 791.945V795.602C1414.71 795.068 1322.83 792.496 1300.71 791.686C1239.09 789.359 1192.29 786.338 1152.79 782.133C1148.57 781.684 1139.96 780.827 1133.69 780.255C1121.55 779.153 1119.96 778.949 1123.15 778.826C1124.74 778.745 1124.35 778.622 1121.15 778.132C1088.72 773.356 1056.17 767.15 1042.21 763.027C1036.22 761.271 1035.37 761.067 1036.79 761.72C1038.56 762.537 1049.39 765.884 1054.35 767.191C1056.74 767.803 1058.68 768.416 1058.57 768.497C1057.65 769.11 1033.43 761.434 1034.05 760.74C1034.23 760.495 1034.11 760.454 1033.83 760.577C1032.69 761.067 1015.3 753.31 1007.32 748.778C1003.1 746.369 993.184 739.796 993.184 739.429C993.184 739.388 998.656 739.102 1005.33 738.817C1006.22 738.779 1007.06 738.742 1007.86 738.708C1015.64 738.371 1019.12 738.22 1022.01 739.083C1024.34 739.781 1026.29 741.14 1029.81 743.598L1029.81 743.598L1029.83 743.612C1030.23 743.891 1030.65 744.184 1031.09 744.491C1040.27 750.82 1043.92 752.698 1055.49 756.984C1076.46 764.782 1092.77 768.661 1126.85 774.09C1176.33 781.929 1209.28 784.46 1302.13 787.604C1310.59 787.892 1319.55 788.201 1327.14 788.463L1327.15 788.463C1334.6 788.72 1340.72 788.932 1343.75 789.033C1349.84 789.237 1360.39 789.604 1367.12 789.849C1368.43 789.897 1369.9 789.95 1371.46 790.006L1371.48 790.006L1371.49 790.007C1377.88 790.236 1385.74 790.518 1390.77 790.747C1397.04 790.992 1409.98 791.237 1419.56 791.278C1431.16 791.331 1436.61 791.451 1440 791.945ZM1440 739.27V748.865C1437.75 750.188 1435.12 751.433 1432.38 752.412C1423.78 755.474 1406.28 759.23 1392.77 760.822C1372.42 763.271 1352.12 763.965 1319.23 763.353C1305.9 763.108 1293.7 762.781 1292.16 762.7C1290.56 762.577 1278.25 762.414 1264.8 762.291C1217.6 761.883 1192.58 760.658 1170.46 757.556C1153.36 755.147 1137.11 751.146 1125.31 746.328C1119.96 744.165 1110.61 739.47 1110.61 738.98C1110.61 738.857 1111.69 738.816 1113 738.939C1114.37 739.021 1120.3 738.939 1126.23 738.735C1139.17 738.245 1141.05 738.408 1156.84 741.429C1198.33 749.39 1230.54 753.391 1274.2 756.045C1285.66 756.739 1332.4 756.739 1340.33 756.045C1357.65 754.535 1369.4 753.024 1387.64 749.962C1396.76 748.451 1400.46 747.594 1408.16 745.267C1423.89 740.449 1429.93 739.225 1437.91 739.225C1438.65 739.225 1439.35 739.24 1440 739.27ZM1064.38 738L1065.63 739.551C1072.93 748.207 1081.14 754.126 1092.99 759.434C1105.48 764.986 1120.7 769.028 1139.11 771.641C1176.79 776.989 1188.02 777.806 1255.39 779.847C1338.33 782.337 1383.02 782.092 1432.95 778.826C1435.51 778.645 1437.93 778.469 1440 778.316V766.578C1437.21 767.668 1433.54 768.875 1431.02 769.477C1426.34 770.661 1426.91 770.13 1431.7 768.865C1433.91 768.286 1437.54 767.088 1440 766.132V764.988C1433.79 768.084 1423.87 770.663 1412.43 772.131C1402.86 773.355 1399.89 773.478 1378.52 773.927C1370.1 774.073 1358.02 774.346 1347.69 774.578L1347.69 774.578L1347.68 774.579L1347.68 774.579C1343.61 774.67 1339.81 774.756 1336.62 774.825C1303.96 775.642 1265.77 775.478 1242.28 774.417C1187.96 771.886 1170.17 769.885 1134.26 762.087C1122.86 759.597 1116.31 757.842 1109.01 755.269C1102.46 752.983 1098.92 751.105 1090.89 745.716C1082.11 739.837 1077.26 738.122 1071.28 738.776C1069.68 738.98 1067.91 738.857 1066.55 738.531L1064.38 738ZM1440 861.295L1364.21 861.295C1235.84 861.336 1183.91 861.989 1154.84 863.949C1133.18 865.459 1113.17 867.746 1097.78 870.522C1095.96 870.889 1093.39 871.257 1092.08 871.338C1087.41 871.746 1069.74 875.87 1035.37 884.566C1008.46 891.384 998.314 893.833 987.142 896.161C978.648 897.916 964.854 900.325 960.978 900.733C959.382 900.896 958.47 901.1 958.812 901.182C959.211 901.305 961.377 901.182 963.6 900.896C969.585 900.243 969.015 900.692 962.859 901.468C940.172 904.489 896.338 908.245 850.679 911.103C781.137 915.471 757.139 916.533 736.105 916.329L721.126 916.14V916.125L720.494 916.132L719.86 916.125V916.14L704.925 916.329C683.95 916.533 660.018 915.471 590.668 911.103C545.136 908.245 501.423 904.489 478.799 901.468C472.66 900.692 472.091 900.243 478.06 900.896C480.277 901.182 482.437 901.305 482.835 901.182C483.176 901.1 482.266 900.896 480.675 900.733C476.809 900.325 463.053 897.916 454.583 896.161C443.442 893.833 433.324 891.384 406.493 884.566C372.216 875.87 354.594 871.746 349.933 871.338C348.626 871.257 346.068 870.889 344.249 870.522C328.901 867.746 308.948 865.459 287.348 863.949C258.357 861.989 206.572 861.336 78.5589 861.295L0 861.295V869.952C4.02157 869.902 11.245 869.757 19.3841 869.542C49.1136 868.766 151.717 868.644 177.127 869.379C226.297 870.767 273.932 873.339 318.385 877.013C340.042 878.809 345.272 879.667 364.258 884.403C391.202 891.098 397 892.445 409.051 894.568C469.192 905.142 536.496 912.124 615.964 916.002C640.862 917.186 704.755 919.268 717.431 919.268H719.86H721.126H723.565C736.276 919.268 800.347 917.186 825.313 916.002C905.002 912.124 972.492 905.142 1032.8 894.568C1044.88 892.445 1050.7 891.098 1077.72 884.403C1096.76 879.667 1102 878.809 1123.72 877.013C1168.29 873.339 1216.06 870.767 1265.37 869.379C1290.85 868.644 1393.74 868.766 1423.55 869.542C1429.97 869.712 1435.83 869.837 1440 869.907V861.295ZM1440 877.147L1391.91 876.932C1293.81 876.442 1262.29 876.687 1229.17 878.034C1191.66 879.626 1154.84 883.015 1125.6 887.628C1108.38 890.363 1102.06 891.833 1078.69 898.651C1071.96 900.611 1064.27 902.774 1061.59 903.428C1055.6 904.938 1047.73 906.612 1048.13 906.326C1048.3 906.204 1053.38 904.448 1059.42 902.448C1071.9 898.284 1086.55 894.038 1093.11 892.69C1100.23 891.221 1097.67 891.302 1088.83 892.854C1073.9 895.507 1063.7 898.324 1053.38 902.734C1042.09 907.551 1037.59 908.531 1000.02 914.369C962.289 920.207 945.53 922.085 915.091 923.8C910.474 924.045 871.2 924.371 816.478 924.576C739.254 924.857 724.428 924.987 720.494 925.803C716.57 924.987 701.785 924.857 624.775 924.576C570.204 924.371 531.039 924.045 526.434 923.8C496.08 922.085 479.367 920.207 441.737 914.369C404.276 908.531 399.786 907.551 388.53 902.734C378.242 898.324 368.066 895.507 353.173 892.854C344.362 891.302 341.804 891.221 348.91 892.69C355.447 894.038 370.056 898.284 382.505 902.448C388.53 904.448 393.59 906.204 393.76 906.326C394.158 906.612 386.313 904.938 380.345 903.428C377.673 902.774 369.999 900.611 363.292 898.651C339.985 891.833 333.676 890.363 316.509 887.628C287.348 883.015 250.626 879.626 213.223 878.034C180.196 876.687 148.762 876.442 50.9326 876.932L0 877.16V882.112C0.0743944 882.141 0.150242 882.169 0.227567 882.198C5.57092 884.158 9.03842 884.362 32.7425 884.239C49.3978 884.158 68.8385 884.484 111.187 885.587C142.168 886.362 181.276 887.22 198.159 887.424C260.574 888.24 280.47 889.139 307.357 892.323C325.831 894.528 338.792 897.181 365.565 904.244C407.346 915.267 416.611 916.982 464.758 922.738C507.335 927.842 519.215 928.25 628.754 928.495C674.57 928.577 713.907 928.658 716.18 928.699C718.389 928.727 719.647 928.66 720.494 928.433C721.343 928.66 722.604 928.727 724.819 928.699C727.099 928.658 766.544 928.577 812.488 928.495C922.331 928.25 934.244 927.842 976.938 922.738C1025.22 916.982 1034.51 915.267 1076.41 904.244C1103.25 897.181 1116.25 894.528 1134.78 892.323C1161.74 889.139 1181.69 888.24 1244.28 887.424C1261.21 887.22 1300.42 886.362 1331.49 885.587C1373.96 884.484 1393.45 884.158 1410.15 884.239C1429.76 884.34 1435.56 884.219 1440 883.073V877.147ZM1440 890.31C1435.48 890.263 1427.34 890.324 1412.43 890.445C1341.64 891.057 1321.57 891.588 1208.94 895.793C1149.03 898.039 1116.76 901.876 1085.76 910.49C1079.54 912.205 1072.7 914.042 1035.08 923.841C1006.75 931.23 998.884 932.822 968.673 937.272C962.574 938.171 956.304 939.15 954.708 939.518C952.428 940.008 948.437 940.13 935.327 940.089C915.661 940.089 772.53 939.028 741.35 938.661C727.198 938.495 722.228 938.441 720.494 938.651C718.764 938.441 713.808 938.495 699.696 938.661C668.602 939.028 525.866 940.089 506.255 940.089C493.181 940.13 489.201 940.008 486.928 939.518C485.336 939.15 479.083 938.171 473.001 937.272C442.873 932.822 435.029 931.23 406.777 923.841C369.26 914.042 362.439 912.205 356.243 910.49C325.32 901.876 293.146 898.039 233.403 895.793C121.078 891.588 101.069 891.057 30.4687 890.445C11.4951 890.291 3.52724 890.234 0 890.375V894.891C3.03507 895.144 10.1719 895.311 28.7449 895.746L28.7466 895.746L28.7474 895.746H28.7481H28.7488H28.7494H28.75H28.7505H28.7509H28.7513H28.7517H28.7521H28.7524H28.7526H28.7529H28.7531H28.7533H28.7535H28.7537H28.7538H28.754L30.7529 895.793C163.712 898.937 245.738 903.468 309.176 911.307C330.947 914.002 337.882 915.349 378.355 924.984C409.733 932.455 418.828 934.374 430.481 936.211C439.576 937.599 450.547 938.865 453.788 938.865C457.71 938.865 457.596 939.518 453.617 939.844C445.147 940.457 427.98 943.396 414.736 946.499C401.32 949.602 380.117 956.297 365.281 962.013C328.673 976.221 304.117 982.1 268.93 985.162C233.573 988.223 176.331 988.754 133.072 986.427C107.038 984.998 97.6585 983.855 50.8757 976.261C29.7595 972.834 8.91524 970.124 0 969.583V974.152C2.90722 975.02 7.70281 975.346 18.304 975.649L31.7761 975.976L45.0208 978.425C78.7294 984.59 120.453 988.836 166.326 990.755C181.106 991.367 230.106 991.367 247.329 990.755C284.619 989.448 293.316 988.713 313.098 985.202C333.278 981.61 343.794 978.466 365.054 969.607C380.913 962.952 382.505 962.381 393.703 959.359C411.041 954.664 425.081 951.97 446 949.275C452.253 948.459 458.278 947.642 459.358 947.438L461.348 947.071L459.358 947.234C459.21 947.245 459.038 947.259 458.847 947.274L458.432 947.307L458.421 947.308L458.42 947.308L458.416 947.309C457.219 947.405 455.547 947.539 454.242 947.601L451.116 947.806L453.674 947.397C455.095 947.193 462.144 946.254 469.306 945.356L482.38 943.723L584.984 943.111C666.101 942.621 689.691 942.58 697.706 942.988C708.109 943.478 714.702 943.274 717.772 942.335C718.848 942.026 719.824 941.454 720.494 940.813C721.165 941.454 722.144 942.026 723.223 942.335C726.301 943.274 732.913 943.478 743.345 942.988C751.382 942.58 775.038 942.621 856.379 943.111L959.268 943.723L972.378 945.356C979.56 946.254 986.629 947.193 988.054 947.397L990.619 947.806L987.484 947.601C986.175 947.539 984.499 947.405 983.299 947.309L983.295 947.308L983.294 947.308C982.928 947.279 982.607 947.253 982.354 947.234L980.359 947.071L982.354 947.438C983.437 947.642 989.479 948.459 995.749 949.275C1016.73 951.97 1030.81 954.664 1048.19 959.359C1059.42 962.381 1061.02 962.952 1076.92 969.607C1098.24 978.466 1108.78 981.61 1129.02 985.202C1148.86 988.713 1157.58 989.448 1194.97 990.755C1212.24 991.367 1261.38 991.367 1276.2 990.755C1322.2 988.836 1364.04 984.59 1397.84 978.425L1411.12 975.976L1424.63 975.649C1432.28 975.431 1436.92 975.201 1440 974.766V969.805C1429.92 970.666 1411.05 973.173 1391.97 976.261C1345.06 983.855 1335.65 984.998 1309.54 986.427C1266.17 988.754 1208.77 988.223 1173.31 985.162C1138.03 982.1 1113.4 976.221 1076.69 962.013C1061.81 956.297 1040.55 949.602 1027.1 946.499C1013.82 943.396 996.604 940.457 988.111 939.844C984.121 939.518 984.007 938.865 987.94 938.865C991.189 938.865 1002.19 937.599 1011.31 936.211C1023 934.374 1032.12 932.455 1063.58 924.984C1104.17 915.349 1111.12 914.002 1132.95 911.307C1196.57 903.468 1278.82 898.937 1412.15 895.793L1414.15 895.746H1414.15H1414.15H1414.16H1414.16H1414.16L1414.16 895.746L1414.16 895.746C1428.34 895.415 1435.87 895.239 1440 895.062V890.31ZM1440 906.903L1438.54 906.857L1437.55 906.829L1437.55 906.829L1437.55 906.829L1437.54 906.828C1432.64 906.69 1422.2 906.394 1413.29 906.204C1342.26 904.53 1296.38 904.53 1260.81 906.204C1240.74 907.184 1191.78 909.96 1181.86 910.695C1142.24 913.757 1113.4 918.125 1090.09 924.657C1069.57 930.454 1062.33 932.986 1058.17 935.925L1054.92 938.252L1056.97 940.171C1058.07 941.199 1060.03 943.107 1061.45 944.488L1061.45 944.489L1061.45 944.492L1061.59 944.621C1068.14 951.031 1080.62 957.522 1095.79 962.38C1103.94 964.993 1122.69 969.852 1131.87 971.77C1150.05 975.526 1168.64 977.813 1194.12 979.364C1205.06 980.058 1259.5 980.017 1278.48 979.364C1336.22 977.282 1370.25 974.22 1393.85 969.035C1399.09 967.851 1403.71 967.361 1421.55 966.014C1430.6 965.298 1436.19 964.582 1440 963.59V958.81C1433.11 959.391 1423.11 960.274 1420.98 960.543C1413.97 961.319 1413.34 961.319 1416.71 960.502L1419.84 959.727L1417.28 959.972C1411.81 960.421 1404.05 961.441 1394.48 962.952C1374.64 966.136 1319.8 972.056 1295.01 973.73C1260.69 976.057 1226.66 975.69 1200.67 972.709C1166.18 968.749 1136.66 961.564 1108.38 950.214C1100.86 947.193 1084.39 939.64 1084.39 939.232C1084.39 939.069 1084.84 938.865 1085.36 938.742C1085.93 938.62 1090.49 937.232 1095.5 935.68C1126.51 926.045 1165.5 919.391 1211.79 915.839C1234.99 914.042 1263.94 912.818 1333.77 910.695C1348.82 910.245 1368.31 909.592 1377.09 909.266C1395.85 908.572 1413.06 908.49 1423.32 909.062C1427.89 909.317 1434.94 909.99 1440 910.608V906.903ZM1440 920.927L1430.22 920.779C1421.38 920.615 1405.54 920.248 1395.05 919.881C1343.4 918.248 1324.14 918.084 1287.48 919.064C1221.82 920.82 1200.56 922.453 1167.32 928.291C1147.83 931.761 1141.67 933.312 1131.81 937.313C1129.59 938.252 1127.71 939.11 1127.71 939.232C1127.71 939.64 1138.99 944.213 1146.52 946.908C1182.15 959.686 1229.23 965.524 1290.45 964.871C1315.13 964.585 1322.48 963.973 1359.71 958.87C1400.58 953.276 1411.41 952.297 1431.53 952.337C1434.65 952.337 1437.61 952.353 1440 952.375V943.015C1436.93 942.802 1430.14 942.784 1412.72 942.784C1382.22 942.784 1381.2 942.866 1367.97 945.234C1359.76 946.703 1354.06 948.051 1335.82 952.705C1314.62 958.135 1303.45 959.768 1283.15 960.421C1256.59 961.278 1231.28 958.42 1206.2 951.684C1192.12 947.928 1171.83 940.702 1173.42 940.049C1173.94 939.845 1177.53 938.701 1181.4 937.477C1198.62 932.088 1219.54 928.046 1241.14 925.841C1257.84 924.167 1262.57 923.963 1285.6 923.963C1305.5 923.963 1309.43 924.086 1319.23 924.902C1327.16 925.596 1332.12 926.249 1336.62 927.229C1340.04 927.964 1344.71 928.781 1346.88 929.066C1352.12 929.72 1361.59 929.434 1364.27 928.577C1365.63 928.087 1370.02 927.719 1378.52 927.27C1401.15 926.045 1411.18 925.76 1428.79 925.76H1440V920.927ZM1440 932.526C1431.08 932.273 1412.39 932.361 1405.31 932.741C1396.3 933.231 1391.51 933.721 1384.5 934.905L1379.37 935.762L1386.5 936.089C1397.9 936.578 1431.3 936.578 1435.8 936.048C1437.47 935.865 1438.84 935.689 1440 935.505V932.526ZM1440 983.592C1423.15 988.781 1404.62 991.401 1359.99 995.164C1335.65 997.205 1325.16 997.858 1291.3 999.369C1272.78 1000.19 1211.22 1000.06 1194.69 999.165C1134.66 995.858 1093.11 988.795 1045.06 973.649C1023.51 966.871 1001.39 963.401 968.958 961.727C964.569 961.482 944.048 961.115 923.357 960.911C902.665 960.707 875.076 960.339 862.08 960.053C828.749 959.436 731.585 959.001 720.494 959.403C709.434 959.001 612.538 959.436 579.3 960.053C566.339 960.339 538.826 960.707 518.192 960.911C497.558 961.115 477.094 961.482 472.717 961.727C440.372 963.401 418.317 966.871 396.83 973.649C348.91 988.795 307.471 995.858 247.614 999.165C231.129 1000.06 169.737 1000.19 151.263 999.369C117.497 997.858 107.038 997.205 82.7654 995.164C35.9257 991.204 17.9061 988.509 0.341246 982.753L0 982.644V988.884C0.131512 988.951 0.264528 989.017 0.39809 989.081C16.5987 997.124 76.2851 1001.61 177.127 1002.39C230.049 1002.84 296.5 1001.29 314.974 999.247C325.945 998.022 340.497 994.919 374.945 986.345C400.695 979.977 414.565 976.996 427.241 975.2C432.244 974.506 437.985 973.649 440.031 973.322C444.692 972.628 462.087 970.954 473.569 970.137C498.638 968.341 516.941 967.851 579.015 967.443C609.995 967.198 649.616 966.79 667.124 966.504C684.632 966.218 701.628 966.096 704.925 966.218C710.723 966.504 717.147 966.218 718.682 965.606C719.426 965.295 720.024 964.988 720.494 964.659C720.965 964.988 721.564 965.295 722.311 965.606C723.85 966.218 730.291 966.504 736.105 966.218C739.411 966.096 756.455 966.218 774.012 966.504C791.568 966.79 831.299 967.198 862.365 967.443C924.611 967.851 942.965 968.341 968.103 970.137C979.617 970.954 997.06 972.628 1001.73 973.322C1003.79 973.649 1009.54 974.506 1014.56 975.2C1027.27 976.996 1041.18 979.977 1067 986.345C1101.54 994.919 1116.14 998.022 1127.14 999.247C1145.66 1001.29 1212.3 1002.84 1265.37 1002.39C1361.72 1001.65 1420.61 997.539 1440 990.194V983.592ZM1440 994.29C1412.61 999.88 1380.1 1003.78 1341.92 1006.06C1335.42 1006.47 1330.24 1006.92 1330.35 1007.04C1330.46 1007.21 1327.84 1007.45 1324.48 1007.58C1322.49 1007.67 1318.61 1007.84 1314.25 1008.03L1314.25 1008.03L1314.24 1008.03C1311.23 1008.16 1307.99 1008.3 1304.98 1008.43C1270.21 1009.98 1215.78 1010.31 1191.55 1009.09C1167.5 1007.9 1150 1006.64 1129.42 1004.55C1109.3 1002.55 1096.24 1000.92 1054.46 995.205C1009.77 989.122 975.057 986.468 914.521 984.508C900.742 984.067 727.886 983.586 720.494 983.957C713.122 983.586 540.744 984.067 527.003 984.508C466.634 986.468 432.016 989.122 387.45 995.205C345.784 1000.92 332.766 1002.55 312.7 1004.55C292.179 1006.64 274.728 1007.9 250.74 1009.09C226.581 1010.31 172.295 1009.98 137.62 1008.43C134.624 1008.3 131.39 1008.16 128.384 1008.03L128.379 1008.03L128.359 1008.03L128.307 1008.02L128.207 1008.02C123.929 1007.83 120.136 1007.67 118.179 1007.58C114.826 1007.45 112.211 1007.21 112.324 1007.04C112.438 1006.92 107.265 1006.47 100.785 1006.06C62.0172 1003.74 29.1044 999.736 1.47814 993.98C0.969005 993.874 0.469345 993.773 0 993.68V999.906C0.835123 1000.29 1.86417 1000.69 3.12662 1001.12C10.7437 1003.74 24.4432 1005.78 46.1008 1007.45C49.8437 1007.73 55.3087 1008.16 60.5617 1008.57L60.6095 1008.58L60.6176 1008.58L60.6411 1008.58L60.6761 1008.58L60.7247 1008.59L60.8176 1008.59C64.0111 1008.85 67.1144 1009.09 69.6912 1009.29C145.635 1015.37 210.381 1016.19 291.952 1012.15C314.917 1011 320.26 1011 303.037 1012.15C296.329 1012.6 295.59 1012.68 299.91 1012.56C309.119 1012.27 331.516 1010.6 330.72 1010.23C330.379 1010.07 331.345 1009.94 332.88 1009.98C335.949 1010.02 348.626 1008.84 399.956 1003.78C434.119 1000.43 456.516 998.43 459.643 998.512C460.552 998.552 455.607 999.083 448.558 999.696C421.159 1002.19 377.332 1006.43 378.185 1006.55C378.64 1006.64 396.545 1005.21 417.919 1003.41C466.407 999.328 483.744 997.94 501.423 996.756C509.893 996.185 514.44 995.735 513.076 995.613C509.552 995.286 571.057 992.388 616.533 990.755C654.618 989.367 669.625 989.04 691.567 989.162C710.553 989.285 712.883 989.203 715.498 988.55C717.09 988.142 718.909 987.407 719.534 986.917C719.915 986.624 720.237 986.317 720.494 986.016C720.751 986.317 721.074 986.624 721.456 986.917C722.083 987.407 723.907 988.142 725.503 988.55C728.125 989.203 730.462 989.285 749.501 989.162C771.504 989.04 786.552 989.367 824.743 990.755C870.345 992.388 932.021 995.286 928.487 995.613C927.119 995.735 931.679 996.185 940.172 996.756C957.9 997.94 975.285 999.328 1023.91 1003.41C1045.34 1005.21 1063.3 1006.64 1063.75 1006.55C1064.61 1006.43 1020.66 1002.19 993.184 999.696C986.116 999.083 981.157 998.552 982.068 998.512C985.204 998.43 1007.66 1000.43 1041.92 1003.78C1093.39 1008.84 1106.1 1010.02 1109.18 1009.98C1110.72 1009.94 1111.69 1010.07 1111.35 1010.23C1110.55 1010.6 1133.01 1012.27 1142.24 1012.56C1146.58 1012.68 1145.84 1012.6 1139.11 1012.15C1121.84 1011 1127.2 1011 1150.22 1012.15C1232.02 1016.19 1296.95 1015.37 1373.1 1009.29C1375.7 1009.09 1378.83 1008.84 1382.04 1008.59L1382.1 1008.59L1382.14 1008.58L1382.18 1008.58L1382.2 1008.58L1382.21 1008.58C1387.49 1008.16 1392.99 1007.73 1396.76 1007.45C1418.47 1005.78 1432.21 1003.74 1439.85 1001.12L1440 1001.07V996.761C1439.64 996.823 1439.25 996.778 1439.11 996.674C1438.88 996.552 1439.22 996.429 1439.85 996.47L1439.89 996.47C1439.93 996.471 1439.97 996.472 1440 996.473V994.29ZM0 1016.49V1024H57.9072L57.7539 1023.99C46.9535 1023.05 41.7807 1022.39 25.3527 1019.7C9.19995 1017.09 3.59117 1016.38 0 1016.49ZM357.61 1024C414.051 1022.74 463.893 1022.56 588.508 1022.56H719.632H721.353H852.845C977.806 1022.56 1027.79 1022.74 1084.38 1024H357.61ZM1384.92 1024H1440V1016.56C1436.16 1016.82 1429.95 1017.71 1417.56 1019.7C1401.09 1022.39 1395.9 1023.05 1385.07 1023.99L1384.92 1024ZM0 962.605C0.469361 962.807 0.964199 962.994 1.47813 963.156C5.2867 964.381 11.0848 965.197 21.3736 966.014C39.1658 967.361 43.7702 967.851 48.9999 969.035C72.5334 974.22 106.469 977.282 164.053 979.364C182.982 980.017 237.268 980.058 248.182 979.364C273.591 977.813 292.123 975.526 310.256 971.77C319.408 969.852 338.11 964.993 346.238 962.38C361.359 957.522 373.808 951.031 380.345 944.621L380.477 944.492L380.48 944.489L380.481 944.488C381.894 943.107 383.848 941.199 384.949 940.171L386.996 938.252L383.755 935.925C379.606 932.986 372.387 930.454 351.923 924.657C328.673 918.125 299.91 913.757 260.404 910.695C250.513 909.96 201.683 907.184 181.674 906.204C146.204 904.53 100.444 904.53 29.616 906.204C20.7267 906.394 10.3105 906.69 5.42785 906.829L5.42069 906.829L5.41828 906.829L4.43404 906.857L0 906.996V911.002C4.81888 910.304 14.06 909.374 19.6114 909.062C29.8434 908.49 47.0104 908.572 65.7121 909.266C74.4661 909.592 93.9068 910.245 108.914 910.695C178.548 912.818 207.425 914.042 230.56 915.839C276.718 919.391 315.599 926.045 346.522 935.68C351.525 937.232 356.072 938.62 356.641 938.742C357.152 938.865 357.607 939.069 357.607 939.232C357.607 939.64 341.179 947.193 333.676 950.214C305.481 961.564 276.036 968.749 241.645 972.709C215.724 975.69 181.788 976.057 147.568 973.73C122.841 972.056 68.1564 966.136 48.3746 962.952C38.8248 961.441 31.094 960.421 25.6369 959.972L23.0789 959.727L26.2054 960.502C29.5592 961.319 28.9339 961.319 21.942 960.543C19.4835 960.232 6.51821 959.098 0 958.561V962.605ZM0 952.407C2.58064 952.372 6.83441 952.337 11.4259 952.337C31.4919 952.297 42.2923 953.276 83.0496 958.87C120.169 963.973 127.502 964.585 152.115 964.871C213.166 965.524 260.119 959.686 295.647 946.908C303.15 944.213 314.406 939.64 314.406 939.232C314.406 939.11 312.53 938.252 310.313 937.313C300.479 933.312 294.34 931.761 274.899 928.291C241.759 922.453 220.556 920.82 155.071 919.064C118.52 918.084 99.307 918.248 47.8062 919.881C37.3468 920.248 21.5441 920.615 12.7333 920.779L0 920.973V925.76H14.1544C31.7192 925.76 41.7238 926.045 64.291 927.27C72.7608 927.719 77.1378 928.087 78.502 928.577C81.1737 929.434 90.6099 929.72 95.8395 929.066C97.9996 928.781 102.661 927.964 106.071 927.229C110.562 926.249 115.508 925.596 123.409 924.902C133.186 924.086 137.108 923.963 156.947 923.963C179.912 923.963 184.63 924.167 201.286 925.841C222.829 928.046 243.691 932.088 260.858 937.477C264.724 938.701 268.305 939.845 268.816 940.049C270.408 940.702 250.172 947.928 236.131 951.684C211.12 958.42 185.881 961.278 159.391 960.421C139.155 959.768 128.013 958.135 106.867 952.705C88.6772 948.051 82.9927 946.703 74.8072 945.234C61.6193 942.866 60.5961 942.784 30.1845 942.784C3.92243 942.784 1.87603 942.825 0.284396 943.519C0.187544 943.56 0.0927542 943.602 0 943.644V952.407ZM0 934.882C1.60166 935.332 3.77113 935.675 7.16256 936.048C11.6533 936.578 44.964 936.578 56.3328 936.089L63.4383 935.762L58.3224 934.905C51.3305 933.721 46.5556 933.231 37.5742 932.741C29.5729 932.311 6.71736 932.255 0 932.645V934.882ZM0 795.662C19.8408 795.302 118.832 792.533 141.883 791.686C203.332 789.359 250.001 786.338 289.394 782.133C293.601 781.684 302.184 780.827 308.437 780.255C320.545 779.153 322.136 778.949 318.953 778.826C317.361 778.745 317.759 778.622 320.943 778.132C353.287 773.356 385.745 767.15 399.672 763.027C405.641 761.271 406.493 761.067 405.072 761.72C403.31 762.537 392.509 765.884 387.564 767.191C385.177 767.803 383.244 768.416 383.358 768.497C384.267 769.11 408.426 761.434 407.801 760.74C407.63 760.495 407.744 760.454 408.028 760.577C409.165 761.067 426.502 753.31 434.461 748.778C438.667 746.369 448.558 739.796 448.558 739.429C448.558 739.388 443.101 739.102 436.45 738.817C435.56 738.779 434.719 738.742 433.924 738.708C426.16 738.371 422.691 738.22 419.811 739.083C417.485 739.781 415.544 741.141 412.034 743.598C411.63 743.881 411.205 744.179 410.757 744.491C401.605 750.82 397.967 752.698 386.427 756.984C365.508 764.782 349.251 768.661 315.258 774.09C265.917 781.929 233.061 784.46 140.462 787.604C132.031 787.892 123.093 788.201 115.524 788.463L115.523 788.463C108.091 788.72 101.98 788.932 98.966 789.033C92.8836 789.237 82.3674 789.604 75.6598 789.849C74.3408 789.897 72.87 789.95 71.3107 790.006L71.2983 790.007C64.9305 790.236 57.0894 790.518 52.0695 790.747C45.8166 790.992 32.913 791.237 23.3631 791.278C7.72235 791.349 3.28704 791.544 0 792.618V795.662ZM0 778.089C2.46617 778.281 6.08801 778.547 10.0048 778.826C59.8003 782.092 104.366 782.337 187.074 779.847C254.264 777.806 265.463 776.989 303.037 771.641C321.397 769.028 336.575 764.986 349.024 759.434C360.847 754.126 369.033 748.207 376.309 739.551L377.559 738L375.399 738.531C374.035 738.857 372.273 738.98 370.681 738.776C364.713 738.122 359.881 739.837 351.127 745.716C343.112 751.105 339.588 752.983 333.05 755.269C325.774 757.842 319.237 759.597 307.868 762.087C272.057 769.885 254.321 771.886 200.149 774.417C176.729 775.478 138.643 775.642 106.071 774.825C102.889 774.756 99.1015 774.67 95.0413 774.579H95.0412L95.0406 774.579L95.039 774.579L95.0336 774.578L95.0314 774.578C84.7356 774.346 72.6869 774.073 64.291 773.927C42.9744 773.478 40.0185 773.355 30.4687 772.131C17.0089 770.399 5.65176 767.117 0 763.265V764.994C0.573039 765.185 1.45503 765.516 2.55818 765.966C5.00248 766.946 8.92473 768.252 11.2553 768.865C16.0303 770.13 16.5987 770.661 11.9375 769.477C8.32125 768.611 2.33735 766.496 0 765.275V778.089ZM0 746.902C2.69309 748.912 6.52293 750.957 10.5732 752.412C19.1567 755.474 36.6079 759.23 50.0799 760.822C70.3733 763.271 90.6099 763.965 123.409 763.353C136.711 763.108 148.875 762.781 150.41 762.7C152.002 762.577 164.28 762.414 177.695 762.291C224.762 761.883 249.717 760.658 271.772 757.556C288.826 755.147 305.026 751.146 316.793 746.328C322.136 744.165 331.459 739.47 331.459 738.98C331.459 738.857 330.379 738.816 329.071 738.939C327.707 739.021 321.795 738.939 315.883 738.735C302.98 738.245 301.104 738.408 285.358 741.429C243.976 749.39 211.859 753.391 168.316 756.045C156.89 756.739 110.278 756.739 102.377 756.045C85.096 754.535 73.3861 753.024 55.1959 749.962C46.1008 748.451 42.406 747.594 34.732 745.267C19.043 740.449 13.0175 739.225 5.05933 739.225C3.02785 739.225 1.33987 739.339 0 739.567V746.902ZM429.629 810.262C424.968 811.773 427.014 811.569 432.073 810.017C436.564 808.67 437.814 808.221 437.075 808.221C436.564 808.221 432.471 809.323 429.629 810.262ZM449.922 947.887C449.297 947.887 449.126 948.01 449.581 948.132C449.979 948.255 450.491 948.214 450.661 948.091C450.888 947.969 450.547 947.846 449.922 947.887ZM468.624 997.94C468.055 997.818 468.51 997.736 469.59 997.736C470.67 997.736 471.125 997.818 470.613 997.94C470.045 998.022 469.135 998.022 468.624 997.94ZM462.94 998.348C462.03 998.267 462.655 998.185 464.19 998.185C465.782 998.185 466.464 998.267 465.782 998.348C465.043 998.43 463.792 998.43 462.94 998.348ZM316.566 1011C315.827 1010.92 316.281 1010.84 317.532 1010.84C318.783 1010.8 319.351 1010.88 318.839 1011C318.271 1011.09 317.248 1011.09 316.566 1011ZM27.797 1000.8C27.3423 1000.68 27.5128 1000.55 28.1381 1000.55C28.7634 1000.51 29.1044 1000.63 28.8771 1000.76C28.7065 1000.88 28.1949 1000.92 27.797 1000.8ZM17.3945 999.287C13.0744 998.634 9.37949 997.94 9.20895 997.818C9.03842 997.654 9.49317 997.654 10.289 997.777C11.0848 997.94 15.0071 998.552 19.043 999.165C23.0789 999.777 26.1485 1000.31 25.8075 1000.39C25.5232 1000.47 21.7147 999.981 17.3945 999.287ZM6.3099 997.45C3.97928 997.083 4.43404 996.756 6.8215 997.083C7.78785 997.246 8.52682 997.45 8.35629 997.532C8.2426 997.654 7.27625 997.613 6.3099 997.45ZM2.78556 996.715C2.3308 996.593 2.50133 996.47 3.12662 996.47C3.75191 996.429 4.09297 996.552 3.8656 996.674C3.69506 996.797 3.18347 996.838 2.78556 996.715ZM664.566 825.001C680.028 822.265 693.613 820.877 710.894 820.224C714.987 820.102 718.17 820.061 717.999 820.183C717.829 820.306 714.93 820.591 711.462 820.836C693.443 822.184 675.878 824.347 662.69 826.879C655.244 828.308 653.254 828.92 636.314 835.044C626.31 838.677 616.135 842.066 613.804 842.597L609.541 843.577L613.008 844.352C614.884 844.801 621.023 846.761 626.594 848.721C636.996 852.354 643.192 854.028 652.515 855.579C655.414 856.069 657.688 856.559 657.517 856.682C657.062 857.008 643.192 854.395 635.007 852.436C628.015 850.762 612.099 846.312 605.221 844.148L602.492 843.25L606.926 841.413C624.093 834.35 644.727 828.471 664.566 825.001ZM663.088 857.253C662.463 857.253 662.292 857.376 662.747 857.498C663.145 857.621 663.656 857.58 663.827 857.457C664.054 857.335 663.713 857.212 663.088 857.253ZM659.052 857.09C658.484 856.967 658.825 856.886 659.734 856.886C660.701 856.886 661.098 856.967 660.757 857.09C660.359 857.172 659.564 857.172 659.052 857.09ZM495.625 747.268C495.17 747.145 495.341 747.023 495.966 747.023C496.591 746.982 496.932 747.104 496.705 747.227C496.534 747.349 496.023 747.39 495.625 747.268ZM476.07 878.075C475.445 878.075 475.275 878.197 475.729 878.32C476.127 878.442 476.639 878.401 476.809 878.279C477.037 878.156 476.696 878.034 476.07 878.075ZM315.542 778.908C314.747 778.908 314.462 778.99 314.86 779.112C315.201 779.194 315.883 779.194 316.281 779.112C316.622 778.99 316.338 778.908 315.542 778.908ZM356.186 957.808C363.348 955.154 368.578 952.582 373.126 949.52C375.229 948.091 377.559 946.336 378.242 945.642C379.322 944.539 379.037 944.621 376.479 946.213C368.919 950.827 364.315 953.399 358.914 955.93C350.615 959.849 350.558 959.931 356.186 957.808ZM378.639 769.477C378.185 769.477 377.389 769.64 376.934 769.844C375.911 770.334 376.82 770.334 378.355 769.844C379.094 769.599 379.208 769.477 378.639 769.477ZM353.401 756.78C358.801 754.167 366.873 748.411 369.374 745.349C371.193 743.103 373.182 740.041 372.785 740.041C372.671 740.041 371.648 741.021 370.511 742.246C363.292 750.044 351.752 757.025 337.2 762.373C333.903 763.598 331.8 764.455 332.596 764.292C335.552 763.761 349.024 758.862 353.401 756.78ZM16.7692 770.293C16.1439 770.293 15.9734 770.416 16.4282 770.538C16.8261 770.661 17.3377 770.62 17.5082 770.498C17.7356 770.375 17.3945 770.253 16.7692 770.293ZM375.229 1006.72C374.149 1006.72 373.694 1006.8 374.262 1006.92C374.774 1007 375.684 1007 376.252 1006.92C376.764 1006.8 376.309 1006.72 375.229 1006.72ZM338.735 776.662C338.337 776.54 338.621 776.458 339.417 776.458C340.213 776.458 340.497 776.54 340.156 776.662C339.758 776.744 339.076 776.744 338.735 776.662ZM336.006 776.867C335.211 776.867 334.926 776.948 335.324 777.071C335.665 777.152 336.347 777.152 336.745 777.071C337.086 776.948 336.802 776.867 336.006 776.867ZM326.627 778.01C329.753 777.601 332.823 777.234 333.448 777.275C335.097 777.316 327.764 778.336 324.069 778.581C322.25 778.704 323.387 778.459 326.627 778.01ZM332.823 867.868C332.198 867.868 332.027 867.991 332.482 868.113C332.88 868.236 333.392 868.195 333.562 868.072C333.789 867.95 333.448 867.827 332.823 867.868ZM312.7 745.594C312.7 745.879 314.86 745.022 317.816 743.593C320.943 742.083 323.728 740.449 323.216 740.449C322.989 740.449 321.852 740.98 320.715 741.633C319.578 742.246 317.305 743.389 315.713 744.124C314.064 744.818 312.7 745.512 312.7 745.594ZM330.549 867.46C329.924 867.46 329.753 867.582 330.208 867.705C330.606 867.827 331.118 867.786 331.288 867.664C331.516 867.541 331.175 867.419 330.549 867.46ZM90.0414 927.719C89.1319 927.638 89.8709 927.556 91.5762 927.556C93.2815 927.556 94.0205 927.638 93.1679 927.719C92.2583 927.801 90.8941 927.801 90.0414 927.719ZM83.5043 928.127C82.4811 928.046 83.1633 927.964 85.0391 927.964C86.915 927.964 87.7677 928.046 86.915 928.127C86.0623 928.209 84.5275 928.209 83.5043 928.127ZM288.712 1013.05C287.689 1012.96 288.371 1012.88 290.247 1012.88C292.123 1012.88 292.975 1012.96 292.123 1013.05C291.27 1013.13 289.735 1013.13 288.712 1013.05ZM149.5 739.388C67.8153 739.306 66.9058 739.306 70.8281 740.082C82.7654 742.368 102.718 744.777 119.998 746.002C131.765 746.859 163.882 746.982 175.137 746.206C193.441 744.981 211.461 742.94 225.672 740.531L232.152 739.429L149.5 739.388ZM209.983 936.578C215.951 937.599 220.783 938.946 224.535 940.579L226.524 941.478L221.181 943.274C214.701 945.438 204.412 947.928 198.159 948.826C191.736 949.724 179.059 950.623 179.798 950.092C179.912 949.969 182.527 949.724 185.597 949.48C192.645 948.949 200.547 947.765 206.231 946.418C210.608 945.356 222.602 941.396 222.261 941.11C221.806 940.824 214.246 938.62 208.675 937.191C201.683 935.354 201.968 935.231 209.983 936.578ZM1012.17 810.262C1016.84 811.773 1014.79 811.569 1009.71 810.017C1005.21 808.67 1003.96 808.221 1004.7 808.221C1005.21 808.221 1009.32 809.323 1012.17 810.262ZM991.816 947.887C992.443 947.887 992.614 948.01 992.158 948.132C991.759 948.255 991.246 948.214 991.075 948.091C990.847 947.969 991.189 947.846 991.816 947.887ZM973.062 997.94C973.632 997.818 973.176 997.736 972.093 997.736C971.01 997.736 970.554 997.818 971.067 997.94C971.637 998.022 972.549 998.022 973.062 997.94ZM978.762 998.348C979.674 998.267 979.047 998.185 977.508 998.185C975.912 998.185 975.228 998.267 975.912 998.348C976.653 998.43 977.907 998.43 978.762 998.348ZM1125.54 1011C1126.28 1010.92 1125.83 1010.84 1124.57 1010.84C1123.32 1010.8 1122.75 1010.88 1123.26 1011C1123.83 1011.09 1124.86 1011.09 1125.54 1011ZM1415.11 1000.8C1415.57 1000.68 1415.4 1000.55 1414.77 1000.55C1414.14 1000.51 1413.8 1000.63 1414.03 1000.76C1414.2 1000.88 1414.71 1000.92 1415.11 1000.8ZM1425.54 999.287C1429.88 998.634 1433.58 997.94 1433.75 997.818C1433.92 997.654 1433.47 997.654 1432.67 997.777C1431.87 997.94 1427.94 998.552 1423.89 999.165C1419.84 999.777 1416.77 1000.31 1417.11 1000.39C1417.39 1000.47 1421.21 999.981 1425.54 999.287ZM1436.66 997.45C1439 997.083 1438.54 996.756 1436.15 997.083C1435.18 997.246 1434.44 997.45 1434.61 997.532C1434.72 997.654 1435.69 997.613 1436.66 997.45ZM776.577 825.001C761.072 822.265 747.449 820.877 730.12 820.224C726.016 820.102 722.824 820.061 722.995 820.183C723.166 820.306 726.073 820.591 729.55 820.836C747.62 822.184 765.233 824.347 778.458 826.879C785.925 828.308 787.92 828.92 804.907 835.044C814.939 838.677 825.142 842.066 827.479 842.597L831.755 843.577L828.277 844.352C826.396 844.801 820.24 846.761 814.654 848.721C804.223 852.354 798.009 854.028 788.661 855.579C785.754 856.069 783.474 856.559 783.645 856.682C784.101 857.008 798.009 854.395 806.218 852.436C813.229 850.762 829.189 846.312 836.087 844.148L838.823 843.25L834.377 841.413C817.162 834.35 796.47 828.471 776.577 825.001ZM778.059 857.253C778.686 857.253 778.857 857.376 778.401 857.498C778.002 857.621 777.489 857.58 777.318 857.457C777.09 857.335 777.432 857.212 778.059 857.253ZM782.106 857.09C782.676 856.967 782.334 856.886 781.422 856.886C780.453 856.886 780.054 856.967 780.396 857.09C780.795 857.172 781.593 857.172 782.106 857.09ZM945.986 747.268C946.442 747.145 946.271 747.023 945.644 747.023C945.017 746.982 944.675 747.104 944.903 747.227C945.074 747.349 945.587 747.39 945.986 747.268ZM965.595 878.075C966.222 878.075 966.393 878.197 965.937 878.32C965.538 878.442 965.025 878.401 964.854 878.279C964.626 878.156 964.968 878.034 965.595 878.075ZM1126.57 778.908C1127.37 778.908 1127.65 778.99 1127.25 779.112C1126.91 779.194 1126.23 779.194 1125.83 779.112C1125.49 778.99 1125.77 778.908 1126.57 778.908ZM1085.81 957.808C1078.63 955.154 1073.39 952.582 1068.83 949.52C1066.72 948.091 1064.38 946.336 1063.7 945.642C1062.61 944.539 1062.9 944.621 1065.46 946.213C1073.04 950.827 1077.66 953.399 1083.08 955.93C1091.4 959.849 1091.46 959.931 1085.81 957.808ZM1063.3 769.477C1063.75 769.477 1064.55 769.64 1065.01 769.844C1066.03 770.334 1065.12 770.334 1063.58 769.844C1062.84 769.599 1062.73 769.477 1063.3 769.477ZM1088.61 756.78C1083.19 754.167 1075.1 748.411 1072.59 745.349C1070.76 743.103 1068.77 740.041 1069.17 740.041C1069.28 740.041 1070.31 741.021 1071.45 742.246C1078.69 750.044 1090.26 757.025 1104.85 762.373C1108.16 763.598 1110.27 764.455 1109.47 764.292C1106.5 763.761 1092.99 758.862 1088.61 756.78ZM1426.17 770.293C1426.8 770.293 1426.97 770.416 1426.51 770.538C1426.11 770.661 1425.6 770.62 1425.43 770.498C1425.2 770.375 1425.54 770.253 1426.17 770.293ZM1066.72 1006.72C1067.8 1006.72 1068.26 1006.8 1067.69 1006.92C1067.17 1007 1066.26 1007 1065.69 1006.92C1065.18 1006.8 1065.63 1006.72 1066.72 1006.72ZM1103.31 776.662C1103.71 776.54 1103.43 776.458 1102.63 776.458C1101.83 776.458 1101.54 776.54 1101.89 776.662C1102.29 776.744 1102.97 776.744 1103.31 776.662ZM1106.05 776.867C1106.85 776.867 1107.13 776.948 1106.73 777.071C1106.39 777.152 1105.71 777.152 1105.31 777.071C1104.96 776.948 1105.25 776.867 1106.05 776.867ZM1115.45 778.01C1112.32 777.601 1109.24 777.234 1108.61 777.275C1106.96 777.316 1114.31 778.336 1118.02 778.581C1119.84 778.704 1118.7 778.459 1115.45 778.01ZM1109.24 867.868C1109.87 867.868 1110.04 867.991 1109.58 868.113C1109.18 868.236 1108.67 868.195 1108.5 868.072C1108.27 867.95 1108.61 867.827 1109.24 867.868ZM1129.42 745.594C1129.42 745.879 1127.25 745.022 1124.29 743.593C1121.15 742.083 1118.36 740.449 1118.87 740.449C1119.1 740.449 1120.24 740.98 1121.38 741.633C1122.52 742.246 1124.8 743.389 1126.4 744.124C1128.05 744.818 1129.42 745.512 1129.42 745.594ZM1111.52 867.46C1112.15 867.46 1112.32 867.582 1111.86 867.705C1111.46 867.827 1110.95 867.786 1110.78 867.664C1110.55 867.541 1110.89 867.419 1111.52 867.46ZM1352.69 927.719C1353.61 927.638 1352.87 927.556 1351.16 927.556C1349.45 927.556 1348.7 927.638 1349.56 927.719C1350.47 927.801 1351.84 927.801 1352.69 927.719ZM1359.25 928.127C1360.28 928.046 1359.59 927.964 1357.71 927.964C1355.83 927.964 1354.97 928.046 1355.83 928.127C1356.69 928.209 1358.22 928.209 1359.25 928.127ZM1153.47 1013.05C1154.5 1012.96 1153.82 1012.88 1151.93 1012.88C1150.05 1012.88 1149.2 1012.96 1150.05 1013.05C1150.91 1013.13 1152.45 1013.13 1153.47 1013.05ZM1293.07 739.388C1374.98 739.306 1375.89 739.306 1371.96 740.082C1359.99 742.368 1339.98 744.777 1322.65 746.002C1310.86 746.859 1278.65 746.982 1267.36 746.206C1249.01 744.981 1230.94 742.94 1216.69 740.531L1210.19 739.429L1293.07 739.388ZM1232.42 936.578C1226.44 937.599 1221.59 938.946 1217.83 940.579L1215.83 941.478L1221.19 943.274C1227.69 945.438 1238.01 947.928 1244.28 948.826C1250.72 949.724 1263.43 950.623 1262.69 950.092C1262.57 949.969 1259.95 949.724 1256.87 949.48C1249.81 948.949 1241.88 947.765 1236.18 946.418C1231.79 945.356 1219.77 941.396 1220.11 941.11C1220.56 940.824 1228.15 938.62 1233.73 937.191C1240.74 935.354 1240.46 935.231 1232.42 936.578Z" fill="#FECFFE" fill-opacity="0.1"/>
<path fill-rule="evenodd" clip-rule="evenodd" d="M780.5 446L752 441L703.5 505L699.5 542L700.5 539L737 592.5L732.062 712H736L757 634.5L771 620.5L795.608 623.234L803 589.5L807.296 586.636L812 520.5L780.5 446Z" fill="url(#paint0_linear_734_28)"/>
<path d="M779 526L727 522.5L718 712H769.5L779 526Z" fill="url(#paint1_linear_734_28)"/>
<path fill-rule="evenodd" clip-rule="evenodd" d="M704 504.5L727 522.5L779.5 526L812 520.5L780.5 446L752 441L704 504.5Z" fill="url(#paint2_linear_734_28)"/>
<path d="M704 504.5L727 522.5L755.5 458.5L752 441L704 504.5Z" fill="url(#paint3_linear_734_28)"/>
<path d="M727 522.5L779.5 526L770 458L755.5 458.5L727 522.5Z" fill="#23D9B7"/>
<path d="M779.5 526L812 520.5L780.5 446L770 458.5L779.5 526Z" fill="#49C1C3"/>
<path d="M780.5 446L752 441L755.5 458.5H770L780.5 446Z" fill="#7AD2D3"/>
<path fill-rule="evenodd" clip-rule="evenodd" d="M870 572L856 556.5L846.5 560.5L803 589.5L795.608 623.234L802.5 624L818.5 644.5L811 665.5L783.5 712H804.881L858.5 626.5L870 572Z" fill="url(#paint4_linear_734_28)"/>
<path d="M827.5 618.5L858.5 626.5L805 712H791.5L827.5 618.5Z" fill="url(#paint5_linear_734_28)"/>
<path d="M798 623.5L805.5 599L803 589.5L795.5 623.5H798Z" fill="url(#paint6_linear_734_28)"/>
<path fill-rule="evenodd" clip-rule="evenodd" d="M846.5 560.5L856 556.5L870 572L858.5 626.5L827.5 618.5L805.5 598.5L803.5 589L846.5 560.5Z" fill="url(#paint7_linear_734_28)"/>
<path d="M857 575L870 572L858.5 626.5L827.5 618.5L857 575Z" fill="url(#paint8_linear_734_28)"/>
<path d="M805.5 598.5L851 566L857 575L827.5 618.5L805.5 598.5Z" fill="#23D9B7"/>
<path d="M851 566.5L846.5 560.5L803.5 589L805.5 598.5L851 566.5Z" fill="#59A9C8"/>
<path d="M870 572L856 556.5L846.5 560.5L857 575L870 572Z" fill="#7AD2D3"/>
<path fill-rule="evenodd" clip-rule="evenodd" d="M598.5 513.5L601 576L614.188 612H662.431L677.708 661.834L671 602L687.365 567.052L684.5 547L632 503H609L598.5 513.5Z" fill="url(#paint9_linear_734_28)"/>
<path d="M669.5 560.5L632 577.5L641 612L672 671.5H687L669.5 560.5Z" fill="url(#paint10_linear_734_28)"/>
<path fill-rule="evenodd" clip-rule="evenodd" d="M684.5 547L669.5 560.5L632.061 503.093L684.5 547ZM669.5 560.5L632 577.5L601 576L598.5 513.5L609 503H632L669.5 560.5Z" fill="url(#paint11_linear_734_28)"/>
<path d="M632 577.5L614 515.5L598.5 513.5L601 576L632 577.5Z" fill="#469FC2"/>
<path d="M669.5 560.5L624 511L614 515.5L632 577.5L669.5 560.5Z" fill="#23D9B7"/>
<path d="M598.5 513.5L609 503H632L624 511L614 515.5L598.5 513.5Z" fill="#6BCDCE"/>
<path d="M669.5 560.5L684.5 547L632 503L624 511L669.5 560.5Z" fill="url(#paint12_linear_734_28)"/>
<path fill-rule="evenodd" clip-rule="evenodd" d="M612.569 612H662.431L679.751 668.5L684.882 712H630.346L590 644L612.569 612Z" fill="url(#paint13_linear_734_28)"/>
<path d="M667 716.5H660L622 647L648 636.5L667 716.5Z" fill="url(#paint14_linear_734_28)"/>
<path d="M590 644L612.5 612H662.5L648 636.5L622 647L590 644Z" fill="url(#paint15_linear_734_28)"/>
<path d="M590 644L612.5 612L622 647L590 644Z" fill="url(#paint16_linear_734_28)"/>
<path d="M622 647L648 636.5L612.5 612L622 647Z" fill="#23D9B7"/>
<path d="M648 636.5L662.5 612H612.5L648 636.5Z" fill="#5BC7C9"/>
<path fill-rule="evenodd" clip-rule="evenodd" d="M736 712L757 634.5L771 620.5L802.5 624L818.5 644.5L811 665.5L783.5 712H736Z" fill="url(#paint17_linear_734_28)"/>
<path d="M751.5 712L766 673L751.5 654.5L735.5 712H751.5Z" fill="url(#paint18_linear_734_28)"/>
<path d="M766 673L811.5 665L783.5 712H751.5L766 673Z" fill="url(#paint19_linear_734_28)"/>
<path fill-rule="evenodd" clip-rule="evenodd" d="M771 620.5L802.5 624L818.5 644.5L811.5 665L766 673L751.5 654.5L757 634.5L771 620.5Z" fill="url(#paint20_linear_734_28)"/>
<path d="M766 673L793 633L811.5 665L766 673Z" fill="#23D9B7"/>
<path d="M811.5 665L793 633L818.5 644.5L811.5 665Z" fill="#35BABC"/>
<path d="M751.5 654.5L793 633L757 634.5L751.5 654.5Z" fill="#469FC2"/>
<path d="M766 673L793 633L751.5 654.5L766 673Z" fill="url(#paint21_linear_734_28)"/>
<path d="M792.5 633L802.5 624L818.5 644.5L792.5 633Z" fill="#3194BB"/>
<path d="M802.5 624L771 620.5L757 634.5L793 633L802.5 624Z" fill="#49C1C3"/>
<path fill-rule="evenodd" clip-rule="evenodd" d="M700.5 539L671 602L683.332 712H732.062L737 592.5L700.5 539Z" fill="url(#paint22_linear_734_28)"/>
<path d="M671 602L690 606.5L693 712H683L671 602Z" fill="url(#paint23_linear_734_28)"/>
<path d="M716 606.5L737.5 593L732 712H712.5L716 606.5Z" fill="url(#paint24_linear_734_28)"/>
<path d="M690 606.5H716L712.5 712H693L690 606.5Z" fill="url(#paint25_linear_734_28)"/>
<path fill-rule="evenodd" clip-rule="evenodd" d="M690 606.5L671 602L700.5 539L690 606.5ZM716 606.5H690L700.5 539.5L716 606.5ZM716 606.5L700.5 539L737.5 593L716 606.5Z" fill="url(#paint26_linear_734_28)"/>
<path d="M737.5 593L716 606.5L700.5 539L737.5 593Z" fill="#469FC2"/>
<path d="M690 606.5L671 602L700.5 539L690 606.5Z" fill="url(#paint27_linear_734_28)"/>
<path d="M716 606.5L700.5 539.5L690 606.5H716Z" fill="#23D9B7"/>
<path fill-rule="evenodd" clip-rule="evenodd" d="M997 491.5C997 581.68 953.983 661.814 887.35 712.5H551.65C485.017 661.814 442 581.68 442 491.5C442 338.241 566.241 214 719.5 214C872.759 214 997 338.241 997 491.5Z" fill="white" fill-opacity="0.1"/>
<path fill-rule="evenodd" clip-rule="evenodd" d="M445.5 491C445.5 581.636 489.427 662.012 557.153 712H552.15C485.517 661.314 442.5 581.18 442.5 491C442.5 337.741 566.741 213.5 720 213.5C873.259 213.5 997.5 337.741 997.5 491C997.5 581.18 954.483 661.314 887.85 712H882.847C950.573 662.012 994.5 581.636 994.5 491C994.5 339.398 871.602 216.5 720 216.5C568.398 216.5 445.5 339.398 445.5 491Z" fill="#FECFFE"/>
<rect x="515" y="712" width="410" height="52" fill="url(#paint28_linear_734_28)"/>
<rect x="455" y="764" width="539" height="54" fill="url(#paint29_linear_734_28)"/>
<defs>
<linearGradient id="paint0_linear_734_28" x1="755.806" y1="441.197" x2="819.8" y2="728.646" gradientUnits="userSpaceOnUse">
<stop stop-color="#23D9B7"/>
<stop offset="1" stop-color="#1879B2"/>
</linearGradient>
<linearGradient id="paint1_linear_734_28" x1="743" y1="498.5" x2="810.971" y2="713.699" gradientUnits="userSpaceOnUse">
<stop stop-color="#23D9B7"/>
<stop offset="1" stop-color="#1879B2"/>
</linearGradient>
<linearGradient id="paint2_linear_734_28" x1="758.053" y1="441.062" x2="764.9" y2="535.192" gradientUnits="userSpaceOnUse">
<stop stop-color="#23D9B7"/>
<stop offset="1" stop-color="#1879B2"/>
</linearGradient>
<linearGradient id="paint3_linear_734_28" x1="729.775" y1="441.059" x2="742.768" y2="529.89" gradientUnits="userSpaceOnUse">
<stop stop-color="#23D9B7"/>
<stop offset="1" stop-color="#1879B2"/>
</linearGradient>
<linearGradient id="paint4_linear_734_28" x1="826.793" y1="556.613" x2="854.781" y2="725.076" gradientUnits="userSpaceOnUse">
<stop stop-color="#23D9B7"/>
<stop offset="1" stop-color="#1879B2"/>
</linearGradient>
<linearGradient id="paint5_linear_734_28" x1="825.033" y1="618.568" x2="838.238" y2="720.955" gradientUnits="userSpaceOnUse">
<stop stop-color="#23D9B7"/>
<stop offset="1" stop-color="#1879B2"/>
</linearGradient>
<linearGradient id="paint6_linear_734_28" x1="809.5" y1="590" x2="778.655" y2="600.617" gradientUnits="userSpaceOnUse">
<stop stop-color="#23D9B7"/>
<stop offset="1" stop-color="#1879B2"/>
</linearGradient>
<linearGradient id="paint7_linear_734_28" x1="836.783" y1="556.551" x2="844.293" y2="633.749" gradientUnits="userSpaceOnUse">
<stop stop-color="#23D9B7"/>
<stop offset="1" stop-color="#1879B2"/>
</linearGradient>
<linearGradient id="paint8_linear_734_28" x1="866" y1="568" x2="718.143" y2="605.309" gradientUnits="userSpaceOnUse">
<stop stop-color="#23D9B7"/>
<stop offset="1" stop-color="#1879B2"/>
</linearGradient>
<linearGradient id="paint9_linear_734_28" x1="642.976" y1="503.116" x2="671.41" y2="675.243" gradientUnits="userSpaceOnUse">
<stop stop-color="#23D9B7"/>
<stop offset="1" stop-color="#1879B2"/>
</linearGradient>
<linearGradient id="paint10_linear_734_28" x1="659.527" y1="560.581" x2="681.801" y2="679.999" gradientUnits="userSpaceOnUse">
<stop stop-color="#23D9B7"/>
<stop offset="1" stop-color="#1879B2"/>
</linearGradient>
<linearGradient id="paint11_linear_734_28" x1="641.542" y1="503.054" x2="648.14" y2="585.464" gradientUnits="userSpaceOnUse">
<stop stop-color="#23D9B7"/>
<stop offset="1" stop-color="#1879B2"/>
</linearGradient>
<linearGradient id="paint12_linear_734_28" x1="628.5" y1="495" x2="763.68" y2="581.802" gradientUnits="userSpaceOnUse">
<stop stop-color="#23D9B7"/>
<stop offset="1" stop-color="#1879B2"/>
</linearGradient>
<linearGradient id="paint13_linear_734_28" x1="637.488" y1="612.073" x2="648.23" y2="722.353" gradientUnits="userSpaceOnUse">
<stop stop-color="#23D9B7"/>
<stop offset="1" stop-color="#1879B2"/>
</linearGradient>
<linearGradient id="paint14_linear_734_28" x1="644.522" y1="636.558" x2="658.77" y2="723.279" gradientUnits="userSpaceOnUse">
<stop stop-color="#23D9B7"/>
<stop offset="1" stop-color="#1879B2"/>
</linearGradient>
<linearGradient id="paint15_linear_734_28" x1="626.286" y1="612.025" x2="628.021" y2="650.912" gradientUnits="userSpaceOnUse">
<stop stop-color="#23D9B7"/>
<stop offset="1" stop-color="#1879B2"/>
</linearGradient>
<linearGradient id="paint16_linear_734_28" x1="619" y1="614.5" x2="597.852" y2="677.95" gradientUnits="userSpaceOnUse">
<stop stop-color="#23D9B7"/>
<stop offset="1" stop-color="#1879B2"/>
</linearGradient>
<linearGradient id="paint17_linear_734_28" x1="777.291" y1="620.567" x2="787.623" y2="721.371" gradientUnits="userSpaceOnUse">
<stop stop-color="#23D9B7"/>
<stop offset="1" stop-color="#1879B2"/>
</linearGradient>
<linearGradient id="paint18_linear_734_28" x1="766" y1="624.5" x2="757.262" y2="723.466" gradientUnits="userSpaceOnUse">
<stop stop-color="#23D9B7"/>
<stop offset="1" stop-color="#1879B2"/>
</linearGradient>
<linearGradient id="paint19_linear_734_28" x1="781.53" y1="665.034" x2="785.298" y2="717.085" gradientUnits="userSpaceOnUse">
<stop stop-color="#23D9B7"/>
<stop offset="1" stop-color="#1879B2"/>
</linearGradient>
<linearGradient id="paint20_linear_734_28" x1="785.033" y1="620.538" x2="789.244" y2="678.68" gradientUnits="userSpaceOnUse">
<stop stop-color="#23D9B7"/>
<stop offset="1" stop-color="#1879B2"/>
</linearGradient>
<linearGradient id="paint21_linear_734_28" x1="787" y1="635.5" x2="733.137" y2="698.025" gradientUnits="userSpaceOnUse">
<stop stop-color="#23D9B7"/>
<stop offset="1" stop-color="#1879B2"/>
</linearGradient>
<linearGradient id="paint22_linear_734_28" x1="704.033" y1="539.126" x2="748.103" y2="721.045" gradientUnits="userSpaceOnUse">
<stop stop-color="#23D9B7"/>
<stop offset="1" stop-color="#1879B2"/>
</linearGradient>
<linearGradient id="paint23_linear_734_28" x1="678" y1="584" x2="715.632" y2="697.763" gradientUnits="userSpaceOnUse">
<stop stop-color="#23D9B7"/>
<stop offset="1" stop-color="#1879B2"/>
</linearGradient>
<linearGradient id="paint24_linear_734_28" x1="736" y1="616.5" x2="770.174" y2="706.63" gradientUnits="userSpaceOnUse">
<stop stop-color="#23D9B7"/>
<stop offset="1" stop-color="#1879B2"/>
</linearGradient>
<linearGradient id="paint25_linear_734_28" x1="703" y1="583" x2="755.314" y2="712.341" gradientUnits="userSpaceOnUse">
<stop stop-color="#23D9B7"/>
<stop offset="1" stop-color="#1879B2"/>
</linearGradient>
<linearGradient id="paint26_linear_734_28" x1="704.283" y1="539.049" x2="711.271" y2="613.539" gradientUnits="userSpaceOnUse">
<stop stop-color="#23D9B7"/>
<stop offset="1" stop-color="#1879B2"/>
</linearGradient>
<linearGradient id="paint27_linear_734_28" x1="689.5" y1="544.5" x2="797.949" y2="695.972" gradientUnits="userSpaceOnUse">
<stop stop-color="#23D9B7"/>
<stop offset="1" stop-color="#1879B2"/>
</linearGradient>
<linearGradient id="paint28_linear_734_28" x1="730" y1="712" x2="724.387" y2="774.597" gradientUnits="userSpaceOnUse">
<stop stop-color="#F98E6C"/>
<stop offset="1" stop-color="#F56644"/>
</linearGradient>
<linearGradient id="paint29_linear_734_28" x1="756" y1="732" x2="752.011" y2="851.732" gradientUnits="userSpaceOnUse">
<stop stop-color="#F98E6C"/>
<stop offset="1" stop-color="#F56644"/>
</linearGradient>
</defs>
</svg>
