<svg width="1248" height="921" viewBox="0 0 1248 921" fill="none" xmlns="http://www.w3.org/2000/svg">
<path fill-rule="evenodd" clip-rule="evenodd" d="M295.865 6C297.786 7.32231 300.291 8.10598 303.892 8.33436C322.225 9.49735 330.505 21.5465 333.729 45.5689C354.174 36.0915 375.15 27.8047 396.551 20.7499C403.415 18.8227 412.174 23.6566 420.211 28.0924C421.802 28.9704 423.364 29.8328 424.878 30.6241C450.812 24.775 457.724 29.9958 465.782 64.3711C472.164 63.6516 478.584 63.3229 485.006 63.3868C505.195 64.7113 514.112 77.6995 507.522 97.8566C504.469 107.195 505.125 110.96 514.474 116.331C522.03 121.705 527.161 129.847 528.751 138.988C532.116 159.965 528.64 181.47 518.84 200.315C517.046 203.869 514.811 209.782 516.406 212.057C529.02 230.04 522.574 246.577 513.345 262.716C507.692 270.845 502.813 279.487 498.772 288.528C498.503 292.232 498.213 295.934 497.924 299.637C497.178 309.165 496.433 318.692 496.045 328.235C496.093 332.656 496.89 337.036 498.404 341.19C502.004 349.26 504.831 357.654 506.847 366.258C507.446 371.668 506.935 377.009 506.42 382.387C505.5 391.988 504.569 401.707 509.929 412.142C516.452 424.843 490.039 456.936 475.187 456.703C465.674 454.74 456.512 451.353 448.008 446.657C446.678 447.25 445.399 447.953 444.185 448.756C426.988 459.112 426.996 459.126 436.275 475.989C443.256 491.23 445.746 508.148 443.453 524.757C441.16 541.365 434.179 556.973 423.33 569.747C434.69 600.745 429.434 617.727 402.491 638.769C399.634 641.108 397.655 644.349 396.88 647.962C393.499 667.561 386.841 673.622 366.703 673.097C361.05 672.95 355.413 672.197 349.081 671.351C345.987 670.937 342.726 670.501 339.216 670.104C337.173 675.778 336.221 681.788 336.41 687.816C338.682 693.696 339.017 700.15 337.367 706.234C335.717 712.319 332.168 717.716 327.238 721.64C322.734 725.363 317.207 727.629 311.388 728.139C305.569 728.648 299.733 727.377 294.652 724.493C283.435 735.725 272.271 746.879 261.154 757.986C233.751 785.365 206.634 812.458 179.701 839.733C175.427 844.061 170.779 848.271 166.116 852.494C153.494 863.928 140.761 875.462 135.03 889.71C132.623 895.695 131.442 902.203 130.98 909H101.878C100.968 900.047 97.9913 891.403 93.1529 883.763C86.5125 873.477 78.9853 863.772 71.4549 854.062C65.1561 845.941 58.8552 837.817 53.0692 829.347C43.942 816.161 36.0818 802.14 29.594 787.472C26.9804 779.74 22.8147 772.625 17.3528 766.565C16.2798 765.374 15.1611 764.229 14 763.132V582.766C24.256 575.561 32.6124 565.913 38.2849 554.647C45.0449 541.22 47.692 526.093 45.8937 511.166C39.1788 490.995 30.3738 471.521 21.5687 452.048C19.0291 446.431 16.4894 440.814 14 435.181V131C14 61.9644 69.9644 6 139 6H295.865ZM125.055 729.776C132.541 732.707 140.826 732.869 148.421 730.232C155.322 785.426 149.115 835.824 110.414 878.698C104.073 869.725 97.4362 860.955 90.8267 852.221C70.1357 824.879 49.707 797.883 39.4031 766.077C50.7911 757.418 61.9774 748.914 73.2361 740.354L107.58 714.243C111.373 721.337 117.569 726.845 125.055 729.776ZM229.055 691.037C231.743 709.572 245.433 718.669 268.519 721.831L226.601 761.961C208.246 779.532 190.267 796.744 171.849 814.377C171.421 807.066 170.978 799.866 170.54 792.748C169.251 771.801 168.006 751.567 167.316 731.313C167.711 726.148 169.991 721.309 173.721 717.718C180.412 711.02 187.569 704.788 195.171 698.168C198.27 695.47 201.442 692.707 204.687 689.823L229.055 691.037ZM244.275 177.548C248.087 179.126 252.229 180.841 256.817 182.844C258.354 189.801 261.472 196.993 264.74 204.531C271.714 220.616 279.374 238.282 273.824 258.623C270.135 258.623 266.518 258.619 262.952 258.615C254.73 258.606 246.777 258.597 238.825 258.638C233.451 257.19 228.502 254.476 224.389 250.724C220.276 246.971 217.12 242.288 215.183 237.066C214.907 233.086 213.458 229.276 211.02 226.119C208.541 224.352 206.452 222.092 204.883 219.481C203.315 216.87 202.301 213.963 201.904 210.942C201.507 207.921 201.736 204.851 202.577 201.922C203.418 198.994 204.853 196.27 206.792 193.921C209.047 187.863 210.16 181.439 210.075 174.974C211.418 165.653 215.208 163.311 224.091 168.303C230.091 171.675 236.494 174.326 244.275 177.548ZM296.444 598.534C295.761 601.703 295.092 604.81 294.385 607.811L265.211 614.294C279.035 593.74 274.714 573.038 269.333 551.218C268.887 549.407 268.474 547.598 268.064 545.804C264.734 531.22 261.645 517.691 242.866 513.303L250.654 489.13L285.715 497.817C285.138 510.818 285.279 523.84 286.137 536.825C286.772 543.743 290.123 550.127 295.454 554.574C304.879 560.395 305.15 566.32 302.203 575.519C299.76 583.147 298.064 591.015 296.444 598.534ZM50.9048 494.59L47.6753 494.886C44.796 488.198 41.8471 481.535 38.8981 474.872C30.9494 456.913 23.0007 438.953 16.4164 420.506C14.5514 415.281 17.854 407.974 20.8455 401.355C21.5144 399.875 22.1678 398.43 22.7443 397.05C27.1178 396.236 31.6373 397.08 35.4236 399.418C42.3096 406.552 48.467 414.357 53.8042 422.716C56.0909 426.357 57.1762 430.626 56.9064 434.918C55.6973 449.65 54.1242 464.353 52.5511 479.055C51.997 484.233 51.443 489.411 50.9048 494.59ZM191.775 494.86L188.333 473.901L211.655 451.817C213.635 454.759 216.029 457.399 218.763 459.656C240.753 472.546 233.988 490.455 226.103 507.269C223.927 511.909 215.61 514.693 209.583 516.168C204.706 516.603 199.79 516.169 195.064 514.887C193.965 508.197 192.883 501.606 191.775 494.86ZM328.923 180.002C330.976 181.232 333.265 182.603 335.91 184.189C326.952 193.336 321.749 204.812 316.595 216.181C310.166 230.362 303.812 244.378 290.338 253.504L286.156 251.203C286.811 244.815 287.439 238.423 288.067 232.032C289.632 216.11 291.197 200.189 293.169 184.318C294.282 175.352 310.848 169.136 318.836 173.949C321.907 175.799 324.982 177.641 328.923 180.002ZM87.4825 504.892C86.7776 515.179 80.0486 529.275 69.6593 531.498L73.8506 490.822C75.7216 472.665 77.5918 454.514 79.4742 436.246L115.572 432.129L120.648 450.935C118.014 452.989 115.167 454.869 112.347 456.73C106.063 460.879 99.9127 464.939 96.5502 470.646C91 481.236 87.9009 492.94 87.4825 504.892ZM333.255 201.658L338.95 190.551C353.677 205.596 359.387 222.006 346.199 236.303C336.026 243.82 324.591 249.453 312.435 252.937L308.765 249.431C316.878 233.605 324.991 217.78 333.255 201.658ZM279.432 200.737C278.097 205.692 276.778 210.591 276.562 215.293C275.221 211.713 273.821 208.149 272.421 204.585C268.771 195.296 265.122 186.007 262.533 176.431C261.799 173.718 263.661 170.303 265.619 166.71C266.547 165.008 267.496 163.266 268.202 161.54C286.881 173.084 283.099 187.122 279.432 200.737Z" fill="#130237"/>
<path fill-rule="evenodd" clip-rule="evenodd" d="M836.831 322.23L836.835 322.229L836.84 322.23L838.257 322.23H901.162C969.971 322.23 1020.77 386.422 1004.97 453.39L993.494 501.987L965.971 501.987L905.086 501.987H768.584L716.022 501.987L671.868 501.987L660.57 452.733C645.247 385.936 695.994 322.23 764.526 322.23L836.831 322.23Z" fill="url(#paint0_linear_743_273)"/>
<path d="M705.5 460.94C689.797 399.683 730.538 338.294 793.084 328.967L835.676 322.615C792.543 337.278 764.063 378.529 765.734 424.152L768.584 501.987L716.022 501.987L705.5 460.94Z" fill="url(#paint1_linear_743_273)"/>
<path d="M905.086 501.987L965.971 501.987L975.685 458.058C989.034 397.692 948.424 338.659 887.276 329.54L838.257 322.23L837.281 322.376C880.813 336.825 909.616 378.278 907.936 424.152L905.086 501.987Z" fill="url(#paint2_linear_743_273)"/>
<path fill-rule="evenodd" clip-rule="evenodd" d="M836.835 322.229C793.054 336.542 764.048 378.122 765.734 424.152L768.584 501.987L905.086 501.987L907.936 424.152C909.622 378.122 880.616 336.542 836.835 322.229Z" fill="url(#paint3_linear_743_273)"/>
<path d="M638.297 501.986C633.878 501.986 630.297 505.568 630.297 509.986L630.297 823.945L1042.59 823.945L1042.59 509.986C1042.59 505.568 1039.01 501.986 1034.59 501.986L638.297 501.986Z" fill="url(#paint4_linear_743_273)"/>
<path d="M956.634 909C1027.82 893.146 1077.03 863.407 1081.39 828.935C1081.73 826.196 1079.46 823.945 1076.7 823.945L600.288 823.945C597.526 823.945 595.256 826.196 595.602 828.935C599.956 863.407 649.168 893.145 720.356 909L956.634 909Z" fill="url(#paint5_linear_743_273)"/>
<path fill-rule="evenodd" clip-rule="evenodd" d="M948.774 322.135C948.097 321.657 947.161 321.819 946.684 322.496L941.367 330.027C942.317 330.413 943.259 330.812 944.194 331.225L949.135 324.226C949.612 323.549 949.451 322.613 948.774 322.135ZM717.865 322.496L723.438 330.392C722.494 330.786 721.557 331.193 720.628 331.613L715.414 324.226C714.936 323.549 715.098 322.613 715.775 322.136C716.451 321.658 717.387 321.819 717.865 322.496ZM684.865 346.496L689.503 353.066C688.781 353.782 688.069 354.508 687.368 355.244L682.414 348.226C681.937 347.549 682.098 346.613 682.775 346.136C683.452 345.658 684.387 345.819 684.865 346.496ZM662.865 379.496L667.076 385.462C666.596 386.533 666.134 387.612 665.69 388.7L660.414 381.226C659.936 380.549 660.097 379.613 660.774 379.136C661.451 378.658 662.387 378.819 662.865 379.496ZM650.865 417.496L657.832 427.366C657.81 429.124 657.833 430.891 657.9 432.664L648.414 419.226C647.936 418.549 648.098 417.613 648.775 417.136C649.451 416.658 650.387 416.819 650.865 417.496ZM1016.13 419.226L1007.84 430.976C1007.88 429.241 1007.87 427.513 1007.83 425.793L1013.68 417.496C1014.16 416.819 1015.1 416.657 1015.77 417.135C1016.45 417.613 1016.61 418.549 1016.13 419.226ZM1004.14 381.226L999.577 387.684C999.123 386.607 998.653 385.539 998.166 384.48L1001.68 379.496C1002.16 378.819 1003.1 378.657 1003.77 379.135C1004.45 379.613 1004.61 380.549 1004.14 381.226ZM982.135 348.226L977.663 354.56C976.957 353.832 976.24 353.113 975.513 352.404L979.684 346.496C980.161 345.819 981.097 345.657 981.774 346.135C982.451 346.613 982.612 347.549 982.135 348.226ZM918.684 314.496C919.162 313.819 920.098 313.658 920.774 314.136C921.451 314.613 921.613 315.549 921.135 316.226L910.865 330.775C910.387 331.452 909.451 331.613 908.774 331.136C908.098 330.658 907.936 329.722 908.414 329.045L918.684 314.496ZM787.225 327.135C787.902 326.658 788.838 326.819 789.316 327.496L799.586 342.045C800.063 342.722 799.902 343.658 799.225 344.136C798.548 344.613 797.612 344.452 797.135 343.775L786.865 329.226C786.387 328.549 786.548 327.613 787.225 327.135ZM759.316 313.496C758.838 312.819 757.902 312.658 757.225 313.136C756.548 313.613 756.387 314.549 756.865 315.226L767.135 329.775C767.612 330.452 768.548 330.613 769.225 330.136C769.902 329.658 770.063 328.722 769.586 328.045L759.316 313.496ZM726.316 337.496C725.838 336.819 724.902 336.658 724.225 337.136C723.548 337.613 723.387 338.549 723.865 339.226L734.135 353.775C734.612 354.452 735.548 354.613 736.225 354.136C736.902 353.658 737.063 352.722 736.586 352.045L726.316 337.496ZM770.316 351.496C769.838 350.819 768.902 350.658 768.225 351.135C767.548 351.613 767.387 352.549 767.865 353.226L778.135 367.775C778.612 368.452 779.548 368.613 780.225 368.136C780.902 367.658 781.063 366.722 780.586 366.045L770.316 351.496ZM758.316 383.496C757.838 382.819 756.902 382.658 756.225 383.135C755.548 383.613 755.387 384.549 755.865 385.226L766.135 399.775C766.612 400.452 767.548 400.613 768.225 400.135C768.902 399.658 769.063 398.722 768.586 398.045L758.316 383.496ZM756.316 423.496C755.838 422.819 754.902 422.658 754.225 423.136C753.548 423.613 753.387 424.549 753.865 425.226L764.135 439.775C764.612 440.452 765.548 440.613 766.225 440.136C766.902 439.658 767.063 438.722 766.586 438.045L756.316 423.496ZM704.316 370.496C703.838 369.819 702.902 369.658 702.225 370.135C701.548 370.613 701.387 371.549 701.865 372.226L712.135 386.775C712.612 387.452 713.548 387.613 714.225 387.135C714.902 386.658 715.063 385.722 714.586 385.045L704.316 370.496ZM692.316 408.496C691.838 407.819 690.902 407.658 690.225 408.135C689.548 408.613 689.387 409.549 689.865 410.226L700.135 424.775C700.612 425.452 701.548 425.613 702.225 425.136C702.902 424.658 703.063 423.722 702.586 423.045L692.316 408.496ZM882.684 327.496C883.162 326.819 884.098 326.658 884.774 327.135C885.451 327.613 885.613 328.549 885.135 329.226L874.865 343.775C874.387 344.452 873.451 344.613 872.774 344.136C872.098 343.658 871.936 342.722 872.414 342.045L882.684 327.496ZM951.684 338.496C952.162 337.819 953.098 337.658 953.774 338.135C954.451 338.613 954.613 339.549 954.135 340.226L943.865 354.775C943.387 355.452 942.451 355.613 941.774 355.135C941.098 354.658 940.936 353.722 941.414 353.045L951.684 338.496ZM903.774 351.135C903.098 350.658 902.162 350.819 901.684 351.496L891.414 366.045C890.936 366.722 891.098 367.658 891.774 368.136C892.451 368.613 893.387 368.452 893.865 367.775L904.135 353.226C904.613 352.549 904.451 351.613 903.774 351.135ZM915.774 383.136C915.098 382.658 914.162 382.819 913.684 383.496L903.414 398.045C902.936 398.722 903.098 399.658 903.774 400.135C904.451 400.613 905.387 400.452 905.865 399.775L916.135 385.226C916.613 384.549 916.451 383.613 915.774 383.136ZM917.774 423.135C917.098 422.658 916.162 422.819 915.684 423.496L905.414 438.045C904.936 438.722 905.098 439.658 905.774 440.136C906.451 440.613 907.387 440.452 907.865 439.775L918.135 425.226C918.613 424.549 918.451 423.613 917.774 423.135ZM975.775 371.136C975.098 370.658 974.162 370.819 973.684 371.496L963.414 386.045C962.936 386.722 963.098 387.658 963.775 388.135C964.451 388.613 965.387 388.452 965.865 387.775L976.135 373.226C976.613 372.549 976.451 371.613 975.775 371.136ZM985.684 409.496C986.162 408.819 987.098 408.658 987.774 409.135C988.451 409.613 988.613 410.549 988.135 411.226L977.865 425.775C977.387 426.452 976.451 426.613 975.774 426.135C975.098 425.658 974.936 424.722 975.414 424.045L985.684 409.496Z" fill="white"/>
<path fill-rule="evenodd" clip-rule="evenodd" d="M524.977 575C525.904 569.033 529.628 562.704 535.653 556.28C542.74 548.725 553.213 540.819 566.809 532.926C594.011 517.134 633.966 501.249 685.07 488.303C696.822 485.326 707.288 482.011 714.812 476.769C722.184 471.632 726.719 464.662 726.75 454.109L699.764 241.72L699.763 241.713C697.562 223.767 698.859 176.031 721.385 127.323L754.8 38.521C756.84 36.7666 758.736 35.0333 760.498 33.3169L724.638 128.616C724.623 128.656 724.606 128.696 724.588 128.735C702.342 176.803 701.106 223.9 703.237 241.283L703.237 241.286L730.236 453.779C730.245 453.852 730.25 453.926 730.25 454C730.25 465.885 725.041 473.908 716.813 479.64C708.712 485.284 697.678 488.72 685.93 491.696C635.033 504.59 595.406 520.372 568.566 535.953C555.141 543.747 544.979 551.454 538.206 558.674C532.59 564.661 529.44 570.166 528.529 575H524.977Z" fill="#FECFFE" fill-opacity="0.5"/>
<path fill-rule="evenodd" clip-rule="evenodd" d="M369.971 408.685C373.33 366.201 378.564 302.853 383.767 248.143C386.456 219.875 389.138 193.898 391.549 174.293C392.755 164.493 393.895 156.264 394.939 150.129C395.46 147.064 395.961 144.497 396.438 142.507C396.898 140.59 397.384 138.996 397.935 138.049C398.554 136.987 399.566 135.825 400.817 134.603C402.089 133.362 403.691 131.982 405.563 130.492C409.309 127.511 414.209 124.036 419.877 120.28C431.217 112.765 445.714 104.075 460.387 95.8933C475.059 87.712 489.933 80.0248 502.032 74.5219C508.078 71.7717 513.455 69.5558 517.779 68.0971C519.94 67.368 521.862 66.8199 523.487 66.4908C524.504 66.2846 526.386 66.2672 527.905 66.329C524.578 67.7083 521.315 69.3645 518.123 71.3924C517.923 71.5195 517.723 71.648 517.523 71.778C513.517 73.1906 508.632 75.2212 503.142 77.7185C491.135 83.1797 476.332 90.8281 461.703 98.9856C447.074 107.143 432.644 115.794 421.383 123.257C415.75 126.989 410.929 130.412 407.279 133.316C405.453 134.769 403.938 136.078 402.767 137.221C401.576 138.383 400.819 139.299 400.436 139.957C400.186 140.386 399.803 141.474 399.336 143.418C398.887 145.289 398.403 147.761 397.888 150.786C396.86 156.834 395.728 164.994 394.525 174.772C392.12 194.323 389.442 220.258 386.755 248.515C381.626 302.437 376.467 364.764 373.105 407.214C372.046 407.709 371.001 408.199 369.971 408.685Z" fill="#FECFFE" fill-opacity="0.5"/>
<path fill-rule="evenodd" clip-rule="evenodd" d="M319.036 575C319.577 558.538 311.43 531.074 304.447 507.533C298.796 488.484 293.907 472.004 295 466C298.391 447.365 314.275 433.468 392.652 398.271C464.329 366.084 464.329 277.992 464.329 277.992C464.329 277.992 470.143 130.262 499.012 89.9492C516.522 65.4977 537.175 62.2943 559.488 58.8334C573.962 56.5884 589.135 54.2351 604.6 45.9033C619.004 38.1432 637.03 26.7828 652.531 5.99963H688.232C687.16 8.77173 685.774 11.7592 684.094 14.9239C678.353 25.7328 669.299 38.3807 658.081 51.22C635.639 76.9063 604.75 103.119 574.938 116.768C559.373 123.893 549.379 139.294 542.849 158.995C536.323 178.684 533.18 202.887 531.424 228.012C530.214 245.319 529.658 263.163 529.122 280.335L529.122 280.336L529.122 280.339C528.881 288.088 528.643 295.701 528.352 303.065C527.412 326.84 525.912 347.994 521.964 363.244C514.182 393.305 491.846 405.682 466.317 415.708C461.984 417.41 457.548 419.048 453.085 420.696L453.085 420.696L453.084 420.696C444.508 423.862 435.837 427.064 427.617 430.823C415.074 436.558 403.339 443.686 394.116 454.243C379.367 471.124 372.28 495.334 368.853 518.288C365.598 540.095 365.615 561.004 365.625 573.843C365.625 574.067 365.626 574.498 365.626 575H319.036ZM368.631 575C368.631 574.633 368.631 574.258 368.631 573.877V573.871C368.621 561.026 368.605 540.376 371.816 518.868C375.201 496.188 382.14 472.815 396.241 456.675C405.05 446.593 416.356 439.676 428.732 434.017C436.864 430.298 445.355 427.164 453.864 424.023L453.866 424.023C458.353 422.367 462.845 420.709 467.293 418.962C492.853 408.923 516.599 396.075 524.845 364.221C528.912 348.513 530.416 326.957 531.355 303.221C531.648 295.787 531.887 288.137 532.129 280.367L532.129 280.365C532.663 263.23 533.215 245.517 534.419 228.287C536.169 203.249 539.287 179.439 545.659 160.215C552.026 141.005 561.566 126.594 576.054 119.961C606.349 106.092 637.569 79.562 660.206 53.6522C671.529 40.6935 680.757 27.83 686.662 16.7105C688.662 12.9432 690.296 9.34998 691.5 5.99963H778.772C774.419 18.9961 764.762 31.6221 745.53 45.9033C742.006 48.5198 737.868 51.1495 733.341 54.0266C706.179 71.2871 665.003 97.4529 658.439 183.123C653.175 251.812 653.407 289.091 653.683 333.431C653.748 343.769 653.814 354.49 653.814 366.084C653.814 413.174 647.905 416.411 621.074 431.109C612.968 435.55 602.953 441.036 590.615 449.093C584.28 453.231 578.154 457.066 572.277 460.744C529.004 487.834 499.257 506.456 499.013 575H368.631Z" fill="#FECFFE" fill-opacity="0.5"/>
<path d="M597.743 621.086H563.269V586.521C563.269 583.466 562.058 580.535 559.903 578.375C557.748 576.214 554.825 575 551.778 575H264.491C261.444 575 258.521 576.214 256.366 578.375C254.211 580.535 253 583.466 253 586.521V816.95C253 841.395 262.686 864.839 279.926 882.125C297.167 899.41 320.55 909.121 344.932 909.121H471.338C495.719 909.121 519.102 899.41 536.343 882.125C553.584 864.839 563.269 841.395 563.269 816.95V805.428H597.743C622.125 805.428 645.508 795.718 662.749 778.432C679.989 761.147 689.675 737.702 689.675 713.257C689.675 688.812 679.989 665.368 662.749 648.082C645.508 630.797 622.125 621.086 597.743 621.086ZM646.467 762.108C633.549 775.076 616.024 782.369 597.743 782.386H563.269V644.129H597.743C611.371 644.141 624.69 648.201 636.018 655.798C647.345 663.395 656.173 674.187 661.387 686.811C666.6 699.435 667.965 713.325 665.31 726.727C662.655 740.128 656.098 752.44 646.467 762.108Z" fill="url(#paint6_linear_743_273)"/>
<path fill-rule="evenodd" clip-rule="evenodd" d="M1248 0H0V921H1248V0ZM139 6C69.9644 6 14 61.9644 14 131V909H1234V131C1234 61.9644 1178.04 6 1109 6H139Z" fill="#F7F3FF"/>
<path fill-rule="evenodd" clip-rule="evenodd" d="M1237.5 912.5H10.5V131C10.5 60.0314 68.0314 2.5 139 2.5H1109C1179.97 2.5 1237.5 60.0314 1237.5 131V912.5ZM139 6C69.9644 6 14 61.9644 14 131V909H1234V131C1234 61.9644 1178.04 6 1109 6H139Z" fill="#F7F3FF"/>
<defs>
<linearGradient id="paint0_linear_743_273" x1="833.018" y1="322.36" x2="842.494" y2="522.028" gradientUnits="userSpaceOnUse">
<stop stop-color="#23D9B7"/>
<stop offset="1" stop-color="#1879B2"/>
</linearGradient>
<linearGradient id="paint1_linear_743_273" x1="838.257" y1="322.231" x2="838.257" y2="902.985" gradientUnits="userSpaceOnUse">
<stop stop-color="#23D9B7"/>
<stop offset="1" stop-color="#1879B2"/>
</linearGradient>
<linearGradient id="paint2_linear_743_273" x1="838.257" y1="322.231" x2="838.257" y2="902.985" gradientUnits="userSpaceOnUse">
<stop stop-color="#23D9B7"/>
<stop offset="1" stop-color="#1879B2"/>
</linearGradient>
<linearGradient id="paint3_linear_743_273" x1="836.835" y1="419.407" x2="836.835" y2="902.983" gradientUnits="userSpaceOnUse">
<stop stop-color="#23D9B7"/>
<stop offset="1" stop-color="#1879B2"/>
</linearGradient>
<linearGradient id="paint4_linear_743_273" x1="768" y1="502" x2="1041.12" y2="789.667" gradientUnits="userSpaceOnUse">
<stop stop-color="#AA86F8"/>
<stop offset="1" stop-color="#784EF1"/>
</linearGradient>
<linearGradient id="paint5_linear_743_273" x1="838" y1="800" x2="901.742" y2="965.239" gradientUnits="userSpaceOnUse">
<stop stop-color="#AA86F8"/>
<stop offset="1" stop-color="#784EF1"/>
</linearGradient>
<linearGradient id="paint6_linear_743_273" x1="500" y1="652" x2="258.241" y2="850.561" gradientUnits="userSpaceOnUse">
<stop stop-color="#F98E6C"/>
<stop offset="1" stop-color="#F56644"/>
</linearGradient>
</defs>
</svg>
