<svg width="1294" height="945" viewBox="0 0 1294 945" fill="none" xmlns="http://www.w3.org/2000/svg">
<g clip-path="url(#clip0_743_273)">
<path fill-rule="evenodd" clip-rule="evenodd" d="M417.787 6H108.161C70.3849 6 36.202 21.377 11.535 46.2107C12.597 46.4583 13.6576 46.7055 14.7176 46.9525C19.3458 48.0312 23.9609 49.1068 28.6141 50.1951C24.0701 56.5128 21.5348 63.2789 19.4872 70.3765C15.5868 83.7138 22.2369 95.2767 30.6228 101.107C41.8169 108.868 54.3371 113.04 67.7935 115.049C73.9756 124.701 73.4295 136.01 65.9213 146.325C65.3863 146.121 64.8326 145.928 64.2718 145.732C63.1152 145.328 61.9282 144.914 60.8118 144.375C48.8571 138.642 36.1028 135.581 22.9585 134.879C2.33472 133.749 -15.2053 140.328 -28 157.143V323.833C-25.6146 324.051 -23.214 324.135 -20.7845 324.078C-21.5749 331.693 -24.1455 339.076 -28 345.517V375.945C-23.5568 371.308 -19.3563 366.426 -15.2654 361.477C-13.1777 358.919 -11.7994 355.73 -10.4369 352.577C-9.99201 351.548 -9.54882 350.522 -9.08323 349.524C-7.5358 346.221 -6.04714 342.902 -4.55881 339.584C-2.83972 335.75 -1.12109 331.918 0.687231 328.114C2.65697 323.902 5.79672 320.802 10.2626 318.969C12.7504 317.94 15.1163 316.65 17.7265 315.228C19.0245 314.52 20.383 313.78 21.8469 313.022C24.5668 315.083 27.1853 317.268 29.796 319.447C37.93 326.235 45.9875 332.959 56.7944 335.66C58.3917 338.985 59.983 342.285 61.5718 345.581C64.0177 350.654 66.4578 355.715 68.9051 360.833C65.3167 364.733 61.2409 367.463 56.5019 369.296C55.4983 369.678 54.4937 370.059 53.4887 370.44C48.4984 372.331 43.5014 374.225 38.5991 376.335C30.6228 379.747 22.5684 383.257 20.3647 393.046C18.913 393.158 17.5114 393.245 16.1465 393.329C13.2576 393.507 10.5331 393.676 7.84445 394.06C-7.24174 396.204 -19.2258 403.683 -28 415.78V579.745C-25.7516 577.586 -23.482 575.412 -21.1793 573.206L-18.9512 571.071C-15.8713 574.357 -12.7952 577.556 -9.75233 580.72C-3.02667 587.715 3.53663 594.54 9.61912 601.763C19.6432 613.637 22.5489 627.774 20.5207 643.218C19.2141 653.318 15.8208 662.658 11.1793 671.452C2.14976 688.5 -7.16355 705.387 -16.4858 722.291C-18.8818 726.636 -21.2783 730.981 -23.6707 735.331C-24.4373 736.742 -25.3483 738.077 -26.4272 739.659C-26.9162 740.376 -27.4397 741.144 -28 741.992V913H89.4281C90.4527 906.541 91.6423 900.101 93.0095 893.682C97.2804 873.539 103.716 854.177 113.643 836.004C117.309 829.335 122.243 824.168 128.679 820.132C147.83 808.198 168.56 803.499 190.909 806.677C206.784 808.939 222.737 809.797 238.709 808.666C250.332 807.828 262.014 806.365 272.603 800.886C285.435 794.276 296.883 785.774 306.127 774.563C308.287 771.952 310.454 769.369 312.612 766.797C314.097 765.027 315.577 763.263 317.048 761.498C317.465 761.613 317.823 761.72 318.149 761.818C318.602 761.954 318.992 762.071 319.388 762.161C330.056 764.93 340.724 766.607 351.859 764.579C365.023 762.142 376.88 756.877 387.86 749.545C393.184 745.997 398.352 744.866 404.631 746.484C413.466 748.804 422.554 749.097 431.642 748.512C439.91 747.966 447.555 745.353 454.498 741.024C459.237 738.041 462.767 733.966 464.97 728.662C470.158 716.066 466.16 698.127 454.517 689.196C449.681 685.491 444.162 682.293 438.487 680.051C433.514 678.068 428.302 676.664 422.964 675.227C420.535 674.574 418.081 673.913 415.611 673.187C409.448 659.655 400.185 648.658 384.31 643.783C392.931 635.461 397.905 625.529 402.876 615.605C403.123 615.111 403.37 614.618 403.617 614.125C403.921 613.526 404.222 612.921 404.523 612.312C406.138 609.058 407.784 605.74 410.15 603.128C426.513 585.072 446.249 576.355 470.002 581.952C471.728 583.801 473.341 585.651 474.916 587.457C478.288 591.324 481.484 594.988 485.233 598.019C501.459 611.2 520.414 617.479 541.282 618.356C552.378 618.805 563.065 616.738 573.752 614.066C585.922 611.025 596.121 604.863 604.546 595.601C605.457 594.56 606.39 593.54 607.288 592.557C607.601 592.215 607.91 591.878 608.212 591.545C623.034 593.573 637.426 594.138 651.916 591.194C667.693 587.996 681.618 581.191 693.885 570.837C698.409 566.976 702.972 563.545 708.96 561.77C713.62 560.386 718.165 557.656 722.046 554.614C729.749 548.589 733.727 540.848 730.178 530.747C730.059 530.377 730.164 529.908 730.281 529.389C730.336 529.143 730.394 528.885 730.431 528.622C731.5 528.363 732.563 528.117 733.622 527.871C735.597 527.413 737.557 526.959 739.5 526.438C745.565 524.839 751.123 522.168 755.881 517.995C763.799 511.053 766.802 502.181 763.936 492.198C761.907 485.178 758.397 478.549 753.229 472.991C744.122 463.164 733.24 456.047 720.505 452.069C715.726 450.565 710.821 449.443 705.794 448.293C703.456 447.758 701.092 447.217 698.702 446.629C698.27 445.992 697.839 445.305 697.393 444.596C696.53 443.222 695.615 441.766 694.548 440.428C683.919 427.013 671.126 415.996 656.597 407.065C640.332 397.082 622.546 392.129 603.512 392.539C589.101 392.87 575.195 396.282 561.895 401.859C557.088 403.876 552.329 406.049 547.349 408.323C545.299 409.26 543.211 410.213 541.067 411.18C523.028 403.595 503.955 402.152 484.277 407.845C482.756 393.514 482.386 380.098 487.008 367.56C492.098 365.182 496.564 363.115 500.991 361.087C517.353 374.483 536.367 378.363 556.279 375.73C576.268 373.098 593.995 364.421 608.232 349.231C609.492 349.231 610.753 349.248 612.014 349.265C614.812 349.303 617.606 349.34 620.362 349.192C621.79 349.119 623.218 349.053 624.644 348.987C630.834 348.7 637.003 348.414 643.121 347.574C654.022 346.092 664.534 343.226 673.739 336.596C684.641 328.738 690.472 309.746 680.974 296.331C672.861 284.846 663.228 275.194 650.298 269.149C649.239 268.641 648.231 268.041 647.193 267.423C646.797 267.187 646.397 266.949 645.988 266.712C646.339 252.126 638.772 241.695 629.235 232.179C619.582 222.586 608.583 215.995 593.996 217.223C593.236 215.626 592.488 214.081 591.755 212.569C590.118 209.188 588.559 205.97 587.131 202.697C581.943 190.9 574.806 180.585 564.118 173.156C549.57 163.016 533.149 161.554 516.163 163.562C504.754 164.888 493.697 167.774 482.912 171.713C478.466 173.351 474.156 173.37 469.671 171.966C464.893 170.484 460.056 169.178 455.161 168.086C442.485 165.22 429.574 164.303 416.82 166.76C394.646 171.05 379.454 184.66 368.943 204.12C367.998 205.871 367.132 207.681 366.197 209.635C365.82 210.423 365.432 211.235 365.023 212.076C363.201 212.076 361.382 212.009 359.574 211.944C355.576 211.798 351.63 211.654 347.803 212.232C336.453 213.928 325.805 218.179 315.507 223.093C299.789 230.58 291.813 243.722 290.955 260.55C290.233 274.765 296.961 286.23 307.96 295.141C308.969 295.961 309.994 296.772 311.035 297.596C311.604 298.047 312.179 298.501 312.758 298.963C295.966 317.994 274.729 327.003 250.936 331.76C251.518 329.363 252.107 326.979 252.694 324.605C254.156 318.694 255.605 312.836 256.885 306.938C260.648 289.896 263.086 272.737 261.39 255.188C261.117 252.516 261.916 249.553 262.872 246.979C266.694 236.839 273.325 228.942 282.452 223.073L283.081 222.673C289.521 218.576 295.952 214.484 302.11 210.009C310.612 203.828 315.449 195.209 317.146 184.894C317.472 182.871 317.519 180.804 317.567 178.688C317.59 177.643 317.614 176.585 317.672 175.515C318.371 174.615 319.071 173.714 319.773 172.81C321.52 170.562 323.277 168.3 325.044 166.019C337.252 168.905 349.207 169.685 361.376 167.501C373.584 165.317 384.681 160.91 394.334 153.072C408.259 154.164 421.715 153.559 433.689 145.428C445.703 137.258 451.846 124.993 456.214 113.118C479.226 114.288 496.291 91.1234 496.564 72.4629C496.778 58.2287 487.456 46.9973 474.702 39.6657C466.14 34.7324 456.916 31.6516 447.243 29.9747C443.421 29.325 439.591 28.7752 435.888 28.2438C433.923 27.9617 431.994 27.6848 430.12 27.4008C429.099 25.4904 428.131 23.6162 427.18 21.7769C425.171 17.8905 423.242 14.16 421.072 10.5732C420.068 8.9153 418.972 7.39022 417.787 6ZM363.989 608.938C361.084 615.763 355.818 620.501 348.953 624.05C347.148 622.283 345.407 620.543 343.698 618.835C340.183 615.322 336.804 611.945 333.274 608.743C321.28 597.882 307.161 591.935 291.111 589.42C270.282 586.183 252.341 592.13 236.486 604.863C230.83 609.426 224.921 610.849 218.154 611.259C202.357 612.214 187.614 616.601 175.132 626.702C170.53 630.426 166.376 634.794 162.671 639.376C159.843 642.886 156.859 644.602 152.354 644.465C148.844 644.368 145.197 644.738 141.764 645.538C124.369 649.574 108.26 656.34 94.7062 668.391C87.978 674.377 82.8685 681.65 79.5727 689.84C73.5076 704.932 75.8283 719.185 86.0278 732.016C86.7695 732.958 87.576 733.861 88.4629 734.853C88.952 735.4 89.4656 735.974 90.0062 736.598C68.7686 748.122 47.882 759.47 25.6692 771.54C25.9153 770.228 26.1063 769.095 26.2767 768.085C26.5922 766.214 26.8368 764.763 27.2294 763.37C38.1115 724.197 53.3815 686.837 73.4685 651.446C74.9702 648.794 76.8229 646.162 79.0266 644.095C87.9195 635.71 97.6315 628.359 109.235 624.147C119.321 620.466 129.447 616.89 139.577 613.313C149.407 609.841 159.242 606.368 169.048 602.796C183.674 597.473 197.053 590.2 208.832 579.592C225.428 564.617 244.813 555.082 267.377 552.196C289.277 549.369 311.081 550.305 332.981 551.845C341.855 552.489 350.435 549.934 358.743 546.971C370.971 542.622 381.775 535.642 392.365 528.291C393.093 527.772 393.83 527.261 394.634 526.703C395.1 526.38 395.587 526.042 396.109 525.678L396.114 525.68C397.692 526.615 399.27 527.551 401.296 528.739C400.687 529.647 400.097 530.524 399.521 531.38C398.141 533.43 396.842 535.36 395.563 537.299C386.748 550.734 380.566 565.358 375.281 580.47C371.888 590.102 367.948 599.54 363.989 608.938ZM144.668 571.258C143.376 571.654 141.923 572.095 140.068 572.67C140.797 571.191 141.489 569.785 142.157 568.429C144.043 564.598 145.737 561.158 147.537 557.558C157.854 557.129 166.629 553.444 172.675 544.865C178.311 536.831 181.49 527.998 180.437 517.469C181.337 517.196 182.249 516.925 183.165 516.654C184.67 516.207 186.189 515.757 187.692 515.285C197.092 512.36 205.965 508.382 213.454 501.791C230.947 486.387 228.08 462.676 208.442 450.587C198.827 444.679 188.062 442.826 177.024 442.202C174.361 442.06 171.698 442.098 168.827 442.14C167.388 442.161 165.897 442.183 164.328 442.183C164.542 441.439 164.706 440.763 164.856 440.145C165.159 438.899 165.406 437.882 165.888 436.996C173.533 422.606 182.251 409.035 194.556 398.076C199.014 394.107 203.371 390.038 207.729 385.97C209.473 384.342 211.216 382.714 212.966 381.093C216.65 377.691 220.313 374.267 224.108 370.721C226.621 368.373 229.191 365.971 231.864 363.485C245.83 360.986 258.997 355.376 272.396 349.667C280.532 346.201 288.753 342.698 297.293 339.833C303.787 345.527 309.501 351.61 312.251 360.151C316.463 373.293 317.009 386.786 316.327 400.436C316.288 401.372 303.143 459.498 267.494 460.863C267.355 458.03 267.254 455.238 267.154 452.476C266.93 446.267 266.71 440.214 266.089 434.208C264.744 421.904 260.687 410.497 252.126 401.196C249.396 398.252 246.198 395.697 242.882 393.416C239.723 391.252 233.365 389.672 232.488 394.508C232.375 395.11 233.396 396.36 234.979 398.299C240.268 404.78 251.839 418.956 248.401 442.339C244.325 470.203 234.613 493.914 218.719 516.084C209.534 528.934 199.003 540.594 188.101 551.962C182.953 557.325 176.966 561.38 169.438 563.213C164.219 564.511 159.137 566.305 154.061 568.097C151.74 568.916 149.42 569.735 147.088 570.506C146.305 570.754 145.521 570.996 144.668 571.258ZM376.529 442.729C367.714 450.256 361.805 458.991 363.619 470.964C362.104 472.177 360.627 473.307 359.201 474.399C355.906 476.92 352.879 479.235 350.28 481.902C347.647 484.535 345.404 487.967 344.234 491.437C341.952 498.399 342.771 505.282 348.271 510.683C350.428 512.826 352.854 514.691 355.409 516.655C356.62 517.586 357.86 518.539 359.114 519.555C358.748 519.818 358.383 520.121 358.008 520.431C357.244 521.065 356.442 521.73 355.525 522.148C347.686 525.736 339.553 528.466 330.836 528.252C325.799 528.12 320.771 527.882 315.743 527.643C310.299 527.384 304.854 527.125 299.399 527.004C298.139 526.975 296.88 526.945 295.619 526.915C278.792 526.512 261.914 526.109 245.222 529.519C244.829 529.602 244.399 529.584 243.773 529.557C243.374 529.54 242.896 529.519 242.297 529.519C243.233 527.784 243.916 526.477 244.637 525.19C249.903 515.753 256.631 507.427 263.905 499.51C265.777 497.443 268.059 495.552 270.516 494.187C277.381 490.385 284.285 486.582 291.442 483.404C311.12 474.688 324.03 459.947 331.655 440.097C333.274 435.943 335.517 431.927 338.032 428.261C341.64 422.957 345.482 417.692 349.831 413.013C352.659 409.951 356.423 407.592 360.108 405.564C362.675 404.149 365.396 403.006 368.115 401.863C370.23 400.974 372.344 400.086 374.384 399.071C378.869 396.848 383.199 394.332 387.431 391.72C398.703 384.797 403.773 374.151 405.099 361.399C405.25 359.903 405.506 358.416 405.805 356.681C405.97 355.724 406.148 354.692 406.328 353.541C408.598 355.184 410.791 356.878 412.96 358.553C420.519 364.39 427.782 370 436.966 372.455C437.197 373.872 437.388 375.294 437.578 376.715C437.983 379.732 438.387 382.739 439.169 385.656C441.529 394.489 445.858 402.444 451.3 409.776C452.948 411.955 454.46 414.253 455.997 416.588C456.715 417.678 457.439 418.777 458.184 419.876C456.466 421.326 454.789 422.737 453.133 424.131C450.089 426.692 447.115 429.194 444.084 431.771C431.544 430.542 418.712 429.665 405.86 430.874C394.939 431.888 385.012 435.436 376.529 442.729ZM211.041 261.539C210.341 260.998 209.602 260.427 208.812 259.809C207.779 233.583 194.888 216.677 169.321 210.009C169.063 208.103 168.82 206.25 168.58 204.432C168.186 201.43 167.803 198.52 167.39 195.618C163.841 171.108 149.565 155.724 126.553 147.963C122.262 146.54 117.758 145.799 113.175 147.086C111.657 147.525 110.103 147.809 108.445 148.113C107.674 148.255 106.88 148.4 106.056 148.567C105.953 146.072 105.852 143.603 105.751 141.137C105.527 135.683 105.303 130.244 105.062 124.564C108.552 125.083 112.099 125.602 115.685 126.127C119.915 126.745 124.197 127.372 128.503 128.016C147.557 145.955 148.2 146.306 182.797 158.551C182.864 159.025 182.923 159.529 182.983 160.051C183.096 161.032 183.217 162.076 183.421 163.094C183.657 164.309 183.854 165.537 184.051 166.764C184.538 169.792 185.024 172.816 186.092 175.632C192.743 193.24 199.939 210.633 211.64 225.666C214.546 229.43 217.783 232.979 221.176 236.332C232.332 247.525 237.656 260.94 237.87 276.754C238.182 301.888 229.27 323.337 212.81 341.841C207.967 346.372 203.408 350.498 199.077 354.418C182.546 369.38 169.323 381.348 156.235 401.372C153.001 399.565 152.217 396.701 151.42 393.792L151.359 393.572C149.164 385.792 150.639 378.125 152.104 370.517L152.159 370.232C153.037 365.825 154.402 361.418 156.176 357.304C160.681 346.852 161.578 336.265 157.815 325.014C168.638 324.799 178.896 323.181 189.018 320.47C196.897 318.364 204.249 315.108 211.152 310.721C216.477 307.309 220.611 302.804 223.263 296.974C228.626 285.177 223.439 271.801 215.599 265.171C214.193 263.973 212.729 262.842 211.041 261.539ZM343.61 395.249C342.947 371.909 339.67 349.758 326.936 329.927C329.363 326.824 331.671 323.855 334.007 320.85C335.444 319.002 336.891 317.14 338.383 315.225C347.626 317.808 357.326 318.242 367.116 318.68C370.112 318.814 373.117 318.948 376.119 319.144C384.388 329.869 389.985 341.549 389.049 355.257C388.23 367.404 382.848 376.978 371.127 382.263C364.909 385.063 358.755 388.011 352.413 391.049C349.526 392.432 346.599 393.834 343.61 395.249ZM121.063 400.131C121.011 400.762 120.955 401.443 120.897 402.191C102.058 397.433 84.4287 397.394 67.5205 407.299C66.0664 406.631 64.5969 405.955 63.1179 405.273C60.1933 403.926 57.2316 402.562 54.2786 401.216C54.1226 396.77 55.7803 393.748 58.452 391.213C66.7989 383.257 76.4524 378.09 88.3096 377.934C94.0626 373.995 95.1937 370.875 93.0486 364.889C92.4331 363.169 91.8144 361.452 91.1964 359.738C90.287 357.214 89.3791 354.695 88.4851 352.176C87.4204 349.172 86.3885 346.157 85.2914 342.952C84.9215 341.871 84.5442 340.769 84.1556 339.638C93.7701 337.785 103.229 335.992 114.052 333.944C122.341 335.348 127.411 341.354 129.244 350.772C130.473 357.031 130.375 362.881 127.704 368.847C123.94 377.329 121.599 386.279 121.346 395.678C121.317 397.048 121.205 398.407 121.063 400.131ZM243.565 223.482C220.728 210.867 210.216 189.535 202.981 164.401C213.785 166.077 223.731 166.623 233.911 164.147C234.152 164.743 234.415 165.311 234.67 165.864C235.116 166.831 235.542 167.755 235.803 168.71C237.87 176.451 242.98 181.462 250.078 184.602C263.652 190.549 277.635 191.699 291.969 187.936C292.421 187.816 292.883 187.76 293.69 187.662C294.064 187.616 294.513 187.562 295.069 187.487C290.935 191.928 286.415 194.901 282.031 197.786C280.831 198.575 279.642 199.358 278.473 200.162C274.938 202.595 271.334 204.938 267.733 207.28C265.535 208.71 263.337 210.139 261.156 211.588C256.849 214.459 252.575 217.362 248.095 220.406C246.611 221.415 245.103 222.439 243.565 223.482ZM143.574 765.644C141.888 765.47 140.108 765.285 138.196 765.047C139.533 764.012 140.773 763.009 141.961 762.047C144.377 760.092 146.581 758.309 148.961 756.779C153.495 753.929 158.273 751.454 163.037 748.987L163.314 748.843C167.8 746.504 172.031 746.816 176.926 748.902C188.92 753.972 201.148 758.768 213.61 762.61C219.068 764.28 224.793 765.072 230.526 765.865C233.294 766.248 236.063 766.631 238.806 767.114C240.096 767.329 241.377 767.634 242.948 768.008C243.8 768.211 244.738 768.434 245.807 768.674C245.181 769.28 244.671 769.802 244.228 770.255C243.374 771.129 242.769 771.748 242.063 772.223C230.654 780.198 217.822 780.237 204.97 777.858C194.017 775.821 183.133 773.449 172.241 771.075C165.718 769.654 159.192 768.231 152.647 766.88C149.786 766.287 146.858 765.984 143.574 765.644ZM66.4036 593.797C65.954 593.948 65.5007 594.1 65.0437 594.256C57.7695 583.648 50.6707 573.294 43.455 562.765C43.6881 562.819 43.9362 562.874 44.1946 562.931C45.0385 563.118 45.9915 563.329 46.8874 563.642C60.6362 568.205 74.5802 570.447 89.1092 568.517C92.4227 568.076 95.8185 568.184 99.3282 568.296C100.941 568.348 102.578 568.4 104.243 568.4C103.847 569.214 103.475 569.997 103.115 570.757C102.283 572.509 101.511 574.134 100.654 575.712C97.9436 580.704 94.2576 584.155 88.4071 585.696C84.1931 586.812 80.1331 588.472 76.0727 590.132C74.1764 590.908 72.28 591.683 70.3678 592.403C69.0793 592.901 67.758 593.344 66.4036 593.797ZM417.999 563.871C416.078 564.87 414.095 565.901 412.003 566.937C415.806 554.614 421.169 544.845 430.94 538.703C434.499 541.412 437.918 544.018 441.298 546.594C443.807 548.507 446.294 550.403 448.803 552.313C446.891 552.895 444.958 553.441 443.021 553.989C438.657 555.223 434.27 556.463 430.043 558.124C426.003 559.71 422.147 561.715 417.999 563.871ZM464.19 379.452C463.76 384.131 463.322 388.894 461.402 393.65C456.292 386.786 454.849 379.942 453.991 372.455C455.04 371.459 456.131 370.434 457.256 369.376C458.18 368.508 459.128 367.617 460.095 366.703C461.987 367.131 463.781 367.521 466.082 368.048C464.898 371.758 464.547 375.577 464.19 379.452Z" fill="#130237"/>
<path fill-rule="evenodd" clip-rule="evenodd" d="M1367 -82H-73V1018H1367V-82ZM162 6C92.9644 6 37 61.9644 37 131V909H1257V131C1257 61.9644 1201.04 6 1132 6H162Z" fill="#F7F3FF"/>
<path fill-rule="evenodd" clip-rule="evenodd" d="M563.958 173.975C567.316 216.162 572.557 279.156 577.767 333.551C580.456 361.622 583.137 387.417 585.549 406.885C586.755 416.616 587.895 424.787 588.938 430.879C589.46 433.923 589.961 436.472 590.438 438.449C590.898 440.352 591.384 441.935 591.935 442.875C592.554 443.929 593.565 445.084 594.817 446.297C596.089 447.529 597.691 448.9 599.563 450.379C603.309 453.339 608.208 456.79 613.877 460.52C625.217 467.982 639.714 476.611 654.386 484.736C669.059 492.86 683.933 500.493 696.032 505.957C702.078 508.688 707.455 510.889 711.779 512.337C713.94 513.061 715.862 513.605 717.487 513.932C718.504 514.137 720.386 514.154 721.905 514.093C718.37 512.638 714.907 510.871 711.524 508.682C707.518 507.28 702.632 505.263 697.142 502.783C685.135 497.36 670.332 489.765 655.703 481.665C641.074 473.565 626.644 464.974 615.382 457.564C609.75 453.857 604.929 450.459 601.279 447.575C599.453 446.132 597.938 444.832 596.767 443.697C595.576 442.543 594.819 441.634 594.436 440.98C594.186 440.554 593.803 439.474 593.336 437.544C592.887 435.686 592.403 433.231 591.888 430.227C590.86 424.221 589.728 416.118 588.525 406.409C586.12 386.995 583.442 361.242 580.755 333.182C575.622 279.589 570.458 217.634 567.095 175.479C566.033 174.973 564.988 174.472 563.958 173.975Z" fill="#FECFFE" fill-opacity="0.5"/>
<path fill-rule="evenodd" clip-rule="evenodd" d="M495.707 115.503C493.241 102.045 489.541 36.1585 488 7H716.792C716.792 85.055 731.435 99.5221 784.615 134.008C796.953 142.009 806.968 147.456 815.074 151.866C841.905 166.461 847.814 169.676 847.814 216.436C847.814 227.948 847.748 238.595 847.683 248.861C847.407 292.89 847.175 329.908 852.439 398.116C859.003 483.187 900.179 509.169 927.341 526.309C931.868 529.166 936.006 531.777 939.53 534.376C958.762 548.557 968.419 561.095 972.772 574H885.5C884.296 570.673 882.662 567.105 880.662 563.364C874.757 552.322 865.529 539.549 854.206 526.681C831.569 500.953 800.349 474.608 770.054 460.836C755.566 454.249 746.026 439.94 739.659 420.864C733.287 401.775 730.169 378.131 728.419 353.269C727.215 336.159 726.663 318.57 726.129 301.555C725.887 293.839 725.648 286.241 725.355 278.859C724.416 255.289 722.912 233.884 718.845 218.286C710.599 186.655 686.853 173.897 661.292 163.928C656.845 162.194 652.353 160.547 647.866 158.903L647.864 158.902L647.864 158.902L647.863 158.902C639.354 155.783 630.864 152.671 622.732 148.979C610.356 143.359 599.05 136.491 590.241 126.479C576.14 110.452 569.201 87.2426 565.816 64.7217C562.605 43.3638 562.621 22.8584 562.63 10.1038C562.631 9.42652 562.631 8.77109 562.631 8.13855H559.626C559.626 8.77871 559.626 9.44333 559.625 10.1313C559.615 22.8804 559.598 43.643 562.853 65.297C566.28 88.0906 573.367 112.131 588.116 128.894C597.339 139.377 609.074 146.455 621.617 152.151C629.837 155.883 638.509 159.062 647.085 162.206C651.547 163.843 655.984 165.469 660.317 167.159C685.846 177.115 708.182 189.405 715.964 219.256C719.912 234.399 721.412 255.405 722.352 279.014C722.643 286.327 722.881 293.888 723.122 301.583L723.122 301.585C723.658 318.637 724.214 336.356 725.423 353.541C727.18 378.491 730.323 402.524 736.849 422.075C743.379 441.639 753.373 456.931 768.938 464.007C798.75 477.56 829.639 503.59 852.081 529.096C863.299 541.846 872.353 554.405 878.094 565.138C879.774 568.281 881.16 571.247 882.232 574H846.531C831.03 553.362 813.005 542.081 798.6 534.376C783.135 526.102 767.962 523.765 753.488 521.536C731.175 518.099 710.522 514.918 693.012 490.638C664.143 450.607 658.329 303.912 658.329 303.912C658.329 303.912 658.329 216.436 586.652 184.474C508.274 149.524 499.098 134.008 495.707 115.503Z" fill="#FECFFE" fill-opacity="0.5"/>
<path fill-rule="evenodd" clip-rule="evenodd" d="M953.899 546.299C953.889 546.275 953.878 546.25 953.868 546.225C952.396 542.753 950.287 537.73 947.739 531.528C942.641 519.124 935.787 502.008 928.758 483.16C914.67 445.381 899.988 400.916 897.212 373.42C895.831 359.745 897.017 338.272 899.479 313.416C901.935 288.607 905.644 260.596 909.25 233.917C909.636 231.068 910.02 228.234 910.401 225.421L910.401 225.419C913.587 201.909 916.578 179.84 918.398 162.505C919.417 152.804 920.076 144.534 920.192 138.3C920.25 135.187 920.175 132.527 919.929 130.426C919.694 128.426 919.271 126.576 918.39 125.427C913.784 119.416 903.172 108.518 890.434 97.4398C877.706 86.3707 862.728 75.0107 849.321 68.0986C846.742 66.4229 842.642 64.3644 837.835 61.9511L837.835 61.9511L837.834 61.951C836.234 61.1476 834.556 60.3048 832.829 59.4238C825.798 55.8368 817.821 51.5483 810.551 46.5021C803.262 41.4436 796.797 35.7 792.697 29.2544C788.633 22.8669 786.926 15.8636 788.968 8.05613L786.088 7.08276C783.722 16.1259 785.781 24.2131 790.261 31.2558C794.705 38.2405 801.563 44.2667 808.984 49.4172C816.423 54.58 824.541 58.9398 831.598 62.5399C833.411 63.465 835.145 64.3358 836.777 65.155C841.56 67.5572 845.462 69.5162 847.887 71.1012C847.929 71.1286 847.972 71.1537 848.016 71.1764C861.139 77.9303 875.936 89.1326 888.607 100.152C901.288 111.181 911.714 121.916 916.124 127.67C916.37 127.991 916.721 128.924 916.95 130.877C917.167 132.729 917.244 135.191 917.188 138.227C917.074 144.291 916.43 152.428 915.414 162.1C913.6 179.373 910.618 201.38 907.43 224.907C907.049 227.717 906.665 230.55 906.28 233.398C902.674 260.071 898.957 288.147 896.492 313.034C894.032 337.874 892.802 359.703 894.226 373.809C897.06 401.874 911.93 446.786 925.991 484.493C933.038 503.389 939.908 520.543 945.016 532.973C946.314 536.133 947.499 538.987 948.543 541.488C950.451 543.109 952.233 544.712 953.899 546.299Z" fill="#FECFFE" fill-opacity="0.5"/>
<g style="mix-blend-mode:multiply">
<path fill-rule="evenodd" clip-rule="evenodd" d="M1260.5 912.5H33.5V131C33.5 60.0314 91.0314 2.5 162 2.5H1132C1202.97 2.5 1260.5 60.0314 1260.5 131V912.5ZM162 6C92.9644 6 37 61.9644 37 131V909H1257V131C1257 61.9644 1201.04 6 1132 6H162Z" fill="#F7F3FF"/>
</g>
<path d="M1102.91 620.296H1068.44V585.731C1068.44 582.676 1067.23 579.745 1065.07 577.584C1062.92 575.424 1060 574.21 1056.95 574.21H769.662C766.614 574.21 763.691 575.424 761.536 577.584C759.381 579.745 758.17 582.676 758.17 585.731V816.16C758.17 840.605 767.856 864.049 785.096 881.335C802.337 898.62 825.72 908.331 850.102 908.331H976.508C1000.89 908.331 1024.27 898.62 1041.51 881.335C1058.75 864.049 1068.44 840.605 1068.44 816.16V804.638H1102.91C1127.3 804.638 1150.68 794.927 1167.92 777.642C1185.16 760.357 1194.85 736.912 1194.85 712.467C1194.85 688.022 1185.16 664.577 1167.92 647.292C1150.68 630.007 1127.3 620.296 1102.91 620.296ZM1151.64 761.318C1138.72 774.286 1121.19 781.579 1102.91 781.596H1068.44V643.338H1102.91C1116.54 643.351 1129.86 647.411 1141.19 655.008C1152.52 662.605 1161.34 673.397 1166.56 686.021C1171.77 698.645 1173.14 712.535 1170.48 725.937C1167.82 739.338 1161.27 751.65 1151.64 761.318Z" fill="#F98E6C"/>
<g style="mix-blend-mode:multiply">
<path d="M1102.91 620.296H1068.44V585.731C1068.44 582.676 1067.23 579.745 1065.07 577.584C1062.92 575.424 1060 574.21 1056.95 574.21H769.662C766.614 574.21 763.691 575.424 761.536 577.584C759.381 579.745 758.17 582.676 758.17 585.731V816.16C758.17 840.605 767.856 864.049 785.096 881.335C802.337 898.62 825.72 908.331 850.102 908.331H976.508C1000.89 908.331 1024.27 898.62 1041.51 881.335C1058.75 864.049 1068.44 840.605 1068.44 816.16V804.638H1102.91C1127.3 804.638 1150.68 794.927 1167.92 777.642C1185.16 760.357 1194.85 736.912 1194.85 712.467C1194.85 688.022 1185.16 664.577 1167.92 647.292C1150.68 630.007 1127.3 620.296 1102.91 620.296ZM1151.64 761.318C1138.72 774.286 1121.19 781.579 1102.91 781.596H1068.44V643.338H1102.91C1116.54 643.351 1129.86 647.411 1141.19 655.008C1152.52 662.605 1161.34 673.397 1166.56 686.021C1171.77 698.645 1173.14 712.535 1170.48 725.937C1167.82 739.338 1161.27 751.65 1151.64 761.318Z" fill="url(#paint0_linear_743_273)"/>
</g>
</g>
<defs>
<linearGradient id="paint0_linear_743_273" x1="621.96" y1="694.977" x2="1234.91" y2="694.977" gradientUnits="userSpaceOnUse">
<stop stop-color="#F98E6C"/>
<stop offset="1" stop-color="#F98E6C" stop-opacity="0"/>
</linearGradient>
<clipPath id="clip0_743_273">
<rect width="1294" height="945" fill="white"/>
</clipPath>
</defs>
</svg>
