<svg width="1294" height="945" viewBox="0 0 1294 945" fill="none" xmlns="http://www.w3.org/2000/svg">
<g clip-path="url(#clip0_743_273)">
<path fill-rule="evenodd" clip-rule="evenodd" d="M446.247 6H162C127.321 6 95.9396 20.1225 73.2944 42.93C74.2693 43.1574 75.243 43.3844 76.2161 43.6113C80.465 44.6019 84.7018 45.5898 88.9736 46.5893C84.8021 52.3915 82.4746 58.6057 80.5948 65.1242C77.0141 77.3733 83.1191 87.9928 90.8176 93.3474C101.094 100.475 112.588 104.307 124.942 106.152C130.617 115.016 130.116 125.403 123.223 134.876C122.732 134.689 122.223 134.512 121.708 134.332C120.647 133.961 119.557 133.58 118.532 133.085C107.557 127.82 95.8484 125.009 83.7816 124.364C64.8483 123.327 48.746 129.368 37 144.812V297.901C39.1899 298.102 41.3937 298.179 43.6241 298.127C42.8984 305.121 40.5385 311.901 37 317.816V345.762C41.079 341.503 44.9352 337.02 48.6908 332.474C50.6074 330.125 51.8727 327.196 53.1235 324.301C53.5319 323.355 53.9388 322.413 54.3662 321.497C55.7868 318.464 57.1534 315.415 58.5198 312.367C60.098 308.847 61.6757 305.327 63.3358 301.833C65.1441 297.965 68.0265 295.118 72.1263 293.435C74.4102 292.49 76.5822 291.305 78.9784 289.999C80.17 289.349 81.4172 288.669 82.761 287.973C85.258 289.865 87.6619 291.872 90.0586 293.873C97.5259 300.107 104.923 306.283 114.844 308.764C116.31 311.817 117.771 314.849 119.23 317.875C121.475 322.534 123.715 327.182 125.962 331.883C122.668 335.465 118.926 337.972 114.576 339.655C113.654 340.007 112.732 340.356 111.809 340.706C107.228 342.443 102.641 344.182 98.1401 346.12C90.8176 349.254 83.4235 352.478 81.4004 361.467C80.0676 361.571 78.7809 361.65 77.528 361.728C74.8759 361.892 72.3746 362.046 69.9064 362.399C56.0568 364.368 45.055 371.237 37 382.347V532.934C39.0641 530.952 41.1476 528.955 43.2617 526.929L45.3071 524.968C48.1345 527.986 50.9585 530.924 53.752 533.83C59.9263 540.254 65.9517 546.522 71.5356 553.156C80.738 564.062 83.4056 577.045 81.5436 591.228C80.3441 600.505 77.2289 609.083 72.9678 617.159C64.6785 632.816 56.1285 648.326 47.5704 663.851C45.3708 667.841 43.1708 671.832 40.9744 675.826C40.2706 677.122 39.4343 678.349 38.4439 679.802C37.9949 680.46 37.5143 681.165 37 681.944V839H144.803C145.743 833.068 146.836 827.153 148.091 821.258C152.012 802.759 157.92 784.976 167.033 768.286C170.398 762.161 174.928 757.416 180.836 753.709C198.417 742.749 217.449 738.433 237.966 741.352C252.539 743.429 267.184 744.217 281.847 743.179C292.518 742.409 303.242 741.065 312.964 736.033C324.744 729.962 335.253 722.155 343.74 711.857C345.723 709.46 347.712 707.087 349.693 704.725C351.056 703.1 352.415 701.479 353.765 699.859C354.148 699.964 354.477 700.063 354.776 700.152C355.192 700.277 355.55 700.385 355.914 700.468C365.707 703.011 375.5 704.551 385.723 702.688C397.808 700.45 408.693 695.615 418.773 688.881C423.66 685.622 428.405 684.583 434.17 686.07C442.28 688.201 450.623 688.469 458.966 687.932C466.557 687.431 473.575 685.031 479.949 681.055C484.299 678.315 487.54 674.573 489.563 669.702C494.325 658.133 490.655 641.658 479.967 633.456C475.527 630.053 470.46 627.116 465.25 625.057C460.685 623.235 455.9 621.946 450.999 620.627C448.77 620.026 446.517 619.419 444.249 618.753C438.592 606.325 430.088 596.225 415.514 591.748C423.428 584.105 427.995 574.983 432.558 565.869C432.785 565.415 433.012 564.962 433.239 564.51C433.518 563.96 433.794 563.403 434.071 562.845C435.553 559.856 437.064 556.809 439.236 554.409C454.257 537.826 472.376 529.822 494.182 534.961C495.766 536.66 497.247 538.359 498.693 540.017C501.789 543.568 504.723 546.934 508.165 549.717C523.06 561.823 540.462 567.59 559.619 568.396C569.806 568.807 579.617 566.909 589.428 564.456C600.6 561.662 609.964 556.003 617.698 547.497C618.535 546.541 619.391 545.604 620.216 544.702C620.503 544.387 620.786 544.077 621.064 543.772C634.67 545.634 647.883 546.154 661.185 543.45C675.669 540.513 688.452 534.263 699.714 524.754C703.867 521.208 708.057 518.056 713.553 516.426C717.832 515.155 722.003 512.648 725.566 509.854C732.638 504.32 736.29 497.211 733.032 487.935C732.923 487.594 733.019 487.163 733.126 486.687C733.177 486.461 733.23 486.224 733.265 485.982C734.245 485.745 735.222 485.519 736.194 485.293C738.007 484.872 739.806 484.455 741.59 483.977C747.158 482.508 752.26 480.055 756.629 476.223C763.897 469.847 766.655 461.699 764.023 452.53C762.161 446.083 758.938 439.994 754.194 434.891C745.833 425.865 735.843 419.329 724.152 415.675C719.765 414.294 715.262 413.263 710.647 412.207C708.5 411.716 706.33 411.219 704.136 410.679C703.74 410.094 703.344 409.463 702.935 408.812C702.143 407.55 701.303 406.213 700.322 404.984C690.565 392.663 678.82 382.545 665.482 374.343C650.551 365.174 634.223 360.626 616.749 361.002C603.518 361.306 590.753 364.44 578.543 369.562C574.13 371.414 569.761 373.41 565.189 375.499C563.307 376.359 561.39 377.234 559.422 378.122C542.861 371.156 525.352 369.831 507.287 375.06C505.891 361.897 505.551 349.576 509.794 338.062C514.467 335.877 518.567 333.979 522.631 332.116C537.652 344.419 555.108 347.983 573.387 345.565C591.738 343.147 608.012 335.178 621.082 321.228C622.238 321.228 623.396 321.244 624.554 321.259C627.123 321.294 629.687 321.328 632.218 321.192C633.529 321.125 634.839 321.064 636.149 321.003C641.831 320.74 647.495 320.477 653.111 319.706C663.119 318.345 672.769 315.712 681.219 309.623C691.227 302.407 696.58 284.964 687.862 272.643C680.414 262.095 671.569 253.231 659.699 247.679C658.728 247.213 657.802 246.662 656.85 246.094C656.486 245.877 656.119 245.658 655.743 245.441C656.065 232.046 649.119 222.465 640.364 213.726C631.501 204.915 621.404 198.862 608.012 199.99C607.315 198.523 606.628 197.105 605.956 195.716C604.452 192.611 603.021 189.655 601.71 186.649C596.948 175.814 590.395 166.341 580.584 159.518C567.228 150.206 552.153 148.862 536.559 150.707C526.086 151.925 515.935 154.575 506.034 158.193C501.952 159.697 497.995 159.715 493.878 158.425C489.491 157.064 485.051 155.865 480.557 154.862C468.92 152.229 457.068 151.388 445.359 153.644C425.003 157.584 411.057 170.084 401.406 187.956C400.539 189.564 399.744 191.226 398.886 193.021C398.54 193.745 398.183 194.49 397.808 195.262C396.135 195.262 394.465 195.202 392.805 195.141C389.136 195.007 385.512 194.875 381.999 195.406C371.579 196.964 361.804 200.868 352.351 205.38C337.921 212.257 330.598 224.327 329.811 239.782C329.148 252.837 335.325 263.367 345.422 271.551C346.349 272.303 347.289 273.049 348.245 273.806C348.768 274.219 349.295 274.637 349.827 275.061C334.412 292.539 314.915 300.813 293.073 305.182C293.606 302.98 294.147 300.791 294.687 298.61C296.028 293.182 297.358 287.802 298.533 282.385C301.989 266.734 304.227 250.974 302.669 234.857C302.418 232.404 303.152 229.682 304.03 227.318C307.539 218.006 313.626 210.753 322.005 205.363L322.582 204.995C328.495 201.232 334.399 197.475 340.051 193.364C347.857 187.687 352.297 179.772 353.855 170.298C354.155 168.441 354.198 166.543 354.241 164.599C354.263 163.639 354.285 162.668 354.338 161.685C354.98 160.858 355.623 160.03 356.267 159.201C357.871 157.135 359.484 155.059 361.106 152.963C372.313 155.614 383.288 156.33 394.46 154.324C405.667 152.319 415.855 148.272 424.717 141.072C437.5 142.075 449.853 141.52 460.846 134.052C471.874 126.549 477.514 115.285 481.524 104.379C502.65 105.453 518.316 84.1784 518.567 67.0404C518.764 53.9675 510.206 43.6524 498.497 36.919C490.637 32.3882 482.169 29.5587 473.289 28.0186C469.78 27.422 466.264 26.9171 462.864 26.429C461.06 26.1699 459.289 25.9156 457.57 25.6548C456.632 23.9002 455.743 22.1789 454.87 20.4897C453.026 16.9204 451.255 13.4942 449.262 10.2001C448.341 8.67744 447.335 7.27679 446.247 6ZM396.859 559.746C394.192 566.014 389.357 570.365 383.055 573.625C381.398 572.002 379.8 570.404 378.231 568.836C375.004 565.609 371.902 562.507 368.661 559.567C357.651 549.592 344.688 544.13 329.954 541.82C310.833 538.847 294.362 544.309 279.806 556.003C274.614 560.194 269.19 561.501 262.977 561.877C248.475 562.755 234.94 566.784 223.482 576.06C219.257 579.481 215.443 583.492 212.042 587.701C209.446 590.924 206.707 592.5 202.571 592.375C199.348 592.285 196 592.625 192.849 593.359C176.879 597.066 162.091 603.281 149.648 614.348C143.472 619.846 138.781 626.525 135.755 634.047C130.187 647.908 132.318 660.998 141.681 672.782C142.362 673.648 143.103 674.476 143.917 675.387C144.366 675.89 144.837 676.417 145.334 676.99C125.837 687.574 106.662 697.996 86.2701 709.082C86.496 707.876 86.6714 706.836 86.8278 705.908C87.1174 704.19 87.342 702.857 87.7024 701.578C97.6925 665.601 111.711 631.289 130.151 598.786C131.53 596.35 133.231 593.933 135.254 592.034C143.418 584.334 152.334 577.582 162.986 573.714C172.245 570.333 181.541 567.049 190.841 563.764C199.866 560.575 208.894 557.386 217.896 554.105C231.324 549.216 243.606 542.536 254.419 532.794C269.655 519.041 287.451 510.284 308.165 507.633C328.271 505.037 348.287 505.896 368.393 507.311C376.539 507.902 384.416 505.556 392.043 502.834C403.268 498.841 413.187 492.429 422.908 485.678C423.578 485.202 424.254 484.732 424.992 484.22C425.419 483.924 425.867 483.613 426.346 483.278L426.35 483.281C427.799 484.14 429.248 484.999 431.108 486.09C430.549 486.923 430.007 487.729 429.478 488.515C428.212 490.398 427.019 492.17 425.845 493.952C417.752 506.29 412.077 519.721 407.225 533.6C404.11 542.447 400.494 551.114 396.859 559.746ZM195.515 525.14C194.329 525.503 192.995 525.909 191.292 526.437C191.961 525.079 192.597 523.788 193.21 522.542C194.941 519.024 196.496 515.864 198.149 512.558C207.62 512.164 215.676 508.779 221.226 500.9C226.4 493.522 229.319 485.409 228.352 475.739C229.178 475.488 230.015 475.24 230.857 474.991C232.238 474.581 233.632 474.167 235.012 473.733C243.641 471.047 251.787 467.394 258.662 461.341C274.722 447.194 272.09 425.417 254.061 414.314C245.235 408.888 235.352 407.187 225.219 406.614C222.774 406.483 220.329 406.518 217.694 406.557C216.373 406.576 215.004 406.596 213.564 406.596C213.76 405.912 213.91 405.292 214.049 404.724C214.327 403.579 214.553 402.646 214.996 401.832C222.014 388.616 230.017 376.152 241.314 366.088C245.406 362.442 249.407 358.706 253.407 354.969C255.008 353.474 256.608 351.979 258.215 350.49C261.597 347.365 264.96 344.221 268.443 340.964C270.75 338.808 273.11 336.602 275.563 334.319C288.385 332.023 300.472 326.872 312.773 321.628C320.242 318.445 327.79 315.228 335.629 312.596C341.591 317.825 346.837 323.413 349.361 331.256C353.228 343.327 353.73 355.719 353.103 368.255C353.067 369.114 341 422.498 308.273 423.752C308.146 421.15 308.053 418.585 307.961 416.049C307.755 410.346 307.554 404.787 306.984 399.271C305.748 387.971 302.025 377.495 294.165 368.953C291.658 366.249 288.722 363.903 285.679 361.808C282.778 359.82 276.942 358.369 276.136 362.811C276.033 363.363 276.97 364.512 278.423 366.293C283.279 372.245 293.901 385.264 290.745 406.739C287.004 432.33 278.088 454.106 263.496 474.468C255.064 486.269 245.396 496.978 235.388 507.419C230.661 512.343 225.165 516.068 218.254 517.751C213.463 518.943 208.798 520.591 204.138 522.236C202.007 522.989 199.877 523.741 197.737 524.449C197.018 524.677 196.298 524.899 195.515 525.14ZM408.371 407.097C400.279 414.01 394.854 422.033 396.519 433.028C395.129 434.143 393.773 435.181 392.463 436.183C389.438 438.499 386.659 440.625 384.273 443.075C381.856 445.492 379.797 448.644 378.723 451.832C376.628 458.225 377.38 464.547 382.429 469.507C384.409 471.475 386.636 473.188 388.982 474.992C390.094 475.847 391.232 476.722 392.383 477.655C392.048 477.897 391.712 478.175 391.368 478.46C390.666 479.042 389.93 479.652 389.089 480.037C381.892 483.332 374.426 485.839 366.423 485.642C361.799 485.522 357.183 485.302 352.568 485.083C347.569 484.845 342.571 484.608 337.563 484.496C336.407 484.47 335.25 484.442 334.093 484.415C318.645 484.045 303.151 483.674 287.827 486.806C287.466 486.883 287.071 486.866 286.496 486.841C286.13 486.825 285.691 486.806 285.141 486.806C286.001 485.212 286.628 484.013 287.29 482.831C292.124 474.163 298.301 466.516 304.979 459.246C306.697 457.347 308.792 455.61 311.048 454.357C317.35 450.865 323.688 447.373 330.258 444.454C348.323 436.449 360.175 422.91 367.175 404.68C368.661 400.865 370.72 397.176 373.03 393.809C376.342 388.938 379.869 384.103 383.861 379.805C386.457 376.994 389.912 374.827 393.296 372.964C395.652 371.665 398.15 370.615 400.646 369.566C402.588 368.749 404.529 367.934 406.401 367.001C410.519 364.96 414.494 362.649 418.379 360.25C428.727 353.892 433.382 344.114 434.599 332.403C434.738 331.029 434.973 329.663 435.247 328.07C435.399 327.191 435.562 326.243 435.727 325.186C437.811 326.695 439.824 328.251 441.816 329.789C448.755 335.15 455.423 340.302 463.854 342.556C464.066 343.858 464.241 345.165 464.416 346.469C464.788 349.24 465.159 352.002 465.877 354.68C468.043 362.793 472.018 370.099 477.013 376.833C478.526 378.834 479.914 380.944 481.325 383.089C481.984 384.091 482.648 385.1 483.333 386.109C481.755 387.44 480.216 388.736 478.696 390.016C475.901 392.369 473.171 394.667 470.388 397.033C458.876 395.905 447.096 395.099 435.298 396.209C425.272 397.14 416.159 400.4 408.371 407.097ZM256.448 240.69C255.805 240.193 255.126 239.669 254.401 239.101C253.452 215.015 241.618 199.489 218.147 193.364C217.91 191.614 217.687 189.912 217.467 188.242C217.105 185.485 216.753 182.813 216.374 180.148C213.116 157.637 200.011 143.508 178.885 136.381C174.946 135.073 170.81 134.393 166.603 135.575C165.21 135.978 163.783 136.24 162.261 136.519C161.553 136.649 160.824 136.782 160.068 136.936C159.973 134.644 159.88 132.376 159.787 130.111C159.582 125.103 159.377 120.107 159.155 114.891C162.359 115.367 165.616 115.844 168.908 116.326C172.79 116.894 176.722 117.469 180.675 118.061C198.167 134.536 198.757 134.858 230.518 146.105C230.58 146.54 230.634 147.003 230.689 147.482C230.793 148.384 230.904 149.342 231.091 150.277C231.308 151.393 231.489 152.521 231.67 153.648C232.117 156.428 232.563 159.205 233.544 161.792C239.649 177.963 246.255 193.937 256.997 207.744C259.665 211.201 262.637 214.46 265.752 217.54C275.993 227.819 280.881 240.14 281.077 254.664C281.364 277.747 273.182 297.446 258.072 314.441C253.626 318.602 249.44 322.391 245.464 325.992C230.289 339.733 218.149 350.724 206.134 369.114C203.165 367.455 202.445 364.824 201.713 362.153L201.658 361.951C199.642 354.805 200.997 347.764 202.341 340.777L202.392 340.515C203.198 336.468 204.451 332.421 206.08 328.642C210.216 319.043 211.039 309.319 207.584 298.986C217.52 298.789 226.937 297.303 236.229 294.814C243.462 292.879 250.212 289.889 256.55 285.859C261.437 282.726 265.233 278.589 267.668 273.234C272.591 262.4 267.829 250.115 260.632 244.026C259.341 242.925 257.997 241.887 256.448 240.69ZM378.15 363.491C377.541 342.055 374.533 321.711 362.843 303.499C365.071 300.649 367.19 297.922 369.335 295.162C370.653 293.465 371.982 291.755 373.352 289.996C381.837 292.368 390.742 292.767 399.729 293.169C402.48 293.292 405.238 293.415 407.995 293.596C415.586 303.445 420.724 314.172 419.865 326.762C419.113 337.918 414.172 346.711 403.412 351.564C397.703 354.136 392.054 356.843 386.232 359.634C383.581 360.904 380.894 362.191 378.15 363.491ZM173.845 367.974C173.797 368.554 173.745 369.18 173.693 369.866C156.398 365.497 140.213 365.461 124.691 374.558C123.356 373.945 122.007 373.323 120.649 372.698C117.964 371.461 115.245 370.208 112.534 368.971C112.391 364.888 113.913 362.112 116.366 359.784C124.028 352.478 132.891 347.732 143.776 347.589C149.057 343.971 150.096 341.106 148.127 335.608C147.562 334.029 146.994 332.452 146.426 330.877C145.591 328.56 144.758 326.246 143.937 323.932C142.96 321.173 142.012 318.404 141.005 315.461C140.666 314.468 140.319 313.456 139.963 312.417C148.789 310.716 157.472 309.068 167.409 307.188C175.018 308.477 179.672 313.993 181.355 322.643C182.483 328.391 182.394 333.764 179.941 339.243C176.486 347.034 174.337 355.253 174.104 363.885C174.078 365.143 173.975 366.392 173.845 367.974ZM286.305 205.739C265.34 194.152 255.69 174.561 249.048 151.477C258.967 153.017 268.097 153.519 277.443 151.244C277.665 151.792 277.905 152.313 278.14 152.821C278.549 153.71 278.94 154.558 279.18 155.435C281.077 162.544 285.768 167.147 292.285 170.03C304.746 175.492 317.583 176.548 330.742 173.092C331.157 172.982 331.581 172.93 332.322 172.84C332.666 172.798 333.078 172.748 333.588 172.68C329.792 176.758 325.644 179.489 321.618 182.139C320.517 182.863 319.425 183.582 318.352 184.321C315.107 186.555 311.799 188.707 308.493 190.858C306.474 192.171 304.457 193.484 302.454 194.815C298.501 197.451 294.577 200.118 290.464 202.913C289.101 203.84 287.718 204.78 286.305 205.739ZM194.511 703.667C192.963 703.506 191.329 703.337 189.573 703.118C190.801 702.168 191.939 701.246 193.03 700.363C195.248 698.568 197.271 696.93 199.456 695.525C203.618 692.908 208.005 690.635 212.379 688.368L212.633 688.237C216.75 686.088 220.635 686.374 225.129 688.29C236.14 692.946 247.365 697.352 258.806 700.88C263.817 702.414 269.072 703.141 274.335 703.87C276.876 704.221 279.419 704.573 281.937 705.016C283.121 705.214 284.297 705.494 285.739 705.838C286.522 706.024 287.382 706.229 288.364 706.449C287.789 707.006 287.321 707.485 286.914 707.901C286.13 708.704 285.575 709.272 284.927 709.708C274.453 717.033 262.673 717.069 250.874 714.884C240.819 713.013 230.827 710.835 220.828 708.655C214.839 707.349 208.848 706.043 202.839 704.802C200.214 704.257 197.525 703.979 194.511 703.667ZM123.666 545.84C123.253 545.979 122.837 546.118 122.417 546.261C115.739 536.519 109.222 527.01 102.598 517.34C102.812 517.39 103.04 517.44 103.277 517.493C104.052 517.664 104.927 517.858 105.749 518.145C118.371 522.336 131.172 524.395 144.51 522.622C147.552 522.218 150.669 522.317 153.891 522.42C155.372 522.467 156.875 522.515 158.403 522.515C158.04 523.262 157.699 523.982 157.368 524.68C156.604 526.289 155.896 527.781 155.109 529.231C152.62 533.815 149.237 536.985 143.865 538.4C139.997 539.425 136.27 540.95 132.542 542.474C130.801 543.186 129.06 543.899 127.305 544.56C126.122 545.017 124.909 545.424 123.666 545.84ZM446.442 518.356C444.678 519.273 442.858 520.22 440.937 521.172C444.428 509.854 449.352 500.882 458.322 495.241C461.59 497.729 464.728 500.122 467.831 502.489C470.134 504.245 472.418 505.986 474.721 507.741C472.965 508.275 471.191 508.777 469.413 509.28C465.406 510.413 461.379 511.552 457.498 513.077C453.79 514.534 450.249 516.375 446.442 518.356ZM488.847 348.983C488.451 353.28 488.049 357.654 486.287 362.023C481.596 355.719 480.271 349.433 479.483 342.556C480.447 341.642 481.448 340.701 482.481 339.729C483.329 338.932 484.199 338.113 485.087 337.274C486.824 337.668 488.471 338.026 490.583 338.509C489.497 341.917 489.174 345.424 488.847 348.983Z" fill="#130237"/>
<path fill-rule="evenodd" clip-rule="evenodd" d="M1367 -82H-73V1018H1367V-82ZM162 6C92.9644 6 37 61.9644 37 131V839H1257V131C1257 61.9644 1201.04 6 1132 6H162Z" fill="#F7F3FF"/>
<path fill-rule="evenodd" clip-rule="evenodd" d="M563.824 152.656C567.177 189.709 572.408 245.037 577.609 292.812C580.293 317.467 582.97 340.123 585.377 357.222C586.581 365.769 587.719 372.946 588.76 378.296C589.281 380.97 589.781 383.209 590.258 384.944C590.717 386.616 591.201 388.006 591.752 388.832C592.369 389.758 593.379 390.772 594.629 391.837C595.899 392.92 597.497 394.124 599.366 395.423C603.106 398.023 607.996 401.054 613.655 404.33C624.975 410.884 639.446 418.463 654.093 425.599C668.739 432.734 683.588 439.438 695.665 444.238C701.701 446.637 707.068 448.569 711.385 449.841C713.542 450.477 715.46 450.955 717.082 451.242C718.097 451.422 719.976 451.437 721.492 451.383C717.963 450.105 714.507 448.554 711.13 446.631C707.131 445.399 702.254 443.628 696.773 441.45C684.787 436.687 670.011 430.016 655.407 422.902C640.804 415.787 626.4 408.242 615.158 401.733C609.535 398.478 604.723 395.493 601.079 392.96C599.257 391.693 597.744 390.551 596.575 389.555C595.386 388.541 594.631 387.742 594.248 387.168C593.999 386.794 593.616 385.845 593.151 384.15C592.702 382.518 592.219 380.362 591.705 377.723C590.679 372.449 589.549 365.332 588.348 356.804C585.947 339.752 583.274 317.133 580.591 292.488C575.467 245.417 570.312 191.001 566.956 153.976C565.896 153.532 564.852 153.092 563.824 152.656Z" fill="#FECFFE" fill-opacity="0.5"/>
<path fill-rule="evenodd" clip-rule="evenodd" d="M495.694 101.299C493.232 89.479 489.539 31.6101 488 6H716.388C716.388 74.5562 731.006 87.2628 784.092 117.552C796.409 124.579 806.406 129.364 814.497 133.237C841.281 146.056 847.18 148.879 847.18 189.949C847.18 200.06 847.113 209.412 847.049 218.428C846.773 257.099 846.542 289.612 851.796 349.52C858.349 424.238 899.452 447.059 926.566 462.113C931.085 464.622 935.216 466.916 938.734 469.198C957.931 481.653 967.572 492.665 971.917 504H884.799C883.597 501.078 881.966 497.944 879.969 494.658C874.074 484.96 864.863 473.741 853.561 462.439C830.963 439.842 799.798 416.704 769.557 404.607C755.094 398.822 745.571 386.254 739.215 369.499C732.854 352.733 729.742 331.967 727.995 310.13C726.793 295.103 726.242 279.654 725.709 264.71C725.467 257.933 725.229 251.26 724.936 244.776C723.999 224.074 722.497 205.274 718.438 191.574C710.206 163.792 686.503 152.587 660.987 143.831C656.547 142.308 652.063 140.862 647.584 139.417L647.582 139.417L647.582 139.417L647.582 139.416C639.087 136.677 630.612 133.944 622.494 130.701C610.14 125.765 598.854 119.733 590.061 110.939C575.984 96.8627 569.058 76.4776 565.679 56.6974C562.473 37.9386 562.489 19.9286 562.499 8.7261C562.499 8.13123 562.5 7.55556 562.5 7H559.5C559.5 7.56226 559.499 8.14599 559.499 8.75022C559.489 19.9478 559.472 38.1838 562.721 57.2026C566.142 77.2224 573.216 98.3373 587.939 113.061C597.146 122.267 608.86 128.485 621.381 133.487C629.587 136.765 638.243 139.557 646.804 142.319C651.259 143.756 655.687 145.184 660.013 146.669C685.497 155.413 707.793 166.208 715.562 192.426C719.502 205.726 721.001 224.176 721.939 244.912C722.23 251.335 722.466 257.975 722.708 264.735L722.708 264.736C723.242 279.713 723.797 295.275 725.005 310.37C726.758 332.283 729.895 353.392 736.41 370.563C742.929 387.746 752.905 401.178 768.443 407.393C798.202 419.296 829.037 442.158 851.439 464.561C862.637 475.759 871.675 486.79 877.406 496.217C879.083 498.977 880.467 501.582 881.537 504H845.899C830.425 485.874 812.431 475.966 798.053 469.198C782.614 461.931 767.469 459.879 753.02 457.921C730.746 454.902 710.129 452.108 692.65 430.783C663.833 395.623 658.029 266.78 658.029 266.78C658.029 266.78 658.029 189.949 586.478 161.877C508.239 131.18 499.079 117.552 495.694 101.299Z" fill="#FECFFE" fill-opacity="0.5"/>
<path fill-rule="evenodd" clip-rule="evenodd" d="M953.078 479.67C953.067 479.648 953.057 479.626 953.046 479.604C951.577 476.555 949.472 472.144 946.928 466.696C941.839 455.801 934.997 440.769 927.981 424.215C913.918 391.033 899.262 351.979 896.49 327.829C895.112 315.819 896.296 296.958 898.753 275.127C901.205 253.337 904.907 228.735 908.508 205.303C908.892 202.801 909.275 200.312 909.656 197.841L909.656 197.839C912.836 177.19 915.822 157.806 917.639 142.581C918.656 134.061 919.314 126.797 919.43 121.321C919.488 118.587 919.413 116.251 919.167 114.406C918.933 112.649 918.51 111.024 917.631 110.015C913.033 104.736 902.44 95.1641 889.724 85.4337C877.019 75.7116 862.068 65.734 848.684 59.6632C846.109 58.1914 842.016 56.3834 837.218 54.2637L837.218 54.2637L837.217 54.2636C835.62 53.558 833.944 52.8178 832.221 52.044C825.202 48.8935 817.24 45.1269 809.982 40.6948C802.706 36.2519 796.253 31.2072 792.159 25.5461C788.103 19.9359 786.399 13.7848 788.438 6.92742L785.562 6.07251C783.201 14.0151 785.256 21.1182 789.728 27.3039C794.164 33.4385 801.01 38.7314 808.418 43.2551C815.844 47.7897 823.948 51.6189 830.992 54.7809C832.802 55.5934 834.533 56.3582 836.162 57.0777C840.937 59.1876 844.831 60.9082 847.252 62.3003C847.294 62.3244 847.337 62.3465 847.381 62.3664C860.481 68.2984 875.252 78.1374 887.901 87.8162C900.56 97.5025 910.967 106.931 915.369 111.985C915.615 112.267 915.965 113.087 916.193 114.802C916.41 116.428 916.487 118.591 916.431 121.258C916.317 126.583 915.675 133.73 914.661 142.225C912.849 157.396 909.873 176.725 906.69 197.389C906.31 199.857 905.927 202.345 905.542 204.847C901.943 228.274 898.232 252.933 895.772 274.792C893.316 296.608 892.088 315.781 893.51 328.171C896.338 352.821 911.182 392.267 925.219 425.385C932.253 441.981 939.111 457.048 944.21 467.966C945.506 470.741 946.688 473.248 947.731 475.444C949.635 476.868 951.415 478.276 953.078 479.67Z" fill="#FECFFE" fill-opacity="0.5"/>
<g style="mix-blend-mode:multiply">
<path fill-rule="evenodd" clip-rule="evenodd" d="M1260.5 842.5H33.5V131C33.5 60.0314 91.0314 2.5 162 2.5H1132C1202.97 2.5 1260.5 60.0314 1260.5 131V842.5ZM162 6C92.9644 6 37 61.9644 37 131V839H1257V131C1257 61.9644 1201.04 6 1132 6H162Z" fill="#F7F3FF"/>
</g>
<rect x="1" y="836" width="1292" height="106" fill="#7D07F2"/>
<g style="mix-blend-mode:multiply">
<path fill-rule="evenodd" clip-rule="evenodd" d="M1 848.338V839.162C7.58305 839.239 15.1869 839.566 23.8138 840.146C29.0413 840.473 47.392 840.637 69.6633 840.528C90.0832 840.418 106.637 840.528 106.419 840.691C106.201 840.91 103.969 841.564 101.409 842.164C90.9 844.729 79.5193 846.475 64.3814 847.839C56.6241 848.525 26.5354 848.713 1 848.338ZM1 865.107V856.892C6.16838 856.723 12.4651 856.588 20.2742 856.46C49.2433 855.969 116.221 853.186 126.131 852.095C132.393 851.385 137.512 849.967 148.021 846.093C167.08 838.999 177.099 838.072 212.221 839.927L219.3 840.309L215.38 840.745C205.36 841.782 196.321 844.347 176.01 851.931C160.273 857.77 154.719 859.352 144.754 860.825C130.596 862.953 80.7717 864.536 14.3933 865.027C9.49417 865.06 5.03672 865.087 1 865.107ZM1 880.742V874.132C46.7844 873.431 98.6733 873.542 110.122 874.357C141.432 876.649 150.308 878.232 214.291 892.746C242.225 899.075 262.7 902.676 283.011 904.859C295.208 906.114 321.073 906.169 331.202 904.859C351.077 902.404 381.026 895.31 404.986 887.562C415.114 884.234 427.856 881.178 435.534 880.196C438.752 879.787 442.989 879.189 445.889 878.78L445.947 878.772C446.508 878.693 447.018 878.621 447.459 878.559C454.592 877.413 471.854 875.667 485.304 874.739C508.338 873.157 529.792 872.775 596.552 872.884C639.308 872.954 654.725 873.002 660.499 873.313C666.273 873.002 681.691 872.954 724.447 872.884C791.207 872.775 812.661 873.157 835.695 874.739C849.145 875.667 866.406 877.413 873.54 878.559L874.323 878.669L875.109 878.78C878.01 879.189 882.247 879.787 885.465 880.196C893.143 881.178 905.885 884.234 916.013 887.562C939.973 895.31 969.922 902.404 989.797 904.859C999.925 906.169 1025.79 906.114 1037.99 904.859C1058.3 902.676 1078.77 899.075 1106.71 892.746C1170.69 878.232 1179.57 876.649 1210.88 874.357C1220.1 873.7 1255.6 873.5 1293 873.815V880.753C1225.3 880.876 1217.99 881.995 1171.56 894.655C1145.97 901.64 1142.1 902.513 1112.1 908.297C1081.93 914.135 1059.22 915.99 1019.2 916.045C991.104 916.099 973.298 915.063 954.947 912.334C935.616 909.497 923.31 906.332 905.667 899.675C892.163 894.601 891.4 894.328 883.886 892.255C854.699 884.179 834.551 882.269 763.272 881.014L750.753 880.792H750.751H750.749H750.747H750.744L750.742 880.792H750.739H750.737H750.735L750.732 880.792H750.73H750.727H750.725L750.722 880.792H750.72H750.718H750.715L750.713 880.792H750.71H750.708H750.705L750.703 880.792H750.701H750.698H750.696L750.693 880.792H750.691H750.688L750.685 880.792H750.683H750.681L750.679 880.792L750.676 880.791C685.009 879.626 666.346 879.295 660.499 878.817C654.653 879.295 635.989 879.626 570.323 880.791L570.32 880.792L570.318 880.792H570.315H570.313L570.311 880.792H570.308H570.306L570.303 880.792H570.301H570.298H570.296L570.293 880.792H570.291H570.288H570.286L570.284 880.792H570.281H570.279H570.276L570.274 880.792H570.271H570.269H570.267L570.264 880.792H570.262H570.259H570.257L570.255 880.792H570.252H570.25H570.248H570.246L557.727 881.014C486.447 882.269 466.3 884.179 437.113 892.255C429.598 894.328 428.836 894.601 415.332 899.675C397.689 906.332 385.382 909.497 366.052 912.334C347.701 915.063 329.895 916.099 301.797 916.045C261.774 915.99 239.067 914.135 208.9 908.297C178.896 902.513 175.03 901.64 149.437 894.655C100.81 881.396 95.0928 880.796 17.9872 880.742H1ZM1 910.483V902.686C12.7493 902.484 27.1577 902.887 42.8723 903.931C44.9898 904.061 48.6994 904.3 53.037 904.581L53.0599 904.582C57.8635 904.893 63.4345 905.253 68.4652 905.568C94.4938 907.26 114.206 908.951 167.298 914.299C232.315 920.792 255.076 922.374 291.451 922.865C324.395 923.302 346.612 922.265 371.279 919.209C383.858 917.682 392.897 915.881 411.792 911.297C437.549 905.023 442.558 904.095 460.8 902.294C503.927 897.984 558.761 895.965 606.462 896.947C617.843 897.165 634.397 897.384 643.218 897.438C653.168 897.47 657.924 897.58 660.499 898.13C663.075 897.58 667.831 897.47 677.781 897.438C686.602 897.384 703.156 897.165 714.537 896.947C762.238 895.965 817.072 897.984 860.199 902.294C878.441 904.095 883.45 905.023 909.207 911.297C928.102 915.881 937.141 917.682 949.72 919.209C974.387 922.265 996.604 923.302 1029.55 922.865C1065.92 922.374 1088.68 920.792 1153.7 914.299C1206.79 908.951 1226.5 907.26 1252.53 905.568C1257.56 905.253 1263.14 904.893 1267.94 904.582L1267.96 904.581C1272.3 904.3 1276.01 904.061 1278.13 903.931C1283.24 903.591 1288.21 903.32 1293 903.114V910.731C1243.24 911.547 1197.48 914.316 1162.41 918.664C1148.26 920.41 1087.59 929.304 1088.52 929.467C1089.39 929.631 1124.73 924.939 1147.6 921.61C1154.9 920.573 1161.27 919.755 1161.76 919.864C1162.63 920.028 1139.87 923.847 1121.57 926.576C1079.59 932.905 1037.66 936.943 1011.03 937.325C953.804 938.089 925.107 934.978 876.371 922.701C828.507 910.697 793.548 904.968 757.827 903.331C745.466 902.785 739.422 902.895 703.102 904.15C686.791 904.704 671.97 905.2 664.455 905.431V905.568H661.623C661.453 905.568 661.072 905.561 660.499 905.546C659.927 905.561 659.546 905.568 659.376 905.568H656.544V905.431C649.029 905.2 634.208 904.704 617.897 904.15C581.577 902.895 575.533 902.785 563.172 903.331C527.451 904.968 492.492 910.697 444.627 922.701C395.892 934.978 367.195 938.089 309.965 937.325C283.337 936.943 241.408 932.905 199.425 926.576C181.129 923.847 158.367 920.028 159.239 919.864C159.729 919.755 166.1 920.573 173.396 921.61C196.267 924.939 231.607 929.631 232.478 929.467C233.404 929.304 172.743 920.41 158.585 918.664C117.253 913.54 61.0723 910.609 1 910.483ZM1 926.88V919.371C4.47663 919.643 8.26758 919.89 11.0172 920.028C24.0315 920.628 85.4002 924.065 108.761 925.484C152.541 928.212 170.946 930.013 208.138 935.033C232.324 938.317 251.652 940.547 269.892 942H223.653C220.575 941.525 217.094 940.984 213.583 940.435C165.337 932.796 155.971 931.432 139.744 929.849C126.948 928.649 106.528 927.503 82.8953 926.794C64.3596 926.237 26.797 926.319 1 926.88ZM824.223 942C821.232 941.69 818.161 941.368 815.003 941.035C757.99 935.033 746.174 934.269 712.903 934.214C686.657 934.214 681.048 934.487 668.524 936.452C667.041 936.691 665.642 936.931 664.359 937.164C664.246 938.662 664.002 938.789 663.475 938.634C662.777 938.429 661.763 938.184 660.499 937.916C659.236 938.184 658.222 938.429 657.524 938.634C656.997 938.789 656.753 938.662 656.64 937.164C655.356 936.931 653.958 936.691 652.475 936.452C639.951 934.487 634.342 934.214 608.096 934.214C574.825 934.269 563.009 935.033 505.996 941.035C502.838 941.368 499.767 941.69 496.776 942H402.001C428.354 939.849 459.785 935.88 511.278 928.758C558.162 922.265 583.592 920.3 635.322 919.373C651.607 919.098 657.592 919.134 660.499 919.987C663.407 919.134 669.391 919.098 685.676 919.373C737.407 920.3 762.837 922.265 809.721 928.758C861.214 935.88 892.645 939.849 918.998 942H824.223ZM1293 920.907V926.497C1272.37 926.331 1250.78 926.413 1238.1 926.794C1214.47 927.503 1194.05 928.649 1181.25 929.849C1165.03 931.432 1155.66 932.796 1107.42 940.435C1103.9 940.984 1100.42 941.525 1097.35 942H1051.11C1069.35 940.547 1088.68 938.317 1112.86 935.033C1150.05 930.013 1168.46 928.212 1212.24 925.484C1229.88 924.413 1269.2 922.19 1293 920.907ZM1103.61 942C1116.81 940.201 1134.09 937.638 1146.3 935.579C1153.43 934.378 1159.42 933.451 1159.53 933.614C1159.74 933.824 1159.69 933.832 1145.17 936.598L1145.17 936.598L1143.35 936.943C1133.37 938.828 1123.51 940.52 1113.89 942H1103.61ZM207.113 942C197.493 940.52 187.624 938.828 177.644 936.943L175.833 936.598L175.833 936.598L175.833 936.598C161.304 933.832 161.262 933.824 161.471 933.614C161.58 933.451 167.57 934.378 174.703 935.579C186.912 937.638 204.185 940.201 217.384 942H207.113ZM1293 856.298V864.908C1233.47 864.313 1189.42 862.805 1176.24 860.825C1166.28 859.352 1160.73 857.77 1144.99 851.931C1124.68 844.347 1115.64 841.782 1105.62 840.745L1101.7 840.309L1108.78 839.927C1143.9 838.072 1153.92 838.999 1172.98 846.093C1183.49 849.967 1188.61 851.385 1194.87 852.095C1203.98 853.098 1261.29 855.53 1293 856.298ZM1293 840.31V848.528C1276.33 848.524 1261.69 848.288 1256.62 847.839C1241.48 846.475 1230.1 844.729 1219.59 842.164C1217.03 841.564 1214.8 840.91 1214.58 840.691C1214.36 840.528 1230.92 840.418 1251.34 840.528C1269.49 840.617 1285.04 840.524 1293 840.31ZM126.567 885.543C126.948 885.707 126.676 885.816 125.913 885.816C125.151 885.816 124.879 885.707 125.205 885.543C125.587 885.434 126.24 885.434 126.567 885.543ZM129.562 886.089C130.106 886.253 129.779 886.362 128.908 886.362C127.983 886.362 127.601 886.253 127.928 886.089C128.309 885.98 129.072 885.98 129.562 886.089ZM136.096 887.235C138.383 887.726 140.398 888.271 140.561 888.49C140.725 888.653 140.289 888.653 139.527 888.49C138.764 888.326 136.477 887.835 134.408 887.508C132.339 887.126 130.923 886.689 131.25 886.58C131.631 886.471 133.755 886.798 136.096 887.235ZM235.364 930.013C236.399 930.013 236.834 929.904 236.29 929.74C235.8 929.631 234.928 929.631 234.384 929.74C233.894 929.904 234.329 930.013 235.364 930.013ZM239.993 930.559C240.864 930.559 241.191 930.45 240.646 930.286C240.156 930.177 239.394 930.177 239.012 930.286C238.686 930.45 239.067 930.559 239.993 930.559ZM243.314 931.159C243.913 931.159 244.077 930.995 243.641 930.832C243.26 930.668 242.77 930.722 242.606 930.886C242.389 931.05 242.715 931.214 243.314 931.159ZM157.278 919.701C157.877 919.701 158.041 919.537 157.605 919.373C157.224 919.21 156.734 919.264 156.57 919.428C156.353 919.592 156.679 919.755 157.278 919.701ZM231.879 887.235C213.583 882.979 194.034 876.922 177.971 870.647C173.288 868.792 169.476 867.155 169.476 866.937C169.53 866.282 174.268 863.008 178.406 860.771C186.139 856.569 197.737 853.077 211.568 850.731C222.785 848.821 224.8 848.93 215.761 850.949C203.455 853.732 188.371 860.88 183.144 866.5L181.946 867.755L186.846 870.047C199.48 875.885 210.37 879.432 239.993 887.344C250.448 890.126 258.616 892.418 258.071 892.418C256.655 892.473 241.3 889.417 231.879 887.235ZM243.26 847.02C244.458 847.02 244.893 846.911 244.186 846.802C243.532 846.693 242.552 846.693 242.007 846.802C241.517 846.966 242.062 847.075 243.26 847.02ZM249.903 846.256C250.774 846.365 250.175 846.475 248.705 846.475C247.18 846.475 246.527 846.365 247.18 846.256C247.888 846.147 249.086 846.147 249.903 846.256ZM255.784 845.929C256.982 845.929 257.418 845.82 256.71 845.711C256.056 845.602 255.076 845.602 254.532 845.711C254.042 845.875 254.586 845.984 255.784 845.929ZM445.009 856.406C419.525 853.841 388.595 848.712 359.245 842.164L351.077 840.364L363.601 840.2C379.556 839.982 408.743 840.964 418.436 842.001C429.217 843.146 434.499 844.074 448.004 847.13C466.899 851.386 485.032 853.459 528.594 856.46C557.781 858.424 601.289 859.734 638.263 859.734C650.526 859.734 657.092 859.802 660.499 860.053C663.907 859.802 670.473 859.734 682.736 859.734C719.71 859.734 763.218 858.424 792.404 856.46C835.967 853.459 854.1 851.386 872.995 847.13C886.499 844.074 891.781 843.146 902.563 842.001C912.256 840.964 941.443 839.982 957.397 840.2L969.922 840.364L961.754 842.164C932.403 848.712 901.474 853.841 875.99 856.406C818.978 862.244 768.064 864.699 706.641 864.59C675.966 864.544 664.731 864.301 660.499 863.329C656.268 864.301 645.033 864.544 614.358 864.59C552.935 864.699 502.021 862.244 445.009 856.406ZM508.283 841.618C515.961 844.783 526.307 847.511 535.673 848.821C537.457 849.065 540.63 849.55 543.618 850.008L543.623 850.009L543.627 850.009L543.663 850.015C544.672 850.169 545.659 850.321 546.564 850.458C568.454 854.005 579.617 854.55 624.377 854.387C640.437 854.346 654.382 854.245 660.499 854.128C666.617 854.245 680.562 854.346 696.622 854.387C741.382 854.55 752.545 854.005 774.435 850.458C775.339 850.321 776.326 850.169 777.335 850.015L777.372 850.009L777.376 850.009L777.381 850.008C780.369 849.55 783.542 849.065 785.326 848.821C794.692 847.511 805.038 844.783 812.716 841.618C814.24 840.964 815.547 840.309 815.547 840.2C815.547 839.818 774.054 840.582 758.916 841.236C744.976 841.782 742.58 841.946 711.542 844.783C699.998 845.82 685.949 846.911 680.231 847.184C668.578 847.784 663.841 848.439 660.519 849.912L660.499 849.921L660.48 849.912C657.158 848.439 652.421 847.784 640.768 847.184C635.05 846.911 621.001 845.82 609.457 844.783C578.419 841.946 576.023 841.782 562.083 841.236C546.945 840.582 505.452 839.818 505.452 840.2C505.452 840.309 506.758 840.964 508.283 841.618ZM1194.43 885.543C1194.05 885.707 1194.32 885.816 1195.09 885.816C1195.85 885.816 1196.12 885.707 1195.79 885.543C1195.41 885.434 1194.76 885.434 1194.43 885.543ZM1191.44 886.089C1190.89 886.253 1191.22 886.362 1192.09 886.362C1193.02 886.362 1193.4 886.253 1193.07 886.089C1192.69 885.98 1191.93 885.98 1191.44 886.089ZM1184.9 887.235C1182.62 887.726 1180.6 888.271 1180.44 888.49C1180.27 888.653 1180.71 888.653 1181.47 888.49C1182.23 888.326 1184.52 887.835 1186.59 887.508C1188.66 887.126 1190.08 886.689 1189.75 886.58C1189.37 886.471 1187.24 886.798 1184.9 887.235ZM1085.63 930.013C1084.6 930.013 1084.16 929.904 1084.71 929.74C1085.2 929.631 1086.07 929.631 1086.61 929.74C1087.1 929.904 1086.67 930.013 1085.63 930.013ZM1081.01 930.559C1080.13 930.559 1079.81 930.45 1080.35 930.286C1080.84 930.177 1081.61 930.177 1081.99 930.286C1082.31 930.45 1081.93 930.559 1081.01 930.559ZM1077.68 931.159C1077.09 931.159 1076.92 930.995 1077.36 930.832C1077.74 930.668 1078.23 930.722 1078.39 930.886C1078.61 931.05 1078.28 931.214 1077.68 931.159ZM1163.72 919.701C1163.12 919.701 1162.96 919.537 1163.39 919.373C1163.77 919.21 1164.26 919.264 1164.43 919.428C1164.65 919.592 1164.32 919.755 1163.72 919.701ZM1089.12 887.235C1107.42 882.979 1126.96 876.922 1143.03 870.647C1147.71 868.792 1151.52 867.155 1151.52 866.937C1151.47 866.282 1146.73 863.008 1142.59 860.771C1134.86 856.569 1123.26 853.077 1109.43 850.731C1098.21 848.821 1096.2 848.93 1105.24 850.949C1117.54 853.732 1132.63 860.88 1137.86 866.5L1139.05 867.755L1134.15 870.047C1121.52 875.885 1110.63 879.432 1081.01 887.344C1070.55 890.126 1062.38 892.418 1062.93 892.418C1064.34 892.473 1079.7 889.417 1089.12 887.235ZM1077.74 847.02C1076.54 847.02 1076.11 846.911 1076.81 846.802C1077.47 846.693 1078.45 846.693 1078.99 846.802C1079.48 846.966 1078.94 847.075 1077.74 847.02ZM1071.1 846.256C1070.22 846.365 1070.82 846.475 1072.29 846.475C1073.82 846.475 1074.47 846.365 1073.82 846.256C1073.11 846.147 1071.91 846.147 1071.1 846.256ZM1065.21 845.929C1064.02 845.929 1063.58 845.82 1064.29 845.711C1064.94 845.602 1065.92 845.602 1066.47 845.711C1066.96 845.875 1066.41 845.984 1065.21 845.929Z" fill="#7D07F2"/>
</g>
<path d="M1102.91 548.296H1068.44V513.731C1068.44 510.676 1067.23 507.745 1065.07 505.584C1062.92 503.424 1060 502.21 1056.95 502.21H769.662C766.614 502.21 763.691 503.424 761.536 505.584C759.381 507.745 758.17 510.676 758.17 513.731V744.16C758.17 768.605 767.856 792.049 785.096 809.335C802.337 826.62 825.72 836.331 850.102 836.331H976.508C1000.89 836.331 1024.27 826.62 1041.51 809.335C1058.75 792.049 1068.44 768.605 1068.44 744.16V732.638H1102.91C1127.3 732.638 1150.68 722.927 1167.92 705.642C1185.16 688.357 1194.85 664.912 1194.85 640.467C1194.85 616.022 1185.16 592.577 1167.92 575.292C1150.68 558.007 1127.3 548.296 1102.91 548.296ZM1151.64 689.318C1138.72 702.286 1121.19 709.579 1102.91 709.596H1068.44V571.338H1102.91C1116.54 571.351 1129.86 575.411 1141.19 583.008C1152.52 590.605 1161.34 601.397 1166.56 614.021C1171.77 626.645 1173.14 640.535 1170.48 653.937C1167.82 667.338 1161.27 679.65 1151.64 689.318Z" fill="white"/>
<g style="mix-blend-mode:multiply">
<path d="M1102.91 548.296H1068.44V513.731C1068.44 510.676 1067.23 507.745 1065.07 505.584C1062.92 503.424 1060 502.21 1056.95 502.21H769.662C766.614 502.21 763.691 503.424 761.536 505.584C759.381 507.745 758.17 510.676 758.17 513.731V744.16C758.17 768.605 767.856 792.049 785.096 809.335C802.337 826.62 825.72 836.331 850.102 836.331H976.508C1000.89 836.331 1024.27 826.62 1041.51 809.335C1058.75 792.049 1068.44 768.605 1068.44 744.16V732.638H1102.91C1127.3 732.638 1150.68 722.927 1167.92 705.642C1185.16 688.357 1194.85 664.912 1194.85 640.467C1194.85 616.022 1185.16 592.577 1167.92 575.292C1150.68 558.007 1127.3 548.296 1102.91 548.296ZM1151.64 689.318C1138.72 702.286 1121.19 709.579 1102.91 709.596H1068.44V571.338H1102.91C1116.54 571.351 1129.86 575.411 1141.19 583.008C1152.52 590.605 1161.34 601.397 1166.56 614.021C1171.77 626.645 1173.14 640.535 1170.48 653.937C1167.82 667.338 1161.27 679.65 1151.64 689.318Z" fill="url(#paint0_linear_743_273)"/>
</g>
</g>
<defs>
<linearGradient id="paint0_linear_743_273" x1="621.96" y1="622.977" x2="1234.91" y2="622.977" gradientUnits="userSpaceOnUse">
<stop stop-color="#AA86F8"/>
<stop offset="1" stop-color="#D38DF1" stop-opacity="0"/>
</linearGradient>
<clipPath id="clip0_743_273">
<rect width="1294" height="945" fill="white"/>
</clipPath>
</defs>
</svg>
