<svg width="1248" height="921" viewBox="0 0 1248 921" fill="none" xmlns="http://www.w3.org/2000/svg">
<g clip-path="url(#clip0_743_273)">
<path d="M-212.626 220.105C-234.885 174.58 -215.23 133.925 -163.857 115.368C-161.857 103.057 -158.81 90.9402 -154.75 79.1486C-151.567 70.1277 -145.202 62.5811 -136.852 57.9268C-127.03 54.7644 -118.269 48.9531 -111.531 41.1313C-104.793 33.3096 -100.339 23.7801 -98.6588 13.5897C-95.603 5.52074 -90.4881 -1.60564 -83.8238 -7.07924C-77.1595 -12.5528 -69.1786 -16.1825 -60.6765 -17.6065C-53.4707 -20.1322 -45.6054 -20.0297 -38.4676 -17.3172C-31.3299 -14.6047 -25.3782 -9.4563 -21.662 -2.77999C-18.5809 1.72159 -15.8293 6.44925 -13.7128 9.82186C-3.48738 6.99454 5.85937 4.53747 15.1096 1.75982C17.4001 1.01053 19.4893 -0.252549 21.2179 -1.93307C30.8285 -11.1429 39.7803 -21.1069 49.8872 -29.72C73.9008 -50.1846 91.1369 -49.6287 114.6 -28.453C117.92 -25.4578 120.657 -21.8164 124.389 -17.6678C136.86 -35.464 145.531 -58.277 171.821 -45.6073C178.794 -55.4921 186.546 -64.8028 195.003 -73.4503C197.53 -76.3068 200.669 -78.5558 204.185 -80.03C207.701 -81.5042 211.504 -82.1656 215.311 -81.9649C219.118 -81.7642 222.83 -80.7066 226.172 -78.8709C229.514 -77.0352 232.4 -74.4686 234.614 -71.3622C238.564 -67.5137 242.158 -63.3148 245.351 -58.8169C251.245 -49.0162 259.525 -40.8709 269.416 -35.1418C279.136 -29.7919 284.265 -14.7833 289.58 -3.19677C292.81 3.84587 295.027 7.77221 303.892 8.33436C322.225 9.49735 330.505 21.5465 333.729 45.5689C354.175 36.0915 375.15 27.8047 396.551 20.7499C404.774 18.4412 415.715 25.835 424.878 30.6241C450.812 24.775 457.724 29.9958 465.782 64.3711C472.164 63.6516 478.584 63.3229 485.006 63.3868C505.195 64.7113 514.112 77.6995 507.522 97.8566C504.469 107.195 505.125 110.96 514.474 116.331C522.03 121.705 527.161 129.847 528.751 138.988C532.116 159.965 528.64 181.47 518.84 200.315C517.046 203.869 514.811 209.782 516.406 212.057C529.02 230.04 522.574 246.577 513.345 262.716C507.692 270.845 502.813 279.487 498.772 288.528C497.812 301.761 496.583 314.984 496.045 328.235C496.093 332.656 496.89 337.036 498.404 341.19C502.004 349.26 504.831 357.654 506.847 366.258C508.516 381.327 501.567 395.863 509.929 412.142C516.452 424.843 490.039 456.936 475.187 456.703C465.674 454.74 456.512 451.353 448.008 446.657C446.678 447.25 445.399 447.953 444.185 448.756C426.988 459.112 426.996 459.127 436.275 475.989C443.256 491.23 445.746 508.148 443.453 524.757C441.16 541.365 434.179 556.973 423.33 569.747C434.691 600.745 429.434 617.727 402.491 638.769C399.634 641.108 397.655 644.349 396.88 647.962C393.499 667.561 386.841 673.622 366.703 673.097C358.287 672.878 349.907 671.316 339.216 670.104C337.173 675.778 336.221 681.788 336.41 687.816C338.682 693.696 339.017 700.15 337.367 706.234C335.717 712.319 332.168 717.716 327.238 721.64C322.734 725.363 317.207 727.629 311.388 728.139C305.569 728.648 299.733 727.377 294.652 724.493C255.783 763.412 217.561 801.393 179.701 839.733C163.859 855.776 142.878 870.199 135.03 889.71C127.232 909.097 132.308 933.97 132.953 956.403C134.294 1003 136.501 1049.57 138.193 1096.15C138.705 1104.16 138.527 1112.2 137.659 1120.18C137.524 1125.29 135.471 1130.16 131.909 1133.82C128.347 1137.48 123.537 1139.66 118.438 1139.94C105.652 1140.89 101.648 1131.09 100.954 1121.53C99.18 1097.07 97.8814 1072.48 98.2816 1047.97C99.0095 1003.35 101.714 958.769 102.171 914.157C102.038 903.385 98.9152 892.862 93.1529 883.763C80.9581 864.873 65.7725 847.942 53.0691 829.347C43.942 816.161 36.0818 802.14 29.594 787.472C26.9805 779.74 22.8147 772.625 17.3529 766.565C11.891 760.504 5.24846 755.626 -2.16628 752.23C-13.1694 760.635 -24.6223 768.433 -36.4741 775.589C-66.1347 791.586 -91.9256 778.544 -97.4153 745.423C-98.8794 738.548 -99.1442 731.471 -98.1982 724.505C-96.5041 718.7 -96.3765 712.549 -97.8282 706.678C-99.2799 700.807 -102.259 695.426 -106.463 691.082C-108.919 686.093 -110.333 680.655 -110.618 675.1C-110.904 669.546 -110.055 663.991 -108.123 658.776C-103.214 647.134 -96.8774 636.149 -89.2604 626.072C-100.193 607.715 -111.9 588.057 -124.108 567.558C-145.937 578.564 -161.969 560.57 -180.921 556.261C-184.615 555.421 -187.787 551.995 -191.461 551.412C-197.315 551.128 -202.833 548.593 -206.866 544.335C-210.899 540.078 -213.135 534.427 -213.109 528.561C-213.452 522.239 -211.766 515.974 -208.296 510.681C-204.826 505.389 -199.755 501.347 -193.825 499.147C-177.901 491.403 -161.947 483.697 -146.336 475.356C-144.874 474.381 -143.674 473.059 -142.845 471.508C-142.016 469.956 -141.583 468.224 -141.583 466.465C-142.403 464.911 -143.573 463.57 -145 462.547C-146.427 461.523 -148.072 460.847 -149.806 460.57C-161.742 459.899 -173.632 458.564 -185.42 456.57C-193.668 455.293 -201.375 451.669 -207.623 446.129C-213.87 440.589 -218.394 433.367 -220.654 425.324C-221.056 423.745 -221.804 422.274 -222.845 421.021C-223.887 419.768 -225.194 418.763 -226.672 418.079C-262.2 410.924 -271.993 383.528 -274 353.447C-273.582 334.01 -271.113 314.672 -266.636 295.755C-266.392 292.71 -265.025 289.864 -262.802 287.772C-237.045 271.558 -236.431 237.116 -212.626 220.105ZM148.421 730.232C140.826 732.869 132.541 732.707 125.055 729.776C117.569 726.845 111.373 721.337 107.58 714.243C84.1961 732.021 62.2038 748.741 39.4031 766.077C52.9985 808.044 84.2203 841.635 110.414 878.698C149.115 835.824 155.322 785.426 148.421 730.232V730.232ZM268.519 721.831C245.433 718.669 231.743 709.572 229.055 691.037L204.687 689.823C193.479 699.786 183.139 708.29 173.721 717.718C169.991 721.309 167.711 726.148 167.316 731.313C168.24 758.448 170.161 785.548 171.849 814.377C203.967 783.628 234.75 754.159 268.519 721.831H268.519ZM256.817 182.844C242.864 176.75 233.029 173.327 224.091 168.303C215.208 163.311 211.418 165.653 210.075 174.974C210.16 181.439 209.047 187.863 206.792 193.921C204.853 196.27 203.418 198.994 202.577 201.922C201.736 204.851 201.507 207.921 201.904 210.942C202.301 213.963 203.315 216.87 204.883 219.481C206.452 222.092 208.541 224.352 211.02 226.119C213.458 229.276 214.907 233.086 215.183 237.066C217.12 242.288 220.276 246.971 224.389 250.724C228.502 254.476 233.451 257.19 238.825 258.638C250.226 258.58 261.629 258.623 273.824 258.623C281.975 228.748 261.633 204.645 256.817 182.844V182.844ZM11.2024 428.787L6.5149 428.568C3.90643 436.489 2.07128 444.645 1.03531 452.92C1.057 465.278 1.72097 477.626 3.02448 489.914C3.23774 494.706 3.77275 499.479 4.62588 504.199C7.85014 514.56 10.1255 525.192 11.4237 535.965C11.7031 552.695 9.23415 569.472 7.89692 586.634C20.9531 579.201 31.5248 568.073 38.2849 554.647C45.0449 541.22 47.692 526.093 45.8937 511.166C36.5102 482.979 23.0453 456.154 11.2023 428.787H11.2024ZM294.385 607.811C296.768 597.692 298.73 586.363 302.203 575.519C305.15 566.32 304.879 560.395 295.454 554.574C290.123 550.127 286.772 543.743 286.137 536.825C285.279 523.84 285.138 510.818 285.715 497.817L250.654 489.13L242.866 513.303C263.955 518.23 265.257 534.686 269.333 551.218C274.714 573.038 279.035 593.74 265.211 614.294L294.385 607.811ZM47.6753 494.886L50.9048 494.59C52.9709 474.705 55.2715 454.839 56.9064 434.918C57.1762 430.626 56.0909 426.357 53.8042 422.716C48.467 414.357 42.3096 406.552 35.4236 399.418C31.6373 397.08 27.1178 396.236 22.7443 397.05C19.5893 404.602 14.1344 414.112 16.4164 420.506C25.4434 445.797 37.0351 470.171 47.6753 494.886ZM-12.5512 150.645L-7.79661 147.983C-12.3662 142.863 -16.121 135.076 -21.7304 133.358C-27.5705 131.57 -38.9564 133.459 -41.3339 137.562C-47.9775 149.374 -52.6689 162.183 -55.2264 175.494C-56.0787 179.742 -48.7277 186.062 -44.4352 190.804C-39.9371 195.774 -35.2144 202.897 -27.1572 196.201C-18.7407 189.207 -5.94264 185.042 -8.7476 170.066C-9.96184 163.583 -11.2801 157.118 -12.5512 150.645ZM188.333 473.901C190.735 488.526 192.866 501.506 195.064 514.887C199.79 516.169 204.706 516.603 209.583 516.168C215.61 514.693 223.927 511.909 226.103 507.269C233.988 490.455 240.753 472.546 218.763 459.656C216.029 457.399 213.635 454.759 211.655 451.817L188.333 473.901ZM335.91 184.189C328.186 179.557 323.506 176.763 318.836 173.949C310.848 169.136 294.282 175.352 293.169 184.318C290.406 206.56 288.441 228.902 286.156 251.203L290.338 253.504C314.614 237.062 315.778 204.744 335.91 184.189ZM69.6593 531.498C80.0486 529.275 86.7777 515.179 87.4825 504.892C87.9009 492.94 91 481.236 96.5502 470.646C101.422 462.379 112.144 457.566 120.648 450.935L115.572 432.129L79.4741 436.246C76.1885 468.134 72.9399 499.66 69.6593 531.498ZM338.95 190.551C328.701 210.543 318.733 229.987 308.765 249.431L312.435 252.937C324.591 249.453 336.026 243.82 346.199 236.303C359.387 222.006 353.677 205.596 338.95 190.551ZM-106.124 573.833C-100.094 583.71 -92.4761 597.079 -83.8349 609.749C-81.4806 613.201 -76.0432 614.545 -72.0208 616.857C-71.6513 612.59 -71.9111 608.292 -72.7916 604.1C-76.1358 598.252 -78.0159 591.68 -78.2713 584.945C-78.5267 578.211 -77.1499 571.515 -74.2584 565.43C-72.3189 562.087 -74.4666 556.368 -74.6028 554.016L-106.124 573.833ZM276.562 215.293C277.371 197.672 293.679 177.285 268.202 161.54C266.006 166.911 261.452 172.434 262.533 176.431C266.115 189.681 271.728 202.381 276.562 215.293Z" fill="#130237"/>
<path fill-rule="evenodd" clip-rule="evenodd" d="M944.774 322.135C944.097 321.657 943.161 321.819 942.684 322.495L932.414 337.045C931.936 337.721 932.097 338.657 932.774 339.135C933.451 339.613 934.387 339.451 934.865 338.775L945.135 324.226C945.612 323.549 945.451 322.613 944.774 322.135ZM977.774 346.135C977.097 345.657 976.161 345.819 975.684 346.495L965.414 361.045C964.936 361.721 965.097 362.657 965.774 363.135C966.451 363.613 967.387 363.451 967.865 362.775L978.135 348.226C978.612 347.549 978.451 346.613 977.774 346.135ZM997.684 379.495C998.162 378.819 999.098 378.657 999.775 379.135C1000.45 379.613 1000.61 380.549 1000.14 381.226L989.865 395.775C989.387 396.451 988.452 396.613 987.775 396.135C987.098 395.657 986.937 394.721 987.414 394.045L997.684 379.495ZM1011.77 417.135C1011.1 416.657 1010.16 416.819 1009.68 417.495L999.414 432.045C998.936 432.721 999.098 433.657 999.774 434.135C1000.45 434.613 1001.39 434.451 1001.86 433.775L1012.13 419.226C1012.61 418.549 1012.45 417.613 1011.77 417.135ZM711.775 322.136C712.451 321.658 713.387 321.819 713.865 322.496L724.135 337.045C724.613 337.722 724.451 338.658 723.775 339.136C723.098 339.613 722.162 339.452 721.684 338.775L711.414 324.226C710.936 323.549 711.098 322.613 711.775 322.136ZM678.775 346.136C679.452 345.658 680.387 345.819 680.865 346.496L691.135 361.045C691.613 361.722 691.452 362.658 690.775 363.136C690.098 363.613 689.162 363.452 688.684 362.775L678.414 348.226C677.937 347.549 678.098 346.613 678.775 346.136ZM658.865 379.496C658.387 378.819 657.451 378.658 656.774 379.136C656.097 379.613 655.936 380.549 656.414 381.226L666.684 395.775C667.161 396.452 668.097 396.613 668.774 396.136C669.451 395.658 669.612 394.722 669.135 394.045L658.865 379.496ZM644.775 417.136C645.451 416.658 646.387 416.819 646.865 417.496L657.135 432.045C657.613 432.722 657.451 433.658 656.775 434.136C656.098 434.613 655.162 434.452 654.684 433.775L644.414 419.226C643.936 418.549 644.098 417.613 644.775 417.136Z" fill="white"/>
<path fill-rule="evenodd" clip-rule="evenodd" d="M760.526 322.23C691.994 322.23 641.247 385.936 656.57 452.733L667.868 501.987L989.494 501.987L1000.97 453.39C1016.77 386.422 965.971 322.23 897.162 322.23L760.526 322.23Z" fill="url(#paint0_linear_743_273)"/>
<path fill-rule="evenodd" clip-rule="evenodd" d="M789.084 328.967C726.538 338.294 685.797 399.683 701.5 460.94L712.022 501.987L961.971 501.987L971.685 458.058C985.034 397.692 944.424 338.659 883.276 329.54L834.257 322.23L789.084 328.967Z" fill="url(#paint1_linear_743_273)"/>
<path fill-rule="evenodd" clip-rule="evenodd" d="M832.835 322.229C789.054 336.542 760.048 378.122 761.734 424.152L764.584 501.987L901.086 501.987L903.936 424.152C905.622 378.122 876.616 336.542 832.835 322.229Z" fill="url(#paint2_linear_743_273)"/>
<path d="M634.297 501.986C629.878 501.986 626.297 505.568 626.297 509.986L626.297 823.945L1038.59 823.945L1038.59 509.986C1038.59 505.568 1035.01 501.986 1030.59 501.986L634.297 501.986Z" fill="#AA86F8"/>
<g style="mix-blend-mode:multiply">
<path d="M634.297 501.986C629.878 501.986 626.297 505.568 626.297 509.986L626.297 823.945L1038.59 823.945L1038.59 509.986C1038.59 505.568 1035.01 501.986 1030.59 501.986L634.297 501.986Z" fill="url(#paint3_linear_743_273)"/>
</g>
<path d="M838.495 921.228C968.63 921.228 1074.89 880.344 1081.39 828.935C1081.73 826.196 1079.46 823.945 1076.7 823.945L600.288 823.945C597.526 823.945 595.256 826.196 595.602 828.935C602.096 880.344 708.359 921.228 838.495 921.228Z" fill="#AA86F8"/>
<g style="mix-blend-mode:multiply">
<path d="M838.494 921.228C968.63 921.228 1074.89 880.344 1081.39 828.935C1081.73 826.196 1079.46 823.945 1076.7 823.945L600.287 823.945C597.526 823.945 595.256 826.196 595.602 828.935C602.096 880.344 708.359 921.228 838.494 921.228Z" fill="url(#paint4_linear_743_273)"/>
</g>
<path d="M916.774 314.136C916.098 313.658 915.162 313.819 914.684 314.496L904.414 329.045C903.936 329.722 904.098 330.658 904.774 331.136C905.451 331.613 906.387 331.452 906.865 330.775L917.135 316.226C917.613 315.549 917.451 314.613 916.774 314.136Z" fill="white"/>
<path d="M785.316 327.496C784.838 326.819 783.902 326.658 783.225 327.136C782.548 327.613 782.387 328.549 782.865 329.226L793.135 343.775C793.612 344.452 794.548 344.613 795.225 344.136C795.902 343.658 796.063 342.722 795.586 342.045L785.316 327.496Z" fill="white"/>
<path d="M755.316 313.496C754.838 312.819 753.902 312.658 753.225 313.136C752.548 313.613 752.387 314.549 752.865 315.226L763.135 329.775C763.612 330.452 764.548 330.613 765.225 330.136C765.902 329.658 766.063 328.722 765.586 328.045L755.316 313.496Z" fill="white"/>
<path d="M720.225 337.136C720.902 336.658 721.838 336.819 722.316 337.496L732.586 352.045C733.063 352.722 732.902 353.658 732.225 354.136C731.548 354.613 730.612 354.452 730.135 353.775L719.865 339.226C719.387 338.549 719.548 337.613 720.225 337.136Z" fill="white"/>
<path d="M766.316 351.496C765.838 350.819 764.902 350.658 764.225 351.136C763.548 351.613 763.387 352.549 763.865 353.226L774.135 367.775C774.612 368.452 775.548 368.613 776.225 368.136C776.902 367.658 777.063 366.722 776.586 366.045L766.316 351.496Z" fill="white"/>
<path d="M752.225 383.135C752.902 382.658 753.838 382.819 754.316 383.496L764.586 398.045C765.063 398.722 764.902 399.658 764.225 400.135C763.548 400.613 762.612 400.452 762.135 399.775L751.865 385.226C751.387 384.549 751.548 383.613 752.225 383.135Z" fill="white"/>
<path d="M752.316 423.496C751.838 422.819 750.902 422.658 750.225 423.136C749.548 423.613 749.387 424.549 749.865 425.226L760.135 439.775C760.612 440.452 761.548 440.613 762.225 440.136C762.902 439.658 763.063 438.722 762.586 438.045L752.316 423.496Z" fill="white"/>
<path d="M698.225 370.135C698.902 369.658 699.838 369.819 700.316 370.496L710.586 385.045C711.063 385.722 710.902 386.658 710.225 387.135C709.548 387.613 708.612 387.452 708.135 386.775L697.865 372.226C697.387 371.549 697.548 370.613 698.225 370.135Z" fill="white"/>
<path d="M688.316 408.496C687.838 407.819 686.902 407.658 686.225 408.135C685.548 408.613 685.387 409.549 685.865 410.226L696.135 424.775C696.612 425.452 697.548 425.613 698.225 425.136C698.902 424.658 699.063 423.722 698.586 423.045L688.316 408.496Z" fill="white"/>
<path d="M880.774 327.136C880.098 326.658 879.162 326.819 878.684 327.496L868.414 342.045C867.936 342.722 868.098 343.658 868.774 344.136C869.451 344.613 870.387 344.452 870.865 343.775L881.135 329.226C881.613 328.549 881.451 327.613 880.774 327.136Z" fill="white"/>
<path d="M947.684 338.496C948.162 337.819 949.098 337.658 949.774 338.136C950.451 338.613 950.613 339.549 950.135 340.226L939.865 354.775C939.387 355.452 938.451 355.613 937.774 355.136C937.098 354.658 936.936 353.722 937.414 353.045L947.684 338.496Z" fill="white"/>
<path d="M897.684 351.496C898.162 350.819 899.098 350.658 899.774 351.136C900.451 351.613 900.613 352.549 900.135 353.226L889.865 367.775C889.387 368.452 888.451 368.613 887.774 368.136C887.098 367.658 886.936 366.722 887.414 366.045L897.684 351.496Z" fill="white"/>
<path d="M911.774 383.136C911.098 382.658 910.162 382.819 909.684 383.496L899.414 398.045C898.936 398.722 899.098 399.658 899.774 400.136C900.451 400.613 901.387 400.452 901.865 399.775L912.135 385.226C912.613 384.549 912.451 383.613 911.774 383.136Z" fill="white"/>
<path d="M911.684 423.496C912.162 422.819 913.098 422.658 913.774 423.136C914.451 423.613 914.613 424.549 914.135 425.226L903.865 439.775C903.387 440.452 902.451 440.613 901.774 440.136C901.098 439.658 900.936 438.722 901.414 438.045L911.684 423.496Z" fill="white"/>
<path d="M971.774 371.136C971.098 370.658 970.162 370.819 969.684 371.496L959.414 386.045C958.936 386.722 959.098 387.658 959.774 388.136C960.451 388.613 961.387 388.452 961.865 387.775L972.135 373.226C972.613 372.549 972.451 371.613 971.774 371.136Z" fill="white"/>
<path d="M983.774 409.135C983.098 408.658 982.162 408.819 981.684 409.496L971.414 424.045C970.936 424.722 971.098 425.658 971.774 426.136C972.451 426.613 973.387 426.452 973.865 425.775L984.135 411.226C984.613 410.549 984.451 409.613 983.774 409.135Z" fill="white"/>
<path fill-rule="evenodd" clip-rule="evenodd" d="M760.116 29.3621C761.021 29.7025 761.478 30.7117 761.138 31.6163L724.638 128.616C724.623 128.656 724.606 128.696 724.588 128.735C702.342 176.804 701.106 223.901 703.237 241.284C703.237 241.285 703.237 241.286 703.237 241.287L730.236 453.779C730.245 453.853 730.25 453.926 730.25 454C730.25 465.886 725.041 473.908 716.813 479.641C708.712 485.285 697.678 488.72 685.93 491.696C635.034 504.59 595.406 520.372 568.566 535.953C555.141 543.747 544.979 551.454 538.206 558.675C531.397 565.934 528.213 572.484 528.25 577.988C528.256 578.955 527.478 579.743 526.512 579.75C525.545 579.756 524.757 578.978 524.75 578.012C524.704 571.183 528.603 563.796 535.653 556.28C542.74 548.726 553.213 540.82 566.809 532.927C594.011 517.135 633.966 501.25 685.07 488.304C696.822 485.327 707.288 482.012 714.812 476.769C722.184 471.633 726.719 464.663 726.75 454.109L699.764 241.721L699.763 241.713C697.562 223.767 698.859 176.032 721.385 127.323L757.862 30.3837C758.203 29.4791 759.212 29.0217 760.116 29.3621Z" fill="#FECFFE" fill-opacity="0.5"/>
<path fill-rule="evenodd" clip-rule="evenodd" d="M369.958 408.845C373.317 366.36 378.557 302.922 383.767 248.144C386.456 219.875 389.138 193.898 391.549 174.293C392.755 164.494 393.895 156.265 394.939 150.13C395.46 147.065 395.961 144.497 396.438 142.507C396.899 140.59 397.384 138.996 397.935 138.049C398.554 136.988 399.566 135.825 400.817 134.604C402.089 133.362 403.691 131.982 405.563 130.492C409.309 127.512 414.209 124.036 419.877 120.28C431.218 112.766 445.714 104.075 460.387 95.8937C475.059 87.7125 489.933 80.0253 502.032 74.5224C508.078 71.7722 513.456 69.5563 517.779 68.0976C519.94 67.3685 521.862 66.8204 523.487 66.4912C524.504 66.2851 526.386 66.2676 527.905 66.3295C524.37 67.7952 520.907 69.5737 517.524 71.7783C513.518 73.1909 508.632 75.2216 503.142 77.7189C491.135 83.1802 476.332 90.8285 461.703 98.986C447.074 107.143 432.644 115.795 421.383 123.257C415.75 126.99 410.929 130.412 407.279 133.317C405.453 134.769 403.938 136.079 402.767 137.221C401.576 138.384 400.819 139.299 400.436 139.957C400.186 140.386 399.803 141.474 399.336 143.418C398.887 145.289 398.403 147.761 397.889 150.787C396.86 156.835 395.728 164.995 394.525 174.773C392.12 194.324 389.442 220.258 386.755 248.516C381.622 302.486 376.458 364.878 373.095 407.33C372.033 407.84 370.988 408.344 369.958 408.845Z" fill="#FECFFE" fill-opacity="0.5"/>
<path fill-rule="evenodd" clip-rule="evenodd" d="M295 466C292.534 479.553 320.541 546.479 319 575.843L499.012 575.85C499.012 497.245 537.435 483.822 590.615 449.094C602.953 441.037 612.968 435.55 621.074 431.11C647.905 416.412 653.814 413.174 653.814 366.084C653.814 354.491 653.748 343.769 653.683 333.431C653.407 289.092 653.175 251.813 658.439 183.124C665.003 97.4533 706.179 71.2876 733.341 54.027C737.868 51.15 742.006 48.5203 745.53 45.9037C764.762 31.6226 774.419 18.9966 778.772 6.00012H691.5C690.296 9.35046 688.662 12.9437 686.662 16.711C680.757 27.8304 671.529 40.694 660.206 53.6527C637.569 79.5625 606.349 106.092 576.054 119.962C561.566 126.595 552.026 141.005 545.659 160.216C539.287 179.439 536.169 203.25 534.419 228.287C533.215 245.518 532.663 263.23 532.129 280.365C531.887 288.136 531.648 295.787 531.355 303.221C530.416 326.957 528.912 348.513 524.845 364.221C516.599 396.075 492.853 408.923 467.293 418.962C462.845 420.709 458.353 422.367 453.866 424.023L453.864 424.024C445.355 427.165 436.864 430.299 428.732 434.017C416.356 439.676 405.05 446.593 396.241 456.675C382.14 472.815 375.201 496.188 371.816 518.868C368.605 540.377 368.621 561.026 368.631 573.871C368.631 574.553 368.632 575.213 368.632 575.85L365.626 577.85C365.626 577.205 365.626 574.536 365.625 573.843C365.615 561.004 365.598 540.095 368.853 518.289C372.28 495.335 379.367 471.125 394.116 454.243C403.339 443.687 415.074 436.558 427.617 430.823C435.837 427.064 444.509 423.863 453.085 420.696C457.547 419.049 461.984 417.411 466.317 415.709C491.846 405.682 514.182 393.306 521.964 363.244C525.912 347.995 527.412 326.841 528.352 303.066C528.644 295.7 528.881 288.087 529.122 280.337L529.122 280.335C529.658 263.163 530.214 245.319 531.424 228.013C533.18 202.887 536.323 178.685 542.849 158.996C549.379 139.294 559.373 123.894 574.938 116.768C604.75 103.12 635.639 76.9068 658.081 51.2205C669.299 38.3812 678.353 25.7333 684.094 14.9244C685.774 11.7597 687.16 8.77224 688.232 6.00012H652.531C637.03 26.7833 619.004 38.1437 604.6 45.9037C589.135 54.2356 573.962 56.5889 559.488 58.8339C537.175 62.2948 516.522 65.4982 499.012 89.9496C470.143 130.262 464.329 277.992 464.329 277.992C464.329 277.992 464.329 366.084 392.652 398.272C314.275 433.468 298.391 447.365 295 466Z" fill="#FECFFE" fill-opacity="0.5"/>
<path d="M597.743 621.086H563.269V586.521C563.269 583.466 562.058 580.535 559.903 578.375C557.748 576.214 554.825 575 551.778 575H264.491C261.444 575 258.521 576.214 256.366 578.375C254.211 580.535 253 583.466 253 586.521V816.95C253 841.395 262.686 864.839 279.926 882.125C297.167 899.41 320.55 909.121 344.932 909.121H471.338C495.719 909.121 519.102 899.41 536.343 882.125C553.584 864.839 563.269 841.395 563.269 816.95V805.428H597.743C622.125 805.428 645.508 795.718 662.749 778.432C679.989 761.147 689.675 737.702 689.675 713.257C689.675 688.812 679.989 665.368 662.749 648.082C645.508 630.797 622.125 621.086 597.743 621.086ZM646.467 762.108C633.549 775.076 616.024 782.369 597.743 782.386H563.269V644.129H597.743C611.371 644.141 624.69 648.201 636.018 655.798C647.345 663.395 656.173 674.187 661.387 686.811C666.6 699.435 667.965 713.325 665.31 726.727C662.655 740.128 656.098 752.44 646.467 762.108Z" fill="#F98E6C"/>
<g style="mix-blend-mode:multiply">
<path d="M597.743 621.086H563.269V586.521C563.269 583.466 562.058 580.535 559.903 578.375C557.748 576.214 554.825 575 551.778 575H264.491C261.444 575 258.521 576.214 256.366 578.375C254.211 580.535 253 583.466 253 586.521V816.95C253 841.395 262.686 864.839 279.926 882.125C297.167 899.41 320.55 909.121 344.932 909.121H471.338C495.719 909.121 519.102 899.41 536.343 882.125C553.584 864.839 563.269 841.395 563.269 816.95V805.428H597.743C622.125 805.428 645.508 795.718 662.749 778.432C679.989 761.147 689.675 737.702 689.675 713.257C689.675 688.812 679.989 665.368 662.749 648.082C645.508 630.797 622.125 621.086 597.743 621.086ZM646.467 762.108C633.549 775.076 616.024 782.369 597.743 782.386H563.269V644.129H597.743C611.371 644.141 624.69 648.201 636.018 655.798C647.345 663.395 656.173 674.187 661.387 686.811C666.6 699.435 667.965 713.325 665.31 726.727C662.655 740.128 656.098 752.44 646.467 762.108Z" fill="url(#paint5_linear_743_273)"/>
</g>
<path fill-rule="evenodd" clip-rule="evenodd" d="M1344 -82H-96V1018H1344V-82ZM139 6C69.9644 6 14 61.9644 14 131V909H1234V131C1234 61.9644 1178.04 6 1109 6H139Z" fill="#F7F3FF"/>
<g style="mix-blend-mode:multiply">
<path fill-rule="evenodd" clip-rule="evenodd" d="M1237.5 912.5H10.5V131C10.5 60.0314 68.0314 2.5 139 2.5H1109C1179.97 2.5 1237.5 60.0314 1237.5 131V912.5ZM139 6C69.9644 6 14 61.9644 14 131V909H1234V131C1234 61.9644 1178.04 6 1109 6H139Z" fill="#F7F3FF"/>
</g>
</g>
<defs>
<linearGradient id="paint0_linear_743_273" x1="829.28" y1="322.231" x2="829.28" y2="750.276" gradientUnits="userSpaceOnUse">
<stop stop-color="#23D9B7"/>
<stop offset="1" stop-color="#1879B2"/>
</linearGradient>
<linearGradient id="paint1_linear_743_273" x1="834.257" y1="322.231" x2="834.257" y2="902.985" gradientUnits="userSpaceOnUse">
<stop stop-color="#23D9B7"/>
<stop offset="1" stop-color="#1879B2"/>
</linearGradient>
<linearGradient id="paint2_linear_743_273" x1="832.835" y1="419.407" x2="832.835" y2="902.983" gradientUnits="userSpaceOnUse">
<stop stop-color="#23D9B7"/>
<stop offset="1" stop-color="#1879B2"/>
</linearGradient>
<linearGradient id="paint3_linear_743_273" x1="497.691" y1="623.38" x2="1228.52" y2="629.379" gradientUnits="userSpaceOnUse">
<stop offset="0.30389" stop-color="#AA86F8" stop-opacity="0"/>
<stop offset="1" stop-color="#AA86F8"/>
</linearGradient>
<linearGradient id="paint4_linear_743_273" x1="443.562" y1="859.108" x2="1126.33" y2="859.108" gradientUnits="userSpaceOnUse">
<stop offset="0.30389" stop-color="#AA86F8" stop-opacity="0"/>
<stop offset="1" stop-color="#AA86F8"/>
</linearGradient>
<linearGradient id="paint5_linear_743_273" x1="116.789" y1="695.767" x2="729.737" y2="695.767" gradientUnits="userSpaceOnUse">
<stop stop-color="#F98E6C"/>
<stop offset="1" stop-color="#F98E6C" stop-opacity="0"/>
</linearGradient>
<clipPath id="clip0_743_273">
<rect width="1248" height="921" fill="white"/>
</clipPath>
</defs>
</svg>
