<svg width="1292" height="939" viewBox="0 0 1292 939" fill="none" xmlns="http://www.w3.org/2000/svg">
<g clip-path="url(#clip0_743_273)">
<path fill-rule="evenodd" clip-rule="evenodd" d="M445.247 3H161C126.321 3 94.9396 17.1225 72.2944 39.93C73.2693 40.1574 74.243 40.3844 75.2161 40.6113C79.465 41.6019 83.7018 42.5898 87.9736 43.5893C83.8021 49.3915 81.4746 55.6057 79.5948 62.1242C76.0141 74.3733 82.1191 84.9928 89.8176 90.3474C100.094 97.4748 111.588 101.307 123.942 103.152C129.617 112.016 129.116 122.403 122.223 131.876C121.732 131.689 121.223 131.512 120.708 131.332C119.647 130.961 118.557 130.58 117.532 130.085C106.557 124.82 94.8484 122.009 82.7816 121.364C63.8483 120.327 47.746 126.368 36 141.812V294.901C38.1899 295.102 40.3937 295.179 42.6241 295.127C41.8984 302.121 39.5385 308.901 36 314.816V342.762C40.079 338.503 43.9352 334.02 47.6908 329.474C49.6074 327.125 50.8727 324.196 52.1235 321.301C52.5319 320.355 52.9388 319.413 53.3662 318.497C54.7868 315.464 56.1534 312.415 57.5198 309.367C59.098 305.847 60.6757 302.327 62.3358 298.833C64.1441 294.965 67.0265 292.118 71.1263 290.435C73.4102 289.49 75.5822 288.305 77.9784 286.999C79.17 286.349 80.4172 285.669 81.761 284.973C84.258 286.865 86.6619 288.872 89.0586 290.873C96.5259 297.107 103.923 303.283 113.844 305.764C115.31 308.817 116.771 311.849 118.23 314.875C120.475 319.534 122.715 324.182 124.962 328.883C121.668 332.465 117.926 334.972 113.576 336.655C112.654 337.007 111.732 337.356 110.809 337.706C106.228 339.443 101.641 341.182 97.1401 343.12C89.8176 346.254 82.4235 349.478 80.4004 358.467C79.0676 358.571 77.7809 358.65 76.528 358.728C73.8759 358.892 71.3746 359.046 68.9064 359.399C55.0568 361.368 44.055 368.237 36 379.347V529.934C38.0641 527.952 40.1476 525.955 42.2617 523.929L44.3071 521.968C47.1345 524.986 49.9585 527.924 52.752 530.83C58.9263 537.254 64.9517 543.522 70.5356 550.156C79.738 561.062 82.4056 574.045 80.5436 588.228C79.3441 597.505 76.2289 606.083 71.9678 614.159C63.6785 629.816 55.1285 645.326 46.5704 660.851C44.3708 664.841 42.1708 668.832 39.9744 672.826C39.2706 674.122 38.4343 675.349 37.4439 676.802C36.9949 677.46 36.5143 678.165 36 678.944V836H143.803C144.743 830.068 145.836 824.153 147.091 818.258C151.012 799.759 156.92 781.976 166.033 765.286C169.398 759.161 173.928 754.416 179.836 750.709C197.417 739.749 216.449 735.433 236.966 738.352C251.539 740.429 266.184 741.217 280.847 740.179C291.518 739.409 302.242 738.065 311.964 733.033C323.744 726.962 334.253 719.155 342.74 708.857C344.723 706.46 346.712 704.087 348.693 701.725C350.056 700.1 351.415 698.479 352.765 696.859C353.148 696.964 353.477 697.063 353.776 697.152C354.192 697.277 354.55 697.385 354.914 697.468C364.707 700.011 374.5 701.551 384.723 699.688C396.808 697.45 407.693 692.615 417.773 685.881C422.66 682.622 427.405 681.583 433.17 683.07C441.28 685.201 449.623 685.469 457.966 684.932C465.557 684.431 472.575 682.031 478.949 678.055C483.299 675.315 486.54 671.573 488.563 666.702C493.325 655.133 489.655 638.658 478.967 630.456C474.527 627.053 469.46 624.116 464.25 622.057C459.685 620.235 454.9 618.946 449.999 617.627C447.77 617.026 445.517 616.419 443.249 615.753C437.592 603.325 429.088 593.225 414.514 588.748C422.428 581.105 426.995 571.983 431.558 562.869C431.785 562.415 432.012 561.962 432.239 561.51C432.518 560.96 432.794 560.403 433.071 559.845C434.553 556.856 436.064 553.809 438.236 551.409C453.257 534.826 471.376 526.822 493.182 531.961C494.766 533.66 496.247 535.359 497.693 537.017C500.789 540.568 503.723 543.934 507.165 546.717C522.06 558.823 539.462 564.59 558.619 565.396C568.806 565.807 578.617 563.909 588.428 561.456C599.6 558.662 608.964 553.003 616.698 544.497C617.535 543.541 618.391 542.604 619.216 541.702C619.503 541.387 619.786 541.077 620.064 540.772C633.67 542.634 646.883 543.154 660.185 540.45C674.669 537.513 687.452 531.263 698.714 521.754C702.867 518.208 707.057 515.056 712.553 513.426C716.832 512.155 721.003 509.648 724.566 506.854C731.638 501.32 735.29 494.211 732.032 484.935C731.923 484.594 732.019 484.163 732.126 483.687C732.177 483.461 732.23 483.224 732.265 482.982C733.245 482.745 734.222 482.519 735.194 482.293C737.007 481.872 738.806 481.455 740.59 480.977C746.158 479.508 751.26 477.055 755.629 473.223C762.897 466.847 765.655 458.699 763.023 449.53C761.161 443.083 757.938 436.994 753.194 431.891C744.833 422.865 734.843 416.329 723.152 412.675C718.765 411.294 714.262 410.263 709.647 409.207C707.5 408.716 705.33 408.219 703.136 407.679C702.74 407.094 702.344 406.463 701.935 405.812C701.143 404.55 700.303 403.213 699.322 401.984C689.565 389.663 677.82 379.545 664.482 371.343C649.551 362.174 633.223 357.626 615.749 358.002C602.518 358.306 589.753 361.44 577.543 366.562C573.13 368.414 568.761 370.41 564.189 372.499C562.307 373.359 560.39 374.234 558.422 375.122C541.861 368.156 524.352 366.831 506.287 372.06C504.891 358.897 504.551 346.576 508.794 335.062C513.467 332.877 517.567 330.979 521.631 329.116C536.652 341.419 554.108 344.983 572.387 342.565C590.738 340.147 607.012 332.178 620.082 318.228C621.238 318.228 622.396 318.244 623.554 318.259C626.123 318.294 628.687 318.328 631.218 318.192C632.529 318.125 633.839 318.064 635.149 318.003C640.831 317.74 646.495 317.477 652.111 316.706C662.119 315.345 671.769 312.712 680.219 306.623C690.227 299.407 695.58 281.964 686.862 269.643C679.414 259.095 670.569 250.231 658.699 244.679C657.728 244.213 656.802 243.662 655.85 243.094C655.486 242.877 655.119 242.658 654.743 242.441C655.065 229.046 648.119 219.465 639.364 210.726C630.501 201.915 620.404 195.862 607.012 196.99C606.315 195.523 605.628 194.105 604.956 192.716C603.452 189.611 602.021 186.655 600.71 183.649C595.948 172.814 589.395 163.341 579.584 156.518C566.228 147.206 551.153 145.862 535.559 147.707C525.086 148.925 514.935 151.575 505.034 155.193C500.952 156.697 496.995 156.715 492.878 155.425C488.491 154.064 484.051 152.865 479.557 151.862C467.92 149.229 456.068 148.388 444.359 150.644C424.003 154.584 410.057 167.084 400.406 184.956C399.539 186.564 398.744 188.226 397.886 190.021C397.54 190.745 397.183 191.49 396.808 192.262C395.135 192.262 393.465 192.202 391.805 192.141C388.136 192.007 384.512 191.875 380.999 192.406C370.579 193.964 360.804 197.868 351.351 202.38C336.921 209.257 329.598 221.327 328.811 236.782C328.148 249.837 334.325 260.367 344.422 268.551C345.349 269.303 346.289 270.049 347.245 270.806C347.768 271.219 348.295 271.637 348.827 272.061C333.412 289.539 313.915 297.813 292.073 302.182C292.606 299.98 293.147 297.791 293.687 295.61C295.028 290.182 296.358 284.802 297.533 279.385C300.989 263.734 303.227 247.974 301.669 231.857C301.418 229.404 302.152 226.682 303.03 224.318C306.539 215.006 312.626 207.753 321.005 202.363L321.582 201.995C327.495 198.232 333.399 194.475 339.051 190.364C346.857 184.687 351.297 176.772 352.855 167.298C353.155 165.441 353.198 163.543 353.241 161.599C353.263 160.639 353.285 159.668 353.338 158.685C353.98 157.858 354.623 157.03 355.267 156.201C356.871 154.135 358.484 152.059 360.106 149.963C371.313 152.614 382.288 153.33 393.46 151.324C404.667 149.319 414.855 145.272 423.717 138.072C436.5 139.075 448.853 138.52 459.846 131.052C470.874 123.549 476.514 112.285 480.524 101.379C501.65 102.453 517.316 81.1784 517.567 64.0404C517.764 50.9675 509.206 40.6524 497.497 33.919C489.637 29.3882 481.169 26.5587 472.289 25.0186C468.78 24.422 465.264 23.9171 461.864 23.429C460.06 23.1699 458.289 22.9156 456.57 22.6548C455.632 20.9002 454.743 19.1789 453.87 17.4897C452.026 13.9204 450.255 10.4942 448.262 7.20006C447.341 5.67744 446.335 4.27679 445.247 3ZM395.859 556.746C393.192 563.014 388.357 567.365 382.055 570.625C380.398 569.002 378.8 567.404 377.231 565.836C374.004 562.609 370.902 559.507 367.661 556.567C356.651 546.592 343.688 541.13 328.954 538.82C309.833 535.847 293.362 541.309 278.806 553.003C273.614 557.194 268.19 558.501 261.977 558.877C247.475 559.755 233.94 563.784 222.482 573.06C218.257 576.481 214.443 580.492 211.042 584.701C208.446 587.924 205.707 589.5 201.571 589.375C198.348 589.285 195 589.625 191.849 590.359C175.879 594.066 161.091 600.281 148.648 611.348C142.472 616.846 137.781 623.525 134.755 631.047C129.187 644.908 131.318 657.998 140.681 669.782C141.362 670.648 142.103 671.476 142.917 672.387C143.366 672.89 143.837 673.417 144.334 673.99C124.837 684.574 105.662 694.996 85.2701 706.082C85.496 704.876 85.6714 703.836 85.8278 702.908C86.1174 701.19 86.342 699.857 86.7024 698.578C96.6925 662.601 110.711 628.289 129.151 595.786C130.53 593.35 132.231 590.933 134.254 589.034C142.418 581.334 151.334 574.582 161.986 570.714C171.245 567.333 180.541 564.049 189.841 560.764C198.866 557.575 207.894 554.386 216.896 551.105C230.324 546.216 242.606 539.536 253.419 529.794C268.655 516.041 286.451 507.284 307.165 504.633C327.271 502.037 347.287 502.896 367.393 504.311C375.539 504.902 383.416 502.556 391.043 499.834C402.268 495.841 412.187 489.429 421.908 482.678C422.578 482.202 423.254 481.732 423.992 481.22C424.419 480.924 424.867 480.613 425.346 480.278L425.35 480.281C426.799 481.14 428.248 481.999 430.108 483.09C429.549 483.923 429.007 484.729 428.478 485.515C427.212 487.398 426.019 489.17 424.845 490.952C416.752 503.29 411.077 516.721 406.225 530.6C403.11 539.447 399.494 548.114 395.859 556.746ZM194.515 522.14C193.329 522.503 191.995 522.909 190.292 523.437C190.961 522.079 191.597 520.788 192.21 519.542C193.941 516.024 195.496 512.864 197.149 509.558C206.62 509.164 214.676 505.779 220.226 497.9C225.4 490.522 228.319 482.409 227.352 472.739C228.178 472.488 229.015 472.24 229.857 471.991C231.238 471.581 232.632 471.167 234.012 470.733C242.641 468.047 250.787 464.394 257.662 458.341C273.722 444.194 271.09 422.417 253.061 411.314C244.235 405.888 234.352 404.187 224.219 403.614C221.774 403.483 219.329 403.518 216.694 403.557C215.373 403.576 214.004 403.596 212.564 403.596C212.76 402.912 212.91 402.292 213.049 401.724C213.327 400.579 213.553 399.646 213.996 398.832C221.014 385.616 229.017 373.152 240.314 363.088C244.406 359.442 248.407 355.706 252.407 351.969C254.008 350.474 255.608 348.979 257.215 347.49C260.597 344.365 263.96 341.221 267.443 337.964C269.75 335.808 272.11 333.602 274.563 331.319C287.385 329.023 299.472 323.872 311.773 318.628C319.242 315.445 326.79 312.228 334.629 309.596C340.591 314.825 345.837 320.413 348.361 328.256C352.228 340.327 352.73 352.719 352.103 365.255C352.067 366.114 340 419.498 307.273 420.752C307.146 418.15 307.053 415.585 306.961 413.049C306.755 407.346 306.554 401.787 305.984 396.271C304.748 384.971 301.025 374.495 293.165 365.953C290.658 363.249 287.722 360.903 284.679 358.808C281.778 356.82 275.942 355.369 275.136 359.811C275.033 360.363 275.97 361.512 277.423 363.293C282.279 369.245 292.901 382.264 289.745 403.739C286.004 429.33 277.088 451.106 262.496 471.468C254.064 483.269 244.396 493.978 234.388 504.419C229.661 509.343 224.165 513.068 217.254 514.751C212.463 515.943 207.798 517.591 203.138 519.236C201.007 519.989 198.877 520.741 196.737 521.449C196.018 521.677 195.298 521.899 194.515 522.14ZM407.371 404.097C399.279 411.01 393.854 419.033 395.519 430.028C394.129 431.143 392.773 432.181 391.463 433.183C388.438 435.499 385.659 437.625 383.273 440.075C380.856 442.492 378.797 445.644 377.723 448.832C375.628 455.225 376.38 461.547 381.429 466.507C383.409 468.475 385.636 470.188 387.982 471.992C389.094 472.847 390.232 473.722 391.383 474.655C391.048 474.897 390.712 475.175 390.368 475.46C389.666 476.042 388.93 476.652 388.089 477.037C380.892 480.332 373.426 482.839 365.423 482.642C360.799 482.522 356.183 482.302 351.568 482.083C346.569 481.845 341.571 481.608 336.563 481.496C335.407 481.47 334.25 481.442 333.093 481.415C317.645 481.045 302.151 480.674 286.827 483.806C286.466 483.883 286.071 483.866 285.496 483.841C285.13 483.825 284.691 483.806 284.141 483.806C285.001 482.212 285.628 481.013 286.29 479.831C291.124 471.163 297.301 463.516 303.979 456.246C305.697 454.347 307.792 452.61 310.048 451.357C316.35 447.865 322.688 444.373 329.258 441.454C347.323 433.449 359.175 419.91 366.175 401.68C367.661 397.865 369.72 394.176 372.03 390.809C375.342 385.938 378.869 381.103 382.861 376.805C385.457 373.994 388.912 371.827 392.296 369.964C394.652 368.665 397.15 367.615 399.646 366.566C401.588 365.749 403.529 364.934 405.401 364.001C409.519 361.96 413.494 359.649 417.379 357.25C427.727 350.892 432.382 341.114 433.599 329.403C433.738 328.029 433.973 326.663 434.247 325.07C434.399 324.191 434.562 323.243 434.727 322.186C436.811 323.695 438.824 325.251 440.816 326.789C447.755 332.15 454.423 337.302 462.854 339.556C463.066 340.858 463.241 342.165 463.416 343.469C463.788 346.24 464.159 349.002 464.877 351.68C467.043 359.793 471.018 367.099 476.013 373.833C477.526 375.834 478.914 377.944 480.325 380.089C480.984 381.091 481.648 382.1 482.333 383.109C480.755 384.44 479.216 385.736 477.696 387.016C474.901 389.369 472.171 391.667 469.388 394.033C457.876 392.905 446.096 392.099 434.298 393.209C424.272 394.14 415.159 397.4 407.371 404.097ZM255.448 237.69C254.805 237.193 254.126 236.669 253.401 236.101C252.452 212.015 240.618 196.489 217.147 190.364C216.91 188.614 216.687 186.912 216.467 185.242C216.105 182.485 215.753 179.813 215.374 177.148C212.116 154.637 199.011 140.508 177.885 133.381C173.946 132.073 169.81 131.393 165.603 132.575C164.21 132.978 162.783 133.24 161.261 133.519C160.553 133.649 159.824 133.782 159.068 133.936C158.973 131.644 158.88 129.376 158.787 127.111C158.582 122.103 158.377 117.107 158.155 111.891C161.359 112.367 164.616 112.844 167.908 113.326C171.79 113.894 175.722 114.469 179.675 115.061C197.167 131.536 197.757 131.858 229.518 143.105C229.58 143.54 229.634 144.003 229.689 144.482C229.793 145.384 229.904 146.342 230.091 147.277C230.308 148.393 230.489 149.521 230.67 150.648C231.117 153.428 231.563 156.205 232.544 158.792C238.649 174.963 245.255 190.937 255.997 204.744C258.665 208.201 261.637 211.46 264.752 214.54C274.993 224.819 279.881 237.14 280.077 251.664C280.364 274.747 272.182 294.446 257.072 311.441C252.626 315.602 248.44 319.391 244.464 322.992C229.289 336.733 217.149 347.724 205.134 366.114C202.165 364.455 201.445 361.824 200.713 359.153L200.658 358.951C198.642 351.805 199.997 344.764 201.341 337.777L201.392 337.515C202.198 333.468 203.451 329.421 205.08 325.642C209.216 316.043 210.039 306.319 206.584 295.986C216.52 295.789 225.937 294.303 235.229 291.814C242.462 289.879 249.212 286.889 255.55 282.859C260.437 279.726 264.233 275.589 266.668 270.234C271.591 259.4 266.829 247.115 259.632 241.026C258.341 239.925 256.997 238.887 255.448 237.69ZM377.15 360.491C376.541 339.055 373.533 318.711 361.843 300.499C364.071 297.649 366.19 294.922 368.335 292.162C369.653 290.465 370.982 288.755 372.352 286.996C380.837 289.368 389.742 289.767 398.729 290.169C401.48 290.292 404.238 290.415 406.995 290.596C414.586 300.445 419.724 311.172 418.865 323.762C418.113 334.918 413.172 343.711 402.412 348.564C396.703 351.136 391.054 353.843 385.232 356.634C382.581 357.904 379.894 359.191 377.15 360.491ZM172.845 364.974C172.797 365.554 172.745 366.18 172.693 366.866C155.398 362.497 139.213 362.461 123.691 371.558C122.356 370.945 121.007 370.323 119.649 369.698C116.964 368.461 114.245 367.208 111.534 365.971C111.391 361.888 112.913 359.112 115.366 356.784C123.028 349.478 131.891 344.732 142.776 344.589C148.057 340.971 149.096 338.106 147.127 332.608C146.562 331.029 145.994 329.452 145.426 327.877C144.591 325.56 143.758 323.246 142.937 320.932C141.96 318.173 141.012 315.404 140.005 312.461C139.666 311.468 139.319 310.456 138.963 309.417C147.789 307.716 156.472 306.068 166.409 304.188C174.018 305.477 178.672 310.993 180.355 319.643C181.483 325.391 181.394 330.764 178.941 336.243C175.486 344.034 173.337 352.253 173.104 360.885C173.078 362.143 172.975 363.392 172.845 364.974ZM285.305 202.739C264.34 191.152 254.69 171.561 248.048 148.477C257.967 150.017 267.097 150.519 276.443 148.244C276.665 148.792 276.905 149.313 277.14 149.821C277.549 150.71 277.94 151.558 278.18 152.435C280.077 159.544 284.768 164.147 291.285 167.03C303.746 172.492 316.583 173.548 329.742 170.092C330.157 169.982 330.581 169.93 331.322 169.84C331.666 169.798 332.078 169.748 332.588 169.68C328.792 173.758 324.644 176.489 320.618 179.139C319.517 179.863 318.425 180.582 317.352 181.321C314.107 183.555 310.799 185.707 307.493 187.858C305.474 189.171 303.457 190.484 301.454 191.815C297.501 194.451 293.577 197.118 289.464 199.913C288.101 200.84 286.718 201.78 285.305 202.739ZM193.511 700.667C191.963 700.506 190.329 700.337 188.573 700.118C189.801 699.168 190.939 698.246 192.03 697.363C194.248 695.568 196.271 693.93 198.456 692.525C202.618 689.908 207.005 687.635 211.379 685.368L211.633 685.237C215.75 683.088 219.635 683.374 224.129 685.29C235.14 689.946 246.365 694.352 257.806 697.88C262.817 699.414 268.072 700.141 273.335 700.87C275.876 701.221 278.419 701.573 280.937 702.016C282.121 702.214 283.297 702.494 284.739 702.838C285.522 703.024 286.382 703.229 287.364 703.449C286.789 704.006 286.321 704.485 285.914 704.901C285.13 705.704 284.575 706.272 283.927 706.708C273.453 714.033 261.673 714.069 249.874 711.884C239.819 710.013 229.827 707.835 219.828 705.655C213.839 704.349 207.848 703.043 201.839 701.802C199.214 701.257 196.525 700.979 193.511 700.667ZM122.666 542.84C122.253 542.979 121.837 543.118 121.417 543.261C114.739 533.519 108.222 524.01 101.598 514.34C101.812 514.39 102.04 514.44 102.277 514.493C103.052 514.664 103.927 514.858 104.749 515.145C117.371 519.336 130.172 521.395 143.51 519.622C146.552 519.218 149.669 519.317 152.891 519.42C154.372 519.467 155.875 519.515 157.403 519.515C157.04 520.262 156.699 520.982 156.368 521.68C155.604 523.289 154.896 524.781 154.109 526.231C151.62 530.815 148.237 533.985 142.865 535.4C138.997 536.425 135.27 537.95 131.542 539.474C129.801 540.186 128.06 540.899 126.305 541.56C125.122 542.017 123.909 542.424 122.666 542.84ZM445.442 515.356C443.678 516.273 441.858 517.22 439.937 518.172C443.428 506.854 448.352 497.882 457.322 492.241C460.59 494.729 463.728 497.122 466.831 499.489C469.134 501.245 471.418 502.986 473.721 504.741C471.965 505.275 470.191 505.777 468.413 506.28C464.406 507.413 460.379 508.552 456.498 510.077C452.79 511.534 449.249 513.375 445.442 515.356ZM487.847 345.983C487.451 350.28 487.049 354.654 485.287 359.023C480.596 352.719 479.271 346.433 478.483 339.556C479.447 338.642 480.448 337.701 481.481 336.729C482.329 335.932 483.199 335.113 484.087 334.274C485.824 334.668 487.471 335.026 489.583 335.509C488.497 338.917 488.174 342.424 487.847 345.983Z" fill="#130237"/>
<path fill-rule="evenodd" clip-rule="evenodd" d="M1366 -85H-74V1015H1366V-85ZM161 3C91.9644 3 36 58.9644 36 128V836H1256V128C1256 58.9644 1200.04 3 1131 3H161Z" fill="#F7F3FF"/>
<path fill-rule="evenodd" clip-rule="evenodd" d="M562.824 149.656C566.177 186.709 571.408 242.037 576.609 289.812C579.293 314.467 581.97 337.123 584.377 354.222C585.581 362.769 586.719 369.946 587.76 375.296C588.281 377.97 588.781 380.209 589.258 381.944C589.717 383.616 590.201 385.006 590.752 385.832C591.369 386.758 592.379 387.772 593.629 388.837C594.899 389.92 596.497 391.124 598.366 392.423C602.106 395.023 606.996 398.054 612.655 401.33C623.975 407.884 638.446 415.463 653.093 422.599C667.739 429.734 682.588 436.438 694.665 441.238C700.701 443.637 706.068 445.569 710.385 446.841C712.542 447.477 714.46 447.955 716.082 448.242C717.097 448.422 718.976 448.437 720.492 448.383C716.963 447.105 713.507 445.554 710.13 443.631C706.131 442.399 701.254 440.628 695.773 438.45C683.787 433.687 669.011 427.016 654.407 419.902C639.804 412.787 625.4 405.242 614.158 398.733C608.535 395.478 603.723 392.493 600.079 389.96C598.257 388.693 596.744 387.551 595.575 386.555C594.386 385.541 593.631 384.742 593.248 384.168C592.999 383.794 592.616 382.845 592.151 381.15C591.702 379.518 591.219 377.362 590.705 374.723C589.679 369.449 588.549 362.332 587.348 353.804C584.947 336.752 582.274 314.133 579.591 289.488C574.467 242.417 569.312 188.001 565.956 150.976C564.896 150.532 563.852 150.092 562.824 149.656Z" fill="#FECFFE" fill-opacity="0.5"/>
<path fill-rule="evenodd" clip-rule="evenodd" d="M494.694 98.299C492.232 86.479 488.539 28.6101 487 3H715.388C715.388 71.5562 730.006 84.2628 783.092 114.552C795.409 121.579 805.406 126.364 813.497 130.237C840.281 143.056 846.18 145.879 846.18 186.949C846.18 197.06 846.113 206.412 846.049 215.428C845.773 254.099 845.542 286.612 850.796 346.52C857.349 421.238 898.452 444.059 925.566 459.113C930.085 461.622 934.216 463.916 937.734 466.198C956.931 478.653 966.572 489.665 970.917 501H883.799C882.597 498.078 880.966 494.944 878.969 491.658C873.074 481.96 863.863 470.741 852.561 459.439C829.963 436.842 798.798 413.704 768.557 401.607C754.094 395.822 744.571 383.254 738.215 366.499C731.854 349.733 728.742 328.967 726.995 307.13C725.793 292.103 725.242 276.654 724.709 261.71C724.467 254.933 724.229 248.26 723.936 241.776C722.999 221.074 721.497 202.274 717.438 188.574C709.206 160.792 685.503 149.587 659.987 140.831C655.547 139.308 651.063 137.862 646.584 136.417L646.582 136.417L646.582 136.417L646.582 136.416C638.087 133.677 629.612 130.944 621.494 127.701C609.14 122.765 597.854 116.733 589.061 107.939C574.984 93.8627 568.058 73.4776 564.679 53.6974C561.473 34.9386 561.489 16.9286 561.499 5.7261C561.499 5.13123 561.5 4.55556 561.5 4H558.5C558.5 4.56226 558.499 5.14599 558.499 5.75022C558.489 16.9478 558.472 35.1838 561.721 54.2026C565.142 74.2224 572.216 95.3373 586.939 110.061C596.146 119.267 607.86 125.485 620.381 130.487C628.587 133.765 637.243 136.557 645.804 139.319C650.259 140.756 654.687 142.184 659.013 143.669C684.497 152.413 706.793 163.208 714.562 189.426C718.502 202.726 720.001 221.176 720.939 241.912C721.23 248.335 721.466 254.975 721.708 261.735L721.708 261.736C722.242 276.713 722.797 292.275 724.005 307.37C725.758 329.283 728.895 350.392 735.41 367.563C741.929 384.746 751.905 398.178 767.443 404.393C797.202 416.296 828.037 439.158 850.439 461.561C861.637 472.759 870.675 483.79 876.406 493.217C878.083 495.977 879.467 498.582 880.537 501H844.899C829.425 482.874 811.431 472.966 797.053 466.198C781.614 458.931 766.469 456.879 752.02 454.921C729.746 451.902 709.129 449.108 691.65 427.783C662.833 392.623 657.029 263.78 657.029 263.78C657.029 263.78 657.029 186.949 585.478 158.877C507.239 128.18 498.079 114.552 494.694 98.299Z" fill="#FECFFE" fill-opacity="0.5"/>
<path fill-rule="evenodd" clip-rule="evenodd" d="M952.078 476.67C952.067 476.648 952.057 476.626 952.046 476.604C950.577 473.555 948.472 469.144 945.928 463.696C940.839 452.801 933.997 437.769 926.981 421.215C912.918 388.033 898.262 348.979 895.49 324.829C894.112 312.819 895.296 293.958 897.753 272.127C900.205 250.337 903.907 225.735 907.508 202.303C907.892 199.801 908.275 197.312 908.656 194.841L908.656 194.839C911.836 174.19 914.822 154.806 916.639 139.581C917.656 131.061 918.314 123.797 918.43 118.321C918.488 115.587 918.413 113.251 918.167 111.406C917.933 109.649 917.51 108.024 916.631 107.015C912.033 101.736 901.44 92.1641 888.724 82.4337C876.019 72.7116 861.068 62.734 847.684 56.6632C845.109 55.1914 841.016 53.3834 836.218 51.2637L836.218 51.2637L836.217 51.2636C834.62 50.558 832.944 49.8178 831.221 49.044C824.202 45.8935 816.24 42.1269 808.982 37.6948C801.706 33.2519 795.253 28.2072 791.159 22.5461C787.103 16.9359 785.399 10.7848 787.438 3.92742L784.562 3.07251C782.201 11.0151 784.256 18.1182 788.728 24.3039C793.164 30.4385 800.01 35.7314 807.418 40.2551C814.844 44.7897 822.948 48.6189 829.992 51.7809C831.802 52.5934 833.533 53.3582 835.162 54.0777C839.937 56.1876 843.831 57.9082 846.252 59.3003C846.294 59.3244 846.337 59.3465 846.381 59.3664C859.481 65.2984 874.252 75.1374 886.901 84.8162C899.56 94.5025 909.967 103.931 914.369 108.985C914.615 109.267 914.965 110.087 915.193 111.802C915.41 113.428 915.487 115.591 915.431 118.258C915.317 123.583 914.675 130.73 913.661 139.225C911.849 154.396 908.873 173.725 905.69 194.389C905.31 196.857 904.927 199.345 904.542 201.847C900.943 225.274 897.232 249.933 894.772 271.792C892.316 293.608 891.088 312.781 892.51 325.171C895.338 349.821 910.182 389.267 924.219 422.385C931.253 438.981 938.111 454.048 943.21 464.966C944.506 467.741 945.688 470.248 946.731 472.444C948.635 473.868 950.415 475.276 952.078 476.67Z" fill="#FECFFE" fill-opacity="0.5"/>
<g style="mix-blend-mode:multiply">
<path fill-rule="evenodd" clip-rule="evenodd" d="M1259.5 839.5H32.5V128C32.5 57.0314 90.0314 -0.5 161 -0.5H1131C1201.97 -0.5 1259.5 57.0314 1259.5 128V839.5ZM161 3C91.9644 3 36 58.9644 36 128V836H1256V128C1256 58.9644 1200.04 3 1131 3H161Z" fill="#D386F8"/>
</g>
<rect y="833" width="1292" height="106" fill="#7D07F2"/>
<g style="mix-blend-mode:multiply">
<path fill-rule="evenodd" clip-rule="evenodd" d="M0 845.338V836.162C6.58305 836.239 14.1869 836.566 22.8138 837.146C28.0413 837.473 46.392 837.637 68.6633 837.528C89.0832 837.418 105.637 837.528 105.419 837.691C105.201 837.91 102.969 838.564 100.409 839.164C89.9 841.729 78.5193 843.475 63.3814 844.839C55.6241 845.525 25.5354 845.713 0 845.338ZM0 862.107V853.892C5.16838 853.723 11.4651 853.588 19.2742 853.46C48.2433 852.969 115.221 850.186 125.131 849.095C131.393 848.385 136.512 846.967 147.021 843.093C166.08 835.999 176.099 835.072 211.221 836.927L218.3 837.309L214.38 837.745C204.36 838.782 195.321 841.347 175.01 848.931C159.273 854.77 153.719 856.352 143.754 857.825C129.596 859.953 79.7717 861.536 13.3933 862.027C8.49417 862.06 4.03672 862.087 0 862.107ZM0 877.742V871.132C45.7844 870.431 97.6733 870.542 109.122 871.357C140.432 873.649 149.308 875.232 213.291 889.746C241.225 896.075 261.7 899.676 282.011 901.859C294.208 903.114 320.073 903.169 330.202 901.859C350.077 899.404 380.026 892.31 403.986 884.562C414.114 881.234 426.856 878.178 434.534 877.196C437.752 876.787 441.989 876.189 444.889 875.78L444.947 875.772C445.508 875.693 446.018 875.621 446.459 875.559C453.592 874.413 470.854 872.667 484.304 871.739C507.338 870.157 528.792 869.775 595.552 869.884C638.308 869.954 653.725 870.002 659.499 870.313C665.273 870.002 680.691 869.954 723.447 869.884C790.207 869.775 811.661 870.157 834.695 871.739C848.145 872.667 865.406 874.413 872.54 875.559L873.323 875.669L874.109 875.78C877.01 876.189 881.247 876.787 884.465 877.196C892.143 878.178 904.885 881.234 915.013 884.562C938.973 892.31 968.922 899.404 988.797 901.859C998.925 903.169 1024.79 903.114 1036.99 901.859C1057.3 899.676 1077.77 896.075 1105.71 889.746C1169.69 875.232 1178.57 873.649 1209.88 871.357C1219.1 870.7 1254.6 870.5 1292 870.815V877.753C1224.3 877.876 1216.99 878.995 1170.56 891.655C1144.97 898.64 1141.1 899.513 1111.1 905.297C1080.93 911.135 1058.22 912.99 1018.2 913.045C990.104 913.099 972.298 912.063 953.947 909.334C934.616 906.497 922.31 903.332 904.667 896.675C891.163 891.601 890.4 891.328 882.886 889.255C853.699 881.179 833.551 879.269 762.272 878.014L749.753 877.792H749.751H749.749H749.747H749.744L749.742 877.792H749.739H749.737H749.735L749.732 877.792H749.73H749.727H749.725L749.722 877.792H749.72H749.718H749.715L749.713 877.792H749.71H749.708H749.705L749.703 877.792H749.701H749.698H749.696L749.693 877.792H749.691H749.688L749.685 877.792H749.683H749.681L749.679 877.792L749.676 877.791C684.009 876.626 665.346 876.295 659.499 875.817C653.653 876.295 634.989 876.626 569.323 877.791L569.32 877.792L569.318 877.792H569.315H569.313L569.311 877.792H569.308H569.306L569.303 877.792H569.301H569.298H569.296L569.293 877.792H569.291H569.288H569.286L569.284 877.792H569.281H569.279H569.276L569.274 877.792H569.271H569.269H569.267L569.264 877.792H569.262H569.259H569.257L569.255 877.792H569.252H569.25H569.248H569.246L556.727 878.014C485.447 879.269 465.3 881.179 436.113 889.255C428.598 891.328 427.836 891.601 414.332 896.675C396.689 903.332 384.382 906.497 365.052 909.334C346.701 912.063 328.895 913.099 300.797 913.045C260.774 912.99 238.067 911.135 207.9 905.297C177.896 899.513 174.03 898.64 148.437 891.655C99.8104 878.396 94.0928 877.796 16.9872 877.742H0ZM0 907.483V899.686C11.7493 899.484 26.1577 899.887 41.8723 900.931C43.9898 901.061 47.6994 901.3 52.037 901.581L52.0599 901.582C56.8635 901.893 62.4345 902.253 67.4652 902.568C93.4938 904.26 113.206 905.951 166.298 911.299C231.315 917.792 254.076 919.374 290.451 919.865C323.395 920.302 345.612 919.265 370.279 916.209C382.858 914.682 391.897 912.881 410.792 908.297C436.549 902.023 441.558 901.095 459.8 899.294C502.927 894.984 557.761 892.965 605.462 893.947C616.843 894.165 633.397 894.384 642.218 894.438C652.168 894.47 656.924 894.58 659.499 895.13C662.075 894.58 666.831 894.47 676.781 894.438C685.602 894.384 702.156 894.165 713.537 893.947C761.238 892.965 816.072 894.984 859.199 899.294C877.441 901.095 882.45 902.023 908.207 908.297C927.102 912.881 936.141 914.682 948.72 916.209C973.387 919.265 995.604 920.302 1028.55 919.865C1064.92 919.374 1087.68 917.792 1152.7 911.299C1205.79 905.951 1225.5 904.26 1251.53 902.568C1256.56 902.253 1262.14 901.893 1266.94 901.582L1266.96 901.581C1271.3 901.3 1275.01 901.061 1277.13 900.931C1282.24 900.591 1287.21 900.32 1292 900.114V907.731C1242.24 908.547 1196.48 911.316 1161.41 915.664C1147.26 917.41 1086.59 926.304 1087.52 926.467C1088.39 926.631 1123.73 921.939 1146.6 918.61C1153.9 917.573 1160.27 916.755 1160.76 916.864C1161.63 917.028 1138.87 920.847 1120.57 923.576C1078.59 929.905 1036.66 933.943 1010.03 934.325C952.804 935.089 924.107 931.978 875.371 919.701C827.507 907.697 792.548 901.968 756.827 900.331C744.466 899.785 738.422 899.895 702.102 901.15C685.791 901.704 670.97 902.2 663.455 902.431V902.568H660.623C660.453 902.568 660.072 902.561 659.499 902.546C658.927 902.561 658.546 902.568 658.376 902.568H655.544V902.431C648.029 902.2 633.208 901.704 616.897 901.15C580.577 899.895 574.533 899.785 562.172 900.331C526.451 901.968 491.492 907.697 443.627 919.701C394.892 931.978 366.195 935.089 308.965 934.325C282.337 933.943 240.408 929.905 198.425 923.576C180.129 920.847 157.367 917.028 158.239 916.864C158.729 916.755 165.1 917.573 172.396 918.61C195.267 921.939 230.607 926.631 231.478 926.467C232.404 926.304 171.743 917.41 157.585 915.664C116.253 910.54 60.0723 907.609 0 907.483ZM0 923.88V916.371C3.47663 916.643 7.26758 916.89 10.0172 917.028C23.0315 917.628 84.4002 921.065 107.761 922.484C151.541 925.212 169.946 927.013 207.138 932.033C231.324 935.317 250.652 937.547 268.892 939H222.653C219.575 938.525 216.094 937.984 212.583 937.435C164.337 929.796 154.971 928.432 138.744 926.849C125.948 925.649 105.528 924.503 81.8953 923.794C63.3596 923.237 25.797 923.319 0 923.88ZM823.223 939C820.232 938.69 817.161 938.368 814.003 938.035C756.99 932.033 745.174 931.269 711.903 931.214C685.657 931.214 680.048 931.487 667.524 933.452C666.041 933.691 664.642 933.931 663.359 934.164C663.246 935.662 663.002 935.789 662.475 935.634C661.777 935.429 660.763 935.184 659.499 934.916C658.236 935.184 657.222 935.429 656.524 935.634C655.997 935.789 655.753 935.662 655.64 934.164C654.356 933.931 652.958 933.691 651.475 933.452C638.951 931.487 633.342 931.214 607.096 931.214C573.825 931.269 562.009 932.033 504.996 938.035C501.838 938.368 498.767 938.69 495.776 939H401.001C427.354 936.849 458.785 932.88 510.278 925.758C557.162 919.265 582.592 917.3 634.322 916.373C650.607 916.098 656.592 916.134 659.499 916.987C662.407 916.134 668.391 916.098 684.676 916.373C736.407 917.3 761.837 919.265 808.721 925.758C860.214 932.88 891.645 936.849 917.998 939H823.223ZM1292 917.907V923.497C1271.37 923.331 1249.78 923.413 1237.1 923.794C1213.47 924.503 1193.05 925.649 1180.25 926.849C1164.03 928.432 1154.66 929.796 1106.42 937.435C1102.9 937.984 1099.42 938.525 1096.35 939H1050.11C1068.35 937.547 1087.68 935.317 1111.86 932.033C1149.05 927.013 1167.46 925.212 1211.24 922.484C1228.88 921.413 1268.2 919.19 1292 917.907ZM1102.61 939C1115.81 937.201 1133.09 934.638 1145.3 932.579C1152.43 931.378 1158.42 930.451 1158.53 930.614C1158.74 930.824 1158.69 930.832 1144.17 933.598L1144.17 933.598L1142.35 933.943C1132.37 935.828 1122.51 937.52 1112.89 939H1102.61ZM206.113 939C196.493 937.52 186.624 935.828 176.644 933.943L174.833 933.598L174.833 933.598L174.833 933.598C160.304 930.832 160.262 930.824 160.471 930.614C160.58 930.451 166.57 931.378 173.703 932.579C185.912 934.638 203.185 937.201 216.384 939H206.113ZM1292 853.298V861.908C1232.47 861.313 1188.42 859.805 1175.24 857.825C1165.28 856.352 1159.73 854.77 1143.99 848.931C1123.68 841.347 1114.64 838.782 1104.62 837.745L1100.7 837.309L1107.78 836.927C1142.9 835.072 1152.92 835.999 1171.98 843.093C1182.49 846.967 1187.61 848.385 1193.87 849.095C1202.98 850.098 1260.29 852.53 1292 853.298ZM1292 837.31V845.528C1275.33 845.524 1260.69 845.288 1255.62 844.839C1240.48 843.475 1229.1 841.729 1218.59 839.164C1216.03 838.564 1213.8 837.91 1213.58 837.691C1213.36 837.528 1229.92 837.418 1250.34 837.528C1268.49 837.617 1284.04 837.524 1292 837.31ZM125.567 882.543C125.948 882.707 125.676 882.816 124.913 882.816C124.151 882.816 123.879 882.707 124.205 882.543C124.587 882.434 125.24 882.434 125.567 882.543ZM128.562 883.089C129.106 883.253 128.779 883.362 127.908 883.362C126.983 883.362 126.601 883.253 126.928 883.089C127.309 882.98 128.072 882.98 128.562 883.089ZM135.096 884.235C137.383 884.726 139.398 885.271 139.561 885.49C139.725 885.653 139.289 885.653 138.527 885.49C137.764 885.326 135.477 884.835 133.408 884.508C131.339 884.126 129.923 883.689 130.25 883.58C130.631 883.471 132.755 883.798 135.096 884.235ZM234.364 927.013C235.399 927.013 235.834 926.904 235.29 926.74C234.8 926.631 233.928 926.631 233.384 926.74C232.894 926.904 233.329 927.013 234.364 927.013ZM238.993 927.559C239.864 927.559 240.191 927.45 239.646 927.286C239.156 927.177 238.394 927.177 238.012 927.286C237.686 927.45 238.067 927.559 238.993 927.559ZM242.314 928.159C242.913 928.159 243.077 927.995 242.641 927.832C242.26 927.668 241.77 927.722 241.606 927.886C241.389 928.05 241.715 928.214 242.314 928.159ZM156.278 916.701C156.877 916.701 157.041 916.537 156.605 916.373C156.224 916.21 155.734 916.264 155.57 916.428C155.353 916.592 155.679 916.755 156.278 916.701ZM230.879 884.235C212.583 879.979 193.034 873.922 176.971 867.647C172.288 865.792 168.476 864.155 168.476 863.937C168.53 863.282 173.268 860.008 177.406 857.771C185.139 853.569 196.737 850.077 210.568 847.731C221.785 845.821 223.8 845.93 214.761 847.949C202.455 850.732 187.371 857.88 182.144 863.5L180.946 864.755L185.846 867.047C198.48 872.885 209.37 876.432 238.993 884.344C249.448 887.126 257.616 889.418 257.071 889.418C255.655 889.473 240.3 886.417 230.879 884.235ZM242.26 844.02C243.458 844.02 243.893 843.911 243.186 843.802C242.532 843.693 241.552 843.693 241.007 843.802C240.517 843.966 241.062 844.075 242.26 844.02ZM248.903 843.256C249.774 843.365 249.175 843.475 247.705 843.475C246.18 843.475 245.527 843.365 246.18 843.256C246.888 843.147 248.086 843.147 248.903 843.256ZM254.784 842.929C255.982 842.929 256.418 842.82 255.71 842.711C255.056 842.602 254.076 842.602 253.532 842.711C253.042 842.875 253.586 842.984 254.784 842.929ZM444.009 853.406C418.525 850.841 387.595 845.712 358.245 839.164L350.077 837.364L362.601 837.2C378.556 836.982 407.743 837.964 417.436 839.001C428.217 840.146 433.499 841.074 447.004 844.13C465.899 848.386 484.032 850.459 527.594 853.46C556.781 855.424 600.289 856.734 637.263 856.734C649.526 856.734 656.092 856.802 659.499 857.053C662.907 856.802 669.473 856.734 681.736 856.734C718.71 856.734 762.218 855.424 791.404 853.46C834.967 850.459 853.1 848.386 871.995 844.13C885.499 841.074 890.781 840.146 901.563 839.001C911.256 837.964 940.443 836.982 956.397 837.2L968.922 837.364L960.754 839.164C931.403 845.712 900.474 850.841 874.99 853.406C817.978 859.244 767.064 861.699 705.641 861.59C674.966 861.544 663.731 861.301 659.499 860.329C655.268 861.301 644.033 861.544 613.358 861.59C551.935 861.699 501.021 859.244 444.009 853.406ZM507.283 838.618C514.961 841.783 525.307 844.511 534.673 845.821C536.457 846.065 539.63 846.55 542.618 847.008L542.623 847.009L542.627 847.009L542.663 847.015C543.672 847.169 544.659 847.321 545.564 847.458C567.454 851.005 578.617 851.55 623.377 851.387C639.437 851.346 653.382 851.245 659.499 851.128C665.617 851.245 679.562 851.346 695.622 851.387C740.382 851.55 751.545 851.005 773.435 847.458C774.339 847.321 775.326 847.169 776.335 847.015L776.372 847.009L776.376 847.009L776.381 847.008C779.369 846.55 782.542 846.065 784.326 845.821C793.692 844.511 804.038 841.783 811.716 838.618C813.24 837.964 814.547 837.309 814.547 837.2C814.547 836.818 773.054 837.582 757.916 838.236C743.976 838.782 741.58 838.946 710.542 841.783C698.998 842.82 684.949 843.911 679.231 844.184C667.578 844.784 662.841 845.439 659.519 846.912L659.499 846.921L659.48 846.912C656.158 845.439 651.421 844.784 639.768 844.184C634.05 843.911 620.001 842.82 608.457 841.783C577.419 838.946 575.023 838.782 561.083 838.236C545.945 837.582 504.452 836.818 504.452 837.2C504.452 837.309 505.758 837.964 507.283 838.618ZM1193.43 882.543C1193.05 882.707 1193.32 882.816 1194.09 882.816C1194.85 882.816 1195.12 882.707 1194.79 882.543C1194.41 882.434 1193.76 882.434 1193.43 882.543ZM1190.44 883.089C1189.89 883.253 1190.22 883.362 1191.09 883.362C1192.02 883.362 1192.4 883.253 1192.07 883.089C1191.69 882.98 1190.93 882.98 1190.44 883.089ZM1183.9 884.235C1181.62 884.726 1179.6 885.271 1179.44 885.49C1179.27 885.653 1179.71 885.653 1180.47 885.49C1181.23 885.326 1183.52 884.835 1185.59 884.508C1187.66 884.126 1189.08 883.689 1188.75 883.58C1188.37 883.471 1186.24 883.798 1183.9 884.235ZM1084.63 927.013C1083.6 927.013 1083.16 926.904 1083.71 926.74C1084.2 926.631 1085.07 926.631 1085.61 926.74C1086.1 926.904 1085.67 927.013 1084.63 927.013ZM1080.01 927.559C1079.13 927.559 1078.81 927.45 1079.35 927.286C1079.84 927.177 1080.61 927.177 1080.99 927.286C1081.31 927.45 1080.93 927.559 1080.01 927.559ZM1076.68 928.159C1076.09 928.159 1075.92 927.995 1076.36 927.832C1076.74 927.668 1077.23 927.722 1077.39 927.886C1077.61 928.05 1077.28 928.214 1076.68 928.159ZM1162.72 916.701C1162.12 916.701 1161.96 916.537 1162.39 916.373C1162.77 916.21 1163.26 916.264 1163.43 916.428C1163.65 916.592 1163.32 916.755 1162.72 916.701ZM1088.12 884.235C1106.42 879.979 1125.96 873.922 1142.03 867.647C1146.71 865.792 1150.52 864.155 1150.52 863.937C1150.47 863.282 1145.73 860.008 1141.59 857.771C1133.86 853.569 1122.26 850.077 1108.43 847.731C1097.21 845.821 1095.2 845.93 1104.24 847.949C1116.54 850.732 1131.63 857.88 1136.86 863.5L1138.05 864.755L1133.15 867.047C1120.52 872.885 1109.63 876.432 1080.01 884.344C1069.55 887.126 1061.38 889.418 1061.93 889.418C1063.34 889.473 1078.7 886.417 1088.12 884.235ZM1076.74 844.02C1075.54 844.02 1075.11 843.911 1075.81 843.802C1076.47 843.693 1077.45 843.693 1077.99 843.802C1078.48 843.966 1077.94 844.075 1076.74 844.02ZM1070.1 843.256C1069.22 843.365 1069.82 843.475 1071.29 843.475C1072.82 843.475 1073.47 843.365 1072.82 843.256C1072.11 843.147 1070.91 843.147 1070.1 843.256ZM1064.21 842.929C1063.02 842.929 1062.58 842.82 1063.29 842.711C1063.94 842.602 1064.92 842.602 1065.47 842.711C1065.96 842.875 1065.41 842.984 1064.21 842.929Z" fill="#7D07F2"/>
</g>
<path d="M1100.21 546.793H1065.79V512.448C1065.79 509.412 1064.58 506.5 1062.43 504.353C1060.28 502.206 1057.36 501 1054.32 501H767.474C764.431 501 761.512 502.206 759.361 504.353C757.209 506.5 756 509.412 756 512.448V741.414C756 765.704 765.671 788.999 782.885 806.175C800.098 823.351 823.445 833 847.789 833H974C998.344 833 1021.69 823.351 1038.9 806.175C1056.12 788.999 1065.79 765.704 1065.79 741.414V729.966H1100.21C1124.55 729.966 1147.9 720.316 1165.12 703.141C1182.33 685.965 1192 662.669 1192 638.379C1192 614.089 1182.33 590.794 1165.12 573.618C1147.9 556.442 1124.55 546.793 1100.21 546.793ZM1148.86 686.92C1135.96 699.806 1118.46 707.053 1100.21 707.069H1065.79V569.69H1100.21C1113.82 569.702 1127.12 573.737 1138.43 581.285C1149.74 588.834 1158.55 599.557 1163.76 612.101C1168.96 624.645 1170.32 638.447 1167.67 651.763C1165.02 665.08 1158.47 677.314 1148.86 686.92Z" fill="white"/>
<g style="mix-blend-mode:multiply">
<path d="M1100.21 546.793H1065.79V512.448C1065.79 509.412 1064.58 506.5 1062.43 504.353C1060.28 502.206 1057.36 501 1054.32 501H767.474C764.431 501 761.512 502.206 759.361 504.353C757.209 506.5 756 509.412 756 512.448V741.414C756 765.704 765.671 788.999 782.885 806.175C800.098 823.351 823.445 833 847.789 833H974C998.344 833 1021.69 823.351 1038.9 806.175C1056.12 788.999 1065.79 765.704 1065.79 741.414V729.966H1100.21C1124.55 729.966 1147.9 720.316 1165.12 703.141C1182.33 685.965 1192 662.669 1192 638.379C1192 614.089 1182.33 590.794 1165.12 573.618C1147.9 556.442 1124.55 546.793 1100.21 546.793ZM1148.86 686.92C1135.96 699.806 1118.46 707.053 1100.21 707.069H1065.79V569.69H1100.21C1113.82 569.702 1127.12 573.737 1138.43 581.285C1149.74 588.834 1158.55 599.557 1163.76 612.101C1168.96 624.645 1170.32 638.447 1167.67 651.763C1165.02 665.08 1158.47 677.314 1148.86 686.92Z" fill="url(#paint0_linear_743_273)"/>
</g>
</g>
<defs>
<linearGradient id="paint0_linear_743_273" x1="620" y1="621" x2="1232" y2="621" gradientUnits="userSpaceOnUse">
<stop stop-color="#AA86F8"/>
<stop offset="1" stop-color="#D38DF1" stop-opacity="0"/>
</linearGradient>
<clipPath id="clip0_743_273">
<rect width="1292" height="939" fill="white"/>
</clipPath>
</defs>
</svg>
