<svg width="1248" height="921" viewBox="0 0 1248 921" fill="none" xmlns="http://www.w3.org/2000/svg">
<g clip-path="url(#clip0_743_273)">
<path fill-rule="evenodd" clip-rule="evenodd" d="M394.787 6H85.1607C47.3849 6 13.202 21.377 -11.465 46.2107C-10.403 46.4583 -9.3424 46.7055 -8.28243 46.9525C-3.65423 48.0312 0.960943 49.1068 5.61408 50.1951C1.07011 56.5128 -1.46515 63.2789 -3.51281 70.3765C-7.41321 83.7138 -0.763073 95.2767 7.62278 101.107C18.8169 108.868 31.3371 113.04 44.7935 115.049C50.9756 124.701 50.4295 136.01 42.9213 146.325C42.3863 146.121 41.8326 145.928 41.2718 145.732C40.1152 145.328 38.9282 144.914 37.8118 144.375C25.8571 138.642 13.1028 135.581 -0.0415139 134.879C-20.6653 133.749 -38.2053 140.328 -51 157.143V323.833C-48.6146 324.051 -46.214 324.135 -43.7845 324.078C-44.5749 331.693 -47.1455 339.076 -51 345.517V375.945C-46.5568 371.308 -42.3563 366.426 -38.2654 361.477C-36.1777 358.919 -34.7994 355.73 -33.4369 352.577C-32.992 351.548 -32.5488 350.522 -32.0832 349.524C-30.5358 346.221 -29.0471 342.902 -27.5588 339.584C-25.8397 335.75 -24.1211 331.918 -22.3128 328.114C-20.343 323.902 -17.2033 320.802 -12.7374 318.969C-10.2496 317.94 -7.88372 316.65 -5.27353 315.228C-3.97548 314.52 -2.617 313.78 -1.15314 313.022C1.56675 315.083 4.18532 317.268 6.79598 319.447C14.93 326.235 22.9875 332.959 33.7944 335.66C35.3917 338.985 36.983 342.285 38.5718 345.581C41.0177 350.654 43.4578 355.715 45.9051 360.833C42.3167 364.733 38.2409 367.463 33.5019 369.296C32.4983 369.678 31.4937 370.059 30.4887 370.44C25.4984 372.331 20.5014 374.225 15.5991 376.335C7.62278 379.747 -0.43158 383.257 -2.63528 393.046C-4.08704 393.158 -5.48861 393.245 -6.85347 393.329C-9.74237 393.507 -12.4669 393.676 -15.1556 394.06C-30.2417 396.204 -42.2258 403.683 -51 415.78V579.745C-48.7516 577.586 -46.482 575.412 -44.1793 573.206L-41.9512 571.071C-38.8713 574.357 -35.7952 577.556 -32.7523 580.72C-26.0267 587.715 -19.4634 594.54 -13.3809 601.763C-3.35684 613.637 -0.45106 627.774 -2.47931 643.218C-3.78593 653.318 -7.17925 662.658 -11.8207 671.452C-20.8502 688.5 -30.1636 705.387 -39.4858 722.291C-41.8818 726.636 -44.2783 730.981 -46.6707 735.331C-47.4373 736.742 -48.3483 738.077 -49.4272 739.659C-49.9162 740.376 -50.4397 741.144 -51 741.992V913H66.4281C67.4527 906.541 68.6423 900.101 70.0095 893.682C74.2804 873.539 80.7162 854.177 90.6426 836.004C94.309 829.335 99.243 824.168 105.679 820.132C124.83 808.198 145.56 803.499 167.909 806.677C183.784 808.939 199.737 809.797 215.709 808.666C227.332 807.828 239.014 806.365 249.603 800.886C262.435 794.276 273.883 785.774 283.127 774.563C285.287 771.952 287.454 769.369 289.612 766.797C291.097 765.027 292.577 763.263 294.048 761.498C294.465 761.613 294.823 761.72 295.149 761.818C295.602 761.954 295.992 762.071 296.388 762.161C307.056 764.93 317.724 766.607 328.859 764.579C342.023 762.142 353.88 756.877 364.86 749.545C370.184 745.997 375.352 744.866 381.631 746.484C390.466 748.804 399.554 749.097 408.642 748.512C416.91 747.966 424.555 745.353 431.498 741.024C436.237 738.041 439.767 733.966 441.97 728.662C447.158 716.066 443.16 698.127 431.517 689.196C426.681 685.491 421.162 682.293 415.487 680.051C410.514 678.068 405.302 676.664 399.964 675.227C397.535 674.574 395.081 673.913 392.611 673.187C386.448 659.655 377.185 648.658 361.31 643.783C369.931 635.461 374.905 625.529 379.876 615.605C380.123 615.111 380.37 614.618 380.617 614.125C380.921 613.526 381.222 612.921 381.523 612.312C383.138 609.058 384.784 605.74 387.15 603.128C403.513 585.072 423.249 576.355 447.002 581.952C448.728 583.801 450.341 585.651 451.916 587.457C455.288 591.324 458.484 594.988 462.233 598.019C478.459 611.2 497.414 617.479 518.282 618.356C529.378 618.805 540.065 616.738 550.752 614.066C562.922 611.025 573.121 604.863 581.546 595.601C582.457 594.56 583.39 593.54 584.288 592.557C584.601 592.215 584.91 591.878 585.212 591.545C600.034 593.573 614.426 594.138 628.916 591.194C644.693 587.996 658.618 581.191 670.885 570.837C675.409 566.976 679.972 563.545 685.96 561.77C690.62 560.386 695.165 557.656 699.046 554.614C706.749 548.589 710.727 540.848 707.178 530.747C707.059 530.377 707.164 529.908 707.281 529.389C707.336 529.143 707.394 528.885 707.431 528.622C708.5 528.363 709.563 528.117 710.622 527.871C712.597 527.413 714.557 526.959 716.5 526.438C722.565 524.839 728.123 522.168 732.881 517.995C740.799 511.053 743.802 502.181 740.936 492.198C738.907 485.178 735.397 478.549 730.229 472.991C721.122 463.164 710.24 456.047 697.505 452.069C692.726 450.565 687.821 449.443 682.794 448.293C680.456 447.758 678.092 447.217 675.702 446.629C675.27 445.992 674.839 445.305 674.393 444.596C673.53 443.222 672.615 441.766 671.548 440.428C660.919 427.013 648.126 415.996 633.597 407.065C617.332 397.082 599.546 392.129 580.512 392.539C566.101 392.87 552.195 396.282 538.895 401.859C534.088 403.876 529.329 406.049 524.349 408.323C522.299 409.26 520.211 410.213 518.067 411.18C500.028 403.595 480.955 402.152 461.277 407.845C459.756 393.514 459.386 380.098 464.008 367.56C469.098 365.182 473.564 363.115 477.991 361.087C494.353 374.483 513.367 378.363 533.279 375.73C553.268 373.098 570.995 364.421 585.232 349.231C586.492 349.231 587.753 349.248 589.014 349.265C591.812 349.303 594.606 349.34 597.362 349.192C598.79 349.119 600.218 349.053 601.644 348.987C607.834 348.7 614.003 348.414 620.121 347.574C631.022 346.092 641.534 343.226 650.739 336.596C661.641 328.738 667.472 309.746 657.974 296.331C649.861 284.846 640.228 275.194 627.298 269.149C626.239 268.641 625.231 268.041 624.193 267.423C623.797 267.187 623.397 266.949 622.988 266.712C623.339 252.126 615.772 241.695 606.235 232.179C596.582 222.586 585.583 215.995 570.996 217.223C570.236 215.626 569.488 214.081 568.755 212.569C567.118 209.188 565.559 205.97 564.131 202.697C558.943 190.9 551.806 180.585 541.118 173.156C526.57 163.016 510.149 161.554 493.163 163.562C481.754 164.888 470.697 167.774 459.912 171.713C455.466 173.351 451.156 173.37 446.671 171.966C441.893 170.484 437.056 169.178 432.161 168.086C419.485 165.22 406.574 164.303 393.82 166.76C371.646 171.05 356.454 184.66 345.943 204.12C344.998 205.871 344.132 207.681 343.197 209.635C342.82 210.423 342.432 211.235 342.023 212.076C340.201 212.076 338.382 212.009 336.574 211.944C332.576 211.798 328.63 211.654 324.803 212.232C313.453 213.928 302.805 218.179 292.507 223.093C276.789 230.58 268.813 243.722 267.955 260.55C267.233 274.765 273.961 286.23 284.96 295.141C285.969 295.961 286.994 296.772 288.035 297.596C288.604 298.047 289.179 298.501 289.758 298.963C272.966 317.994 251.729 327.003 227.936 331.76C228.518 329.363 229.107 326.979 229.694 324.605C231.156 318.694 232.605 312.836 233.885 306.938C237.648 289.896 240.086 272.737 238.39 255.188C238.117 252.516 238.916 249.553 239.872 246.979C243.694 236.839 250.325 228.942 259.452 223.073L260.081 222.673C266.521 218.576 272.952 214.484 279.11 210.009C287.612 203.828 292.449 195.209 294.146 184.894C294.472 182.871 294.519 180.804 294.567 178.688C294.59 177.643 294.614 176.585 294.672 175.515C295.371 174.615 296.071 173.714 296.773 172.81C298.52 170.562 300.277 168.3 302.044 166.019C314.252 168.905 326.207 169.685 338.376 167.501C350.584 165.317 361.681 160.91 371.334 153.072C385.259 154.164 398.715 153.559 410.689 145.428C422.703 137.258 428.846 124.993 433.214 113.118C456.226 114.288 473.291 91.1234 473.564 72.4629C473.778 58.2287 464.456 46.9973 451.702 39.6657C443.14 34.7324 433.916 31.6516 424.243 29.9747C420.421 29.325 416.591 28.7752 412.888 28.2438C410.923 27.9617 408.994 27.6848 407.12 27.4008C406.099 25.4904 405.131 23.6162 404.18 21.7769C402.171 17.8905 400.242 14.16 398.072 10.5732C397.068 8.9153 395.972 7.39022 394.787 6ZM340.989 608.938C338.084 615.763 332.818 620.501 325.953 624.05C324.148 622.283 322.407 620.543 320.698 618.835C317.183 615.322 313.804 611.945 310.274 608.743C298.28 597.882 284.161 591.935 268.111 589.42C247.282 586.183 229.341 592.13 213.486 604.863C207.83 609.426 201.921 610.849 195.154 611.259C179.357 612.214 164.614 616.601 152.132 626.702C147.53 630.426 143.376 634.794 139.671 639.376C136.843 642.886 133.859 644.602 129.354 644.465C125.844 644.368 122.197 644.738 118.764 645.538C101.369 649.574 85.2601 656.34 71.7062 668.391C64.978 674.377 59.8685 681.65 56.5727 689.84C50.5076 704.932 52.8283 719.185 63.0278 732.016C63.7695 732.958 64.576 733.861 65.4629 734.853C65.952 735.4 66.4656 735.974 67.0062 736.598C45.7686 748.122 24.882 759.47 2.6692 771.54C2.91533 770.228 3.10634 769.095 3.27667 768.085C3.59221 766.214 3.83681 764.763 4.2294 763.37C15.1115 724.197 30.3815 686.837 50.4685 651.446C51.9702 648.794 53.8229 646.162 56.0266 644.095C64.9195 635.71 74.6315 628.359 86.2351 624.147C96.3208 620.466 106.447 616.89 116.577 613.313C126.407 609.841 136.242 606.368 146.048 602.796C160.674 597.473 174.053 590.2 185.832 579.592C202.428 564.617 221.813 555.082 244.377 552.196C266.277 549.369 288.081 550.305 309.981 551.845C318.855 552.489 327.435 549.934 335.743 546.971C347.971 542.622 358.775 535.642 369.365 528.291C370.093 527.772 370.83 527.261 371.634 526.703C372.1 526.38 372.587 526.042 373.109 525.678L373.114 525.68C374.692 526.615 376.27 527.551 378.296 528.739C377.687 529.647 377.097 530.524 376.521 531.38C375.141 533.43 373.842 535.36 372.563 537.299C363.748 550.734 357.566 565.358 352.281 580.47C348.888 590.102 344.948 599.54 340.989 608.938ZM121.668 571.258C120.376 571.654 118.923 572.095 117.068 572.67C117.797 571.191 118.489 569.785 119.157 568.429C121.043 564.598 122.737 561.158 124.537 557.558C134.854 557.129 143.629 553.444 149.675 544.865C155.311 536.831 158.49 527.998 157.437 517.469C158.337 517.196 159.249 516.925 160.165 516.654C161.67 516.207 163.189 515.757 164.692 515.285C174.092 512.36 182.965 508.382 190.454 501.791C207.947 486.387 205.08 462.676 185.442 450.587C175.827 444.679 165.062 442.826 154.024 442.202C151.361 442.06 148.698 442.098 145.827 442.14C144.388 442.161 142.897 442.183 141.328 442.183C141.542 441.439 141.706 440.763 141.856 440.145C142.159 438.899 142.406 437.882 142.888 436.996C150.533 422.606 159.251 409.035 171.556 398.076C176.014 394.107 180.371 390.038 184.729 385.97C186.473 384.342 188.216 382.714 189.966 381.093C193.65 377.691 197.313 374.267 201.108 370.721C203.621 368.373 206.191 365.971 208.864 363.485C222.83 360.986 235.997 355.376 249.396 349.667C257.532 346.201 265.753 342.698 274.293 339.833C280.787 345.527 286.501 351.61 289.251 360.151C293.463 373.293 294.009 386.786 293.327 400.436C293.288 401.372 280.143 459.498 244.494 460.863C244.355 458.03 244.254 455.238 244.154 452.476C243.93 446.267 243.71 440.214 243.089 434.208C241.744 421.904 237.687 410.497 229.126 401.196C226.396 398.252 223.198 395.697 219.882 393.416C216.723 391.252 210.365 389.672 209.488 394.508C209.375 395.11 210.396 396.36 211.979 398.299C217.268 404.78 228.839 418.956 225.401 442.339C221.325 470.203 211.613 493.914 195.719 516.084C186.534 528.934 176.003 540.594 165.101 551.962C159.953 557.325 153.966 561.38 146.438 563.213C141.219 564.511 136.137 566.305 131.061 568.097C128.74 568.916 126.42 569.735 124.088 570.506C123.305 570.754 122.521 570.996 121.668 571.258ZM353.529 442.729C344.714 450.256 338.805 458.991 340.619 470.964C339.104 472.177 337.627 473.307 336.201 474.399C332.906 476.92 329.879 479.235 327.28 481.902C324.647 484.535 322.404 487.967 321.234 491.437C318.952 498.399 319.771 505.282 325.271 510.683C327.428 512.826 329.854 514.691 332.409 516.655C333.62 517.586 334.86 518.539 336.114 519.555C335.748 519.818 335.383 520.121 335.008 520.431C334.244 521.065 333.442 521.73 332.525 522.148C324.686 525.736 316.553 528.466 307.836 528.252C302.799 528.12 297.771 527.882 292.743 527.643C287.299 527.384 281.854 527.125 276.399 527.004C275.139 526.975 273.88 526.945 272.619 526.915C255.792 526.512 238.914 526.109 222.222 529.519C221.829 529.602 221.399 529.584 220.773 529.557C220.374 529.54 219.896 529.519 219.297 529.519C220.233 527.784 220.916 526.477 221.637 525.19C226.903 515.753 233.631 507.427 240.905 499.51C242.777 497.443 245.059 495.552 247.516 494.187C254.381 490.385 261.285 486.582 268.442 483.404C288.12 474.688 301.03 459.947 308.655 440.097C310.274 435.943 312.517 431.927 315.032 428.261C318.64 422.957 322.482 417.692 326.831 413.013C329.659 409.951 333.423 407.592 337.108 405.564C339.675 404.149 342.396 403.006 345.115 401.863C347.23 400.974 349.344 400.086 351.384 399.071C355.869 396.848 360.199 394.332 364.431 391.72C375.703 384.797 380.773 374.151 382.099 361.399C382.25 359.903 382.506 358.416 382.805 356.681C382.97 355.724 383.148 354.692 383.328 353.541C385.598 355.184 387.791 356.878 389.96 358.553C397.519 364.39 404.782 370 413.966 372.455C414.197 373.872 414.388 375.294 414.578 376.715C414.983 379.732 415.387 382.739 416.169 385.656C418.529 394.489 422.858 402.444 428.3 409.776C429.948 411.955 431.46 414.253 432.997 416.588C433.715 417.678 434.439 418.777 435.184 419.876C433.466 421.326 431.789 422.737 430.133 424.131C427.089 426.692 424.115 429.194 421.084 431.771C408.544 430.542 395.712 429.665 382.86 430.874C371.939 431.888 362.012 435.436 353.529 442.729ZM188.041 261.539C187.341 260.998 186.602 260.427 185.812 259.809C184.779 233.583 171.888 216.677 146.321 210.009C146.063 208.103 145.82 206.25 145.58 204.432C145.186 201.43 144.803 198.52 144.39 195.618C140.841 171.108 126.565 155.724 103.553 147.963C99.2625 146.54 94.7575 145.799 90.1745 147.086C88.6571 147.525 87.1033 147.809 85.445 148.113C84.6737 148.255 83.8798 148.4 83.0564 148.567C82.9531 146.072 82.8518 143.603 82.7506 141.137C82.5267 135.683 82.3035 130.244 82.0617 124.564C85.5517 125.083 89.0992 125.602 92.6853 126.127C96.9145 126.745 101.197 127.372 105.503 128.016C124.557 145.955 125.2 146.306 159.797 158.551C159.864 159.025 159.923 159.529 159.983 160.051C160.096 161.032 160.217 162.076 160.421 163.094C160.657 164.309 160.854 165.537 161.051 166.764C161.538 169.792 162.024 172.816 163.092 175.632C169.743 193.24 176.939 210.633 188.64 225.666C191.546 229.43 194.783 232.979 198.176 236.332C209.332 247.525 214.656 260.94 214.87 276.754C215.182 301.888 206.27 323.337 189.81 341.841C184.967 346.372 180.408 350.498 176.077 354.418C159.546 369.38 146.323 381.348 133.235 401.372C130.001 399.565 129.217 396.701 128.42 393.792L128.359 393.572C126.164 385.792 127.639 378.125 129.104 370.517L129.159 370.232C130.037 365.825 131.402 361.418 133.176 357.304C137.681 346.852 138.578 336.265 134.815 325.014C145.638 324.799 155.896 323.181 166.018 320.47C173.897 318.364 181.249 315.108 188.152 310.721C193.477 307.309 197.611 302.804 200.263 296.974C205.626 285.177 200.439 271.801 192.599 265.171C191.193 263.973 189.729 262.842 188.041 261.539ZM320.61 395.249C319.947 371.909 316.67 349.758 303.936 329.927C306.363 326.824 308.671 323.855 311.007 320.85C312.444 319.002 313.891 317.14 315.383 315.225C324.626 317.808 334.326 318.242 344.116 318.68C347.112 318.814 350.117 318.948 353.119 319.144C361.388 329.869 366.985 341.549 366.049 355.257C365.23 367.404 359.848 376.978 348.127 382.263C341.909 385.063 335.755 388.011 329.413 391.049C326.526 392.432 323.599 393.834 320.61 395.249ZM98.0631 400.131C98.011 400.762 97.9549 401.443 97.8973 402.191C79.0584 397.433 61.4287 397.394 44.5205 407.299C43.0664 406.631 41.5969 405.955 40.1179 405.273C37.1933 403.926 34.2316 402.562 31.2786 401.216C31.1226 396.77 32.7803 393.748 35.452 391.213C43.7989 383.257 53.4524 378.09 65.3096 377.934C71.0626 373.995 72.1937 370.875 70.0486 364.889C69.4331 363.169 68.8144 361.452 68.1964 359.738C67.287 357.214 66.3791 354.695 65.4851 352.176C64.4204 349.172 63.3885 346.157 62.2914 342.952C61.9215 341.871 61.5442 340.769 61.1556 339.638C70.7701 337.785 80.2286 335.992 91.0521 333.944C99.3405 335.348 104.411 341.354 106.244 350.772C107.473 357.031 107.375 362.881 104.704 368.847C100.94 377.329 98.5994 386.279 98.3459 395.678C98.3173 397.048 98.2052 398.407 98.0631 400.131ZM220.565 223.482C197.728 210.867 187.216 189.535 179.981 164.401C190.785 166.077 200.731 166.623 210.911 164.147C211.152 164.743 211.415 165.311 211.67 165.864C212.116 166.831 212.542 167.755 212.803 168.71C214.87 176.451 219.98 181.462 227.078 184.602C240.652 190.549 254.635 191.699 268.969 187.936C269.421 187.816 269.883 187.76 270.69 187.662C271.064 187.616 271.513 187.562 272.069 187.487C267.935 191.928 263.415 194.901 259.031 197.786C257.831 198.575 256.642 199.358 255.473 200.162C251.938 202.595 248.334 204.938 244.733 207.28C242.535 208.71 240.337 210.139 238.156 211.588C233.849 214.459 229.575 217.362 225.095 220.406C223.611 221.415 222.103 222.439 220.565 223.482ZM120.574 765.644C118.888 765.47 117.108 765.285 115.196 765.047C116.533 764.012 117.773 763.009 118.961 762.047C121.377 760.092 123.581 758.309 125.961 756.779C130.495 753.929 135.273 751.454 140.037 748.987L140.314 748.843C144.8 746.504 149.031 746.816 153.926 748.902C165.92 753.972 178.148 758.768 190.61 762.61C196.068 764.28 201.793 765.072 207.526 765.865C210.294 766.248 213.063 766.631 215.806 767.114C217.096 767.329 218.377 767.634 219.948 768.008C220.8 768.211 221.738 768.434 222.807 768.674C222.181 769.28 221.671 769.802 221.228 770.255C220.374 771.129 219.769 771.748 219.063 772.223C207.654 780.198 194.822 780.237 181.97 777.858C171.017 775.821 160.133 773.449 149.241 771.075C142.718 769.654 136.192 768.231 129.647 766.88C126.786 766.287 123.858 765.984 120.574 765.644ZM43.4036 593.797C42.954 593.948 42.5007 594.1 42.0437 594.256C34.7695 583.648 27.6707 573.294 20.455 562.765C20.6881 562.819 20.9362 562.874 21.1946 562.931C22.0385 563.118 22.9915 563.329 23.8874 563.642C37.6362 568.205 51.5802 570.447 66.1092 568.517C69.4227 568.076 72.8185 568.184 76.3282 568.296C77.9413 568.348 79.5784 568.4 81.2427 568.4C80.8475 569.214 80.4755 569.997 80.1148 570.757C79.2829 572.509 78.5113 574.134 77.6543 575.712C74.9436 580.704 71.2576 584.155 65.4071 585.696C61.1931 586.812 57.1331 588.472 53.0727 590.132C51.1764 590.908 49.28 591.683 47.3678 592.403C46.0793 592.901 44.758 593.344 43.4036 593.797ZM394.999 563.871C393.078 564.87 391.095 565.901 389.003 566.937C392.806 554.614 398.169 544.845 407.94 538.703C411.499 541.412 414.918 544.018 418.298 546.594C420.807 548.507 423.294 550.403 425.803 552.313C423.891 552.895 421.958 553.441 420.021 553.989C415.657 555.223 411.27 556.463 407.043 558.124C403.003 559.71 399.147 561.715 394.999 563.871ZM441.19 379.452C440.76 384.131 440.322 388.894 438.402 393.65C433.292 386.786 431.849 379.942 430.991 372.455C432.04 371.459 433.131 370.434 434.256 369.376C435.18 368.508 436.128 367.617 437.095 366.703C438.987 367.131 440.781 367.521 443.082 368.048C441.898 371.758 441.547 375.577 441.19 379.452Z" fill="#130237"/>
<path fill-rule="evenodd" clip-rule="evenodd" d="M760.526 322.231C691.994 322.231 641.247 385.937 656.57 452.733L667.868 501.987L989.494 501.987L1000.97 453.39C1016.77 386.422 965.971 322.231 897.162 322.231L760.526 322.231Z" fill="url(#paint0_linear_743_273)"/>
<path fill-rule="evenodd" clip-rule="evenodd" d="M789.085 328.967C726.539 338.294 685.797 399.683 701.5 460.94L712.022 501.987L961.971 501.987L971.685 458.058C985.034 397.692 944.424 338.659 883.276 329.541L834.258 322.231L789.085 328.967Z" fill="url(#paint1_linear_743_273)"/>
<path fill-rule="evenodd" clip-rule="evenodd" d="M832.835 322.229C789.055 336.542 760.049 378.122 761.734 424.152L764.584 501.987L901.086 501.987L903.936 424.152C905.622 378.122 876.616 336.542 832.835 322.229Z" fill="url(#paint2_linear_743_273)"/>
<path d="M626.297 509.986C626.297 505.568 629.878 501.986 634.297 501.986L1030.59 501.986C1035.01 501.986 1038.59 505.568 1038.59 509.986L1038.59 837.844L626.297 837.844L626.297 509.986Z" fill="#AA86F8"/>
<g style="mix-blend-mode:multiply">
<path d="M626.297 509.986C626.297 505.568 629.878 501.986 634.297 501.986L1030.59 501.986C1035.01 501.986 1038.59 505.568 1038.59 509.986L1038.59 837.844L626.297 837.844L626.297 509.986Z" fill="url(#paint3_linear_743_273)"/>
</g>
<path d="M838.495 921.228C968.631 921.228 1074.89 880.344 1081.39 828.935C1081.73 826.196 1079.46 823.945 1076.7 823.945L600.288 823.945C597.527 823.945 595.256 826.196 595.603 828.935C602.096 880.344 708.36 921.228 838.495 921.228Z" fill="#AA86F8"/>
<g style="mix-blend-mode:multiply">
<path d="M838.495 921.228C968.63 921.228 1074.89 880.344 1081.39 828.935C1081.73 826.196 1079.46 823.945 1076.7 823.945L600.288 823.945C597.526 823.945 595.256 826.196 595.602 828.935C602.096 880.344 708.359 921.228 838.495 921.228Z" fill="url(#paint4_linear_743_273)"/>
</g>
<path fill-rule="evenodd" clip-rule="evenodd" d="M722.814 174.975C719.456 217.162 714.215 280.156 709.005 334.551C706.316 362.622 703.635 388.417 701.223 407.885C700.017 417.616 698.877 425.787 697.834 431.879C697.312 434.923 696.811 437.472 696.334 439.449C695.874 441.352 695.388 442.935 694.837 443.875C694.218 444.929 693.206 446.084 691.955 447.297C690.683 448.529 689.081 449.9 687.209 451.379C683.463 454.339 678.564 457.79 672.895 461.52C661.555 468.982 647.058 477.611 632.385 485.736C617.713 493.86 602.839 501.493 590.74 506.957C584.694 509.688 579.317 511.889 574.993 513.337C572.832 514.061 570.91 514.605 569.285 514.932C568.268 515.137 566.386 515.154 564.867 515.093C568.402 513.638 571.865 511.871 575.248 509.682C579.254 508.28 584.14 506.263 589.63 503.783C601.637 498.36 616.44 490.765 631.069 482.665C645.698 474.565 660.128 465.974 671.39 458.564C677.022 454.857 681.843 451.459 685.493 448.575C687.319 447.132 688.834 445.832 690.005 444.697C691.196 443.543 691.953 442.634 692.336 441.98C692.586 441.554 692.969 440.474 693.436 438.544C693.885 436.686 694.369 434.231 694.884 431.227C695.912 425.221 697.044 417.118 698.247 407.409C700.652 387.995 703.33 362.242 706.017 334.182C711.15 280.589 716.314 218.634 719.677 176.479C720.739 175.973 721.784 175.472 722.814 174.975Z" fill="#FECFFE" fill-opacity="0.5"/>
<path fill-rule="evenodd" clip-rule="evenodd" d="M791.065 116.503C793.531 103.045 797.231 37.1585 798.772 8H569.98C569.98 86.055 555.336 100.522 502.157 135.008C489.819 143.009 479.804 148.456 471.698 152.866C444.867 167.461 438.958 170.676 438.958 217.436C438.958 228.948 439.024 239.595 439.089 249.861C439.365 293.89 439.597 330.908 434.333 399.116C427.769 484.187 386.593 510.169 359.431 527.309C354.904 530.166 350.766 532.777 347.242 535.376C328.01 549.557 318.353 562.095 314 575H401.272C402.476 571.673 404.11 568.105 406.11 564.364C412.015 553.322 421.243 540.549 432.566 527.681C455.203 501.953 486.423 475.608 516.718 461.836C531.206 455.249 540.746 440.94 547.113 421.864C553.485 402.775 556.603 379.131 558.353 354.269C559.557 337.159 560.109 319.57 560.643 302.555C560.885 294.839 561.124 287.241 561.417 279.859C562.356 256.289 563.86 234.884 567.927 219.286C576.173 187.655 599.919 174.897 625.48 164.928C629.927 163.194 634.419 161.547 638.906 159.903L638.908 159.902L638.908 159.902L638.908 159.902C647.418 156.783 655.908 153.671 664.04 149.979C676.416 144.359 687.722 137.491 696.531 127.479C710.632 111.452 717.571 88.2426 720.956 65.7217C724.167 44.3638 724.151 23.8584 724.142 11.1038C724.141 10.4265 724.14 9.77109 724.14 9.13855H727.146C727.146 9.77871 727.146 10.4433 727.147 11.1313C727.157 23.8804 727.174 44.643 723.919 66.297C720.492 89.0906 713.405 113.131 698.656 129.894C689.433 140.377 677.698 147.455 665.155 153.151C656.935 156.883 648.263 160.062 639.687 163.206C635.225 164.843 630.788 166.469 626.455 168.159C600.926 178.115 578.59 190.405 570.808 220.256C566.86 235.399 565.36 256.405 564.42 280.014C564.129 287.327 563.891 294.888 563.65 302.583L563.65 302.585C563.114 319.637 562.558 337.356 561.349 354.541C559.592 379.491 556.449 403.524 549.923 423.075C543.393 442.639 533.398 457.931 517.834 465.007C488.022 478.56 457.133 504.59 434.691 530.096C423.473 542.846 414.419 555.405 408.678 566.138C406.998 569.281 405.612 572.247 404.54 575H440.241C455.741 554.362 473.767 543.081 488.172 535.376C503.637 527.102 518.81 524.765 533.284 522.536C555.597 519.099 576.25 515.918 593.76 491.638C622.629 451.607 628.443 304.912 628.443 304.912C628.443 304.912 628.443 217.436 700.12 185.474C778.498 150.524 787.674 135.008 791.065 116.503Z" fill="#FECFFE" fill-opacity="0.5"/>
<path fill-rule="evenodd" clip-rule="evenodd" d="M332.873 547.299C332.883 547.275 332.894 547.25 332.904 547.225C334.376 543.753 336.485 538.73 339.033 532.528C344.131 520.124 350.985 503.008 358.014 484.16C372.102 446.381 386.784 401.916 389.56 374.42C390.941 360.745 389.755 339.272 387.293 314.416C384.837 289.607 381.128 261.596 377.522 234.917C377.136 232.068 376.752 229.234 376.371 226.421L376.371 226.419C373.185 202.909 370.194 180.84 368.374 163.505C367.355 153.804 366.696 145.534 366.58 139.3C366.521 136.187 366.597 133.527 366.843 131.426C367.078 129.426 367.501 127.576 368.382 126.427C372.988 120.416 383.599 109.518 396.338 98.4398C409.066 87.3707 424.043 76.0107 437.451 69.0986C440.03 67.4229 444.13 65.3644 448.937 62.9511L448.937 62.9511L448.938 62.951C450.538 62.1476 452.216 61.3048 453.943 60.4238C460.974 56.8368 468.951 52.5483 476.221 47.5021C483.51 42.4436 489.975 36.7 494.075 30.2544C498.139 23.8669 499.846 16.8636 497.803 9.05613L500.684 8.08276C503.05 17.1259 500.991 25.2131 496.511 32.2558C492.067 39.2405 485.209 45.2667 477.788 50.4172C470.349 55.58 462.231 59.9398 455.174 63.5399C453.361 64.465 451.627 65.3358 449.995 66.155C445.211 68.5572 441.31 70.5162 438.885 72.1012C438.843 72.1286 438.8 72.1537 438.756 72.1764C425.633 78.9303 410.836 90.1326 398.165 101.152C385.484 112.181 375.058 122.916 370.648 128.67C370.402 128.991 370.051 129.924 369.822 131.877C369.605 133.729 369.528 136.191 369.584 139.227C369.698 145.291 370.342 153.428 371.358 163.1C373.172 180.373 376.154 202.38 379.342 225.907C379.723 228.717 380.107 231.55 380.492 234.398C384.098 261.071 387.815 289.147 390.28 314.034C392.739 338.874 393.97 360.703 392.546 374.809C389.712 402.874 374.842 447.786 360.781 485.493C353.734 504.389 346.864 521.543 341.756 533.973C340.458 537.133 339.273 539.987 338.228 542.488C336.321 544.109 334.538 545.712 332.873 547.299Z" fill="#FECFFE" fill-opacity="0.5"/>
<path d="M597.743 621.296H563.269V586.731C563.269 583.676 562.058 580.745 559.903 578.584C557.748 576.424 554.825 575.21 551.778 575.21H264.491C261.444 575.21 258.521 576.424 256.366 578.584C254.211 580.745 253 583.676 253 586.731V817.16C253 841.605 262.686 865.049 279.926 882.335C297.167 899.62 320.55 909.331 344.932 909.331H471.338C495.719 909.331 519.102 899.62 536.343 882.335C553.584 865.049 563.269 841.605 563.269 817.16V805.638H597.743C622.125 805.638 645.508 795.927 662.749 778.642C679.989 761.357 689.675 737.912 689.675 713.467C689.675 689.022 679.989 665.577 662.749 648.292C645.508 631.007 622.125 621.296 597.743 621.296ZM646.467 762.318C633.549 775.286 616.024 782.579 597.743 782.596H563.269V644.338H597.743C611.371 644.351 624.69 648.411 636.018 656.008C647.345 663.605 656.173 674.397 661.387 687.021C666.6 699.645 667.965 713.535 665.31 726.937C662.655 740.338 656.098 752.65 646.467 762.318Z" fill="#F98E6C"/>
<g style="mix-blend-mode:multiply">
<path d="M597.743 621.296H563.269V586.731C563.269 583.676 562.058 580.745 559.903 578.584C557.748 576.424 554.825 575.21 551.778 575.21H264.491C261.444 575.21 258.521 576.424 256.366 578.584C254.211 580.745 253 583.676 253 586.731V817.16C253 841.605 262.686 865.049 279.926 882.335C297.167 899.62 320.55 909.331 344.932 909.331H471.338C495.719 909.331 519.102 899.62 536.343 882.335C553.584 865.049 563.269 841.605 563.269 817.16V805.638H597.743C622.125 805.638 645.508 795.927 662.749 778.642C679.989 761.357 689.675 737.912 689.675 713.467C689.675 689.022 679.989 665.577 662.749 648.292C645.508 631.007 622.125 621.296 597.743 621.296ZM646.467 762.318C633.549 775.286 616.024 782.579 597.743 782.596H563.269V644.338H597.743C611.371 644.351 624.69 648.411 636.018 656.008C647.345 663.605 656.173 674.397 661.387 687.021C666.6 699.645 667.965 713.535 665.31 726.937C662.655 740.338 656.098 752.65 646.467 762.318Z" fill="url(#paint5_linear_743_273)"/>
</g>
<path fill-rule="evenodd" clip-rule="evenodd" d="M1344 -82H-96V1018H1344V-82ZM139 6C69.9644 6 14 61.9644 14 131V909H1234V131C1234 61.9644 1178.04 6 1109 6H139Z" fill="#F7F3FF"/>
<g style="mix-blend-mode:multiply">
<path fill-rule="evenodd" clip-rule="evenodd" d="M1237.5 912.5H10.5V131C10.5 60.0314 68.0314 2.5 139 2.5H1109C1179.97 2.5 1237.5 60.0314 1237.5 131V912.5ZM139 6C69.9644 6 14 61.9644 14 131V909H1234V131C1234 61.9644 1178.04 6 1109 6H139Z" fill="#F7F3FF"/>
</g>
</g>
<defs>
<linearGradient id="paint0_linear_743_273" x1="829.28" y1="322.231" x2="829.28" y2="750.277" gradientUnits="userSpaceOnUse">
<stop stop-color="#23D9B7"/>
<stop offset="1" stop-color="#1879B2"/>
</linearGradient>
<linearGradient id="paint1_linear_743_273" x1="834.257" y1="322.231" x2="834.257" y2="902.985" gradientUnits="userSpaceOnUse">
<stop stop-color="#23D9B7"/>
<stop offset="1" stop-color="#1879B2"/>
</linearGradient>
<linearGradient id="paint2_linear_743_273" x1="832.835" y1="419.407" x2="832.835" y2="902.983" gradientUnits="userSpaceOnUse">
<stop stop-color="#23D9B7"/>
<stop offset="1" stop-color="#1879B2"/>
</linearGradient>
<linearGradient id="paint3_linear_743_273" x1="497.691" y1="623.38" x2="1228.52" y2="629.379" gradientUnits="userSpaceOnUse">
<stop offset="0.30389" stop-color="#AA86F8" stop-opacity="0"/>
<stop offset="1" stop-color="#AA86F8"/>
</linearGradient>
<linearGradient id="paint4_linear_743_273" x1="443.562" y1="859.108" x2="1126.33" y2="859.108" gradientUnits="userSpaceOnUse">
<stop offset="0.30389" stop-color="#AA86F8" stop-opacity="0"/>
<stop offset="1" stop-color="#AA86F8"/>
</linearGradient>
<linearGradient id="paint5_linear_743_273" x1="116.789" y1="695.977" x2="729.737" y2="695.977" gradientUnits="userSpaceOnUse">
<stop stop-color="#F98E6C"/>
<stop offset="1" stop-color="#F98E6C" stop-opacity="0"/>
</linearGradient>
<clipPath id="clip0_743_273">
<rect width="1248" height="921" fill="white"/>
</clipPath>
</defs>
</svg>
