<svg width="219" viewBox="0 0 490 56" fill="none" xmlns="http://www.w3.org/2000/svg">
<path d="M0 8.689c0-1.212.21-2.344.632-3.397a9.223 9.223 0 0 1 1.896-2.764A8.144 8.144 0 0 1 5.292.71 8.18 8.18 0 0 1 8.69 0h8.688C21.17 0 24.75.737 28.12 2.212c3.37 1.421 6.293 3.396 8.768 5.924 2.527 2.475 4.502 5.397 5.924 8.767 1.474 3.37 2.212 6.951 2.212 10.742 0 3.792-.738 7.372-2.212 10.743-1.422 3.37-3.397 6.319-5.924 8.846-2.475 2.475-5.398 4.45-8.768 5.924-3.37 1.422-6.95 2.133-10.742 2.133H8.69a9.06 9.06 0 0 1-3.397-.632 9.222 9.222 0 0 1-2.764-1.896A9.222 9.222 0 0 1 .632 50 9.06 9.06 0 0 1 0 46.602V8.69Zm17.377 29.146c1.422 0 2.765-.264 4.028-.79 1.264-.527 2.344-1.238 3.239-2.133a9.325 9.325 0 0 0 2.212-3.238c.526-1.264.79-2.607.79-4.029 0-1.421-.264-2.738-.79-3.949a10.175 10.175 0 0 0-2.212-3.317 9.328 9.328 0 0 0-3.239-2.212 10.367 10.367 0 0 0-4.028-.79v20.458Zm24.328-10.269c0-2.106-.29-4.16-.869-6.16a24.361 24.361 0 0 0-2.448-5.767 24.379 24.379 0 0 0-3.792-4.897 28.24 28.24 0 0 0-4.818-3.87 2.103 2.103 0 0 0-.948-.237c-.421 0-.79.158-1.106.474-.263.263-.395.605-.395 1.027 0 .579.29 1.053.87 1.421 3.159 2.001 5.686 4.582 7.582 7.741 1.896 3.107 2.844 6.53 2.844 10.268 0 .58.131 1 .395 1.264.316.264.684.395 1.105.395.422 0 .79-.132 1.106-.395.316-.263.474-.684.474-1.264ZM20.853 5.687c0 .58.184 1.053.552 1.422.37.368.843.553 1.422.553.58 0 1.053-.185 1.422-.553.421-.369.632-.843.632-1.422 0-.58-.21-1.053-.632-1.422-.369-.421-.843-.632-1.422-.632s-1.053.211-1.422.632c-.368.369-.553.843-.553 1.422Zm-9.637 32.148c0 .421.132.79.395 1.105.316.317.685.474 1.106.474.421 0 .79-.157 1.106-.474.316-.315.474-.684.474-1.105V21.247c0-.42-.158-.79-.474-1.105-.316-.316-.685-.474-1.106-.474-.421 0-.79.158-1.106.474a1.675 1.675 0 0 0-.395 1.105v16.588ZM142.531 8.689c0-1.212.211-2.344.632-3.397a9.223 9.223 0 0 1 1.896-2.764A8.144 8.144 0 0 1 147.823.71 8.186 8.186 0 0 1 151.22 0h11.058c2.475 0 4.792.474 6.951 1.422 2.212.948 4.134 2.238 5.766 3.87a17.58 17.58 0 0 1 3.949 5.766c1.001 2.212 1.501 4.581 1.501 7.109 0 1.79-.237 3.475-.711 5.055a18.614 18.614 0 0 1-1.974 4.423c.842 1.37 1.5 2.87 1.974 4.503.474 1.58.711 3.238.711 4.976 0 2.527-.5 4.897-1.501 7.109a17.58 17.58 0 0 1-3.949 5.766c-1.632 1.632-3.554 2.922-5.766 3.87-2.159.948-4.476 1.422-6.951 1.422H151.22a9.066 9.066 0 0 1-3.397-.632 9.223 9.223 0 0 1-2.764-1.896A9.222 9.222 0 0 1 143.163 50a9.065 9.065 0 0 1-.632-3.397V8.69Zm16.667 10.268c0 .632.21 1.185.632 1.659a2.415 2.415 0 0 0 1.658.631c.632 0 1.159-.21 1.58-.631.474-.474.711-1.027.711-1.66 0-.631-.237-1.158-.711-1.579a2.026 2.026 0 0 0-1.58-.71c-.632 0-1.185.236-1.658.71-.422.421-.632.948-.632 1.58Zm0 17.377c0 .632.21 1.185.632 1.659a2.415 2.415 0 0 0 1.658.632c.632 0 1.159-.211 1.58-.632.474-.474.711-1.027.711-1.659 0-.632-.237-1.159-.711-1.58a2.026 2.026 0 0 0-1.58-.71c-.632 0-1.185.236-1.658.71-.422.422-.632.948-.632 1.58Zm17.93-19.826c0-.948-.185-2-.553-3.16a16.347 16.347 0 0 0-1.422-3.238c-.527-1-1.132-1.843-1.817-2.527-.684-.685-1.343-1.027-1.974-1.027-.422 0-.79.132-1.106.395-.264.263-.395.605-.395 1.027 0 .316.21.737.632 1.263.474.527.948 1.159 1.421 1.896a12.795 12.795 0 0 1 1.422 2.37c.474.895.711 1.895.711 3.001 0 .58.132 1 .395 1.264.316.263.685.395 1.106.395.421 0 .79-.132 1.106-.395.316-.263.474-.684.474-1.264Zm-13.744-10.82c0 .578.184 1.052.553 1.42.368.37.842.554 1.422.554.579 0 1.053-.185 1.421-.553.422-.369.632-.843.632-1.422 0-.58-.21-1.053-.632-1.422-.368-.421-.842-.632-1.421-.632-.58 0-1.054.211-1.422.632-.369.369-.553.843-.553 1.422Zm13.744 29.777c0-.948-.185-2-.553-3.16a16.349 16.349 0 0 0-1.422-3.238c-.527-1-1.132-1.843-1.817-2.527-.684-.685-1.343-1.027-1.974-1.027-.422 0-.79.131-1.106.395-.264.263-.395.605-.395 1.026 0 .316.21.738.632 1.264.474.527.948 1.159 1.421 1.896a12.798 12.798 0 0 1 1.422 2.37c.474.895.711 1.895.711 3.001 0 .58.132 1 .395 1.264.316.263.685.395 1.106.395.421 0 .79-.132 1.106-.395.316-.263.474-.685.474-1.264Z" fill="#240566"/>
<path fill-rule="evenodd" clip-rule="evenodd" d="M69.478 37.914a8.18 8.18 0 0 1 3.396.71 8.142 8.142 0 0 1 2.765 1.817 8.146 8.146 0 0 1 1.817 2.765 8.18 8.18 0 0 1 .71 3.396 8.18 8.18 0 0 1-.71 3.397 8.144 8.144 0 0 1-1.817 2.764 9.222 9.222 0 0 1-2.765 1.896 9.06 9.06 0 0 1-3.396.632H60a9.06 9.06 0 0 1-3.397-.632 9.22 9.22 0 0 1-2.764-1.896A9.22 9.22 0 0 1 51.943 50a9.06 9.06 0 0 1-.632-3.397V8.69c0-1.212.21-2.344.632-3.397a9.222 9.222 0 0 1 1.896-2.764A8.142 8.142 0 0 1 56.603.71 8.18 8.18 0 0 1 60 0h9.479a8.18 8.18 0 0 1 3.396.71 8.144 8.144 0 0 1 2.765 1.818 8.145 8.145 0 0 1 1.817 2.764 8.18 8.18 0 0 1 .71 3.397 8.18 8.18 0 0 1-.71 3.396 8.144 8.144 0 0 1-1.817 2.764 9.222 9.222 0 0 1-2.765 1.896 9.06 9.06 0 0 1-3.396.632h-.79v1.58h.79a8.18 8.18 0 0 1 3.396.71 8.145 8.145 0 0 1 2.765 1.817 8.145 8.145 0 0 1 1.817 2.765 8.18 8.18 0 0 1 .71 3.396 8.18 8.18 0 0 1-.71 3.397 8.145 8.145 0 0 1-1.817 2.764 9.222 9.222 0 0 1-2.765 1.896 9.061 9.061 0 0 1-3.396.632h-.79v1.58h.79Zm1.58-32.227c0 .58.184 1.053.553 1.422.368.368.842.553 1.421.553.58 0 1.053-.185 1.422-.553.421-.369.632-.843.632-1.422 0-.58-.21-1.053-.632-1.422-.368-.421-.842-.632-1.422-.632-.579 0-1.053.211-1.421.632-.369.369-.553.843-.553 1.422Zm0 18.72c0 .58.184 1.053.553 1.422.368.368.842.553 1.421.553.58 0 1.053-.185 1.422-.553.421-.369.632-.843.632-1.422 0-.58-.21-1.053-.632-1.422-.368-.421-.842-.632-1.422-.632-.579 0-1.053.21-1.421.632-.369.369-.553.843-.553 1.422Zm0 19.036c0 .579.184 1.053.553 1.422.368.368.842.552 1.421.552.58 0 1.053-.184 1.422-.552.421-.37.632-.843.632-1.422 0-.58-.21-1.053-.632-1.422-.368-.421-.842-.632-1.422-.632-.579 0-1.053.21-1.421.632-.369.369-.553.843-.553 1.422Zm11.894 3.16c0-.685.079-1.37.237-2.054.21-.685.448-1.37.71-2.054l9.084-25.118h-1.342a9.06 9.06 0 0 1-3.397-.632 9.223 9.223 0 0 1-2.764-1.896 9.22 9.22 0 0 1-1.896-2.764 9.06 9.06 0 0 1-.632-3.396c0-1.212.21-2.344.632-3.397a9.222 9.222 0 0 1 1.896-2.764A8.144 8.144 0 0 1 88.244.71 8.18 8.18 0 0 1 91.641 0h13.743c1.211 0 2.344.237 3.397.71a8.144 8.144 0 0 1 2.764 1.818 8.138 8.138 0 0 1 1.817 2.764 8.18 8.18 0 0 1 .711 3.397c0 .737-.105 1.448-.316 2.132-.158.632-.369 1.29-.632 1.975l-9.162 25.118h1.421c1.211 0 2.344.237 3.397.71a8.143 8.143 0 0 1 2.764 1.817 8.14 8.14 0 0 1 1.817 2.765 8.18 8.18 0 0 1 .711 3.396 8.18 8.18 0 0 1-.711 3.397 8.137 8.137 0 0 1-1.817 2.764 9.223 9.223 0 0 1-2.764 1.896 9.062 9.062 0 0 1-3.397.632H91.641a9.06 9.06 0 0 1-3.397-.632 9.223 9.223 0 0 1-2.764-1.896A9.22 9.22 0 0 1 83.584 50a9.06 9.06 0 0 1-.632-3.397Zm23.696-40.916c0 .58.184 1.053.553 1.422.369.368.843.553 1.422.553s1.053-.185 1.422-.553c.421-.369.631-.843.631-1.422 0-.58-.21-1.053-.631-1.422-.369-.421-.843-.632-1.422-.632s-1.053.211-1.422.632c-.369.369-.553.843-.553 1.422Zm0 37.756c0 .579.184 1.053.553 1.422.369.368.843.552 1.422.552s1.053-.184 1.422-.552c.421-.37.631-.843.631-1.422 0-.58-.21-1.053-.631-1.422-.369-.421-.843-.632-1.422-.632s-1.053.21-1.422.632c-.369.369-.553.843-.553 1.422Zm99.036-5.53c1.211 0 2.343.238 3.397.712a8.143 8.143 0 0 1 2.764 1.816 8.14 8.14 0 0 1 1.817 2.765 8.18 8.18 0 0 1 .711 3.396 8.18 8.18 0 0 1-.711 3.397 8.137 8.137 0 0 1-1.817 2.764 9.223 9.223 0 0 1-2.764 1.896 9.066 9.066 0 0 1-3.397.632h-9.478a9.062 9.062 0 0 1-3.397-.632 9.223 9.223 0 0 1-2.764-1.896A9.222 9.222 0 0 1 188.149 50a9.065 9.065 0 0 1-.632-3.397V8.69c0-1.212.211-2.344.632-3.397a9.223 9.223 0 0 1 1.896-2.764A8.144 8.144 0 0 1 192.809.71 8.183 8.183 0 0 1 196.206 0h9.478c1.211 0 2.343.237 3.397.71a8.144 8.144 0 0 1 2.764 1.818 8.138 8.138 0 0 1 1.817 2.764 8.18 8.18 0 0 1 .711 3.397 8.18 8.18 0 0 1-.711 3.396 8.137 8.137 0 0 1-1.817 2.764 9.223 9.223 0 0 1-2.764 1.896 9.066 9.066 0 0 1-3.397.632h-.79v1.58h.79c1.211 0 2.343.237 3.397.71a8.146 8.146 0 0 1 2.764 1.817 8.139 8.139 0 0 1 1.817 2.765 8.179 8.179 0 0 1 .711 3.396 8.179 8.179 0 0 1-.711 3.397 8.139 8.139 0 0 1-1.817 2.764 9.223 9.223 0 0 1-2.764 1.896 9.068 9.068 0 0 1-3.397.632h-.79v1.58h.79Zm1.58-32.226c0 .58.184 1.053.553 1.422.368.368.842.553 1.422.553.579 0 1.053-.185 1.421-.553.422-.369.632-.843.632-1.422 0-.58-.21-1.053-.632-1.422-.368-.421-.842-.632-1.421-.632-.58 0-1.054.211-1.422.632-.369.369-.553.843-.553 1.422Zm0 18.72c0 .58.184 1.053.553 1.422.368.368.842.553 1.422.553.579 0 1.053-.185 1.421-.553.422-.369.632-.843.632-1.422 0-.58-.21-1.053-.632-1.422-.368-.421-.842-.632-1.421-.632-.58 0-1.054.21-1.422.632-.369.369-.553.843-.553 1.422Zm0 19.036c0 .579.184 1.053.553 1.422.368.368.842.552 1.422.552.579 0 1.053-.184 1.421-.552.422-.37.632-.843.632-1.422 0-.58-.21-1.053-.632-1.422-.368-.421-.842-.632-1.421-.632-.58 0-1.054.21-1.422.632-.369.369-.553.843-.553 1.422ZM219.93 8.689c0-1.212.21-2.344.631-3.397a9.223 9.223 0 0 1 1.896-2.764A8.148 8.148 0 0 1 225.222.71 8.178 8.178 0 0 1 228.618 0h11.058c2.475 0 4.792.474 6.951 1.422 2.212.948 4.134 2.238 5.766 3.87a17.583 17.583 0 0 1 3.95 5.766c1 2.212 1.5 4.581 1.5 7.109 0 1.79-.237 3.475-.711 5.055a18.575 18.575 0 0 1-1.974 4.423 18.237 18.237 0 0 1 1.974 4.503c.474 1.58.711 3.238.711 4.976 0 2.527-.5 4.897-1.5 7.109a17.583 17.583 0 0 1-3.95 5.766c-1.632 1.632-3.554 2.922-5.766 3.87-2.159.948-4.476 1.422-6.951 1.422h-11.058a9.057 9.057 0 0 1-3.396-.632 9.228 9.228 0 0 1-2.765-1.896A9.222 9.222 0 0 1 220.561 50a9.065 9.065 0 0 1-.631-3.397V8.69Zm16.666 10.268c0 .632.21 1.185.632 1.659a2.419 2.419 0 0 0 1.658.631c.632 0 1.159-.21 1.58-.631.474-.474.711-1.027.711-1.66 0-.631-.237-1.158-.711-1.579a2.026 2.026 0 0 0-1.58-.71c-.631 0-1.184.236-1.658.71-.422.421-.632.948-.632 1.58Zm0 17.377c0 .632.21 1.185.632 1.659a2.418 2.418 0 0 0 1.658.632c.632 0 1.159-.211 1.58-.632.474-.474.711-1.027.711-1.659 0-.632-.237-1.159-.711-1.58a2.026 2.026 0 0 0-1.58-.71c-.631 0-1.184.236-1.658.71-.422.422-.632.948-.632 1.58Zm17.93-19.826c0-.948-.184-2-.553-3.16a16.347 16.347 0 0 0-1.422-3.238c-.526-1-1.132-1.843-1.817-2.527-.684-.685-1.342-1.027-1.974-1.027-.421 0-.79.132-1.106.395-.263.263-.395.605-.395 1.027 0 .316.211.737.632 1.263.474.527.948 1.159 1.422 1.896.526.685 1 1.475 1.421 2.37.474.895.711 1.895.711 3.001 0 .58.132 1 .395 1.264.316.263.685.395 1.106.395.421 0 .79-.132 1.106-.395.316-.263.474-.684.474-1.264Zm-13.744-10.82c0 .578.184 1.052.553 1.42.369.37.843.554 1.422.554s1.053-.185 1.422-.553c.421-.369.631-.843.631-1.422 0-.58-.21-1.053-.631-1.422-.369-.421-.843-.632-1.422-.632s-1.053.211-1.422.632c-.369.369-.553.843-.553 1.422Zm13.744 29.777c0-.948-.184-2-.553-3.16a16.349 16.349 0 0 0-1.422-3.238c-.526-1-1.132-1.843-1.817-2.527-.684-.685-1.342-1.027-1.974-1.027-.421 0-.79.131-1.106.395-.263.263-.395.605-.395 1.026 0 .316.211.738.632 1.264.474.527.948 1.159 1.422 1.896.526.685 1 1.474 1.421 2.37.474.895.711 1.895.711 3.001 0 .58.132 1 .395 1.264.316.263.685.395 1.106.395.421 0 .79-.132 1.106-.395.316-.263.474-.685.474-1.264Zm31.953 3.16a8.186 8.186 0 0 0-3.397-.711h-.79v-1.58h.79c1.211 0 2.343-.21 3.397-.632a9.223 9.223 0 0 0 2.764-1.896 8.139 8.139 0 0 0 1.817-2.764 8.179 8.179 0 0 0 .711-3.397 8.179 8.179 0 0 0-.711-3.396 8.139 8.139 0 0 0-1.817-2.765 8.146 8.146 0 0 0-2.764-1.816 8.186 8.186 0 0 0-3.397-.711h-.79v-1.58h.79c1.211 0 2.343-.21 3.397-.632a9.223 9.223 0 0 0 2.764-1.896 8.137 8.137 0 0 0 1.817-2.764 8.18 8.18 0 0 0 .711-3.396 8.18 8.18 0 0 0-.711-3.397 8.138 8.138 0 0 0-1.817-2.764A8.144 8.144 0 0 0 286.479.71 8.186 8.186 0 0 0 283.082 0h-9.478a8.183 8.183 0 0 0-3.397.71 8.144 8.144 0 0 0-2.764 1.818 9.223 9.223 0 0 0-1.896 2.764 9.065 9.065 0 0 0-.632 3.397v37.913c0 1.211.211 2.344.632 3.397a9.222 9.222 0 0 0 1.896 2.764 9.223 9.223 0 0 0 2.764 1.896 9.062 9.062 0 0 0 3.397.632h9.478c1.211 0 2.343-.21 3.397-.632a9.223 9.223 0 0 0 2.764-1.896A8.137 8.137 0 0 0 291.06 50a8.18 8.18 0 0 0 .711-3.397 8.18 8.18 0 0 0-.711-3.396 8.14 8.14 0 0 0-1.817-2.765 8.143 8.143 0 0 0-2.764-1.816Zm-1.264-31.516c-.369-.369-.553-.843-.553-1.422 0-.58.184-1.053.553-1.422.368-.421.842-.632 1.422-.632.579 0 1.053.211 1.421.632.422.369.632.843.632 1.422 0 .58-.21 1.053-.632 1.422-.368.368-.842.553-1.421.553-.58 0-1.054-.185-1.422-.553Zm0 18.72c-.369-.369-.553-.843-.553-1.422 0-.58.184-1.053.553-1.422.368-.421.842-.632 1.422-.632.579 0 1.053.21 1.421.632.422.369.632.843.632 1.422 0 .58-.21 1.053-.632 1.422-.368.368-.842.553-1.421.553-.58 0-1.054-.185-1.422-.553Zm1.422 19.588c-.58 0-1.054-.184-1.422-.552-.369-.37-.553-.843-.553-1.422 0-.58.184-1.053.553-1.422.368-.421.842-.632 1.422-.632.579 0 1.053.21 1.421.632.422.369.632.843.632 1.422s-.21 1.053-.632 1.422c-.368.368-.842.552-1.421.552Zm19.379 9.874a9.057 9.057 0 0 1-3.396-.632 9.215 9.215 0 0 1-2.765-1.896A9.222 9.222 0 0 1 297.959 50a9.065 9.065 0 0 1-.632-3.397V8.69c0-1.212.211-2.344.632-3.397a9.223 9.223 0 0 1 1.896-2.764A8.139 8.139 0 0 1 302.62.71 8.178 8.178 0 0 1 306.016 0h11.058c2.58 0 5.029.5 7.346 1.5 2.317 1.001 4.318 2.37 6.003 4.108 1.738 1.685 3.107 3.686 4.107 6.003a18.324 18.324 0 0 1 1.501 7.346c0 2.843-.579 5.555-1.738 8.136-1.158 2.58-2.817 4.66-4.976 6.24l5.529 8.925c.422.684.711 1.422.869 2.212.211.737.316 1.474.316 2.211a7.814 7.814 0 0 1-.711 3.239 9.322 9.322 0 0 1-1.816 2.764c-.79.79-1.738 1.422-2.844 1.896-1.053.474-2.212.71-3.475.71a8.589 8.589 0 0 1-4.266-1.105c-1.264-.737-2.29-1.817-3.08-3.239l-5.134-9.32v4.66a8.926 8.926 0 0 1-.711 3.555 8.827 8.827 0 0 1-1.817 2.922 9.215 9.215 0 0 1-2.765 1.896 9.057 9.057 0 0 1-3.396.632Zm7.978-35.544c0 .632.21 1.184.632 1.658a2.417 2.417 0 0 0 1.658.632c.632 0 1.159-.21 1.58-.632.474-.474.711-1.026.711-1.658 0-.632-.237-1.159-.711-1.58a2.026 2.026 0 0 0-1.58-.71c-.632 0-1.184.236-1.658.71-.422.421-.632.948-.632 1.58Zm18.325-2.449c0-.948-.211-2-.632-3.16a16.763 16.763 0 0 0-1.58-3.238c-.632-1-1.316-1.843-2.054-2.527-.684-.685-1.316-1.027-1.895-1.027-.422 0-.79.131-1.106.395-.263.263-.395.605-.395 1.027 0 .315.237.763.711 1.342.474.527 1 1.159 1.58 1.896a13.264 13.264 0 0 1 1.579 2.37 6.15 6.15 0 0 1 .711 2.922c0 .58.132 1 .395 1.264.316.263.685.395 1.106.395.421 0 .79-.132 1.106-.395.316-.263.474-.685.474-1.264ZM318.18 5.688c0 .578.184 1.052.553 1.42.369.37.842.554 1.422.554.579 0 1.053-.185 1.421-.553.422-.369.632-.843.632-1.422 0-.58-.21-1.053-.632-1.422-.368-.421-.842-.632-1.421-.632-.58 0-1.053.211-1.422.632-.369.369-.553.843-.553 1.422Zm-9.557 39.019c0 .42.131.79.395 1.105.315.316.684.474 1.105.474.422 0 .79-.158 1.106-.474.316-.316.474-.684.474-1.105v-2.844c0-.421-.158-.79-.474-1.106-.316-.316-.684-.474-1.106-.474-.421 0-.79.158-1.105.474a1.672 1.672 0 0 0-.395 1.106v2.844Zm20.773 1.342c.263.474.658.711 1.185.711.421 0 .79-.131 1.106-.395.368-.316.553-.684.553-1.105 0-.264-.079-.527-.237-.79l-5.213-8.452c-.316-.474-.711-.71-1.185-.71-.421 0-.816.157-1.185.473-.316.263-.474.632-.474 1.106 0 .316.079.58.237.79l5.213 8.372ZM381.885 50a8.18 8.18 0 0 0 .711-3.397V8.69a8.18 8.18 0 0 0-.711-3.397 8.148 8.148 0 0 0-4.581-4.581A8.178 8.178 0 0 0 373.908 0a8.186 8.186 0 0 0-3.397.71 8.144 8.144 0 0 0-2.764 1.818 9.223 9.223 0 0 0-1.896 2.764 9.065 9.065 0 0 0-.632 3.397v9.557l-6.082-12.875a9.63 9.63 0 0 0-3.238-3.87C354.477.5 352.845 0 351.002 0a8.18 8.18 0 0 0-3.397.71 8.134 8.134 0 0 0-2.764 1.818 9.223 9.223 0 0 0-1.896 2.764 9.065 9.065 0 0 0-.632 3.397v37.913c0 1.211.211 2.344.632 3.397a9.222 9.222 0 0 0 1.896 2.764 9.21 9.21 0 0 0 2.764 1.896 9.058 9.058 0 0 0 3.397.632c1.211 0 2.343-.21 3.396-.632a9.228 9.228 0 0 0 2.765-1.896A8.15 8.15 0 0 0 358.979 50a8.18 8.18 0 0 0 .711-3.397v-9.478l6.003 12.875c.737 1.527 1.817 2.79 3.239 3.791 1.474 1 3.133 1.5 4.976 1.5 1.211 0 2.343-.21 3.396-.631a9.228 9.228 0 0 0 2.765-1.896A8.135 8.135 0 0 0 381.885 50Zm-5.055-4.66a1.677 1.677 0 0 1-.395-1.106V9.163c0-.474-.079-.817-.237-1.027a3.694 3.694 0 0 0-.552-.711l-.474-.632c-.158-.263-.237-.606-.237-1.027 0-.58.158-1 .474-1.264a1.884 1.884 0 0 1 1.263-.474c.843 0 1.527.448 2.054 1.343.527.895.79 1.896.79 3.002v35.86c0 .42-.158.79-.474 1.106a1.517 1.517 0 0 1-1.106.473c-.421 0-.79-.158-1.106-.473Zm-14.138-19.747c-.685 0-1.185-.369-1.501-1.106l-7.662-16.271c-.21-.369-.5-.632-.869-.79a8.833 8.833 0 0 0-.948-.553 3.34 3.34 0 0 1-.868-.632c-.211-.263-.316-.685-.316-1.264 0-.474.184-.869.553-1.185.368-.316.816-.474 1.342-.474.632 0 1.264.29 1.896.87a6.037 6.037 0 0 1 1.659 1.974l8.056 17.061c.158.316.237.606.237.869 0 .421-.158.79-.474 1.106a1.672 1.672 0 0 1-1.105.395Zm-8.689 20.22a1.677 1.677 0 0 1-.395-1.105v-6.003c0-.422.132-.79.395-1.106.316-.316.685-.474 1.106-.474.421 0 .79.158 1.106.474.316.316.474.684.474 1.106v6.003c0 .42-.158.79-.474 1.105a1.517 1.517 0 0 1-1.106.474c-.421 0-.79-.158-1.106-.474ZM407.127 50a8.18 8.18 0 0 0 .711-3.397V8.69a8.18 8.18 0 0 0-.711-3.397 8.148 8.148 0 0 0-4.581-4.581A8.178 8.178 0 0 0 399.15 0a8.183 8.183 0 0 0-3.397.71 8.144 8.144 0 0 0-2.764 1.818 9.223 9.223 0 0 0-1.896 2.764 9.065 9.065 0 0 0-.632 3.397v37.913c0 1.211.211 2.344.632 3.397a9.222 9.222 0 0 0 1.896 2.764 9.223 9.223 0 0 0 2.764 1.896 9.062 9.062 0 0 0 3.397.632c1.211 0 2.343-.21 3.396-.632a9.228 9.228 0 0 0 2.765-1.896A8.135 8.135 0 0 0 407.127 50Zm-5.134-4.66a1.677 1.677 0 0 1-.395-1.106V9.163c0-.474-.079-.817-.237-1.027a3.66 3.66 0 0 0-.553-.711l-.473-.632c-.158-.263-.237-.606-.237-1.027 0-.58.158-1 .473-1.264.369-.316.79-.474 1.264-.474.843 0 1.527.448 2.054 1.343.527.895.79 1.896.79 3.002v35.86c0 .42-.158.79-.474 1.106a1.517 1.517 0 0 1-1.106.473c-.421 0-.79-.158-1.106-.473Zm23.064-10.348c2.37.895 5.056 1.343 8.057 1.343 0 .421-.184.79-.553 1.106-.368.316-.974.474-1.817.474h-6.318a8.18 8.18 0 0 0-3.397.71 8.133 8.133 0 0 0-2.764 1.817 9.224 9.224 0 0 0-1.896 2.765 9.065 9.065 0 0 0-.632 3.396c0 1.211.211 2.344.632 3.397a9.222 9.222 0 0 0 1.896 2.764 9.21 9.21 0 0 0 2.764 1.896 9.058 9.058 0 0 0 3.397.632h7.108c2.581 0 5.029-.448 7.346-1.343 2.317-.948 4.318-2.212 6.003-3.791a18 18 0 0 0 4.107-5.766c1.001-2.212 1.501-4.634 1.501-7.267 0-2.58-.421-4.976-1.264-7.188-.842-2.264-2.08-4.186-3.712-5.766-1.632-1.632-3.633-2.896-6.003-3.791-2.317-.948-4.976-1.422-7.978-1.422 0-.421.185-.79.553-1.106.369-.316.974-.474 1.817-.474h4.739c1.211 0 2.343-.21 3.397-.632a9.223 9.223 0 0 0 2.764-1.896 8.137 8.137 0 0 0 1.817-2.764 8.18 8.18 0 0 0 .711-3.396 8.18 8.18 0 0 0-.711-3.397 8.138 8.138 0 0 0-1.817-2.764A8.144 8.144 0 0 0 442.04.71 8.186 8.186 0 0 0 438.643 0h-5.529c-2.633 0-5.108.474-7.425 1.422a18.753 18.753 0 0 0-6.003 3.791c-1.685 1.58-3.027 3.502-4.028 5.766-1 2.212-1.501 4.608-1.501 7.188 0 2.633.421 5.055 1.264 7.267.843 2.211 2.08 4.133 3.712 5.766 1.633 1.58 3.607 2.843 5.924 3.791ZM440.618 7.11c-.369-.369-.553-.843-.553-1.422 0-.58.184-1.053.553-1.422.368-.421.842-.632 1.422-.632.579 0 1.053.211 1.421.632.422.369.632.843.632 1.422 0 .58-.21 1.053-.632 1.422-.368.368-.842.553-1.421.553-.58 0-1.054-.185-1.422-.553Zm6.003 24.328c.368 1.158.553 2.211.553 3.16 0 .578-.158 1-.474 1.263a1.676 1.676 0 0 1-1.106.395c-.421 0-.79-.132-1.106-.395-.263-.263-.395-.684-.395-1.264 0-1.106-.237-2.106-.711-3.001a12.852 12.852 0 0 0-1.421-2.37 14.786 14.786 0 0 0-1.422-1.896c-.421-.526-.632-.947-.632-1.263 0-.422.132-.764.395-1.027a1.675 1.675 0 0 1 1.106-.395c.632 0 1.29.342 1.974 1.027.685.684 1.29 1.527 1.817 2.527.579 1 1.053 2.08 1.422 3.239Zm-12.638-6.24c-.369-.369-.553-.843-.553-1.422 0-.58.184-1.053.553-1.422.369-.421.842-.632 1.422-.632.579 0 1.053.211 1.421.632.422.369.632.843.632 1.422 0 .58-.21 1.053-.632 1.422-.368.368-.842.553-1.421.553-.58 0-1.053-.185-1.422-.553Zm38.64 11.137c-3.002 0-5.687-.448-8.057-1.343-2.317-.948-4.291-2.211-5.924-3.791a16.214 16.214 0 0 1-3.712-5.766c-.843-2.212-1.264-4.634-1.264-7.267 0-2.58.5-4.976 1.501-7.188 1-2.264 2.343-4.186 4.028-5.766a18.753 18.753 0 0 1 6.003-3.791C467.515.474 469.99 0 472.623 0h5.529c1.211 0 2.343.237 3.396.71a8.139 8.139 0 0 1 2.765 1.818 8.138 8.138 0 0 1 1.817 2.764 8.18 8.18 0 0 1 .711 3.397 8.18 8.18 0 0 1-.711 3.396 8.137 8.137 0 0 1-1.817 2.764 9.215 9.215 0 0 1-2.765 1.896 9.057 9.057 0 0 1-3.396.632h-4.739c-.843 0-1.448.158-1.817.474-.368.316-.553.685-.553 1.106 3.002 0 5.661.474 7.978 1.422 2.37.895 4.371 2.159 6.003 3.791 1.632 1.58 2.87 3.502 3.712 5.766.843 2.212 1.264 4.608 1.264 7.188 0 2.633-.5 5.055-1.501 7.267a18 18 0 0 1-4.107 5.766c-1.685 1.58-3.686 2.843-6.003 3.791-2.317.895-4.765 1.343-7.346 1.343h-7.109a9.057 9.057 0 0 1-3.396-.632 9.228 9.228 0 0 1-2.765-1.896A9.237 9.237 0 0 1 455.878 50a9.065 9.065 0 0 1-.632-3.397c0-1.21.211-2.343.632-3.396a9.24 9.24 0 0 1 1.895-2.765 8.147 8.147 0 0 1 2.765-1.816 8.178 8.178 0 0 1 3.396-.711h6.319c.843 0 1.448-.158 1.817-.474.369-.316.553-.685.553-1.106Zm6.951-30.647c0 .58.184 1.053.553 1.422.368.368.842.553 1.421.553.58 0 1.054-.185 1.422-.553.422-.369.632-.843.632-1.422 0-.58-.21-1.053-.632-1.422-.368-.421-.842-.632-1.422-.632-.579 0-1.053.211-1.421.632-.369.369-.553.843-.553 1.422Zm7.109 28.91c0-.949-.185-2.002-.553-3.16a16.347 16.347 0 0 0-1.422-3.239c-.527-1-1.132-1.843-1.817-2.527-.684-.685-1.343-1.027-1.974-1.027-.422 0-.79.132-1.106.395-.264.263-.395.605-.395 1.027 0 .316.21.737.632 1.264.474.526.948 1.158 1.422 1.895.526.685 1 1.475 1.421 2.37.474.895.711 1.895.711 3.001 0 .58.132 1 .395 1.264.316.263.685.395 1.106.395.421 0 .79-.132 1.106-.395.316-.263.474-.684.474-1.264Zm-13.744-10.822c0 .58.184 1.053.553 1.422.368.368.842.553 1.422.553.579 0 1.053-.185 1.421-.553.422-.369.632-.843.632-1.422 0-.58-.21-1.053-.632-1.422-.368-.421-.842-.632-1.421-.632-.58 0-1.054.211-1.422.632-.369.369-.553.843-.553 1.422Z" fill="#240566"/></svg>