<svg width="274" height="25" viewBox="0 0 274 25" fill="none" xmlns="http://www.w3.org/2000/svg">
<path fill-rule="evenodd" clip-rule="evenodd" d="M11.5793 5.49463C11.5793 5.7251 11.4065 5.89801 11.2048 5.89801H11.1763C10.8305 5.89801 7.72129 6.01312 7.72129 9.64369C7.72129 9.84561 7.54851 10.0185 7.37575 9.98951C7.17422 9.98951 7.00168 9.8166 7.00168 9.61491C7.00168 5.98434 3.92101 5.86923 3.54671 5.86923C3.34518 5.86923 3.17241 5.69632 3.17241 5.49463C3.17241 5.29295 3.31619 5.14906 3.51772 5.12028H3.54671C3.89202 5.12028 7.00168 5.00516 7.00168 1.37459C7.00168 1.17291 7.17422 1 7.37575 1C7.57727 1 7.75004 1.17291 7.75004 1.37459C7.75004 5.00493 10.8597 5.12028 11.2048 5.12028C11.4065 5.12028 11.5793 5.29295 11.5793 5.49463ZM22.9318 13.4184C22.8742 13.3032 22.7317 13.2453 22.6173 13.2165C21.959 13.2165 16.3001 12.9861 16.3001 6.35278C16.3001 6.15116 16.1289 5.9781 15.9281 5.9781C15.7287 5.9781 15.5572 6.15116 15.5572 6.35278C15.5572 12.9861 9.89758 13.2165 9.26857 13.2165C9.18292 13.2165 9.09705 13.2453 9.03995 13.3032C8.9994 13.3235 8.97312 13.3582 8.95128 13.387C8.94225 13.399 8.93397 13.4099 8.92575 13.4184C8.86843 13.5338 8.86843 13.6778 8.92575 13.7933C8.98285 13.909 9.1256 13.9952 9.26857 13.9952H9.29712C9.95467 13.9952 15.5857 14.2261 15.5857 20.8587C15.5857 21.0603 15.757 21.2336 15.9576 21.2336C16.1576 21.2336 16.3287 21.0603 16.3287 20.8587C16.3287 14.2546 21.9595 13.9952 22.6175 13.9952C22.7603 13.9952 22.8745 13.909 22.9606 13.7933C23.0172 13.6778 23.0172 13.5341 22.9318 13.4184ZM7.88082 18.1241C7.5418 18.1241 4.49113 18.0088 4.49113 14.3818C4.49113 14.18 4.32162 14.0073 4.12414 14.0073C3.92642 14.0073 3.75691 14.1798 3.75691 14.3818C3.75691 18.0088 0.706242 18.1241 0.367227 18.1241H0.339015C0.141296 18.1528 0 18.2964 0 18.4981C0 18.6998 0.169507 18.8725 0.367227 18.8725C0.734453 18.8725 3.75691 18.9873 3.75691 22.6144C3.75691 22.8156 3.92642 22.9889 4.12414 22.9889C4.29365 23.0464 4.46315 22.8739 4.46315 22.6434C4.46315 19.0161 7.51382 18.9011 7.85284 18.9011H7.88105C8.07877 18.9011 8.24828 18.7286 8.24828 18.4981C8.24804 18.2964 8.07854 18.1241 7.88082 18.1241Z" fill="#AA86F8"/>
<path fill-rule="evenodd" clip-rule="evenodd" d="M26 3.92857C26 3.38095 26.0952 2.86905 26.2857 2.39286C26.5 1.91667 26.7857 1.5 27.1429 1.14286C27.5 0.785715 27.9167 0.511905 28.3929 0.321429C28.869 0.107143 29.381 0 29.9286 0H33.8571C35.5714 0 37.1905 0.333333 38.7143 1C40.2381 1.64286 41.5595 2.53572 42.6786 3.67857C43.8214 4.79762 44.7143 6.11905 45.3571 7.64286C46.0238 9.16667 46.3571 10.7857 46.3571 12.5C46.3571 14.2143 46.0238 15.8333 45.3571 17.3571C44.7143 18.881 43.8214 20.2143 42.6786 21.3571C41.5595 22.4762 40.2381 23.369 38.7143 24.0357C37.1905 24.6786 35.5714 25 33.8571 25H29.9286C29.381 25 28.869 24.9048 28.3929 24.7143C27.9167 24.5 27.5 24.2143 27.1429 23.8571C26.7857 23.5 26.5 23.0833 26.2857 22.6071C26.0952 22.131 26 21.619 26 21.0714V3.92857ZM33.8571 17.1071C34.5 17.1071 35.1071 16.9881 35.6786 16.75C36.25 16.5119 36.7381 16.1905 37.1429 15.7857C37.5714 15.381 37.9048 14.8929 38.1429 14.3214C38.381 13.75 38.5 13.1429 38.5 12.5C38.5 11.8571 38.381 11.2619 38.1429 10.7143C37.9048 10.1429 37.5714 9.64286 37.1429 9.21429C36.7381 8.78572 36.25 8.45238 35.6786 8.21429C35.1071 7.97619 34.5 7.85714 33.8571 7.85714V17.1071ZM44.8571 12.4643C44.8571 11.5119 44.7262 10.5833 44.4643 9.67857C44.2024 8.75 43.8333 7.88095 43.3571 7.07143C42.881 6.2619 42.3095 5.52381 41.6429 4.85714C40.9762 4.19048 40.25 3.60714 39.4643 3.10714C39.3214 3.03571 39.1786 3 39.0357 3C38.8452 3 38.6786 3.07143 38.5357 3.21429C38.4167 3.33333 38.3571 3.4881 38.3571 3.67857C38.3571 3.94048 38.4881 4.15476 38.75 4.32143C40.1786 5.22619 41.3214 6.39286 42.1786 7.82143C43.0357 9.22619 43.4643 10.7738 43.4643 12.4643C43.4643 12.7262 43.5238 12.9167 43.6429 13.0357C43.7857 13.1548 43.9524 13.2143 44.1429 13.2143C44.3333 13.2143 44.5 13.1548 44.6429 13.0357C44.7857 12.9167 44.8571 12.7262 44.8571 12.4643ZM35.4286 2.57143C35.4286 2.83333 35.5119 3.04762 35.6786 3.21429C35.8452 3.38095 36.0595 3.46429 36.3214 3.46429C36.5833 3.46429 36.7976 3.38095 36.9643 3.21429C37.1548 3.04762 37.25 2.83333 37.25 2.57143C37.25 2.30952 37.1548 2.09524 36.9643 1.92857C36.7976 1.7381 36.5833 1.64286 36.3214 1.64286C36.0595 1.64286 35.8452 1.7381 35.6786 1.92857C35.5119 2.09524 35.4286 2.30952 35.4286 2.57143ZM31.0714 17.1071C31.0714 17.2976 31.131 17.4643 31.25 17.6071C31.3929 17.75 31.5595 17.8214 31.75 17.8214C31.9405 17.8214 32.1071 17.75 32.25 17.6071C32.3929 17.4643 32.4643 17.2976 32.4643 17.1071V9.60714C32.4643 9.41667 32.3929 9.25 32.25 9.10714C32.1071 8.96429 31.9405 8.89286 31.75 8.89286C31.5595 8.89286 31.3929 8.96429 31.25 9.10714C31.131 9.25 31.0714 9.41667 31.0714 9.60714V17.1071ZM90.4462 3.92857C90.4462 3.38095 90.5415 2.86905 90.7319 2.39286C90.9462 1.91667 91.2319 1.5 91.5891 1.14286C91.9462 0.785715 92.3629 0.511905 92.8391 0.321429C93.3153 0.107143 93.8272 0 94.3748 0H99.3748C100.494 0 101.541 0.214286 102.518 0.642857C103.518 1.07143 104.387 1.65476 105.125 2.39286C105.887 3.13095 106.482 4 106.911 5C107.363 6 107.589 7.07143 107.589 8.21429C107.589 9.02381 107.482 9.78571 107.268 10.5C107.053 11.2143 106.756 11.881 106.375 12.5C106.756 13.119 107.053 13.7976 107.268 14.5357C107.482 15.25 107.589 16 107.589 16.7857C107.589 17.9286 107.363 19 106.911 20C106.482 21 105.887 21.869 105.125 22.6071C104.387 23.3452 103.518 23.9286 102.518 24.3571C101.541 24.7857 100.494 25 99.3748 25H94.3748C93.8272 25 93.3153 24.9048 92.8391 24.7143C92.3629 24.5 91.9462 24.2143 91.5891 23.8571C91.2319 23.5 90.9462 23.0833 90.7319 22.6071C90.5415 22.131 90.4462 21.619 90.4462 21.0714V3.92857ZM97.9819 8.57143C97.9819 8.85714 98.0772 9.10714 98.2677 9.32143C98.4819 9.5119 98.7319 9.60714 99.0177 9.60714C99.3034 9.60714 99.5415 9.5119 99.7319 9.32143C99.9462 9.10714 100.053 8.85714 100.053 8.57143C100.053 8.28571 99.9462 8.04762 99.7319 7.85714C99.5415 7.64286 99.3034 7.53571 99.0177 7.53571C98.7319 7.53571 98.4819 7.64286 98.2677 7.85714C98.0772 8.04762 97.9819 8.28571 97.9819 8.57143ZM97.9819 16.4286C97.9819 16.7143 98.0772 16.9643 98.2677 17.1786C98.4819 17.369 98.7319 17.4643 99.0177 17.4643C99.3034 17.4643 99.5415 17.369 99.7319 17.1786C99.9462 16.9643 100.053 16.7143 100.053 16.4286C100.053 16.1429 99.9462 15.9048 99.7319 15.7143C99.5415 15.5 99.3034 15.3929 99.0177 15.3929C98.7319 15.3929 98.4819 15.5 98.2677 15.7143C98.0772 15.9048 97.9819 16.1429 97.9819 16.4286ZM106.089 7.46429C106.089 7.03572 106.006 6.55952 105.839 6.03571C105.672 5.5119 105.458 5.02381 105.196 4.57143C104.958 4.11905 104.684 3.7381 104.375 3.42857C104.065 3.11905 103.768 2.96429 103.482 2.96429C103.291 2.96429 103.125 3.02381 102.982 3.14286C102.863 3.2619 102.803 3.41667 102.803 3.60714C102.803 3.75 102.899 3.94048 103.089 4.17857C103.303 4.41667 103.518 4.70238 103.732 5.03572C103.97 5.34524 104.184 5.70238 104.375 6.10714C104.589 6.5119 104.696 6.96429 104.696 7.46429C104.696 7.72619 104.756 7.91667 104.875 8.03571C105.018 8.15476 105.184 8.21429 105.375 8.21429C105.565 8.21429 105.732 8.15476 105.875 8.03571C106.018 7.91667 106.089 7.72619 106.089 7.46429ZM99.8748 2.57143C99.8748 2.83333 99.9581 3.04762 100.125 3.21429C100.291 3.38095 100.506 3.46429 100.768 3.46429C101.03 3.46429 101.244 3.38095 101.411 3.21429C101.601 3.04762 101.696 2.83333 101.696 2.57143C101.696 2.30952 101.601 2.09524 101.411 1.92857C101.244 1.7381 101.03 1.64286 100.768 1.64286C100.506 1.64286 100.291 1.7381 100.125 1.92857C99.9581 2.09524 99.8748 2.30952 99.8748 2.57143ZM106.089 16.0357C106.089 15.6071 106.006 15.131 105.839 14.6071C105.672 14.0833 105.458 13.5952 105.196 13.1429C104.958 12.6905 104.684 12.3095 104.375 12C104.065 11.6905 103.768 11.5357 103.482 11.5357C103.291 11.5357 103.125 11.5952 102.982 11.7143C102.863 11.8333 102.803 11.9881 102.803 12.1786C102.803 12.3214 102.899 12.5119 103.089 12.75C103.303 12.9881 103.518 13.2738 103.732 13.6071C103.97 13.9167 104.184 14.2738 104.375 14.6786C104.589 15.0833 104.696 15.5357 104.696 16.0357C104.696 16.2976 104.756 16.4881 104.875 16.6071C105.018 16.7262 105.184 16.7857 105.375 16.7857C105.565 16.7857 105.732 16.7262 105.875 16.6071C106.018 16.4881 106.089 16.2976 106.089 16.0357ZM58.9505 17.4643C58.4743 17.25 57.9624 17.1429 57.4148 17.1429H57.0576V16.4286H57.4148C57.9624 16.4286 58.4743 16.3333 58.9505 16.1429C59.4267 15.9286 59.8434 15.6429 60.2005 15.2857C60.5577 14.9286 60.8315 14.5119 61.0219 14.0357C61.2362 13.5595 61.3434 13.0476 61.3434 12.5C61.3434 11.9524 61.2362 11.4405 61.0219 10.9643C60.8315 10.4881 60.5577 10.0714 60.2005 9.71429C59.8434 9.35714 59.4267 9.08333 58.9505 8.89286C58.4743 8.67857 57.9624 8.57143 57.4148 8.57143H57.0576V7.85714H57.4148C57.9624 7.85714 58.4743 7.7619 58.9505 7.57143C59.4267 7.35714 59.8434 7.07143 60.2005 6.71429C60.5577 6.35714 60.8315 5.94048 61.0219 5.46429C61.2362 4.9881 61.3434 4.47619 61.3434 3.92857C61.3434 3.38095 61.2362 2.86905 61.0219 2.39286C60.8315 1.91667 60.5577 1.5 60.2005 1.14286C59.8434 0.785715 59.4267 0.511905 58.9505 0.321429C58.4743 0.107143 57.9624 0 57.4148 0H53.1291C52.5815 0 52.0695 0.107143 51.5934 0.321429C51.1172 0.511905 50.7005 0.785715 50.3434 1.14286C49.9862 1.5 49.7005 1.91667 49.4862 2.39286C49.2957 2.86905 49.2005 3.38095 49.2005 3.92857V21.0714C49.2005 21.619 49.2957 22.131 49.4862 22.6071C49.7005 23.0833 49.9862 23.5 50.3434 23.8571C50.7005 24.2143 51.1172 24.5 51.5934 24.7143C52.0695 24.9048 52.5815 25 53.1291 25H57.4148C57.9624 25 58.4743 24.9048 58.9505 24.7143C59.4267 24.5 59.8434 24.2143 60.2005 23.8571C60.5577 23.5 60.8315 23.0833 61.0219 22.6071C61.2362 22.131 61.3434 21.619 61.3434 21.0714C61.3434 20.5238 61.2362 20.0119 61.0219 19.5357C60.8315 19.0595 60.5577 18.6429 60.2005 18.2857C59.8434 17.9286 59.4267 17.6548 58.9505 17.4643ZM58.3791 3.21429C58.2124 3.04762 58.1291 2.83333 58.1291 2.57143C58.1291 2.30952 58.2124 2.09524 58.3791 1.92857C58.5457 1.7381 58.76 1.64286 59.0219 1.64286C59.2838 1.64286 59.4981 1.7381 59.6648 1.92857C59.8553 2.09524 59.9505 2.30952 59.9505 2.57143C59.9505 2.83333 59.8553 3.04762 59.6648 3.21429C59.4981 3.38095 59.2838 3.46429 59.0219 3.46429C58.76 3.46429 58.5457 3.38095 58.3791 3.21429ZM58.3791 11.6786C58.2124 11.5119 58.1291 11.2976 58.1291 11.0357C58.1291 10.7738 58.2124 10.5595 58.3791 10.3929C58.5457 10.2024 58.76 10.1071 59.0219 10.1071C59.2838 10.1071 59.4981 10.2024 59.6648 10.3929C59.8553 10.5595 59.9505 10.7738 59.9505 11.0357C59.9505 11.2976 59.8553 11.5119 59.6648 11.6786C59.4981 11.8452 59.2838 11.9286 59.0219 11.9286C58.76 11.9286 58.5457 11.8452 58.3791 11.6786ZM58.3791 20.2857C58.2124 20.119 58.1291 19.9048 58.1291 19.6429C58.1291 19.381 58.2124 19.1667 58.3791 19C58.5457 18.8095 58.76 18.7143 59.0219 18.7143C59.2838 18.7143 59.4981 18.8095 59.6648 19C59.8553 19.1667 59.9505 19.381 59.9505 19.6429C59.9505 19.9048 59.8553 20.119 59.6648 20.2857C59.4981 20.4524 59.2838 20.5357 59.0219 20.5357C58.76 20.5357 58.5457 20.4524 58.3791 20.2857ZM63.6143 20.1429C63.5429 20.4524 63.5071 20.7619 63.5071 21.0714C63.5071 21.619 63.6024 22.131 63.7929 22.6071C64.0071 23.0833 64.2929 23.5 64.65 23.8571C65.0071 24.2143 65.4238 24.5 65.9 24.7143C66.3762 24.9048 66.8881 25 67.4357 25H73.65C74.1976 25 74.7095 24.9048 75.1857 24.7143C75.6619 24.5 76.0786 24.2143 76.4357 23.8571C76.7929 23.5 77.0667 23.0833 77.2572 22.6071C77.4714 22.131 77.5786 21.619 77.5786 21.0714C77.5786 20.5238 77.4714 20.0119 77.2572 19.5357C77.0667 19.0595 76.7929 18.6429 76.4357 18.2857C76.0786 17.9286 75.6619 17.6548 75.1857 17.4643C74.7095 17.25 74.1976 17.1429 73.65 17.1429H73.0071L77.15 5.78571C77.2691 5.47619 77.3643 5.17857 77.4357 4.89286C77.531 4.58333 77.5786 4.26191 77.5786 3.92857C77.5786 3.38095 77.4714 2.86905 77.2572 2.39286C77.0667 1.91667 76.7929 1.5 76.4357 1.14286C76.0786 0.785715 75.6619 0.511905 75.1857 0.321429C74.7095 0.107143 74.1976 0 73.65 0H67.4357C66.8881 0 66.3762 0.107143 65.9 0.321429C65.4238 0.511905 65.0071 0.785715 64.65 1.14286C64.2929 1.5 64.0071 1.91667 63.7929 2.39286C63.6024 2.86905 63.5071 3.38095 63.5071 3.92857C63.5071 4.47619 63.6024 4.9881 63.7929 5.46429C64.0071 5.94048 64.2929 6.35714 64.65 6.71429C65.0071 7.07143 65.4238 7.35714 65.9 7.57143C66.3762 7.7619 66.8881 7.85714 67.4357 7.85714H68.0429L63.9357 19.2143C63.8167 19.5238 63.7095 19.8333 63.6143 20.1429ZM74.4714 3.21429C74.3048 3.04762 74.2214 2.83333 74.2214 2.57143C74.2214 2.30952 74.3048 2.09524 74.4714 1.92857C74.6381 1.7381 74.8524 1.64286 75.1143 1.64286C75.3762 1.64286 75.5905 1.7381 75.7571 1.92857C75.9476 2.09524 76.0429 2.30952 76.0429 2.57143C76.0429 2.83333 75.9476 3.04762 75.7571 3.21429C75.5905 3.38095 75.3762 3.46429 75.1143 3.46429C74.8524 3.46429 74.6381 3.38095 74.4714 3.21429ZM74.4714 20.2857C74.3048 20.119 74.2214 19.9048 74.2214 19.6429C74.2214 19.381 74.3048 19.1667 74.4714 19C74.6381 18.8095 74.8524 18.7143 75.1143 18.7143C75.3762 18.7143 75.5905 18.8095 75.7571 19C75.9476 19.1667 76.0429 19.381 76.0429 19.6429C76.0429 19.9048 75.9476 20.119 75.7571 20.2857C75.5905 20.4524 75.3762 20.5357 75.1143 20.5357C74.8524 20.5357 74.6381 20.4524 74.4714 20.2857ZM120.537 17.4643C120.061 17.25 119.549 17.1429 119.001 17.1429H118.644V16.4286H119.001C119.549 16.4286 120.061 16.3333 120.537 16.1429C121.013 15.9286 121.43 15.6429 121.787 15.2857C122.144 14.9286 122.418 14.5119 122.608 14.0357C122.822 13.5595 122.93 13.0476 122.93 12.5C122.93 11.9524 122.822 11.4405 122.608 10.9643C122.418 10.4881 122.144 10.0714 121.787 9.71429C121.43 9.35714 121.013 9.08333 120.537 8.89286C120.061 8.67857 119.549 8.57143 119.001 8.57143H118.644V7.85714H119.001C119.549 7.85714 120.061 7.7619 120.537 7.57143C121.013 7.35714 121.43 7.07143 121.787 6.71429C122.144 6.35714 122.418 5.94048 122.608 5.46429C122.822 4.9881 122.93 4.47619 122.93 3.92857C122.93 3.38095 122.822 2.86905 122.608 2.39286C122.418 1.91667 122.144 1.5 121.787 1.14286C121.43 0.785715 121.013 0.511905 120.537 0.321429C120.061 0.107143 119.549 0 119.001 0H114.715C114.168 0 113.656 0.107143 113.18 0.321429C112.703 0.511905 112.287 0.785715 111.93 1.14286C111.572 1.5 111.287 1.91667 111.072 2.39286C110.882 2.86905 110.787 3.38095 110.787 3.92857V21.0714C110.787 21.619 110.882 22.131 111.072 22.6071C111.287 23.0833 111.572 23.5 111.93 23.8571C112.287 24.2143 112.703 24.5 113.18 24.7143C113.656 24.9048 114.168 25 114.715 25H119.001C119.549 25 120.061 24.9048 120.537 24.7143C121.013 24.5 121.43 24.2143 121.787 23.8571C122.144 23.5 122.418 23.0833 122.608 22.6071C122.822 22.131 122.93 21.619 122.93 21.0714C122.93 20.5238 122.822 20.0119 122.608 19.5357C122.418 19.0595 122.144 18.6429 121.787 18.2857C121.43 17.9286 121.013 17.6548 120.537 17.4643ZM119.965 3.21429C119.799 3.04762 119.715 2.83333 119.715 2.57143C119.715 2.30952 119.799 2.09524 119.965 1.92857C120.132 1.7381 120.346 1.64286 120.608 1.64286C120.87 1.64286 121.084 1.7381 121.251 1.92857C121.442 2.09524 121.537 2.30952 121.537 2.57143C121.537 2.83333 121.442 3.04762 121.251 3.21429C121.084 3.38095 120.87 3.46429 120.608 3.46429C120.346 3.46429 120.132 3.38095 119.965 3.21429ZM119.965 11.6786C119.799 11.5119 119.715 11.2976 119.715 11.0357C119.715 10.7738 119.799 10.5595 119.965 10.3929C120.132 10.2024 120.346 10.1071 120.608 10.1071C120.87 10.1071 121.084 10.2024 121.251 10.3929C121.442 10.5595 121.537 10.7738 121.537 11.0357C121.537 11.2976 121.442 11.5119 121.251 11.6786C121.084 11.8452 120.87 11.9286 120.608 11.9286C120.346 11.9286 120.132 11.8452 119.965 11.6786ZM119.965 20.2857C119.799 20.119 119.715 19.9048 119.715 19.6429C119.715 19.381 119.799 19.1667 119.965 19C120.132 18.8095 120.346 18.7143 120.608 18.7143C120.87 18.7143 121.084 18.8095 121.251 19C121.442 19.1667 121.537 19.381 121.537 19.6429C121.537 19.9048 121.442 20.119 121.251 20.2857C121.084 20.4524 120.87 20.5357 120.608 20.5357C120.346 20.5357 120.132 20.4524 119.965 20.2857ZM125.728 2.39286C125.537 2.86905 125.442 3.38095 125.442 3.92857V21.0714C125.442 21.619 125.537 22.131 125.728 22.6071C125.942 23.0833 126.228 23.5 126.585 23.8571C126.942 24.2143 127.359 24.5 127.835 24.7143C128.311 24.9048 128.823 25 129.371 25H134.371C135.49 25 136.537 24.7857 137.514 24.3571C138.514 23.9286 139.383 23.3452 140.121 22.6071C140.883 21.869 141.478 21 141.906 20C142.359 19 142.585 17.9286 142.585 16.7857C142.585 16 142.478 15.25 142.264 14.5357C142.049 13.7976 141.752 13.119 141.371 12.5C141.752 11.881 142.049 11.2143 142.264 10.5C142.478 9.78571 142.585 9.02381 142.585 8.21429C142.585 7.07143 142.359 6 141.906 5C141.478 4 140.883 3.13095 140.121 2.39286C139.383 1.65476 138.514 1.07143 137.514 0.642857C136.537 0.214286 135.49 0 134.371 0H129.371C128.823 0 128.311 0.107143 127.835 0.321429C127.359 0.511905 126.942 0.785715 126.585 1.14286C126.228 1.5 125.942 1.91667 125.728 2.39286ZM133.264 9.32143C133.073 9.10714 132.978 8.85714 132.978 8.57143C132.978 8.28571 133.073 8.04762 133.264 7.85714C133.478 7.64286 133.728 7.53571 134.014 7.53571C134.299 7.53571 134.537 7.64286 134.728 7.85714C134.942 8.04762 135.049 8.28571 135.049 8.57143C135.049 8.85714 134.942 9.10714 134.728 9.32143C134.537 9.51191 134.299 9.60714 134.014 9.60714C133.728 9.60714 133.478 9.51191 133.264 9.32143ZM133.264 17.1786C133.073 16.9643 132.978 16.7143 132.978 16.4286C132.978 16.1429 133.073 15.9048 133.264 15.7143C133.478 15.5 133.728 15.3929 134.014 15.3929C134.299 15.3929 134.537 15.5 134.728 15.7143C134.942 15.9048 135.049 16.1429 135.049 16.4286C135.049 16.7143 134.942 16.9643 134.728 17.1786C134.537 17.369 134.299 17.4643 134.014 17.4643C133.728 17.4643 133.478 17.369 133.264 17.1786ZM140.835 6.03571C141.002 6.55952 141.085 7.03572 141.085 7.46429C141.085 7.72619 141.014 7.91667 140.871 8.03571C140.728 8.15476 140.561 8.21429 140.371 8.21429C140.18 8.21429 140.014 8.15476 139.871 8.03571C139.752 7.91667 139.692 7.72619 139.692 7.46429C139.692 6.96429 139.585 6.5119 139.371 6.10714C139.18 5.70238 138.966 5.34524 138.728 5.03572C138.514 4.70238 138.299 4.41667 138.085 4.17857C137.895 3.94048 137.799 3.75 137.799 3.60714C137.799 3.41667 137.859 3.2619 137.978 3.14286C138.121 3.02381 138.287 2.96429 138.478 2.96429C138.764 2.96429 139.061 3.11905 139.371 3.42857C139.68 3.7381 139.954 4.11905 140.192 4.57143C140.454 5.02381 140.668 5.5119 140.835 6.03571ZM135.121 3.21429C134.954 3.04762 134.871 2.83333 134.871 2.57143C134.871 2.30952 134.954 2.09524 135.121 1.92857C135.287 1.7381 135.502 1.64286 135.764 1.64286C136.026 1.64286 136.24 1.7381 136.406 1.92857C136.597 2.09524 136.692 2.30952 136.692 2.57143C136.692 2.83333 136.597 3.04762 136.406 3.21429C136.24 3.38095 136.026 3.46429 135.764 3.46429C135.502 3.46429 135.287 3.38095 135.121 3.21429ZM140.835 14.6071C141.002 15.131 141.085 15.6071 141.085 16.0357C141.085 16.2976 141.014 16.4881 140.871 16.6071C140.728 16.7262 140.561 16.7857 140.371 16.7857C140.18 16.7857 140.014 16.7262 139.871 16.6071C139.752 16.4881 139.692 16.2976 139.692 16.0357C139.692 15.5357 139.585 15.0833 139.371 14.6786C139.18 14.2738 138.966 13.9167 138.728 13.6071C138.514 13.2738 138.299 12.9881 138.085 12.75C137.895 12.5119 137.799 12.3214 137.799 12.1786C137.799 11.9881 137.859 11.8333 137.978 11.7143C138.121 11.5952 138.287 11.5357 138.478 11.5357C138.764 11.5357 139.061 11.6905 139.371 12C139.68 12.3095 139.954 12.6905 140.192 13.1429C140.454 13.5952 140.668 14.0833 140.835 14.6071ZM153.997 17.1429C154.544 17.1429 155.056 17.25 155.533 17.4643C156.009 17.6548 156.425 17.9286 156.783 18.2857C157.14 18.6429 157.414 19.0595 157.604 19.5357C157.818 20.0119 157.925 20.5238 157.925 21.0714C157.925 21.619 157.818 22.131 157.604 22.6071C157.414 23.0833 157.14 23.5 156.783 23.8571C156.425 24.2143 156.009 24.5 155.533 24.7143C155.056 24.9048 154.544 25 153.997 25H149.711C149.164 25 148.652 24.9048 148.175 24.7143C147.699 24.5 147.283 24.2143 146.925 23.8571C146.568 23.5 146.283 23.0833 146.068 22.6071C145.878 22.131 145.783 21.619 145.783 21.0714V3.92857C145.783 3.38095 145.878 2.86905 146.068 2.39286C146.283 1.91667 146.568 1.5 146.925 1.14286C147.283 0.785715 147.699 0.511905 148.175 0.321429C148.652 0.107143 149.164 0 149.711 0H153.997C154.544 0 155.056 0.107143 155.533 0.321429C156.009 0.511905 156.425 0.785715 156.783 1.14286C157.14 1.5 157.414 1.91667 157.604 2.39286C157.818 2.86905 157.925 3.38095 157.925 3.92857C157.925 4.47619 157.818 4.9881 157.604 5.46429C157.414 5.94048 157.14 6.35714 156.783 6.71429C156.425 7.07143 156.009 7.35714 155.533 7.57143C155.056 7.7619 154.544 7.85714 153.997 7.85714H153.64V8.57143H153.997C154.544 8.57143 155.056 8.67857 155.533 8.89286C156.009 9.08333 156.425 9.35714 156.783 9.71429C157.14 10.0714 157.414 10.4881 157.604 10.9643C157.818 11.4405 157.925 11.9524 157.925 12.5C157.925 13.0476 157.818 13.5595 157.604 14.0357C157.414 14.5119 157.14 14.9286 156.783 15.2857C156.425 15.6429 156.009 15.9286 155.533 16.1429C155.056 16.3333 154.544 16.4286 153.997 16.4286H153.64V17.1429H153.997ZM154.711 2.57143C154.711 2.83333 154.794 3.04762 154.961 3.21429C155.128 3.38095 155.342 3.46429 155.604 3.46429C155.866 3.46429 156.08 3.38095 156.247 3.21429C156.437 3.04762 156.533 2.83333 156.533 2.57143C156.533 2.30952 156.437 2.09524 156.247 1.92857C156.08 1.7381 155.866 1.64286 155.604 1.64286C155.342 1.64286 155.128 1.7381 154.961 1.92857C154.794 2.09524 154.711 2.30952 154.711 2.57143ZM154.711 11.0357C154.711 11.2976 154.794 11.5119 154.961 11.6786C155.128 11.8452 155.342 11.9286 155.604 11.9286C155.866 11.9286 156.08 11.8452 156.247 11.6786C156.437 11.5119 156.533 11.2976 156.533 11.0357C156.533 10.7738 156.437 10.5595 156.247 10.3929C156.08 10.2024 155.866 10.1071 155.604 10.1071C155.342 10.1071 155.128 10.2024 154.961 10.3929C154.794 10.5595 154.711 10.7738 154.711 11.0357ZM154.961 20.2857C155.128 20.4524 155.342 20.5357 155.604 20.5357C155.866 20.5357 156.08 20.4524 156.247 20.2857C156.437 20.119 156.533 19.9048 156.533 19.6429C156.533 19.381 156.437 19.1667 156.247 19C156.08 18.8095 155.866 18.7143 155.604 18.7143C155.342 18.7143 155.128 18.8095 154.961 19C154.794 19.1667 154.711 19.381 154.711 19.6429C154.711 19.9048 154.794 20.119 154.961 20.2857ZM162.831 24.7143C163.307 24.9048 163.819 25 164.367 25C164.914 25 165.426 24.9048 165.902 24.7143C166.378 24.5 166.795 24.2143 167.152 23.8571C167.509 23.4762 167.783 23.0357 167.974 22.5357C168.188 22.0357 168.295 21.5 168.295 20.9286V18.8214L170.617 23.0357C170.974 23.6786 171.438 24.1667 172.009 24.5C172.605 24.8333 173.248 25 173.938 25C174.509 25 175.033 24.8929 175.509 24.6786C176.009 24.4643 176.438 24.1786 176.795 23.8214C177.152 23.4405 177.426 23.0238 177.617 22.5714C177.831 22.0952 177.938 21.6071 177.938 21.1071C177.938 20.7738 177.89 20.4405 177.795 20.1071C177.724 19.75 177.593 19.4167 177.402 19.1071L174.902 15.0714C175.878 14.3571 176.628 13.4167 177.152 12.25C177.676 11.0833 177.938 9.85714 177.938 8.57143C177.938 7.40476 177.712 6.29762 177.259 5.25C176.807 4.20238 176.188 3.29762 175.402 2.53572C174.64 1.75 173.736 1.13095 172.688 0.678571C171.64 0.22619 170.533 0 169.367 0H164.367C163.819 0 163.307 0.107143 162.831 0.321429C162.355 0.511905 161.938 0.785715 161.581 1.14286C161.224 1.5 160.938 1.91667 160.724 2.39286C160.533 2.86905 160.438 3.38095 160.438 3.92857V21.0714C160.438 21.619 160.533 22.131 160.724 22.6071C160.938 23.0833 161.224 23.5 161.581 23.8571C161.938 24.2143 162.355 24.5 162.831 24.7143ZM168.259 9.67857C168.069 9.46429 167.974 9.21429 167.974 8.92857C167.974 8.64286 168.069 8.40476 168.259 8.21429C168.474 8 168.724 7.89286 169.009 7.89286C169.295 7.89286 169.533 8 169.724 8.21429C169.938 8.40476 170.045 8.64286 170.045 8.92857C170.045 9.21429 169.938 9.46429 169.724 9.67857C169.533 9.86905 169.295 9.96429 169.009 9.96429C168.724 9.96429 168.474 9.86905 168.259 9.67857ZM175.974 6.39286C176.164 6.91667 176.259 7.39286 176.259 7.82143C176.259 8.08333 176.188 8.27381 176.045 8.39286C175.902 8.51191 175.736 8.57143 175.545 8.57143C175.355 8.57143 175.188 8.51191 175.045 8.39286C174.926 8.27381 174.867 8.08333 174.867 7.82143C174.867 7.34524 174.759 6.90476 174.545 6.5C174.331 6.09524 174.093 5.7381 173.831 5.42857C173.569 5.09524 173.331 4.80952 173.117 4.57143C172.902 4.30953 172.795 4.10714 172.795 3.96429C172.795 3.77381 172.855 3.61905 172.974 3.5C173.117 3.38095 173.283 3.32143 173.474 3.32143C173.736 3.32143 174.021 3.47619 174.331 3.78571C174.664 4.09524 174.974 4.47619 175.259 4.92857C175.545 5.38095 175.783 5.86905 175.974 6.39286ZM170.117 3.21429C169.95 3.04762 169.867 2.83333 169.867 2.57143C169.867 2.30952 169.95 2.09524 170.117 1.92857C170.283 1.7381 170.498 1.64286 170.759 1.64286C171.021 1.64286 171.236 1.7381 171.402 1.92857C171.593 2.09524 171.688 2.30952 171.688 2.57143C171.688 2.83333 171.593 3.04762 171.402 3.21429C171.236 3.38095 171.021 3.46429 170.759 3.46429C170.498 3.46429 170.283 3.38095 170.117 3.21429ZM165.724 20.7143C165.605 20.5714 165.545 20.4048 165.545 20.2143V18.9286C165.545 18.7381 165.605 18.5714 165.724 18.4286C165.867 18.2857 166.033 18.2143 166.224 18.2143C166.414 18.2143 166.581 18.2857 166.724 18.4286C166.867 18.5714 166.938 18.7381 166.938 18.9286V20.2143C166.938 20.4048 166.867 20.5714 166.724 20.7143C166.581 20.8571 166.414 20.9286 166.224 20.9286C166.033 20.9286 165.867 20.8571 165.724 20.7143ZM175.474 21.1429C175.236 21.1429 175.057 21.0357 174.938 20.8214L172.581 17.0357C172.509 16.9405 172.474 16.8214 172.474 16.6786C172.474 16.4643 172.545 16.2976 172.688 16.1786C172.855 16.0357 173.033 15.9643 173.224 15.9643C173.438 15.9643 173.617 16.0714 173.759 16.2857L176.117 20.1071C176.188 20.2262 176.224 20.3452 176.224 20.4643C176.224 20.6548 176.14 20.8214 175.974 20.9643C175.831 21.0833 175.664 21.1429 175.474 21.1429ZM198.993 21.0714C198.993 21.619 198.886 22.131 198.671 22.6071C198.481 23.0833 198.207 23.5 197.85 23.8571C197.493 24.2143 197.076 24.5 196.6 24.7143C196.124 24.9048 195.612 25 195.064 25C194.231 25 193.481 24.7738 192.814 24.3214C192.171 23.869 191.683 23.2976 191.35 22.6071L188.636 16.7857V21.0714C188.636 21.619 188.528 22.131 188.314 22.6071C188.124 23.0833 187.85 23.5 187.493 23.8571C187.136 24.2143 186.719 24.5 186.243 24.7143C185.767 24.9048 185.255 25 184.707 25C184.159 25 183.647 24.9048 183.171 24.7143C182.695 24.5 182.278 24.2143 181.921 23.8571C181.564 23.5 181.278 23.0833 181.064 22.6071C180.874 22.131 180.778 21.619 180.778 21.0714V3.92857C180.778 3.38095 180.874 2.86905 181.064 2.39286C181.278 1.91667 181.564 1.5 181.921 1.14286C182.278 0.785715 182.695 0.511905 183.171 0.321429C183.647 0.107143 184.159 0 184.707 0C185.54 0 186.278 0.22619 186.921 0.678571C187.564 1.13095 188.052 1.71429 188.386 2.42857L191.136 8.25V3.92857C191.136 3.38095 191.231 2.86905 191.421 2.39286C191.636 1.91667 191.921 1.5 192.278 1.14286C192.636 0.785715 193.052 0.511905 193.528 0.321429C194.005 0.107143 194.517 0 195.064 0C195.612 0 196.124 0.107143 196.6 0.321429C197.076 0.511905 197.493 0.785715 197.85 1.14286C198.207 1.5 198.481 1.91667 198.671 2.39286C198.886 2.86905 198.993 3.38095 198.993 3.92857V21.0714ZM196.207 20C196.207 20.1905 196.267 20.3571 196.386 20.5C196.528 20.6429 196.695 20.7143 196.886 20.7143C197.076 20.7143 197.243 20.6429 197.386 20.5C197.528 20.3571 197.6 20.1905 197.6 20V3.78571C197.6 3.28572 197.481 2.83333 197.243 2.42857C197.005 2.02381 196.695 1.82143 196.314 1.82143C196.1 1.82143 195.909 1.89286 195.743 2.03572C195.6 2.15476 195.528 2.34524 195.528 2.60714C195.528 2.79762 195.564 2.95238 195.636 3.07143L195.85 3.35714C195.945 3.45238 196.028 3.55952 196.1 3.67857C196.171 3.77381 196.207 3.92857 196.207 4.14286V20ZM189.314 11.0714C189.457 11.4048 189.683 11.5714 189.993 11.5714C190.183 11.5714 190.35 11.5119 190.493 11.3929C190.636 11.25 190.707 11.0833 190.707 10.8929C190.707 10.7738 190.671 10.6429 190.6 10.5L186.957 2.78571C186.767 2.42857 186.517 2.13095 186.207 1.89286C185.921 1.63095 185.636 1.5 185.35 1.5C185.112 1.5 184.909 1.57143 184.743 1.71429C184.576 1.85714 184.493 2.03571 184.493 2.25C184.493 2.5119 184.54 2.70238 184.636 2.82143C184.755 2.94048 184.886 3.03571 185.028 3.10714C185.171 3.17857 185.314 3.26191 185.457 3.35714C185.624 3.42857 185.755 3.54762 185.85 3.71429L189.314 11.0714ZM185.886 20.2143C185.886 20.4048 185.945 20.5714 186.064 20.7143C186.207 20.8571 186.374 20.9286 186.564 20.9286C186.755 20.9286 186.921 20.8571 187.064 20.7143C187.207 20.5714 187.278 20.4048 187.278 20.2143V17.5C187.278 17.3095 187.207 17.1429 187.064 17C186.921 16.8571 186.755 16.7857 186.564 16.7857C186.374 16.7857 186.207 16.8571 186.064 17C185.945 17.1429 185.886 17.3095 185.886 17.5V20.2143ZM210.406 21.0714C210.406 21.619 210.299 22.131 210.085 22.6071C209.894 23.0833 209.62 23.5 209.263 23.8571C208.906 24.2143 208.489 24.5 208.013 24.7143C207.537 24.9048 207.025 25 206.477 25C205.93 25 205.418 24.9048 204.942 24.7143C204.465 24.5 204.049 24.2143 203.692 23.8571C203.335 23.5 203.049 23.0833 202.835 22.6071C202.644 22.131 202.549 21.619 202.549 21.0714V3.92857C202.549 3.38095 202.644 2.86905 202.835 2.39286C203.049 1.91667 203.335 1.5 203.692 1.14286C204.049 0.785715 204.465 0.511905 204.942 0.321429C205.418 0.107143 205.93 0 206.477 0C207.025 0 207.537 0.107143 208.013 0.321429C208.489 0.511905 208.906 0.785715 209.263 1.14286C209.62 1.5 209.894 1.91667 210.085 2.39286C210.299 2.86905 210.406 3.38095 210.406 3.92857V21.0714ZM207.585 20C207.585 20.1905 207.644 20.3571 207.763 20.5C207.906 20.6429 208.073 20.7143 208.263 20.7143C208.454 20.7143 208.62 20.6429 208.763 20.5C208.906 20.3571 208.977 20.1905 208.977 20V3.78571C208.977 3.28572 208.858 2.83333 208.62 2.42857C208.382 2.02381 208.073 1.82143 207.692 1.82143C207.477 1.82143 207.287 1.89286 207.12 2.03572C206.977 2.15476 206.906 2.34524 206.906 2.60714C206.906 2.79762 206.942 2.95238 207.013 3.07143L207.227 3.35714C207.323 3.45238 207.406 3.55952 207.477 3.67857C207.549 3.77381 207.585 3.92857 207.585 4.14286V20ZM221.835 16.4286C220.477 16.4286 219.263 16.2262 218.192 15.8214C217.144 15.3929 216.251 14.8214 215.513 14.1071C214.775 13.369 214.215 12.5 213.835 11.5C213.454 10.5 213.263 9.40476 213.263 8.21429C213.263 7.04762 213.489 5.96429 213.942 4.96429C214.394 3.94048 215.001 3.07143 215.763 2.35714C216.549 1.61905 217.454 1.04762 218.477 0.642857C219.525 0.214286 220.644 0 221.835 0H224.335C224.882 0 225.394 0.107143 225.87 0.321429C226.346 0.511905 226.763 0.785715 227.12 1.14286C227.477 1.5 227.751 1.91667 227.942 2.39286C228.156 2.86905 228.263 3.38095 228.263 3.92857C228.263 4.47619 228.156 4.9881 227.942 5.46429C227.751 5.94048 227.477 6.35714 227.12 6.71429C226.763 7.07143 226.346 7.35714 225.87 7.57143C225.394 7.7619 224.882 7.85714 224.335 7.85714H222.192C221.811 7.85714 221.537 7.92857 221.37 8.07143C221.204 8.21429 221.12 8.38095 221.12 8.57143C222.477 8.57143 223.68 8.78572 224.727 9.21429C225.799 9.61905 226.704 10.1905 227.442 10.9286C228.18 11.6429 228.739 12.5119 229.12 13.5357C229.501 14.5357 229.692 15.619 229.692 16.7857C229.692 17.9762 229.465 19.0714 229.013 20.0714C228.561 21.0714 227.942 21.9405 227.156 22.6786C226.394 23.3929 225.489 23.9643 224.442 24.3929C223.394 24.7976 222.287 25 221.12 25H217.906C217.358 25 216.846 24.9048 216.37 24.7143C215.894 24.5 215.477 24.2143 215.12 23.8571C214.763 23.5 214.477 23.0833 214.263 22.6071C214.073 22.131 213.977 21.619 213.977 21.0714C213.977 20.5238 214.073 20.0119 214.263 19.5357C214.477 19.0595 214.763 18.6429 215.12 18.2857C215.477 17.9286 215.894 17.6548 216.37 17.4643C216.846 17.25 217.358 17.1429 217.906 17.1429H220.763C221.144 17.1429 221.418 17.0714 221.585 16.9286C221.751 16.7857 221.835 16.619 221.835 16.4286ZM224.977 2.57143C224.977 2.83333 225.061 3.04762 225.227 3.21429C225.394 3.38095 225.608 3.46429 225.87 3.46429C226.132 3.46429 226.346 3.38095 226.513 3.21429C226.704 3.04762 226.799 2.83333 226.799 2.57143C226.799 2.30952 226.704 2.09524 226.513 1.92857C226.346 1.7381 226.132 1.64286 225.87 1.64286C225.608 1.64286 225.394 1.7381 225.227 1.92857C225.061 2.09524 224.977 2.30952 224.977 2.57143ZM228.192 15.6429C228.192 15.2143 228.108 14.7381 227.942 14.2143C227.775 13.6905 227.561 13.2024 227.299 12.75C227.061 12.2976 226.787 11.9167 226.477 11.6071C226.168 11.2976 225.87 11.1429 225.585 11.1429C225.394 11.1429 225.227 11.2024 225.085 11.3214C224.965 11.4405 224.906 11.5952 224.906 11.7857C224.906 11.9286 225.001 12.119 225.192 12.3571C225.406 12.5952 225.62 12.881 225.835 13.2143C226.073 13.5238 226.287 13.881 226.477 14.2857C226.692 14.6905 226.799 15.1429 226.799 15.6429C226.799 15.9048 226.858 16.0952 226.977 16.2143C227.12 16.3333 227.287 16.3929 227.477 16.3929C227.668 16.3929 227.835 16.3333 227.977 16.2143C228.12 16.0952 228.192 15.9048 228.192 15.6429ZM221.977 10.75C221.977 11.0119 222.061 11.2262 222.227 11.3929C222.394 11.5595 222.608 11.6429 222.87 11.6429C223.132 11.6429 223.346 11.5595 223.513 11.3929C223.704 11.2262 223.799 11.0119 223.799 10.75C223.799 10.4881 223.704 10.2738 223.513 10.1071C223.346 9.91667 223.132 9.82143 222.87 9.82143C222.608 9.82143 222.394 9.91667 222.227 10.1071C222.061 10.2738 221.977 10.4881 221.977 10.75ZM236.056 15.8214C237.127 16.2262 238.342 16.4286 239.699 16.4286C239.699 16.619 239.615 16.7857 239.449 16.9286C239.282 17.0714 239.008 17.1429 238.627 17.1429H235.77C235.222 17.1429 234.711 17.25 234.234 17.4643C233.758 17.6548 233.342 17.9286 232.984 18.2857C232.627 18.6429 232.342 19.0595 232.127 19.5357C231.937 20.0119 231.842 20.5238 231.842 21.0714C231.842 21.619 231.937 22.131 232.127 22.6071C232.342 23.0833 232.627 23.5 232.984 23.8571C233.342 24.2143 233.758 24.5 234.234 24.7143C234.711 24.9048 235.222 25 235.77 25H238.984C240.151 25 241.258 24.7976 242.306 24.3929C243.353 23.9643 244.258 23.3929 245.02 22.6786C245.806 21.9405 246.425 21.0714 246.877 20.0714C247.33 19.0714 247.556 17.9762 247.556 16.7857C247.556 15.619 247.365 14.5357 246.984 13.5357C246.603 12.5119 246.044 11.6429 245.306 10.9286C244.568 10.1905 243.663 9.61905 242.592 9.21429C241.544 8.78572 240.342 8.57143 238.984 8.57143C238.984 8.38095 239.068 8.21429 239.234 8.07143C239.401 7.92857 239.675 7.85714 240.056 7.85714H242.199C242.746 7.85714 243.258 7.7619 243.734 7.57143C244.211 7.35714 244.627 7.07143 244.984 6.71429C245.342 6.35714 245.615 5.94048 245.806 5.46429C246.02 4.9881 246.127 4.47619 246.127 3.92857C246.127 3.38095 246.02 2.86905 245.806 2.39286C245.615 1.91667 245.342 1.5 244.984 1.14286C244.627 0.785715 244.211 0.511905 243.734 0.321429C243.258 0.107143 242.746 0 242.199 0H239.699C238.508 0 237.389 0.214286 236.342 0.642857C235.318 1.04762 234.413 1.61905 233.627 2.35714C232.865 3.07143 232.258 3.94048 231.806 4.96429C231.353 5.96429 231.127 7.04762 231.127 8.21429C231.127 9.40476 231.318 10.5 231.699 11.5C232.08 12.5 232.639 13.369 233.377 14.1071C234.115 14.8214 235.008 15.3929 236.056 15.8214ZM243.092 3.21429C242.925 3.04762 242.842 2.83333 242.842 2.57143C242.842 2.30952 242.925 2.09524 243.092 1.92857C243.258 1.7381 243.472 1.64286 243.734 1.64286C243.996 1.64286 244.211 1.7381 244.377 1.92857C244.568 2.09524 244.663 2.30952 244.663 2.57143C244.663 2.83333 244.568 3.04762 244.377 3.21429C244.211 3.38095 243.996 3.46429 243.734 3.46429C243.472 3.46429 243.258 3.38095 243.092 3.21429ZM245.806 14.2143C245.972 14.7381 246.056 15.2143 246.056 15.6429C246.056 15.9048 245.984 16.0952 245.842 16.2143C245.699 16.3333 245.532 16.3929 245.342 16.3929C245.151 16.3929 244.984 16.3333 244.842 16.2143C244.722 16.0952 244.663 15.9048 244.663 15.6429C244.663 15.1429 244.556 14.6905 244.342 14.2857C244.151 13.881 243.937 13.5238 243.699 13.2143C243.484 12.881 243.27 12.5952 243.056 12.3571C242.865 12.119 242.77 11.9286 242.77 11.7857C242.77 11.5952 242.83 11.4405 242.949 11.3214C243.092 11.2024 243.258 11.1429 243.449 11.1429C243.734 11.1429 244.032 11.2976 244.342 11.6071C244.651 11.9167 244.925 12.2976 245.163 12.75C245.425 13.2024 245.639 13.6905 245.806 14.2143ZM240.092 11.3929C239.925 11.2262 239.842 11.0119 239.842 10.75C239.842 10.4881 239.925 10.2738 240.092 10.1071C240.258 9.91667 240.472 9.82143 240.734 9.82143C240.996 9.82143 241.211 9.91667 241.377 10.1071C241.568 10.2738 241.663 10.4881 241.663 10.75C241.663 11.0119 241.568 11.2262 241.377 11.3929C241.211 11.5595 240.996 11.6429 240.734 11.6429C240.472 11.6429 240.258 11.5595 240.092 11.3929Z" fill="#240566"/>
<path fill-rule="evenodd" clip-rule="evenodd" d="M262.421 5.49463C262.421 5.7251 262.593 5.89801 262.795 5.89801H262.824C263.17 5.89801 266.279 6.01312 266.279 9.64369C266.279 9.84561 266.451 10.0185 266.624 9.98951C266.826 9.98951 266.998 9.8166 266.998 9.61491C266.998 5.98434 270.079 5.86923 270.453 5.86923C270.655 5.86923 270.828 5.69632 270.828 5.49463C270.828 5.29295 270.684 5.14906 270.482 5.12028H270.453C270.108 5.12028 266.998 5.00516 266.998 1.37459C266.998 1.17291 266.826 1 266.624 1C266.423 1 266.25 1.17291 266.25 1.37459C266.25 5.00493 263.14 5.12028 262.795 5.12028C262.593 5.12028 262.421 5.29295 262.421 5.49463ZM251.068 13.4184C251.126 13.3032 251.268 13.2453 251.383 13.2165C252.041 13.2165 257.7 12.9861 257.7 6.35278C257.7 6.15116 257.871 5.9781 258.072 5.9781C258.271 5.9781 258.443 6.15116 258.443 6.35278C258.443 12.9861 264.102 13.2165 264.731 13.2165C264.817 13.2165 264.903 13.2453 264.96 13.3032C265.001 13.3235 265.027 13.3582 265.049 13.387C265.058 13.399 265.066 13.4099 265.074 13.4184C265.132 13.5338 265.132 13.6778 265.074 13.7933C265.017 13.909 264.874 13.9952 264.731 13.9952H264.703C264.045 13.9952 258.414 14.2261 258.414 20.8587C258.414 21.0603 258.243 21.2336 258.042 21.2336C257.842 21.2336 257.671 21.0603 257.671 20.8587C257.671 14.2546 252.04 13.9952 251.382 13.9952C251.24 13.9952 251.126 13.909 251.039 13.7933C250.983 13.6778 250.983 13.5341 251.068 13.4184ZM266.119 18.1241C266.458 18.1241 269.509 18.0088 269.509 14.3818C269.509 14.18 269.678 14.0073 269.876 14.0073C270.074 14.0073 270.243 14.1798 270.243 14.3818C270.243 18.0088 273.294 18.1241 273.633 18.1241H273.661C273.859 18.1528 274 18.2964 274 18.4981C274 18.6998 273.83 18.8725 273.633 18.8725C273.266 18.8725 270.243 18.9873 270.243 22.6144C270.243 22.8156 270.074 22.9889 269.876 22.9889C269.706 23.0464 269.537 22.8739 269.537 22.6434C269.537 19.0161 266.486 18.9011 266.147 18.9011H266.119C265.921 18.9011 265.752 18.7286 265.752 18.4981C265.752 18.2964 265.921 18.1241 266.119 18.1241Z" fill="#AA86F8"/>
</svg>
